<svg xmlns="http://www.w3.org/2000/svg" xmlns:xlink="http://www.w3.org/1999/xlink" width="256mm" height="362.332" viewBox="0 0 256 95.867"><defs><linearGradient id="a"><stop style="stop-color:#dcbb7c;stop-opacity:1" offset="0"/><stop style="stop-color:#c49558;stop-opacity:1" offset="1"/></linearGradient><linearGradient xlink:href="#a" id="d" x1="-25.209" y1="333.391" x2="214.443" y2="333.456" gradientUnits="userSpaceOnUse" gradientTransform="translate(29.877 -188.387) scale(.94488)"/><linearGradient xlink:href="#a" id="b" gradientUnits="userSpaceOnUse" x1="12.035" y1="78.844" x2="59.334" y2="97.082" gradientTransform="translate(213.78 -11.194)"/><linearGradient xlink:href="#a" id="c" x1="1865.912" y1="1245.262" x2="2024.159" y2="1128.085" gradientUnits="userSpaceOnUse" gradientTransform="translate(-37.15 -252.302) scale(.26458)"/></defs><g style="display:inline"><path style="fill:#dcbb7c;fill-opacity:1;stroke-width:.26458335" d="M320.663 36.967c-4.895.01-5.315.053-8.202.82-6.622 1.76-10.99 4.239-15.76 8.94-3.301 3.256-5.12 5.67-6.83 9.067-8.64 17.154-1.73 37.846 15.54 46.543 2.361 1.19 6.621 2.578 9.167 2.988 1.091.176 2.163.363 2.38.416.946.227 9.272-.153 10.716-.49 14.174-3.299 24.124-13.395 27.17-27.567.458-2.129.454-10.595-.005-12.7-1.597-7.32-4.527-12.802-9.564-17.895-4.033-4.078-8.535-6.894-13.648-8.536-4.553-1.463-5.484-1.598-10.964-1.586zm.265 12.176c3.52-.002 6.273.609 9.351 2.074 5.95 2.831 10.477 8.307 12.098 14.634 3.211 12.535-5.045 25.198-17.89 27.438-3.746.654-6.807.432-10.57-.766-9.116-2.9-15.479-11.61-15.479-21.189 0-10.443 7.508-19.628 17.86-21.849.872-.187 2.956-.341 4.63-.342z" transform="translate(-214.102 -34.049) scale(.94422)"/><path style="fill:url(#b);fill-opacity:1;stroke-width:.26458332" d="m226.885 37.182-.068 34.212-.067 34.213 13.561-.095 13.561-.096 2.284-.68c2.975-.885 4.947-1.802 6.944-3.228 3.724-2.66 5.926-5.902 7.57-11.145.748-2.385 1.047-9.854.534-13.349-.821-5.597-3.077-10.655-6.01-13.472-.472-.454-.601-.782-.47-1.19.1-.31.242-2.062.317-3.894.114-2.798.049-3.674-.41-5.49-1.716-6.784-6.806-12.093-13.832-14.424-3.636-1.207-5.28-1.358-14.786-1.36zm12.303 12.303h2.368c3.863 0 6.866.915 8.921 2.72 1.08.949 2.122 2.888 2.364 4.402l.173 1.08-.894-.061c-.491-.034-3.602-.096-6.913-.138l-6.02-.076v-3.964zm0 20.333 6.945.09c7.691.097 7.982.153 9.901 1.887 2.205 1.992 3.118 5.058 3.125 10.498.004 3.107-.094 4.138-.515 5.421-.7 2.14-2.576 4.068-4.772 4.908-1.462.559-2.107.616-8.136.725l-6.548.117V81.641z" transform="translate(-214.102 -34.049) scale(.94422)"/><path style="fill:url(#c);fill-opacity:1;stroke-width:.26458335" d="M462.673 36.88c-2.23.01-4.347.131-5.563.37-3.056.604-7.244 2.084-9.884 3.495-16.031 8.566-22.788 27.665-15.648 44.228 4.574 10.61 14.503 18.424 25.955 20.426 2.881.504 10.144.368 12.872-.241 6.913-1.544 12.463-4.58 17.407-9.525 5.005-5.005 8.06-10.652 9.576-17.695.661-3.07.644-10.3-.03-13.403-1.49-6.85-4.687-12.746-9.546-17.605-4.901-4.9-10.72-8.049-17.666-9.557-1.556-.337-4.607-.507-7.473-.494zm.39 12.232c2.238-.011 3.907.127 5.16.428 8.275 1.984 14.684 8.256 16.813 16.45.697 2.682.765 7.356.147 10.054-1.868 8.147-8.276 14.782-16.245 16.821-2.297.588-6.662.853-8.653.527-9.608-1.577-16.828-8.427-18.837-17.873-.611-2.872-.346-7.836.572-10.72 2.326-7.303 7.913-12.746 15.355-14.961 2.005-.597 2.903-.712 5.688-.726z" transform="translate(-214.102 -34.049) scale(.94422)"/><path style="fill:#d1aa6b;fill-opacity:1;stroke-width:.26458335" d="M369.892 36.06v68.517h12.171V78.119c0-14.552.09-26.459.2-26.459.11 0 2.224 1.002 4.697 2.227 4.672 2.314 8.673 4.78 12.631 7.783l2.316 1.757v41.15h12.435V38.166h-12.435v10.117l-.86-.644c-3.057-2.292-11.65-6.643-16.338-8.273-4.492-1.56-9.294-2.682-13.56-3.164z" transform="translate(-214.102 -34.049) scale(.94422)"/><path style="fill:#373735;fill-opacity:1;stroke-width:.25030851" d="M87.725 191.543c-3.745-.43-8.854-2.069-12.07-3.873-8.388-4.705-14.26-12.689-16.294-22.155-.649-3.018-.65-9.538-.003-12.64 1.948-9.33 7.328-16.87 15.545-21.782 7.239-4.327 16.34-5.619 24.56-3.485 5.92 1.537 11 4.511 15.303 8.96 4.674 4.833 7.414 10.094 8.754 16.807.566 2.836.546 8.853-.04 11.64-2.492 11.881-10.074 20.78-21.105 24.774-4.275 1.548-10.229 2.26-14.65 1.754zm8.444-5.286c3.46-.596 7.854-2.4 10.9-4.476 5.246-3.577 9.381-9.472 11.012-15.699 2.793-10.66-1.24-22.211-10.079-28.872-4.841-3.648-10.338-5.49-16.453-5.511-4.16-.015-7.202.57-10.954 2.104-5.914 2.42-11.44 7.787-14.228 13.82-1.845 3.993-2.472 6.97-2.452 11.635.02 4.811.818 8.221 2.882 12.328 1.97 3.917 5.755 8.138 9.491 10.583 5.782 3.784 13.012 5.27 19.88 4.088zm-7.397-1.015c-9.81-.89-18.628-7.685-22.015-16.964-1.229-3.368-1.555-5.276-1.563-9.146-.006-2.745.108-3.976.526-5.683 1.964-8.027 7.062-14.449 14.19-17.875 3.76-1.807 6.156-2.383 10.513-2.526 3.118-.102 4.163-.038 6.162.376 9.657 2.001 17.25 9.041 20.168 18.7.638 2.11.68 2.553.68 7.008 0 4.469-.04 4.892-.685 7.009-2.911 9.566-10.224 16.51-19.642 18.652-1.87.426-6.088.653-8.334.45zm6.98-5.355c8.115-1.668 14.759-8.311 16.427-16.426.486-2.367.505-6.277.041-8.459-.92-4.328-2.622-7.471-5.778-10.666-3.33-3.373-6.837-5.227-11.584-6.125-2-.379-6.912-.157-8.94.403-3.8 1.048-7.634 3.45-10.363 6.492-8.188 9.125-6.916 23.069 2.807 30.78 4.618 3.663 11.421 5.228 17.39 4.001zm126.959 11.65c-4.356-.53-8.026-1.661-11.656-3.592-8.799-4.681-14.773-12.73-16.924-22.805-.441-2.066-.43-9.758.016-12.015.85-4.29 2.459-8.178 4.92-11.89 5.11-7.706 12.866-12.711 22.142-14.29 2.578-.44 7.896-.388 10.653.103a32.72 32.72 0 0 1 17.906 9.622c5.243 5.484 8.083 11.625 8.999 19.459.804 6.885-1.223 14.757-5.477 21.265-1.484 2.27-6.418 7.204-8.688 8.688-2.226 1.455-5.22 2.96-7.565 3.803-4.012 1.441-10.198 2.155-14.326 1.652zm8.714-5.398c10.194-1.815 18.624-9.659 21.49-19.995.849-3.064 1.078-8.536.487-11.666-2.029-10.758-9.582-19.002-20.107-21.945-2.268-.633-2.792-.684-7.08-.68-4.305.002-4.807.052-7.134.704-9.803 2.747-17.274 10.44-19.653 20.236-.666 2.744-.892 7.003-.52 9.789 1.741 13.012 11.913 22.725 25.18 24.043 1.55.154 5.04-.077 7.337-.486zm-7.588-.905c-5.91-.473-11.176-2.867-15.627-7.103-3.689-3.51-6.14-7.637-7.462-12.564-.573-2.139-.651-2.909-.651-6.435 0-3.55.076-4.288.669-6.502 2.639-9.853 10.528-17.253 20.532-19.26 2.742-.55 7.455-.512 10.299.084 10.353 2.168 18.227 10.07 20.439 20.514.734 3.467.555 8.945-.397 12.148-1.894 6.366-5.437 11.245-10.722 14.761-5.176 3.445-10.744 4.865-17.08 4.357zm6.633-5.305c4.01-.853 7.339-2.584 10.29-5.352 8.976-8.424 8.932-22.694-.096-30.964-4.39-4.022-9.438-5.838-15.45-5.557-4.607.215-8.159 1.504-11.95 4.336-3.481 2.602-6.396 7-7.608 11.484-.762 2.821-.765 7.676-.005 10.513 2.078 7.757 8.38 13.803 16.184 15.524 1.992.439 6.605.447 8.635.016zM2.94 159.236v-32.31l9.199.107c8.333.097 9.387.157 11.201.633 6.551 1.72 11.064 5.157 13.71 10.44 1.665 3.327 2.322 7.91 1.614 11.259l-.369 1.747 1.158 1.3c2.347 2.636 3.927 5.968 4.835 10.19.442 2.062.547 3.383.554 7.043.01 5.398-.438 7.638-2.283 11.39-.988 2.008-1.522 2.727-3.436 4.63-2.591 2.576-4.554 3.744-7.93 4.722-3.371.977-6.159 1.16-17.605 1.16H2.94zm27.19 26.233c2.627-1.003 4.03-1.862 5.586-3.423 2.653-2.658 3.962-6.147 4.185-11.15.342-7.7-2.073-14.204-6.32-17.024-.746-.494-1.355-1.01-1.355-1.146 0-.136.226-.69.503-1.233.847-1.66 1.318-4.17 1.155-6.164-.492-6.042-4.849-10.885-11.386-12.656-1.62-.44-2.874-.536-8.232-.636l-6.32-.118v54.407l10.2-.088 10.2-.088zM9.199 168.92v-16.422h8.494c9.484 0 10.989.17 13.741 1.553 4.128 2.073 6.358 6.072 7.074 12.684.872 8.051-1.554 14.055-6.724 16.642-3.224 1.613-3.992 1.716-13.762 1.846l-8.823.118zm18.345 10.74c2.81-.732 4.591-2.403 5.474-5.135.432-1.337.523-2.229.51-5.006-.028-6.501-1.684-10.078-5.292-11.425-.933-.35-2.312-.445-7.586-.53l-6.445-.103v22.572h5.955c4.462 0 6.313-.093 7.384-.372zm1.554-27.852c-1.018-.32-2.988-.413-10.575-.494l-9.324-.1v-18.043l5.694.117c6.325.131 7.423.323 10.525 1.837 5.255 2.566 8.088 7.96 6.972 13.278-.418 1.993-1.263 3.857-1.732 3.823-.17-.013-.871-.2-1.56-.418zm-1.586-6.427c-.384-4.248-4.384-6.905-10.52-6.989l-2.662-.036v7.76l6.383.128c3.51.07 6.495.116 6.633.101.138-.014.212-.449.166-.964zm110.345 12.874v-32.29h.608c2.613 0 9.666 1.632 14.035 3.247 3.577 1.322 10.139 4.581 13.093 6.502 1.281.834 2.436 1.515 2.566 1.515.14 0 .236-1.943.236-4.755v-4.756h11.264v62.827h-11.264v-38.923l-.814-.645c-1.918-1.521-5.678-4.138-7.792-5.424-2.627-1.596-8.725-4.699-9.734-4.952l-.684-.172v50.116h-11.514zm6.447 1.288.064-26.122.687.164c3.638.867 10.185 3.558 14.451 5.938 3.354 1.87 8.456 5.295 11.573 7.766l2.31 1.83.005 18.335.006 18.335h1.252v-53.065H173.4v14.832l-.813-.658c-1.981-1.603-6.673-4.928-9.138-6.475-6.096-3.825-15.097-7.684-19.446-8.336l-1.14-.17v53.906l.688-.08.688-.079z" transform="translate(-2.94 -125.837)"/><path style="display:inline;fill:url(#d);fill-opacity:1;stroke-width:.25" d="M71.225 106.625c-5.61.02-8.975 2.34-8.975 6.189 0 3.305 2.674 4.861 9.888 5.753.694.085 1.707.405 2.25.708.837.469.999.693 1.065 1.482.061.737-.057 1.053-.57 1.527-1.715 1.591-6.204 1.504-10.754-.209-.929-.35-1.731-.635-1.784-.635-.2 0-.076.892.418 2.998l.513 2.186 3.55.234c5.623.371 8.354.04 10.743-1.299 2.84-1.592 3.928-4.783 2.56-7.508-1.036-2.066-3.047-3.018-8.129-3.852-3.486-.571-4.173-.817-4.539-1.62-.346-.76.219-1.78 1.193-2.15 1.633-.621 6.409-.075 8.6.984.717.346 1.039.397 1.201.187.234-.3 1.045-3.393 1.045-3.984 0-.434-4.757-1.004-8.275-.991zm28.275.315v.648c0 .357-.238 1.432-.528 2.389-.29.957-.482 1.785-.426 1.842.057.057.814-.184 1.683-.535 1.136-.458 2.24-.677 3.925-.778l2.346-.14v7.253c0 6.875-.026 7.287-.5 7.89-.275.349-.5.758-.5.908 0 .185 1.17.273 3.625.273 1.994 0 3.625-.077 3.625-.172 0-.094-.224-.41-.497-.7-.273-.291-.611-1.13-.75-1.863-.278-1.464-.343-11.058-.087-12.613l.161-.973 2.323.153c1.63.107 2.786.341 3.878.785.856.348 1.593.595 1.638.55.046-.046-.193-1.006-.53-2.133-.338-1.128-.55-2.215-.473-2.417.122-.32-1.11-.367-9.386-.367zm74.75 0v.628c0 .346-.223 1.435-.497 2.42-.273.986-.457 1.83-.41 1.878.048.047.602-.134 1.231-.404 1.414-.606 3.59-1.022 5.347-1.022h1.329v14.46l-.625.743c-.344.409-.625.811-.625.894 0 .084 1.75.152 3.888.152h3.887l-.7-.918-.7-.917-.073-7.208-.073-7.207h1.34c1.767 0 3.94.414 5.357 1.022.63.27 1.198.437 1.263.372.065-.065-.13-.931-.431-1.926-.302-.994-.5-2.068-.438-2.388l.11-.58h-9.59zm37.663 0 .527.562c.983 1.05 1.06 1.728 1.06 9.313 0 7.585-.077 8.263-1.06 9.312l-.527.563H232.5v-.744c0-.409.338-1.593.75-2.631.412-1.039.75-1.987.75-2.108 0-.12-.611.111-1.358.516-2.108 1.142-4.144 1.458-9.436 1.462l-4.67.005-.08-2.13c-.045-1.172-.043-2.241.003-2.376.049-.144 1.677-.246 4-.248 2.616-.003 4.12-.106 4.53-.314.577-.292 2.695-3.332 2.474-3.552-.056-.056-.549.002-1.095.128-.546.127-2.99.233-5.43.236l-4.438.006v-4.5h4.704c4.968 0 6.854.221 8.722 1.022.63.27 1.193.442 1.252.383.06-.059-.126-.86-.41-1.782-.285-.922-.518-2.001-.518-2.4v-.723h-10.168zm-63.336.026c-.547 0-1.273.013-2.237.03l-3.91.069-.066.629c-.063.587-.676 1.916-5.332 11.561-.98 2.03-1.782 3.76-1.782 3.843 0 .085-.45.828-1 1.651-.55.824-1 1.597-1 1.72 0 .121 1.575.22 3.5.22 2.051 0 3.5-.098 3.5-.237 0-.132-.13-.525-.29-.875-.221-.486-.218-.875.015-1.652l.305-1.017 1.013.915c1.437 1.299 2.522 1.691 4.707 1.7 2.18.01 3.238-.372 4.706-1.698.919-.83 1.033-.872 1.243-.462.501.976.575 1.878.2 2.45-.205.313-.304.639-.22.723.231.23 7.071.185 7.071-.047 0-.11-.346-.671-.769-1.246-.422-.575-1.334-2.313-2.025-3.862a919.596 919.596 0 0 0-1.824-4.066c-2.53-5.58-4.132-9.4-4.132-9.85 0-.398-.031-.5-1.673-.499zm-120.52.019c-3.551-.003-6.057.03-6.057.087 0 .076.253.48.563.899.555.751.562.86.562 8.677 0 7.761-.011 7.935-.562 8.868-.31.524-.563 1.003-.563 1.066 0 .062 4.514.084 10.03.048l10.03-.065.064-.875c.036-.481.408-1.662.826-2.624.418-.962.73-1.78.692-1.818-.038-.038-.744.266-1.568.675-2.043 1.013-3.892 1.263-9.387 1.265L28 123.19v-2.375c0-2.083.054-2.38.437-2.408.241-.018 2.166-.046 4.278-.062l3.84-.03.673-.806c.37-.444.912-1.232 1.204-1.752l.531-.945-5.481.091-5.482.092v-4.602l5.812.093c5.638.09 5.862.113 7.426.764.887.37 1.633.648 1.657.619.023-.03-.17-.673-.432-1.43-.261-.755-.517-1.824-.568-2.374l-.094-1-9.9-.066a669.512 669.512 0 0 0-3.845-.014zm117.948 4.463c.218-.014 2.4 4.117 2.88 5.45.428 1.192.429 1.303.015 2.386-.285.746-.717 1.31-1.259 1.646-1.768 1.092-3.77.372-4.536-1.633-.445-1.165-.444-1.211.085-2.662.52-1.429 2.55-5.17 2.815-5.187z" transform="translate(0 -31.133)"/></g></svg>