<svg xmlns="http://www.w3.org/2000/svg" width="768.37" height="894.693" viewBox="0 0 203.298 236.721"><path d="M88.475 263.919c-.328-.132-.596-.365-.596-.52 0-.154-.66-.973-1.467-1.82-.807-.849-2.064-2.405-2.792-3.459a142.996 142.996 0 0 0-2.851-3.942c-1.867-2.476-4.27-7.506-5.201-10.888-1.03-3.741-1.207-9.627-.404-13.494.318-1.528.868-3.644 1.222-4.702.355-1.058.646-1.98.646-2.05 0-.276-.842-.09-3.473.77-3.23 1.054-4.89 1.403-7.783 1.636-2.61.21-4.505-.24-7.927-1.881-3.225-1.547-6.497-3.034-6.678-3.034-.081 0-.755-.303-1.497-.673-1.037-.518-1.656-1.107-2.673-2.54l-2.568-3.626c-.684-.968-1.25-1.952-1.256-2.187-.042-1.529 2.303-5.168 6.321-9.808 1.657-1.914 4.193-2.815 9.479-3.369 2.762-.29 6.28.004 9.329.779 1.803.458 2.64.597 2.64.439 0-.199-2.087-3.368-2.645-4.018-.592-.69-2.795-6.483-3.621-9.525-.356-1.31-.836-2.986-1.067-3.726-.42-1.345-.42-1.346.414-3.11.459-.97.834-1.842.834-1.938 0-.095.455-.78 1.012-1.52a53.045 53.045 0 0 0 2.014-2.935 51.459 51.459 0 0 1 2-2.91c.549-.728 1.08-1.591 1.179-1.919.099-.327.321-.608.493-.624 1.116-.105 1.754.185 2.868 1.305 1.318 1.325 3.74 3.5 5.25 4.717.51.41 1 .85 1.092.976.426.596.414-.454-.03-2.719-.268-1.363-.44-2.717-.385-3.008.109-.562 1.397-1.771 2.498-2.344.364-.19 1.225-.723 1.914-1.185.689-.462 1.403-.902 1.588-.976.603-.245-.36-.673-1.912-.85-.801-.092-1.934-.29-2.516-.442-.637-.165-4.323-.258-9.26-.235-7.927.037-8.977-.029-14.533-.918-3.32-.53-3.856-.506-3.856.181 0 .307.344 1.23.765 2.05 3.34 6.523 3.63 13.44.806 19.294-.612 1.269-1.195 2.367-1.296 2.44-.319.231-2.475 3.522-3.206 4.894-.631 1.185-.808 1.332-1.694 1.407-.768.065-1.087-.045-1.423-.492a54.351 54.351 0 0 0-1.492-1.817 101.58 101.58 0 0 1-2.514-3.13c-.8-1.039-1.574-1.896-1.72-1.905-.146-.009-1.231.907-2.412 2.035-1.181 1.127-2.312 2.172-2.513 2.322a51.878 51.878 0 0 0-4.504 3.724 18.522 18.522 0 0 1-2.007 1.552c-1.899 1.242-3.372.634-7.233-2.983-1.082-1.014-2.325-2.342-2.762-2.95a94.673 94.673 0 0 0-1.862-2.478c-1.536-1.968-3.12-4.409-3.443-5.303-.956-2.648 2.06-9.38 6.89-15.382 1.512-1.88 3.608-5.155 3.456-5.402-.082-.132-.475-.198-.875-.146-1.417.182-4.991.173-7.209-.018-1.674-.144-2.62-.383-3.704-.936-2.192-1.12-3.972-2.597-5.247-4.354-1.604-2.21-6.659-9.952-6.659-10.2 0-.112-.396-1.076-.881-2.142-.935-2.056-1.648-4.79-1.368-5.244.093-.15.562-.438 1.044-.639.805-.336 2.046-1.34 3.824-3.096.386-.38 1.353-.985 2.15-1.344 5.592-2.52 6.898-2.55 19.176-.457 1.8.307 4.627 1.204 4.895 1.554.259.34 2.008 1.265 3.505 1.856.837.33 1.522.689 1.522.798 0 .262 2.577 1.328 3.21 1.328.272 0 .494-.046.494-.102 0-.28-.752-1.75-1.437-2.809-1.004-1.553-2.555-4.945-2.718-5.947-.071-.434-.34-1.207-.6-1.72-.257-.513-.557-1.23-.665-1.593-.21-.708-1.807-4.282-2.306-5.16a160.61 160.61 0 0 1-1.088-1.984c-.433-.8-.87-1.574-.97-1.72-.305-.445-1.283-3.381-1.47-4.414-.225-1.247.228-2.616 1.217-3.674.427-.457.776-.909.776-1.004 0-.094.73-.945 1.624-1.89 1.664-1.761 2.967-3.603 3.791-5.356.494-1.05 1.182-1.271 2.262-.727l1.055.529c.29.145.737.374.992.507.824.433 2.816 1.276 5.017 2.125 1.195.461 2.553 1.206 3.056 1.678 1.143 1.07 3.635 4.262 3.635 4.655 0 .162.093.295.207.295.114 0 .497.774.851 1.72s.673 1.72.71 1.72c.037 0 .545-.25 1.13-.554l1.061-.553.879.542c.483.299 1.234.935 1.67 1.414.82.902 3.017 4.033 3.017 4.3 0 .084.292.616.65 1.182.356.566.94 1.746 1.296 2.623 1.676 4.123 1.497 6.386-.875 11.074-2.121 4.19-3.088 7.15-3.964 12.134-.527 2.996-.433 3.458.974 4.768.69.643 1.357 1.17 1.48 1.17.124 0 .54.223.927.496 1.286.91 4.989 2.679 5.605 2.679.334 0 1.108.293 1.72.652 1.088.638 1.781.855 5.019 1.578 1.517.338 4.492.377 4.806.063.082-.082-.172-.72-.565-1.42-.393-.698-.81-1.806-.925-2.46-.296-1.674-1.05-5.48-1.347-6.799-.329-1.463-.315-3.327.038-5.258.26-1.415.865-2.552 1.923-3.61.202-.202.555-.718.785-1.148.695-1.297 2.62-3.096 4.594-4.292 1.025-.622 2.078-1.366 2.338-1.654.26-.288.62-.523.797-.523.178 0 .459-.163.625-.363.165-.2.697-.427 1.181-.506.83-.135 3.874-1.875 3.874-2.215 0-.087-.833-1.863-1.852-3.946-1.019-2.083-1.852-3.895-1.852-4.027 0-.131-.167-.585-.37-1.007a123.6 123.6 0 0 1-1.082-2.356c-1.032-2.305-2.147-4.644-4.979-10.451-1.383-2.838-2.7-5.606-2.924-6.151-.792-1.926-1.774-2.885-4.046-3.95-1.185-.557-2.487-1.011-2.891-1.011-.741 0-.94-.053-4.081-1.08-2.084-.682-5.296-2.384-6.774-3.59-.597-.488-1.174-.887-1.281-.887-.107 0-.866-.565-1.685-1.257a811.42 811.42 0 0 0-2.282-1.918c-2.12-1.77-4.55-4.349-6.234-6.613-.364-.49-.93-1.213-1.257-1.608-.328-.395-.598-.82-.6-.945-.004-.125-.657-1-1.452-1.946-.796-.946-1.776-2.196-2.177-2.778-.402-.582-.895-1.23-1.094-1.44-.777-.817-3.21-4.178-3.21-4.435 0-.15-.222-.556-.493-.903-.27-.347-.582-.928-.692-1.292-.11-.364-.348-.84-.529-1.058-.18-.219-.828-1.767-1.439-3.44-.611-1.674-1.218-3.28-1.348-3.572-.49-1.093-.835-2.682-.748-3.444.087-.768.146-.799 2.206-1.138 1.164-.192 2.474-.533 2.91-.757 1.937-.995 6.034-2.04 7.727-1.97.845.036.996-.422.464-1.41-.453-.841-.449-.964.133-3.748.775-3.71 1.725-6.55 2.643-7.894.464-.68.796-1.6.911-2.525.241-1.936.656-3.175 1.064-3.175.184 0 1.059.582 1.946 1.294.887.711 2.186 1.508 2.887 1.77.702.262 1.573.652 1.937.866 1.533.904 4.663 3.088 5.058 3.53.236.262.533.478.662.478.128.001.59.336 1.027.745.437.409 1.11.95 1.497 1.204.7.458.707.456 1.42-.48.726-.951 1.597-1.216 2.157-.655.392.39 1.824.201 1.736-.23-.13-.636.475-1.379 1.124-1.379.351 0 .734-.16.85-.356.117-.196.807-.806 1.535-1.356a92.246 92.246 0 0 0 2.513-1.98c1.886-1.553 2.611-1.622 3.29-.31.199.382.7 1.063 1.115 1.512.415.45 1.226 1.429 1.802 2.176.576.747 1.197 1.416 1.379 1.486.182.07.782-.368 1.333-.972a61.42 61.42 0 0 1 2.529-2.542c.839-.795 1.787-1.873 2.106-2.396.953-1.558 1.27-1.798 1.599-1.211.152.273.556.755.897 1.07.34.316.62.689.62.828 0 .22.986 2.037 3.78 6.962.373.655 1.003 2.024 1.402 3.042.399 1.02.944 2.169 1.21 2.555.268.386.486.827.486.98 0 .153.48 1.367 1.065 2.698 1.391 3.161 1.592 4.766 1.659 13.261.062 7.869.25 6.995-2.357 10.963-.776 1.18-1.54 2.49-1.697 2.91-.559 1.494-1.903 4.5-2.99 6.693-1.084 2.185-2.937 4.34-8.534 9.927l-1.345 1.343.208 2.507c.115 1.38.346 3.106.513 3.837.496 2.165 1.5 5.592 1.917 6.535.213.484.535 1.296.717 1.805.356 1.001 1.527 3.394 3.667 7.492.746 1.429 1.356 2.88 1.356 3.224 0 .976.49 2.041 1.346 2.929.43.447 1.296 1.816 1.924 3.043 1.724 3.37 3.122 5.88 3.562 6.397.612.718.919.554.74-.397-1.074-5.7-1.305-8.686-.759-9.808.2-.41.534-1.6.742-2.646.6-3.015.793-3.68 1.415-4.895.686-1.34 5.442-6.482 7.324-7.918.716-.546 1.422-1.147 1.57-1.335.148-.188.521-.485.83-.661a83.242 83.242 0 0 0 1.764-1.062c1.112-.686 1.29-.72 2.345-.448.628.163 1.921.82 2.873 1.46 1.835 1.236 2.109 1.369 6.86 3.315 4.658 1.909 6.335 3.999 7.633 9.512l.435 1.852c.416 1.771.932 7.343.934 10.087.002 2.924-.38 5.397-1.592 10.286-.544 2.196-.722 3.449-.51 3.58.172.106 2.51-1.502 4.515-3.106 1.729-1.383 5.306-4.969 5.554-5.568.17-.412.231-1.187.138-1.769-.148-.926-.083-1.1.615-1.65.89-.702 2.241-4.17 2.628-6.75.127-.845.543-2.37.925-3.389.381-1.018.694-2.091.694-2.385 0-.294.431-1.783.959-3.308.957-2.77.958-2.778.661-5.052-.18-1.382-.233-3.828-.135-6.218.15-3.654.12-4.053-.425-5.487-.324-.852-1.21-2.459-1.968-3.572-4.07-5.976-5.556-8.123-5.702-8.243-.09-.072-.421-.502-.737-.955-.316-.453-1.442-1.703-2.501-2.779-1.06-1.075-2.128-2.193-2.374-2.484-.375-.441-1.947-1.938-6.396-6.085-.785-.731-3.346-2.623-4.083-3.015-.87-.464-1.227-1.539-.745-2.246 1.083-1.59 3.597-3.805 5.219-4.597 4.122-2.014 8.602-2.094 12.406-.223 1.769.87 2.224 1.193 4.613 3.265 2.605 2.26 3.105 3.023 5.79 8.839.513 1.112 1.054 2.097 1.202 2.188.148.092.804-.405 1.458-1.104.9-.963 1.594-1.41 2.86-1.846.92-.316 2.538-.875 3.596-1.242 2.228-.773 8.06-1.368 11-1.122 2.062.172 2.635.47 4.67 2.425 4.276 4.109 5.585 5.49 8.148 8.6a418.51 418.51 0 0 0 1.993 2.406c.566.665 3.637.84 6.14.349 3.747-.735 4.092-.753 4.092-.224 0 .259.165.658.367.888 1.03 1.172 1.29 7.095.455 10.363a50.43 50.43 0 0 0-.821 4.078c-.462 3.049-1.563 6.457-2.46 7.616-.94 1.214-2.178 1.877-4.288 2.293-2.744.542-2.662.451-1.497 1.652.827.852 1.184 1.557 1.764 3.484.664 2.205.715 2.676.584 5.368-.079 1.623-.274 3.196-.434 3.495-.16.3-.32 1.353-.354 2.341-.054 1.558.016 1.875.533 2.392.327.327.595.714.595.86 0 .145.547 1.365 1.215 2.711 2.565 5.169 3.34 8.53 3.135 13.601-.07 1.724-.189 3.551-.266 4.06-.136.9-1.199 3.827-1.778 4.895-.158.291-.463.887-.679 1.323-.216.437-1.078 1.765-1.916 2.953-.839 1.187-1.695 2.497-1.903 2.91-.646 1.284-1.452 4.87-1.684 7.499-.269 3.03-.27 11.652-.002 14.949.383 4.722 1.652 9.838 3.362 13.557.284.617.516 1.305.516 1.53 0 .632 2.693 5.634 3.882 7.212 1.153 1.528 1.693 1.919 2.245 1.623.528-.283.599-.19.829 1.08.066.365.204.861.306 1.105.128.302.013.536-.363.737-.704.377-1.369.036-2.173-1.113-.33-.473-1.119-1.322-1.75-1.887-2.152-1.92-3.893-4.99-5.63-9.924-.43-1.221-.889-2.352-1.019-2.514-.368-.457-1.342-4.025-1.774-6.498-.408-2.335-.51-2.612-.837-2.284-.43.43-.023 8.737.517 10.547.395 1.32.061 1.697-1.132 1.281-1.218-.424-1.387-.373-.929.28.244.349.312.69.17.86-.299.363.232 2.453.844 3.317.46.65.466.65 1.279.17.817-.482.817-.482 1.584.252l.767.735-.808.491c-.66.402-.982.444-1.757.23-.521-.144-1.068-.189-1.213-.099-.337.208 1.846 1.105 2.736 1.125.811.018 1.844.698 1.844 1.215 0 .208-.327.449-.727.537-1.402.307-1.433.332-1.127.905.256.477.206.533-.487.533-.566 0-.811.15-.92.566-.128.49-.28.545-1.134.406-1.268-.206-1.595-.696-.866-1.302.345-.287.493-.627.39-.896-.138-.36-.415-.404-1.616-.263-1.72.202-4.792 1.31-5.546 2-.294.27-1.665 1.06-3.048 1.756-3.714 1.872-10.088 5.923-9.962 6.332.045.145.534.302 1.088.348.809.068 1.168-.065 1.832-.676 1.673-1.544 6.389-4.028 9.067-4.776 2.154-.603 3.451-1.245 2.043-1.012-.509.084-1.019-.012-1.323-.247-.484-.375-.483-.394.018-.781.758-.586 2.162-.5 2.835.174.544.544.681.558 2.92.301 1.786-.205 2.7-.188 3.818.072.808.188 2.203.42 3.1.515.896.096 2.225.353 2.953.573l1.653.498c.494.148.4.765-.198 1.307-.291.263-.53.639-.53.834 0 .4-.556.476-.938.127-1.164-1.062-8.452-1.76-11.47-1.1-4.578 1.004-6.071 1.434-7.534 2.172-1.52.766-4.083 2.401-5.271 3.362-.29.234-.896.727-1.348 1.095-.453.368-1.477 1.166-2.278 1.775a55.49 55.49 0 0 0-2.513 2.037c-.582.513-1.126.934-1.208.937-.083.003-.418.482-.745 1.064-.327.582-.706 1.058-.842 1.058-.137 0-.248.18-.248.402 0 .637-2.56 5.665-3.729 7.324-.585.83-2.142 2.497-3.46 3.704-1.318 1.208-2.77 2.567-3.226 3.02-.969.963-2.62 2.084-4.666 3.168-.8.424-1.495.86-1.544.969-.048.11-.3.198-.56.198-.259 0-.755.212-1.102.47-2.162 1.611-5.622 2.323-11.003 2.265-5.498-.06-8.443-.914-7.73-2.244.147-.276.197-.615.111-.754-.18-.29 1.911-5.75 3.06-7.99a39.398 39.398 0 0 0 1.322-2.9c.638-1.62 2.038-3.99 3.55-6.012a72.568 72.568 0 0 0 1.651-2.298c1.822-2.708 7.945-5.03 14.626-5.543 5.649-.434 10.55-1.158 11.615-1.715.524-.275 2.54-2.05 4.479-3.945 3-2.932 4.696-4.293 7.86-6.31 1.04-.662 3.76-1.875 4.904-2.187 1.363-.37 3.381-1.304 3.606-1.667.134-.217-2.502-3.07-4.402-4.764-1.999-1.781-2.915-2.534-5.44-4.468-1.92-1.47-6.264-4.574-8.996-6.426-1.892-1.283-3.499-2.412-3.572-2.51-.073-.096-.906-.697-1.852-1.334-.946-.636-1.95-1.372-2.233-1.633-.282-.262-.62-.476-.75-.476-.247 0-2.16-1.281-3.441-2.303-.404-.323-1.14-.663-1.636-.756-.966-.18-1.884-.975-1.62-1.401.195-.317-.594-1.156-.97-1.03-.147.049-.307.71-.355 1.468-.131 2.09-.85 5.263-1.47 6.494-2.014 3.997-6.57 8.322-10.9 10.35-1.803.844-2.39.978-5.268 1.201-1.782.139-5.582.255-8.446.258l-5.207.006.246.858c.361 1.26.351 1.294-.96 3.274-1.312 1.98-4.908 5.606-6.6 6.655-1.24.769-2.248 1.649-2.248 1.963 0 .122.653.51 1.451.863 3.35 1.482 7.994 5.208 10.732 8.612.644.8 1.247 1.515 1.34 1.588.447.352 2.359 3.592 2.625 4.45.166.536.476 1.363.69 1.838.85 1.889 1.136 6.35.632 9.837-.28 1.94-1.116 4.334-1.848 5.297l-.497.652-2.47-.61c-1.358-.335-2.826-.717-3.263-.85-.436-.133-2.026-.612-3.533-1.064-1.507-.453-3.53-1.173-4.498-1.6a219.36 219.36 0 0 0-2.287-1c-2.077-.871-6.63-3.232-7.884-4.088-.403-.274-.792-.439-.865-.365-.073.073.185 1.19.574 2.483.844 2.804 1.178 8.427.65 10.926-.282 1.332-1.507 5.521-2.213 7.564-.484 1.403-3.01 4.968-5.015 7.077-2.034 2.14-2.077 2.165-3.04 1.778zm1.392-3.37c.462-.334 2.385-2.77 3.495-4.427 3.537-5.28 4.294-16.513 1.478-21.941a77.509 77.509 0 0 1-.615-1.21c-.138-.281-.647-.404-1.749-.42-2.2-.032-2.215-.038-2.215-.77 0-.725.7-.915 1.27-.345.247.247.388.247.635 0 .174-.174.532-.317.793-.317.262 0 .477-.164.477-.364 0-.458-1.25-2.769-1.881-3.476-.761-.854-1.34-2.492-1.164-3.293.128-.586.027-.814-.522-1.174-.682-.447-.682-.447-.503.267l.18.715-1.896-.16c-1.662-.139-2.007-.087-2.797.422-.638.41-.927.813-.988 1.374-.08.733-.194.813-1.476 1.04-1.288.23-1.389.301-1.389.993 0 .796-.257.91-1.075.471-.674-.36-.647-.832.083-1.486.327-.293 1.033-1.028 1.568-1.635.535-.606 1.16-1.103 1.39-1.103.294 0 .416-.255.416-.873 0-1.478 1.147-2.027 2.045-.979.252.294.78.53 1.188.53.608 0 .735-.115.735-.662 0-1.047-.007-1.062-.478-.983-1.569.264-2.49.101-3.184-.564l-.723-.693-1.392.937c-1.501 1.011-1.558 1.106-2.426 4.081a129.196 129.196 0 0 1-.967 3.168c-.682 2.079-.958 5.511-.782 9.715.145 3.465.277 4.353.958 6.435.434 1.329 1.206 3.128 1.717 3.998.51.871.927 1.635.927 1.698 0 .063.42.74.932 1.507a845.91 845.91 0 0 1 2.097 3.151c.641.967 1.302 1.842 1.468 1.945.167.103.384.405.483.67.246.66 3.027 3.928 3.355 3.942.145.006.385-.076.532-.183zm-1.194-11.555c0-1.118.313-1.355.915-.69.566.625.32 1.6-.403 1.6-.407 0-.512-.187-.512-.91zm.442-1.847c-.08-.207-.41-.416-.736-.463-.806-.119-.94-.7-.222-.966.455-.169.764-.055 1.377.504.765.699.8 1.3.078 1.3-.194 0-.418-.168-.497-.375zm.021-2.11c-.488-.37-.653-.838-.196-.556.147.091.453-.02.68-.248.755-.756 1.165-.34.745.755-.194.505-.607.522-1.229.05zm2.364-2.163c-.55-.373-1.441-.832-1.98-1.018-.538-.186-1.018-.535-1.065-.776-.07-.355.144-.436 1.146-.436 1.105 0 1.352.12 2.418 1.187.653.653 1.113 1.308 1.022 1.455-.242.392-.434.341-1.541-.412zm-6.613-.68c-1.195-1.362-.712-2.083.753-1.123.713.467.849 1.197.306 1.647-.263.219-.518.092-1.059-.523zm6.432-2.196c0-.544.4-.72 1.187-.522.635.16.65.195.21.529-.624.474-1.397.47-1.397-.007zm-4.317-.055c-.094-.094-.105-.435-.024-.758.098-.39.007-.64-.27-.746-.229-.088-.416-.334-.416-.547 0-.213-.227-.46-.505-.548-.768-.244-.912-.957-.313-1.556.437-.437.593-.468.936-.183.226.187.411.489.411.67 0 .18.25.646.555 1.034.316.401.484.888.39 1.13-.1.265.042.57.377.805.296.208.47.489.387.624-.174.28-1.268.334-1.528.075zm4.493-2.386c-.407-.408-.154-.916.417-.834.749.107.985 1.01.264 1.01-.277 0-.584-.08-.68-.176zm-8.643-1.155c0-.295.183-.607.405-.693.241-.092.346-.341.259-.616-.233-.734.134-1.328.82-1.328.747 0 .891.887.206 1.27-.335.188-.366.353-.145.767.349.651-.051 1.138-.936 1.138-.435 0-.609-.153-.609-.538zm6.657.096c-.403-.326-.545-.642-.427-.95.241-.628.497-.578.9.175.509.95.256 1.365-.473.775zm-.108-1.646c-.978-.301-1.257-.51-1.257-.943 0-.306-.228-.751-.507-.99-.498-.427-.498-.45.028-1.514.553-1.119 1.218-1.387 1.774-.717.237.285.159.457-.358.796-.658.431-.658.435-.182 1.29.293.525.726.894 1.118.95.766.11 1.302.509 1.302.97 0 .53-.56.576-1.918.158zm-6.992-4.42c-.168-.438.74-2.279 1.202-2.432.597-.2.81.902.364 1.886-.464 1.022-1.274 1.305-1.566.546zm3.4-.019c.13-.664.748-.755.748-.11 0 .325-.171.551-.417.551-.246 0-.381-.18-.33-.44zm1.904-1.619c-.49-.333-.892-.79-.892-1.016 0-.227-.238-.715-.529-1.085-1.056-1.343-.445-2.305.993-1.561.695.36.818.358 1.185-.008a.937.937 0 0 1 .967-.232c.699.221.723.829.048 1.19-.942.504-.96 1.335-.047 2.05.452.354.823.797.823.984 0 .546-1.558.349-2.548-.322zm52.295 16.193c3.914-1.003 9.138-3.269 11.361-4.929 1.587-1.185 3.37-2.791 4.475-4.032.382-.43.933-1.032 1.224-1.339.55-.579 2.514-3.462 2.514-3.69 0-.178 1.268-2.98 1.878-4.148.634-1.213.64-1.816.018-1.816-.267 0-.56-.075-.652-.167-.304-.304.352-1.156.89-1.156.772 0 2.426-.743 2.258-1.015-.371-.6-3.837-.537-10.08.183-7.271.84-7.926.963-11.458 2.166-2.33.793-4.503 2.812-5.969 5.546-.273.509-.94 1.7-1.483 2.645a49.572 49.572 0 0 0-1.715 3.308c-.4.873-1.072 2.309-1.495 3.19-.422.882-.767 1.733-.767 1.89 0 .157-.236.805-.524 1.44-.288.634-.526 1.406-.529 1.716-.006.55.091.564 4.228.59 3.025.019 4.688-.09 5.826-.382zm12.87-8.753c-.287-.288-.204-.569.316-1.07.27-.26.57-.8.667-1.201.219-.913.89-.943 1.227-.054.194.509.15.836-.176 1.334-.618.943-1.602 1.423-2.033.991zm-11.553-1.014c0-.243.128-.399.285-.346.156.052.284.208.284.346 0 .138-.128.294-.284.346-.157.052-.285-.104-.285-.346zm1.108-2.844c.076-.786.17-.868 1.075-.942 1.176-.098 1.314.348.38 1.226-.94.884-1.556.764-1.455-.284zm3.977.025c.065-.196.33-.397.59-.448.302-.058.429.037.353.265-.065.196-.33.397-.59.447-.302.059-.429-.036-.353-.264zm3.565-.584c-.076-.199-.727-.438-1.455-.534-1.408-.187-2.196-.77-1.704-1.262.199-.2.558-.191 1.227.03.52.171 1.066.237 1.215.145.497-.308.276-1.106-.392-1.41-.928-.423-.882-1.167.066-1.058.592.068.73.218.74.806.007.413.32 1.044.727 1.47.394.41.716.949.716 1.195 0 .247.126.449.28.449.154 0 .207.119.117.265-.242.39-1.377.32-1.537-.096zm2.544-.814c-.732-.635-.735-.65-.213-1.043.746-.561.234-1.33-.955-1.433-1.026-.09-1.885-1.218-1.64-2.156.216-.823.893-.656 1.927.476.513.56 1.212 1.108 1.554 1.216.782.249 1.627 1.08 1.627 1.6 0 .219.064.397.142.397.344 0 1.445-.883 1.44-1.154-.004-.166-.546-.866-1.205-1.557-.984-1.031-1.344-1.244-2.016-1.19-.45.036-.858-.054-.908-.2-.393-1.149 2.727-1.604 4.734-.69.673.307 1.4.558 1.616.558.393 0 1.489 1.194 1.489 1.623 0 .34-.852.278-2.06-.148-1.324-.467-1.52-.3-.814.693.303.425.477.846.388.935-.088.089.04.383.285.654.416.46.416.523.006.933-.242.242-.89.454-1.438.47-.548.017-1.257.172-1.575.346-.875.477-1.564.382-2.384-.33zm-9.07-2.254c-.388-.724.288-1.02 1.208-.528.799.428.695.886-.225.995-.482.058-.779-.083-.984-.467zm15.603-5.039c0-.353.177-.529.532-.529.465 0 .49.066.2.53-.181.29-.42.529-.53.529-.111 0-.202-.239-.202-.53zm-38.088 16.24c.145-.38.63-2.235 1.079-4.12.719-3.024.78-3.568.513-4.625-.405-1.61-2.136-5.03-3.881-7.668-.785-1.186-1.427-2.209-1.427-2.272 0-.063-.805-.937-1.79-1.943-2.745-2.806-6.153-5.087-8.264-5.532-.51-.107-1.057-.3-1.217-.429-.16-.128-1.292-.349-2.514-.49-1.222-.141-2.524-.329-2.894-.417-.546-.131-.745-.025-1.058.565-.213.4-.982 1.19-1.71 1.757-.727.566-2.065 1.758-2.973 2.647-1.859 1.822-2.237 2.821-1.573 4.153.767 1.538.803 2.302.13 2.798-.428.315-.507.49-.265.582.727.277 1.322 1.229 2.28 3.653l.994 2.51h.942c.862 0 4.412 1.758 5.625 2.785.557.472 3.701 2.132 4.498 2.374.363.11 1.137.409 1.72.663 2.308 1.005 6.646 2.645 7.016 2.651.215.004.868.233 1.45.508.582.276 1.508.51 2.057.522.844.018 1.04-.086 1.262-.671zm-1.567-8.111c-.163-.163-.297-.46-.297-.66 0-.515 1.166-.297 1.267.237.102.533-.568.825-.97.423zm-2.41-1.183c.003-.11.119-.377.258-.596.192-.3.362-.328.708-.113.79.493.721.907-.154.907-.448 0-.814-.09-.811-.198zm-2.054-2.23c-.473-.128-.86-.4-.86-.606 0-.926 1.432-.767 1.681.187.186.713.215.699-.82.419zm-5.446-.923c-.429-.43-.158-1.147.432-1.147.674 0 1.244.45 1.244.98 0 .355-1.353.49-1.676.167zm2.835-1.796c-.185-.48.083-.938.548-.938.483 0 .7.662.336 1.026-.403.403-.708.373-.884-.088zm-3.077-.856c-.569-.149-.61-.836-.063-1.046.47-.18 1.187.341 1.187.864 0 .365-.261.408-1.124.182zm-4.307-1.79c.005-.77.148-1.309.387-1.457.315-.194.32-.306.034-.652-.19-.229-.555-.417-.81-.417-.905 0-1.383-1.057-.616-1.36.857-.337 1.152-.24 1.42.464.225.593.367.664.986.5.397-.104 1.18-.18 1.738-.166.562.014 1.186-.146 1.397-.357.438-.438 1.16-.26 1.16.286 0 .217-.273.369-.662.369-.432 0-.661.148-.661.426 0 .342-.18.393-.906.257-.525-.099-.976-.056-1.074.102-.092.15-.459.273-.814.273-.764 0-.793.204-.202 1.443.506 1.06.471 1.139-.603 1.354-.776.155-.782.148-.774-1.065zm10.375.112c-.483-.38-.885-.487-1.374-.364-.514.129-.826.029-1.215-.389-.288-.309-.757-.562-1.042-.562-.338 0-.52-.18-.52-.513 0-.757.441-.898 1.014-.325.277.277.847.572 1.267.655 2.565.51 3.011.737 3.011 1.539 0 .638-.291.627-1.14-.041zm-15.527-1.976c0-.682.378-.832 1.041-.413.315.2.32.312.034.657-.526.634-1.075.509-1.075-.244zm-3.873-1.058c-.244-.636.332-1.12.903-.76.643.406.567 1.008-.14 1.109-.367.052-.661-.083-.763-.349zm6.125-.656c-.231-.374.343-1.329.8-1.329.478 0 .487.509.019 1.125-.4.527-.59.574-.819.204zm-4.832-1.072c-.978-.393-.655-2.109.397-2.109.197 0 .539.434.76.965.332.792.341 1.004.053 1.186-.417.265-.448.264-1.21-.042zm3.019-.453c-.077-.124-.04-.386.08-.583.269-.434 1.158-.153 1.002.316-.132.398-.886.584-1.082.267zm8.358-.26c-1.531-.772-.745-1.632 1.164-1.274.808.152.909.259.837.885-.1.871-.78 1.003-2 .389zm-6.555-1.142c-.267-.432.539-1.154 1.064-.952.24.092.397.376.349.631-.103.537-1.134.772-1.413.321zm3.226.099c-.268-.268-.21-1.411.07-1.411.613 0 1.606.55 1.606.891 0 .556-1.252.944-1.676.52zm-6.527-1.279c0-.22.236-.397.53-.397.294 0 .529.177.529.397 0 .22-.235.397-.53.397-.293 0-.529-.176-.529-.397zm-27.236 6.474c.263-.14.792-.256 1.175-.256.382 0 1.253-.236 1.935-.524.682-.288 1.923-.698 2.757-.91 1.548-.395 3.393-1.477 4.855-2.847.993-.93 1.527-.786 1.852.502.262 1.04.555 1.262 1.158.88.333-.21.324-.313-.066-.744-.249-.275-.452-.702-.452-.949 0-.246-.298-.562-.662-.7-.459-.174-.661-.451-.661-.904 0-.849.428-1.092 1.198-.68.837.449 1.363.192 1.574-.77.185-.845-.472-2.119-1.102-2.135-.173-.005-.703.533-1.179 1.195-.779 1.084-.956 1.195-1.8 1.124-1.237-.104-1.346-.756-.297-1.781.953-.931.963-.976.32-1.32-.383-.205-.674-.111-1.322.426-.458.379-.832.842-.832 1.03 0 .186-.346.586-.77.888-.968.689-1.71.474-1.534-.444.115-.601.063-.639-.679-.49-.442.088-.975.303-1.186.478-.715.593-1.123.468-1.123-.344 0-.969-.615-1.024-1.215-.11-.514.786-1.305.861-1.68.16-.2-.371-.168-.584.12-.823.232-.192.33-.56.242-.908-.199-.794.47-1.317 1.39-1.086.903.227 2.724-.594 2.728-1.23.004-.532.985-1.284 1.446-1.107.178.068.477-.06.664-.285.392-.473 1.146-.527 1.879-.135.812.435.602 1.004-.48 1.3-.546.15-1.344.555-1.774.901-.773.623-.776.637-.314 1.343.643.98 1.533.833 1.904-.318.525-1.622 1.772-2.152 3.058-1.299.677.449.71.443 1.485-.28.435-.408.876-1.006.98-1.33.102-.325.297-.59.433-.59.577 0 .177-.795-.662-1.313-.502-.31-.947-.823-.992-1.144-.111-.775-1.807-1.093-5.49-1.028-3.124.055-6.989-.4-10.469-1.234-4.54-1.088-6.695-1.4-8.466-1.226-1.019.1-1.985.289-2.147.42-.162.13-.99.366-1.84.523-2.153.398-4.666 2.162-6.212 4.361-.648.922-1.269 1.681-1.38 1.687-.374.021-2.047 2.891-2.047 3.512 0 .718.38 1.31 2.33 3.628 1.73 2.055 2.731 2.805 5.786 4.333 6.574 3.288 10.63 4.183 14.87 3.28 1.218-.259 2.43-.586 2.694-.727zm-3.125-6.781c-.397-.16-.436-.787-.063-1.017.398-.246 1.32.117 1.32.52 0 .274-.655.757-.881.65a18.45 18.45 0 0 0-.376-.153zm3.482-.19c-.227-.592.098-.958.852-.958.537 0 .648.113.58.595-.101.71-1.193.986-1.432.362zm-17.25-1.537c-.176-.176-.32-.488-.32-.693 0-.21-.162-.31-.372-.23-.629.242-1.259-.46-1.475-1.643-.223-1.216.172-1.71.892-1.112.255.212.568.22 1.072.03.39-.15.881-.271 1.09-.271.545 0 .468.896-.123 1.431-.765.693-.892 1.51-.26 1.675.29.076.489.318.445.544-.105.54-.551.667-.949.27zm4.836-.75c-.467-1.036-.466-1.074.026-1.447.278-.21.76-.386 1.069-.39.31-.006.711-.188.892-.406.49-.59 1.256-.48 1.733.248.233.354.77.72 1.194.814 1.008.221 1.19.56.502.928-.433.232-.692.206-1.188-.12-1.176-.77-2.213-.431-2.62.854-.299.94-1.072.708-1.608-.48zm7.202-1.317c-.1-.384.072-.653.633-.984.938-.554.866-.914-.246-1.233-.513-.147-.84-.413-.84-.684 0-.369.257-.435 1.522-.396.837.026 1.558.065 1.602.085.045.02-.132.4-.394.842-.297.503-.377.875-.213.992.332.238.923 1.286.923 1.64 0 .147-.638.267-1.424.267-1.202 0-1.446-.082-1.563-.529zm-10.007-.168c-.298-.36-.259-.496.264-.92.69-.558 1.089-.449 1.089.3 0 .74-.908 1.156-1.353.62zm7.624-1.057c-.416-.416-.152-.892.495-.892.504 0 .658.12.592.46-.093.482-.769.75-1.087.432zm-13.383-.7c-.672-.672-.18-1.515.885-1.515.387 0 .694.869.44 1.247-.289.43-1.016.576-1.325.267zm2.537-.886c-.104-.103-.188-.558-.188-1.01 0-.596.235-1.03.851-1.57.763-.67.983-.73 2.117-.58.998.133 1.265.089 1.265-.21 0-.415.708-.783 1.074-.556.128.079.161.496.075.927-.152.76.215 1.095.571.518.09-.145.585-.264 1.099-.264.692 0 .969.129 1.065.496.071.273.417.65.769.839.85.454.824 1.207-.048 1.426-.722.181-1.43-.204-1.43-.778 0-.544-1.096-.668-1.869-.211-1.174.693-2.049.067-1.154-.827.378-.378.367-.416-.117-.416-.293 0-.604.115-.69.256-.088.14-.497.188-.91.106-.844-.17-1.177.17-1.199 1.219-.01.465-.178.691-.554.745-.297.043-.624-.007-.727-.11zm16.333-.39c-.208-.335.362-.967.942-1.043.759-.1 1.058.013 1.058.398 0 .724-1.627 1.249-2 .646zm-5.356-.82c-.174-.175-.317-.469-.317-.653 0-.438.995-.963 1.476-.779.547.21.46 1.156-.136 1.475-.638.341-.638.341-1.023-.044zm9.573-.067c-.2-.524-.037-.723 1.088-1.322 1.096-.583 1.794-.364 1.939.608.063.426-.053.569-.463.569-.301 0-.548.119-.548.264 0 .426-1.849.317-2.016-.12zm-4.291-1.267c-.535-.535-.336-.945.614-1.258.968-.32 1.46-.196 1.46.366 0 .277-.571.677-1.611 1.13-.086.038-.295-.07-.463-.238zm-2.512-.907c-.309-.308-.19-1.084.188-1.23.408-.156.958.286.958.77 0 .173-.188.388-.418.476-.518.199-.513.199-.728-.016zm-5.997-1.226c0-.916 1.335-1.283 2.246-.617.48.351.477.372-.065.662-.772.413-2.181.384-2.181-.045zm106.603 16.296c.17-.116-.823-1.135-1.106-1.135-.338 0-2.045 1.876-2.045 2.248 0 .16.136.429.303.595.228.229.606.064 1.521-.665a82.93 82.93 0 0 1 1.327-1.043zm-78.248.045c.119-.444.097-.88-.052-1.028-.344-.344-.328-1.299.027-1.654.204-.204.06-.445-.503-.847-.863-.614-1.295-.684-1.894-.305-.328.207-.27.374.352 1.024.505.527.787 1.149.877 1.931.074.635.183 1.313.244 1.507.178.569.726.206.949-.628zm1.903-2.635c.17-.444.126-.466-.471-.236-.517.198-.551.633-.05.633.203 0 .437-.179.52-.397zm.781-1.224c1.522-.783 2.262-2.102 1.372-2.444-.5-.192-.517-.86-.026-1.048.465-.179.687.035.687.659 0 .735.69.58 1.314-.295l.555-.78-.537-.288c-.296-.158-.538-.46-.538-.67 0-.503 1.228-.8 1.698-.411.295.245.662-.042 1.86-1.455.822-.968 1.45-1.896 1.395-2.062-.153-.467-1.513-.545-1.513-.086 0 .613-.755 1.12-1.123.753-.414-.415-1.185-.387-1.444.052-.256.434-3.03 2.55-3.345 2.55-.124.001-.59.262-1.037.58-.447.319-1.537.782-2.422 1.03-1.103.31-1.575.564-1.499.81.061.198.102.657.09 1.02-.028.894.41 1.1 1.324.627.879-.454 1.295-.238 1.94 1.009.438.847.46.855 1.25.45zm-4.88-5.751c.83-.119 1.225-.303 1.225-.57 0-.216-.204-.394-.453-.396a1.29 1.29 0 0 1-.78-.33c-.455-.455-.85-.413-1.96.21-.543.306-1.177.47-1.461.38-.742-.235-.394.445.49.96.51.297.87.347 1.22.171.272-.138 1.046-.329 1.72-.425zm15.974-.548c1.2-.81 1.712-1.55 1.843-2.661.099-.847.982-1.064 1.185-.29.213.817.58.694 2.494-.837 2.906-2.325 5.784-5.877 7.065-8.717.046-.102-.222-.451-.596-.776-.62-.54-.679-.77-.679-2.644 0-2.106-.285-2.77-.786-1.834-.156.291-.814 1.053-1.463 1.693-.877.864-1.465 1.208-2.296 1.34-1.437.23-1.805.555-1.805 1.594 0 .463-.297 1.603-.661 2.53-.364.93-.662 1.77-.662 1.868 0 .099.487.245 1.08.325 1.307.175 1.414.264 1.071.89-.146.27-.337.825-.424 1.235-.239 1.128-.954.798-1.463-.674-.332-.963-.505-1.18-.745-.94-.172.172-.312.416-.312.542 0 .368-2.606 4.699-3.731 6.202-.568.758-1.032 1.502-1.032 1.654 0 .488.738.296 1.917-.5zm7.707-8.61c-.217-.565.515-1.323 1.071-1.11.44.17.591 1.235.175 1.235-.134 0-.43.072-.66.16-.253.098-.482-.014-.586-.285zm-2.477-1.856c-.266-.32-.244-.426.117-.564.522-.2 1.077.254.82.67-.244.395-.55.36-.937-.106zm3.828-.768c-.428-.313-.45-.432-.15-.794.369-.445 1.744-.586 1.98-.204.188.304-.586 1.366-.995 1.366-.182 0-.558-.165-.835-.368zm-1.516-1.513c-.603-.34-.626-1.365-.028-1.247.239.047.563.29.721.541.385.61-.06 1.063-.693.706zm-21.023 9.62c.076-.4.227-1.025.336-1.389.196-.653.192-.655-.355-.172-.925.816-1.39.027-.95-1.614.204-.761 1.156-.816 1.156-.066 0 .291.115.53.255.53.435 0 .75-.867 1.018-2.807.264-1.9.172-3.172-.246-3.43-.128-.08-.233-.83-.233-1.669 0-1.959-.533-3.72-2.163-7.141-.886-1.86-1.265-2.956-1.163-3.362.09-.362-.007-.762-.246-1-.218-.219-.397-.585-.397-.813 0-.229-.127-.416-.282-.416-.368 0-.055 1.034.512 1.691.414.48.407.486-.186.132-.34-.202-.908-.933-1.261-1.625-.573-1.118-.738-1.254-1.5-1.237-1.12.025-2.42.801-2.525 1.507-.082.556.187.664 2.332.941.218.028.437.336.486.684.05.348.494 1.013.987 1.478.823.777.87.903.571 1.54-.335.717-.799.945-1.556.765-.334-.08-.44-.42-.448-1.44-.006-.736-.107-1.43-.224-1.543-.25-.243-2.85-.816-3.736-.824-.337-.003-.763.199-.946.45-.23.314-.513.4-.91.274-.694-.221-.734-.62-.111-1.127.254-.207.344-.43.198-.496-.834-.379-.989-.618-.824-1.274.175-.7 1.02-.965 1.353-.425.467.754 2.514-.32 2.514-1.319 0-.238.168-.662.373-.942.362-.496.388-.496.91-.025.563.51 1.098.396 1.098-.236 0-.206-.264-.917-.586-1.58-.624-1.284-1.333-1.51-1.481-.472-.085.596-.895 1.032-1.37.739-.147-.091-.269-.605-.27-1.142-.003-.891-.295-1.275-3.336-4.397-2.737-2.81-3.409-3.373-3.767-3.152-.239.148-1.232 1.45-2.207 2.892-.975 1.442-2.047 2.965-2.382 3.384-.334.419-.941 1.371-1.349 2.117-.669 1.223-.725 1.522-.577 3.074.179 1.882.228 2.087 1.44 5.953 1.578 5.033 4.736 10.629 6.67 11.82.55.339 1.002.7 1.006.802.004.103.433.267.953.364 1.142.214 1.609-.129 1.204-.885-.337-.63.332-1.385 1.227-1.385.307 0 .863-.116 1.236-.258 1.46-.555.28-2.295-1.338-1.971-.556.11-.967.006-1.424-.365-.569-.46-.6-.573-.267-.973.373-.45.998-.445 2.613.024.54.156.603.108.457-.352-.286-.899.266-1.926 1.035-1.926.538 0 .706.161.833.794.16.803.229.846 1.416.897.496.022.663.176.669.619.004.324.202.74.44.926.239.185.474.569.523.853.062.356.431.603 1.19.794.605.152 1.335.49 1.621.752.365.333.73.424 1.217.302.75-.188 1.483.229 1.483.843 0 .223-.288.364-.744.364-.477 0-1.01.277-1.485.773-.7.73-.717.806-.32 1.374.387.551.386.641-.01 1.08-.238.262-.586.477-.773.477-.634 0-.68.543-.128 1.48.302.512.55 1.145.55 1.405 0 .482.84 1.034 1.624 1.066.269.011.485-.257.57-.71zm-14.582-8.07c.102-.714 1.04-.933 1.52-.355.463.558.13.95-.808.95-.674 0-.783-.09-.712-.594zm11.133-1.997c-.521-.078-.581-.218-.497-1.16.053-.588.244-1.16.424-1.27.19-.119.255-.428.155-.743-.217-.682.208-.959.903-.587.546.292.727 1.176.295 1.443-.29.179-.06 1.206.27 1.206.129 0 .234.224.234.498 0 .526-.72.773-1.784.613zm-12.768-.961c0-.425.91-.803 1.32-.549.583.36.26.928-.526.928-.513 0-.794-.134-.794-.38zm10.107-2.055c-.518-.519-.364-1.571.39-2.659l.706-1.02.534.534c.482.482.497.6.16 1.23-.333.624-.323.735.098 1.042.444.325.437.369-.132.768-.719.503-1.322.539-1.756.105zm-6.403-1.199c-.587-.223-.815-.663-.668-1.291.081-.348-.067-.737-.394-1.033-.737-.667-.662-1.012.424-1.966.756-.663 1.027-.77 1.323-.524.521.432.468.745-.222 1.306-.58.473-.584.503-.132 1.274.255.434.463.97.463 1.19 0 .22.14.446.311.503.383.128.044.742-.393.713a3.03 3.03 0 0 1-.712-.172zm4.055-1.328c-.09-.255-.398-.653-.685-.885-.444-.358-.474-.511-.204-1.017.269-.501.237-.685-.2-1.166-.705-.777-.461-1.232.663-1.232.935 0 .938.004.803 1.01-.09.678.027 1.342.36 2.026.37.763.421 1.106.2 1.372-.402.485-.743.445-.937-.108zm-5.995-6.328c-.41-.41-.136-.882.513-.882.52 0 .65.103.53.419-.089.23-.161.468-.161.529 0 .178-.69.127-.882-.066zm-1.472-2.304c-.178-.215-.303-.549-.277-.741.101-.746-.033-1.012-.512-1.012-.698 0-1.144-.634-1.044-1.485.106-.891.73-1.155.929-.392.214.819 1.238.986 1.912.312.589-.589.796-.644 1.456-.391.62.237.51.826-.247 1.322-.506.331-.597.52-.378.784.159.19.25.682.203 1.09-.07.615-.227.758-.901.824-.483.047-.95-.08-1.141-.311zm3.44-1.058c-.533-.642.356-1.773 1.054-1.342.4.247.27 1.373-.177 1.545-.55.21-.53.216-.877-.203zm.284-3.672c.047-.327.264-.595.482-.595.218 0 .435.268.481.595.065.459-.045.596-.481.596s-.547-.137-.482-.596zm-4.744.138c-.48-.168-.405-1.118.102-1.313.513-.196 1.287.231 1.287.71 0 .387-.895.776-1.389.603zm28.29 28.595c.728-.66.602-1.15-.294-1.15-.899 0-1.178.315-.941 1.06.203.642.593.67 1.235.09zm-5.488-1.301c.568-.568.523-1.172-.088-1.172-.321 0-.603.287-.78.794-.22.632-.202.794.088.794.2 0 .551-.187.78-.416zm6.191-2.495c.355 0 .37-.064.15-.64-.245-.636-.735-.502-1.231.339-.514.87-.316 1.285.332.699.242-.219.579-.398.75-.398zm-2.667-1.958c1.426-2.255 1.69-2.976.993-2.708-.586.224-1.191-.087-1.191-.613 0-.253-.23-.668-.511-.922-.62-.562-.436-1.21.34-1.199.8.012 1.61.695 1.619 1.364.012.951.622.838 1.054-.195.76-1.82.475-2.5-1.053-2.5-.343 0-.697-.118-.787-.263-.09-.145-.543-.243-1.008-.218-.464.024-1.31-.053-1.88-.171-.95-.199-1.018-.176-.83.284.113.275.271.738.352 1.03.08.29.485 1.159.899 1.93.595 1.106.695 1.509.476 1.918-.153.284-.422.519-.599.52-.176.003-.589.076-.916.164-.497.133-.596.054-.596-.48 0-.352.15-.79.331-.976.265-.27.205-.439-.307-.857-.35-.286-.827-.628-1.058-.76-.336-.191-.36-.34-.118-.736.535-.874-.05-2.708-.864-2.708-.448 0-.485 1.249-.07 2.298.162.41.556 2.055.876 3.655.515 2.577.648 2.92 1.16 2.995.319.047.58.231.58.41 0 .5.574.962 1.177.948.385-.01.944-.648 1.931-2.21zm-2.152.181c-.09-.09-.163-.44-.163-.78 0-.438.152-.618.521-.618.338 0 .471-.13.379-.37-.078-.203-.01-.452.152-.552.337-.208 1.065.31 1.065.756 0 .386-1.74 1.778-1.954 1.564zm90.785 1.589c.051-.156-.18-.508-.514-.783-1.3-1.07-1.567-1.552-1.28-2.31.149-.389.569-.984.934-1.323l.663-.615-2.579-1.738a764.891 764.891 0 0 1-3.637-2.463c-2.15-1.475-3.212-2.146-4.698-2.97-.838-.465-1.791-1.078-2.119-1.363-.597-.52-3.589-2.386-3.824-2.386-.07 0-.478-.251-.91-.558-1.053-.75-1.357-.358-.356.46l.794.649-.742.606c-.662.54-.697.643-.325.952.245.204.353.55.261.84-.288.909 2.465 2.867 3.763 2.676 1.342-.197 2.657.907 1.607 1.35-.362.152 1.938 2.425 3.506 3.464.51.337 2.217 1.788 3.796 3.223 2.862 2.604 2.873 2.61 4.217 2.591.742-.01 1.39-.147 1.443-.302zm-9.632-7.37c-.246-.641.283-1.011.941-.659.663.355.715.692.14.913-.657.252-.91.193-1.08-.254zm-2.178-1.15c-.53-.337-.164-1.114.426-.903.634.226 1.134.628 1.134.912 0 .3-1.081.294-1.56-.01zm-91.158 7.01c.175-.697-.776-2.27-1.372-2.27-.506 0-1.457 1.36-1.37 1.958.077.53.817.873 1.991.926.415.018.638-.164.751-.614zm-4.913-.522c0-.414-.713-.771-1.082-.543-.388.24-.278.598.222.729.793.207.86.193.86-.186zm6.482-.69a.52.52 0 0 0-.33-.463c-.197-.066-.331.122-.331.463 0 .34.134.529.33.463a.52.52 0 0 0 .331-.463zm18.764-.7c.091-.239.112-.489.045-.555-.21-.21-.685.212-.685.61 0 .518.434.482.64-.054zm-19.698-.69c-.016-.607-.746-1.328-1.179-1.162-.38.146-.378.223.018.827.456.697 1.175.905 1.16.336zm20.635-1.694c.452-.766.499-1.013.224-1.186-.734-.466-2.065.006-2.065.731 0 .308.899 1.34 1.23 1.413.022.005.297-.426.61-.958zm22.5-2.073c1.528-.38 3.433-.853 4.234-1.05 2.891-.711 5.187-1.639 6.603-2.667 2.79-2.026 4.023-3.71 4.49-6.132.572-2.961.572-2.986.026-2.986-.28 0-.605.157-.721.35-.311.512-2.627 2.04-4.43 2.921-1.662.814-3.987 1.464-5.307 1.486-.802.012-1.225.479-2.239 2.465-.62 1.216-2.055 2.741-2.843 3.024-.407.145-1.215.406-1.797.58-.582.173-1.594.541-2.249.816l-2.51 1.057c-1.044.44-1.236.61-.925.822.628.428 4.628.07 7.668-.686zm58.877-3.773a303.727 303.727 0 0 0-.42-6.68c-.138-1.82-.36-4.915-.494-6.88-.23-3.396-.615-5.572-1.863-10.518-.736-2.915-.952-3.436-1.848-4.457-.775-.882-2.658-4.619-2.658-5.273 0-.197-.103-.422-.23-.5-.126-.078-.312-.978-.413-2-.1-1.022-.4-3.133-.666-4.691-.307-1.807-.47-3.989-.447-6.02.034-2.978.088-3.288.83-4.756 1.185-2.344 5.028-6.068 9.288-9.001 1.44-.992 2.675-1.854 2.745-1.916.137-.122-1.453-1.595-3.566-3.303-1.219-.985-3.682-3.222-7.485-6.796-1.56-1.465-3.832-3.047-6.458-4.496-2.232-1.231-3.173-1.146-5.189.472-.892.716-1.894 1.385-2.226 1.486-.331.101-.786.345-1.01.54-.225.197-1.118.435-1.985.529-2.145.233-3.265 1.043-4.67 3.377a95.771 95.771 0 0 1-1.963 3.121c-.997 1.49-1.917 4.605-1.486 5.036.159.158.982.521 1.828.806.847.284 1.718.662 1.936.84.219.179 1.171.725 2.117 1.214 4.724 2.446 7.98 4.52 9.422 6.005.469.483.971.878 1.116.878.145 0 .343.473.44 1.051.099.578.4 1.331.67 1.674.27.344.566.972.66 1.397.093.425.45 1.428.792 2.228.342.8.798 2.468 1.013 3.705.215 1.237.64 2.903.944 3.704.304.8.553 1.715.553 2.032 0 .318.346 1.514.768 2.659.964 2.614.867 3.179-.72 4.184-3.614 2.29-6.219 3.431-12.35 5.412-4.724 1.525-6.238 1.842-11.19 2.34-1.207.122-2.314.342-2.462.49-.332.332 1.95 2.398 5.846 5.292 1.528 1.136 3.009 2.273 3.291 2.528.282.254.616.463.742.463.255 0 3.318 2.032 3.841 2.549.184.18 1.553 1.126 3.043 2.101 1.49.975 3.16 2.083 3.71 2.464.55.38 1.46.989 2.023 1.352a70.544 70.544 0 0 1 2.254 1.544c1.095.784 2.198 1.449 5.438 3.277.51.288 1.164.728 1.455.98.777.67 3.177 2.137 3.496 2.137.152 0 .424.179.605.397.181.218.503.397.715.397.326 0 .36-.52.218-3.374zm-13.175 2.42c-.088-.088-.317-.097-.508-.02-.21.084-.148.146.16.159.28.012.435-.051.348-.139zm-64.441-.574c.398-.398-.423-.711-2.82-1.076-1.016-.154-1.89-.405-1.94-.558-.051-.153-.237-.278-.414-.278-.621 0-4.073-4.132-5.526-6.614a14.082 14.082 0 0 0-1.67-2.202c-.945-.98-3.424-2.296-4.328-2.296-.9 0-4.419-1.96-5.649-3.145-.696-.672-1.818-2.025-2.494-3.007-.675-.982-1.342-1.786-1.483-1.786-.829 0 .723 5.025 2.388 7.734.334.543.61 1.138.612 1.323.003.185.24.633.524.997.284.364.52.857.523 1.095.008.618 1.974 3.465 2.7 3.911 1.224.752 3.804 2.067 4.45 2.269.363.113 1.279.488 2.033.832.755.343 1.487.625 1.627.625.14 0 1.309.484 2.595 1.075 1.287.592 2.758 1.182 3.268 1.312 1.24.315 5.228.165 5.604-.211zm11.992-.596c1.02-.464 2.21-1.001 2.647-1.194 1.295-.57 2.984-1.903 3.176-2.508.11-.349.027-.73-.22-1.006-.595-.663-.276-1.865.549-2.072.463-.116.737-.039.902.256.13.233.406.358.614.279.537-.206 1.516-1.954 1.344-2.4-.18-.468.807-2.446 1.246-2.5.18-.023.503-.053.72-.067.215-.015.437-.265.49-.555.168-.901.594-1.19 1.753-1.19 1.334 0 1.914-.528 2.038-1.853.068-.717.218-.944.665-1.008.773-.11 1.126.625.915 1.906-.183 1.106-.356 1.253-2.101 1.77-.626.185-1.34.494-1.588.686-.42.328-.417.376.053.74.692.535.196 1.094-1.382 1.554-1.567.457-1.86 1.09-.41.883 2.457-.349 3.135-.582 3.23-1.11.152-.84.463-1.004 1.95-1.035l1.398-.03-.085-.987-.085-.987h1.32c1.146 0 1.409-.107 1.997-.806.373-.443.928-1.366 1.233-2.05.474-1.064.529-1.541.378-3.273-.188-2.172-.72-3.132-1.732-3.132-.29 0-1.447-.29-2.57-.643a64.896 64.896 0 0 0-3.849-1.067c-2.663-.624-3.715-1.374-3.443-2.455.125-.5.042-.597-.506-.597-.552 0-.681.156-.82.992-.09.546-.165 1.425-.166 1.953-.002.782-.198 1.138-1.043 1.901-1.19 1.075-2.273 1.441-4.967 1.677-2.507.22-4.031-.196-4.645-1.266-.523-.91-.99-.793-.991.248-.001.853-1.188 6.995-1.568 8.12-.148.437-.636 3.056-1.086 5.82-.822 5.058-.868 7.382-.157 7.886.564.4 2.947-.037 4.796-.88zm1.332-3.048c-.577-.756-.653-1.012-.396-1.323.176-.211.611-.385.968-.385.356 0 .816-.167 1.021-.373.375-.374 1.326-.292 1.591.138.263.426-.744 2.108-1.495 2.496-.963.498-.862.531-1.689-.553zm-2.42-2.353c-.287-.748.018-1.339.692-1.339.816 0 1.055.874.375 1.372-.614.448-.886.44-1.068-.034zm4.449-1.68c-.402-.314-.55-.628-.435-.927.212-.552.405-.56 1.601-.06.654.273.911.534.85.86-.122.641-1.266.713-2.016.127zm2.58-2.055c-.285-.344-.246-.506.238-.99.537-.537.631-.55 1.28-.184.958.54 1 .865.16 1.255-.933.433-1.264.417-1.677-.08zm-2.604-.743c-.24-.29-.185-.688.249-1.79.607-1.54.868-1.808 1.772-1.814.605-.004.828.615.33.922-.145.09-.264.618-.264 1.174 0 .556-.148 1.13-.33 1.275-.635.508-1.44.614-1.757.233zm-2.845-1.098c-.197-.511.358-1.187.974-1.187.581 0 .793.503.474 1.125-.293.568-1.239.609-1.448.062zm6.827-1.267c-.157-.19-.32-.875-.363-1.522l-.076-1.176h1.187c.92 0 1.207.104 1.276.463.062.32-.08.463-.46.463-.662 0-.726.668-.098 1.02.38.212.396.318.1.674-.424.512-1.175.549-1.566.078zm-5.47-1.52c-.222-.699.275-1.294.936-1.12.344.09.577-.03.699-.359.1-.27.31-.58.466-.687.514-.352 1.678-.215 1.844.218.216.562-.026.902-.64.902-.278 0-.626.226-.773.502-.232.433-1.526 1.086-2.153 1.086-.114 0-.285-.244-.38-.542zm-.757-2.05c-.072-.117-.035-.366.082-.556.29-.47 1.181-.259 1.29.307.065.338-.087.46-.577.46-.365 0-.723-.095-.795-.211zm9.336-1.685c-.366-.685.099-1.068.926-.762.724.268.705.82-.039 1.096-.463.171-.655.099-.887-.334zm-36.754 17.25c0-.249-.836-.802-1.214-.802-.105 0 .025.238.288.529.513.567.926.689.926.274zm-65.266-.713c1.189-1.456 3.278-3.514 4.941-4.867.946-.77 1.915-1.587 2.153-1.816 5.702-5.502 6.2-6.064 7.326-8.25 2.982-5.788 3.3-6.532 3.779-8.837.768-3.7.625-8.648-.26-8.98-.236-.088-.78-.354-1.207-.59-.427-.235-1.287-.485-1.91-.555-.806-.091-1.18-.272-1.292-.624-.087-.272-.296-.495-.465-.495-.503 0-3.097 1.138-3.097 1.359 0 .112.48.588 1.066 1.06 1.305 1.048 1.049 1.492-.935 1.621-1.387.09-1.345.035-1.233 1.606.027.382.304.737.724.929.832.378.768 1.192-.103 1.316-.47.067-.675-.093-.908-.71-.166-.438-.516-.853-.779-.921-.286-.075-.477-.37-.477-.736 0-.344-.308-.855-.706-1.173-.468-.373-.65-.71-.538-1.002.184-.48 1.114-.598 1.376-.174.09.145.395.264.677.264.365 0 .514-.183.514-.63 0-.805-.631-.977-2.82-.773l-1.678.157-.004.954c-.002.524-.076 1.222-.164 1.55-.135.506-.033.62.68.763 1.256.251 1.005 1.1-.472 1.598-.633.213-1.222.315-1.31.227-.088-.088-.185-.722-.216-1.408a19.722 19.722 0 0 0-.24-2.24c-.176-.947-.232-.992-1.229-.992-.838 0-1.202.17-1.842.86-.439.473-.985 1.217-1.214 1.654-.23.437-.965 1.507-1.635 2.379-1.336 1.738-1.873 2.499-3.779 5.354-1.4 2.097-1.56 2.603-.747 2.352l1.059-.326c.372-.115.529-.041.529.249 0 .226-.12.485-.265.575-.145.09-.264.455-.264.81 0 .355-.127.646-.282.646-.605 0-1.306-.573-1.306-1.068 0-.286-.11-.52-.246-.52-.714 0-2.929 4.327-2.929 5.72 0 1.59 1.831 5.063 4.117 7.808 2.808 3.373 6.012 6.58 6.574 6.58.254 0 .72-.317 1.037-.704zm-3.43-13.19c-.104-.268.053-.658.406-1.01.494-.493.61-.518.832-.177.141.218.227.635.19.926-.087.676-1.192.878-1.429.261zm-3.254-1.964c-.713-.713-.689-1.029.095-1.226 1.137-.285 1.609-.046 1.609.816 0 .998-.9 1.214-1.704.41zm5.717-2.044c-.097-.098-.177-.455-.177-.795 0-.408-.157-.62-.463-.627-1.338-.027-2.754-2.555-1.747-3.118.271-.152.473-.579.48-1.015.007-.565.152-.772.583-.834.447-.063.647.124.913.86.36.996.637 1.093 2.003.7.608-.173.973-.141 1.322.117.804.597-.06 1.192-1.836 1.263-.816.033-1.556.133-1.644.22-.313.314.466 1.514 1.084 1.67.345.086.628.315.628.508 0 .448-.912 1.284-1.146 1.05zm3.949-6.603c-.194-.503.277-.934.901-.824.218.038.397.305.397.594 0 .683-1.053.87-1.298.23zm4.253-.035c-.295-.293-.872-.463-1.578-.463-.936 0-1.112-.084-1.112-.529 0-.453.197-.538 1.368-.592 1.238-.057 1.433.014 2.05.748.376.446.683.92.683 1.055 0 .413-.919.27-1.41-.219zm-8.027-1.012c-.088-.23.01-.588.22-.797.325-.325.45-.326.885-.008.431.315.454.435.154.797-.45.542-1.052.546-1.259.008zm10.524-.21c-.398-.48-.095-1.225.497-1.225.624 0 1.112.622.906 1.157-.201.525-.992.563-1.403.067zm-5.221-1.614c-.231-.602.143-1.017.586-.65.484.401.473.68-.033.874-.229.087-.471-.01-.553-.224zm8.286-1.504c-.556-.31-.582-.982-.047-1.188.459-.176 1.187.337 1.187.836 0 .466-.604.652-1.14.352zm3.393-2.07c-.261-.422.359-1.325.794-1.158.52.2.503 1.053-.026 1.256-.548.21-.58.206-.768-.098zm-3.562-1.18c-.716-.863.552-1.763 1.495-1.062.376.28.415.453.184.832-.38.624-1.253.744-1.68.23zm50.877 31.423c.204-.205-1.115-1.14-1.612-1.143-.42-.002-.428.589-.013 1.004.343.343 1.335.428 1.625.139zm18.426-1.617c.584-.473.865-1.4 1.343-4.422.139-.874.38-1.945.537-2.382.157-.436.394-1.508.526-2.38a74.34 74.34 0 0 1 .509-2.911c.146-.728.342-1.8.433-2.382.092-.582.286-1.288.431-1.569.25-.486.28-.488.608-.04.206.282.294.885.22 1.503-.069.568-.063 1.032.014 1.032.407 0 .954-2.123.885-3.433l-.078-1.461-2.881-.193c-4.102-.273-4.705-.8-4.78-4.169l-.038-1.716-1.31-.202a76.722 76.722 0 0 1-3.426-.657c-4.383-.94-10.827-.399-15.236 1.278-1.104.42-2.238.764-2.52.764-.282 0-.956.366-1.499.813-.927.765-.976.879-.817 1.918.193 1.254.914 2.825 1.531 3.338.23.19.432.272.45.181.018-.09.063-.284.099-.43a5.75 5.75 0 0 0 .1-.784c.017-.286.292-.659.61-.829.489-.261.648-.222 1.034.256.252.31.632.564.846.564.614 0 1.057.723.878 1.436-.21.836.21 1.086.952.567.355-.249.588-.696.595-1.14.01-.541.16-.752.58-.812.312-.044.777-.312 1.033-.595.612-.676 1.087-.65 1.471.08.172.328.474.691.67.808.198.116.36.447.36.736 0 .71.705.933 1.287.407.594-.538.8-.537 1.403.01.664.6.607 1.008-.194 1.373-.554.252-.663.463-.595 1.152.069.701.227.88.942 1.064.832.214 1.138.796.596 1.132-.497.307-.266.661.43.661.63 0 .68.073.535.794-.087.437-.104.794-.037.794.066 0 .68-.536 1.363-1.19.684-.656 1.355-1.192 1.491-1.192.38 0 2.314 2.018 2.12 2.212-.093.093-.404.17-.69.17-.287 0-.802.303-1.146.673-.524.566-.773.646-1.551.5-1.302-.244-1.259.517.064 1.147.782.373.983.612.947 1.127-.127 1.826.926 2.988 1.778 1.961.188-.226.65-.387 1.025-.358.375.03 1.03-.087 1.455-.26.964-.391 1.476-.212 1.476.518 0 .34.21.617.53.7.787.206.65 1.116-.317 2.115-1.331 1.373-2.659 1.012-1.59-.432.9-1.22.376-1.533-1.376-.822-.814.33-1.48.742-1.48.915 0 .436 1.58 1.92 2.381 2.239.364.144 1.512.27 2.55.279 1.438.012 2.029-.097 2.473-.456zm-7.404-6.671c0-.291.127-.53.283-.53.156 0 .469-.185.695-.41.507-.508 1.8-.404 1.8.143 0 .42-1.539 1.292-2.315 1.313-.291.008-.463-.184-.463-.516zm2.5-2.817c-.795-.858-.815-1.27-.089-1.779.678-.474 1.087-.35 1.43.434.18.407.445.564.857.507.73-.102 1.444.553 1.226 1.121-.116.302-.522.417-1.467.417-1.074 0-1.423-.125-1.956-.7zm2.29-1.923c-.612-.388-.126-1.081.758-1.081s.927.065.528.81c-.296.554-.703.64-1.286.27zm-7.04-1.877c-.36-.581.16-1.32.926-1.32.584 0 .777-.137.842-.596.06-.426.292-.62.813-.68.63-.072.727.01.727.612 0 .382.111.626.246.542.382-.236.582.29.395 1.035-.23.914-.871.85-1.21-.12-.333-.955-.683-1.014-1.005-.169-.32.842-1.381 1.267-1.735.696zm8.6-1.566c0-.379.17-.549.548-.549.379 0 .521.143.46.46-.132.69-1.008.767-1.008.089zm-10.75-.075c-.25-.406-.151-2.014.16-2.568.161-.289.631-.423 1.51-.433a16.045 16.045 0 0 0 2.4-.232c.892-.174 1.124-.142 1.124.153 0 .762-1.142 1.402-2.514 1.409-1.245.006-1.328.05-1.407.734-.095.828-.951 1.458-1.273.937zm7.198-2.029c-.08-.128.122-.722.447-1.32.421-.776.763-1.09 1.187-1.091.699-.003.742.374.194 1.685-.304.728-.554.958-1.042.958-.354 0-.707-.104-.786-.232zm-6.142-3.34c-.278-.723.12-1.23.895-1.142.573.066.747.24.813.812.075.655.002.727-.736.727-.485 0-.882-.162-.972-.396zM50.79 187.397c.59-.91 1.197-1.98 1.347-2.38.151-.401.388-.728.526-.728.482 0 1.901-4.269 2.186-6.573.36-2.9.127-7.118-.504-9.153-.386-1.245-.663-1.67-1.336-2.046l-.85-.474-.002.722c-.002.398-.08 1.183-.172 1.745-.16.972-.14 1.013.433.832.388-.124.677-.069.815.153.302.49-.176 1.248-.851 1.347-.404.06-.697.427-.993 1.243-.41 1.131-.406 1.167.175 1.554.328.217.596.63.596.915 0 .449-.153.508-1.125.43-1.006-.079-1.133-.023-1.211.526-.048.338-.376 1.04-.728 1.558-.751 1.107-.769 1.228-.244 1.664.478.397.507.843.083 1.267-.242.242-.414.223-.752-.084-.395-.356-.54-.316-1.443.401-.552.439-1.24.797-1.53.797-.47 0-.508.12-.35 1.125.098.618.5 1.742.894 2.498.77 1.475 3.17 4.298 3.663 4.309.164.003.782-.738 1.373-1.648zm-.747-7.077c0-.846.226-.991.74-.476.512.511.386 1.27-.21 1.27-.412 0-.53-.177-.53-.794zm.156-2.343c-.27-.438.14-1.097.685-1.097.386 0 .497.152.434.593-.087.613-.841.953-1.119.504zm2.137-1.273c-.335-.335-.174-1.066.336-1.528.68-.615 1.075-.323 1.075.794 0 .777-.09.91-.617.91-.34 0-.697-.08-.794-.176zm32.897 11.553c0-.145-.053-.264-.117-.264s-.19.119-.28.264c-.09.146-.038.265.116.265.155 0 .28-.12.28-.265zm81.937-.575c.976-.917.836-1.173-1.372-2.519-1.124-.685-1.908-.93-3.44-1.074-1.494-.14-1.564-.122-1.2.318.212.256 1.105.95 1.984 1.543.879.592 1.657 1.147 1.73 1.234.168.198 1.417 1.04 1.57 1.06.064.007.391-.246.728-.562zm-1.24-4.055c-.18-.218-.438-.397-.571-.397-.304 0 .355.77.67.784.127.006.083-.169-.098-.387zm-2.255-1.614c-1.437-1.146-3.196-1.04-2.138.128.336.371.797.507 1.679.493l1.215-.018-.756-.603zm-4.888.02c0-.222.31-.521.69-.666.584-.222.638-.325.352-.67-.674-.812-1.21-.92-1.845-.37-.33.287-.761.522-.957.522-.573 0-.413.443.37 1.028.87.649 1.39.707 1.39.156zm-59.531-3.036c0-.44-.177-.53-1.041-.53-.807 0-1.078-.118-1.208-.526-.092-.29-.09-.65.002-.801.094-.151-.093-.488-.415-.748-.49-.397-.536-.564-.284-1.035.327-.61.088-.905-.855-1.052-.377-.058-.447.033-.3.39.384.937.273 1.258-.464 1.343-.601.07-.727.213-.727.827 0 .956.415 1.281 2.588 2.028 2.232.767 2.703.785 2.703.104zm58.052-.166c.2-.52-.214-1.061-1.2-1.571-1.032-.534-1.14-.477-.541.285.3.382.464.888.385 1.19-.11.422-.006.526.527.526.369 0 .737-.19.829-.43zm-64.652-2.282c.432-.518.704-1.52.412-1.52-.056 0-.437.173-.846.385-.886.46-1.433.148-1.433-.815 0-.65-.185-.745-.905-.469-.71.273-.466 1.058.641 2.058 1.24 1.12 1.466 1.158 2.13.361zm96.864-2.248c.023-1.42.02-2.759-.006-2.977a49.094 49.094 0 0 1-.13-1.728c-.085-1.368-.826-2.887-1.274-2.61-.287.178-.085 3.192.469 6.984.202 1.382.368 2.603.369 2.712 0 .109.12.198.266.198.155 0 .282-1.064.306-2.58zm-40.126 1.256c.09-.145-.022-.264-.249-.264s-.412.119-.412.264c0 .146.112.265.249.265s.322-.12.412-.265zm1.588 0c-.09-.145-.276-.264-.413-.264-.137 0-.249.119-.249.264 0 .146.186.265.413.265.226 0 .339-.12.249-.265zm-.219-1.216c.103-.268-.089-.63-.526-.992a2.106 2.106 0 0 1-.765-1.494c-.053-.63-.225-.951-.54-1.011-.54-.103-.626.843-.21 2.297.393 1.367 1.686 2.127 2.041 1.2zm-56.837-.504c.056-.288.325-.68.599-.872.533-.373.679-1.112.219-1.112-.416 0-2.363 1.158-2.366 1.407-.01 1.094 1.35 1.602 1.548.577zm32.532-4.688c.074-.639.166-.699.86-.56.775.155.777.152.777-1.142 0-.746-.175-1.547-.412-1.885-.664-.948-2.355-.734-2.767.35-.138.362-.54.669-1.013.773-1.286.282-1.892 2.653-.638 2.5.255-.032.881.136 1.39.372 1.224.568 1.703.46 1.803-.408zm-11.304-.67c.147-.41.649-.92 1.155-1.173.839-.419.905-.419 1.068 0 .308.795.964-.452.874-1.662-.147-1.983-2.667-2.871-4.584-1.615-.696.456-1.45 1.973-1.441 2.896.008.732.747 1.662 1.582 1.99.98.384 1.062.358 1.346-.435zm-.694-2.99c-.206-.334.369-.825.803-.687.145.046.264.25.264.455 0 .468-.812.644-1.067.231zm46.38-.957c2.582-.793 5.05-1.536 5.487-1.65.437-.115 1.482-.524 2.323-.91s1.64-.702 1.773-.702c.631 0 3.974-1.989 3.973-2.363-.002-.604-1.964-9.802-2.92-13.689-.45-1.832-1.096-3.77-1.435-4.306-1.026-1.626-3.163-3.32-5.888-4.669-2.999-1.484-4.78-2.526-6.357-3.722-.685-.52-1.59-.922-2.319-1.031-1.143-.171-1.318-.102-4.036 1.606-1.562.981-3.615 2.41-4.56 3.174-2.779 2.245-7.726 7-8.789 8.448-2.199 2.993-4.152 5.386-5.225 6.4-.504.477-.834.95-.733 1.05.101.1.773.276 1.493.39.747.118 1.545.443 1.858.755.301.302.726.548.945.548.81 0 .361.721-.658 1.058-.58.19-1.251.565-1.492.83-.24.266-.837.558-1.326.65-.798.15-.89.258-.89 1.046 0 .923.7 1.432 1.386 1.007.183-.113.57-.21.859-.215.374-.007.565-.239.663-.804.11-.64.286-.81.907-.881.498-.057.852.06 1.004.33.27.482.888.553 1.148.131.098-.158.055-.41-.096-.561-.584-.584.539-1.696 1.386-1.37.63.241.498 1.095-.246 1.582-.4.262-.661.683-.661 1.064 0 .768.113.783.794.102.29-.29.652-.529.802-.529.592 0 .519.772-.136 1.426-.583.583-.663.838-.513 1.636.177.943.175.945-.713.86-.583-.056-.92-.24-.976-.533-.124-.656-1.904-2.536-1.904-2.011 0 .238-.376.556-.86.727l-.86.306.729.635c.4.349 1.145.713 1.654.808.63.119.925.318.925.629 0 .392-.213.439-1.522.338-.837-.065-1.634-.224-1.773-.353-.138-.129-.498-.235-.8-.235-.85 0-1.726-.747-1.726-1.47 0-1.07-.449-.727-.625.478a56.32 56.32 0 0 1-.316 1.918c-.098.515-.006.98.262 1.323.37.474.449.486.745.116.583-.729 1.243-.795 2.342-.234 3.268 1.667 10.892 2.683 18.299 2.439 3.815-.126 4.015-.163 8.599-1.572zm-20.479-2.337c-.204-.532 1.931-2.622 3.236-3.167.998-.417 1.696-.381 1.696.087 0 .307-1.889 2.155-2.203 2.155-.129 0-.588.297-1.02.661-.894.752-1.486.844-1.709.264zm5.843-1.48c-.219-.353.615-1.097 1.063-.948.151.05.275.32.275.599 0 .584-1.027.853-1.338.35zm2.58-.028c-.377-.378-.094-1.005.456-1.005.665 0 1.497.668 1.121.901-.544.336-1.294.386-1.576.104zm-7.258-3.195c-1.199-.527-1.25-.594-1.212-1.575.026-.68.197-1.11.508-1.276 1.084-.58 2.375.016 1.469.679-.24.176-.438.447-.438.603 0 .401 1.02.677 1.402.38.611-.477 1.514-.547 1.912-.148.555.555.147 1.142-1.095 1.574-1.217.424-.993.445-2.546-.237zm24.907-2.374c-1.121-1.244-2.364-3.144-2.214-3.386.543-.88 2.066.266 3.158 2.377.745 1.44.083 2.149-.944 1.01zm-21.586-1.423c-.102-.265.042-.595.374-.86.296-.236.676-.697.844-1.024.168-.327.512-.595.766-.595s.727-.187 1.052-.414c.717-.503 1.643-.271 1.643.41 0 .335-.264.549-.833.674-.458.1-1.287.646-1.842 1.211-1.076 1.098-1.737 1.296-2.004.598zm-6.077-.505c-.245-.64.622-1.225 1.68-1.136.465.04.932-.014 1.036-.119.388-.387 1.51-.173 1.99.38.935 1.078.422 1.326-1.275.617-.834-.349-1.014-.351-1.38-.02-.233.208-.75.46-1.148.56-.555.139-.767.072-.903-.282zm12.21-.124c-.207-.335.53-.635 1.06-.432.218.084.397.275.397.425 0 .352-1.24.357-1.457.006zm.134-1.586a.265.265 0 0 1 .529 0 .265.265 0 0 1-.53 0zm4.836-.297c-.43-.43-.11-1.026.55-1.022.82.006 1.33.407 1.143.896-.187.486-1.253.566-1.693.126zm-18.277-.285c-.829-.829.27-1.517 1.287-.805l.58.406-.63.35c-.786.435-.848.438-1.237.05zm23.76-.05c0-.445 1.001-1.1 1.27-.832.248.248-.337 1.055-.836 1.153-.252.05-.434-.086-.434-.322zm-9.382-.36c-.12-.314.044-.651.516-1.058.762-.655.898-.69 1.404-.37.263.167.172.416-.39 1.055-.826.942-1.27 1.05-1.53.374zm12.766-.416a8.788 8.788 0 0 0-1.347-1.073c-.5-.31-.694-.607-.596-.915.09-.283-.16-.79-.661-1.339-.737-.806-.771-.922-.397-1.336.226-.249.41-.688.41-.974 0-.287.143-.665.318-.84.568-.568 1.215-.336 1.827.654l.6.971-.579.384c-.673.448-.793 1.768-.181 2.003.218.084.397.364.397.624 0 .259.416.804.926 1.21.509.406.926.853.926.992 0 .48-1.038.252-1.643-.36zm-26.282-1.52c-.096-.155-.11-.346-.033-.423.19-.19.706.144.706.456 0 .338-.457.316-.673-.033zm18.332-.35c-.393-.313-.79-.945-.882-1.404l-.167-.834 1.286.328c.707.18 1.274.469 1.26.641a54.9 54.9 0 0 0-.067.947c-.055.877-.585.997-1.43.323zm2.202-3.325c-.263-.163-.259-.32.022-.77.552-.885 1.492-.622 1.131.317-.195.509-.725.717-1.153.453zm-4.15-1.19c-.198-.515.093-.938.646-.938.248 0 .568-.268.712-.595.199-.455.48-.596 1.187-.596 1.188 0 1.255.675.097.975-.456.118-1.025.513-1.263.877-.481.734-1.152.87-1.38.278zm5.995-2.117c-.335-.357-.683-.64-.773-.63-.57.068-.825-.11-.825-.572 0-.697.961-.697 1.852 0 .364.284.93.52 1.257.523.82.008.762.75-.084 1.07-.856.326-.717.365-1.427-.391zm-8.382-.014c-.17-.441.557-1.718.978-1.718.497 0 .574.795.14 1.458-.49.75-.895.843-1.118.26zm-.9-3.715c-.471-.568.182-1.222 1.005-1.007.684.18.8 1.016.175 1.256-.624.24-.806.201-1.18-.25zm2.831-.238c-.413-1.076.765-1.608 1.826-.825.62.457.337.814-.842 1.062-.617.13-.866.07-.984-.237zm3.265-.146c0-.603.585-.703 1.024-.174.35.421.134.703-.538.703-.31 0-.486-.192-.486-.529zm32.757 27.417c-.073-.749-.2-.856-1.369-1.144-1.525-.377-1.554-.398-1.323-.999.15-.392.395-.441 1.527-.31l1.35.157.51-1.117c.28-.615.59-1.355.687-1.647.097-.29.73-1.355 1.408-2.364 1.372-2.046 1.542-2.674.662-2.443-.796.208-1.847-.043-2.615-.625-.597-.453-.617-.532-.233-.919.385-.388.551-.356 1.978.385l1.558.808.567-.596c.717-.754 2.2-4.34 2.653-6.416.675-3.095.232-10.103-.781-12.348a138.27 138.27 0 0 1-.932-2.133c-.637-1.494-1.658-2.585-2.419-2.585-.903 0-2.605 1.003-5.69 3.353a1633.8 1633.8 0 0 1-3.516 2.673c-2.702 2.036-3.496 4.266-3.55 9.975-.021 2.228.111 3.139.824 5.69.468 1.675 1.308 3.872 1.87 4.895.562 1.021 1.261 2.571 1.555 3.444.661 1.967 1.073 2.887 1.881 4.2.552.898.67.972.945.596.426-.584 1.104-.542 1.441.09.428.798 1.11.381 1.012-.62zm-2.594-4.59c-1.285-.232-2.379-1.832-1.588-2.322.43-.265.304-.94-.263-1.412-.373-.311-.455-.552-.28-.826.21-.33.416-.3 1.416.199.643.321 1.663.584 2.265.584 1.157 0 1.417.368.654.926-.407.298-.396.386.133 1.128.727 1.022.726 1.029-.207 1.511-.792.41-.95.425-2.13.212zm1.363-5.334c-.473-.3-.283-1.192.277-1.3.523-.1 1.625.91 1.397 1.28-.194.314-1.191.326-1.674.02zm-4.686-1.643c-.099-.16.009-.478.24-.709.34-.34.542-.361 1.089-.112 1.008.46.868 1.11-.24 1.11-.5 0-.99-.13-1.089-.29zm3.117-.916c-.568-.398-.795-1.287-.39-1.526.425-.25 1.35.35 1.737 1.125.392.784.385.813-.176.813-.32 0-.847-.185-1.17-.412zm2.756-.036c-.093-.093-.169-.388-.169-.654 0-.267-.156-.485-.348-.485-.191 0-.703-.387-1.136-.86-.433-.473-1.02-.992-1.304-1.153-.444-.252-.466-.352-.154-.727.199-.24.578-.435.843-.435s.654-.246.865-.547c.315-.451.55-.515 1.34-.367 1.074.202 1.746-.172 1.746-.971 0-.273.183-.497.407-.497.285 0 .384.216.33.722-.063.607.06.766.785 1.005 1.836.607 1.608 1.417-.311 1.106-.495-.08-1.014-.013-1.18.152-.218.219-.544.207-1.241-.046-1.227-.443-1.528-.15-.352.342 1.277.534 1.336.658.719 1.493-.33.446-.494.964-.408 1.293.145.553-.12.94-.432.629zm2.86-.898c-.25-.405.292-.873.79-.682.228.088.415.342.415.564 0 .463-.936.554-1.205.118zm1.362-5.492c-.34-.55-.464-2.365-.174-2.544.475-.294 1.075.373 1.075 1.197 0 .41.12.82.269.912.148.091.2.277.116.412-.19.308-1.1.324-1.286.023zm-4.123-2.022c-.348-.419-.193-1.194.238-1.194.354 0 1.092 1.092.923 1.366-.215.347-.803.26-1.161-.172zm.044-2.284c-.958-.359-.689-1.4.389-1.505.56-.054.877-.249.967-.595.18-.69 1.394-.691 1.762-.003.506.945.337 1.124-.976 1.031-1.168-.082-1.26-.041-1.39.607-.119.6-.22.664-.752.465zm1.235-5.003c-.31-.18-.44-.633-.448-1.557-.018-2.296 1.316-1.837 1.663.572.16 1.105.123 1.256-.298 1.249a2.231 2.231 0 0 1-.917-.264zm-80.069 25.718c.152-.151.204-.462.117-.69-.18-.47-1.76-.577-2.188-.149-.178.178-.425.15-.748-.087-.407-.298-.432-.446-.162-.951.176-.33.387-1.48.469-2.559.168-2.224.342-2.085-2.46-1.972-2.21.09-4.539-1.453-3.424-2.268.604-.442 2.935-.34 2.838.125-.203.965 1.403 1.49 2.076.68.242-.292.596-.37 1.173-.262.715.134.99-.001 2.03-.998.665-.638 1.574-1.227 2.034-1.319.458-.091.831-.318.83-.503 0-.45-1.64-2.888-3.438-5.112-2.418-2.991-16.793-17.273-17.586-17.472-1.06-.267-2.33.408-5.888 3.128-.905.692-1.708 1.259-1.783 1.259-.196 0-1.092.734-2.679 2.196-1.251 1.152-1.566 1.637-2.075 3.198-.157.482-.18.483-.692.02-.697-.631-.929-.36-1.455 1.695-.478 1.865-.397 3.307.413 7.31.996 4.924 1.104 5.225 2.265 6.35 1.74 1.688 6.168 3.4 10.595 4.098.745.117 1.615.352 1.932.522.943.505 2.917 1.061 5.312 1.497 2.247.408 3.672.7 5.15 1.055.432.104.968.406 1.191.673.223.266.882.6 1.464.74 1.279.31 4.307.179 4.69-.204zm-5.968-2.604c-.327-.327-.18-1.088.242-1.25 1.293-.496 2.132.171 1.182.94-.624.505-1.121.614-1.424.31zm-3.059-1.245c-.166-.2-.229-.553-.14-.786.092-.238-.079-.73-.392-1.127-.305-.388-.554-.987-.554-1.331s-.12-.626-.265-.626c-.382 0-.325-1.138.084-1.698.33-.45.374-.452.803-.023.28.28.391.653.289.975-.2.629.35 2.07.791 2.07.335 0 1.473 1.398 1.473 1.81 0 .271-1.165 1.1-1.546 1.1-.133 0-.377-.164-.543-.364zm4.382-5.37c-.097-.096-.177-.572-.177-1.057 0-.763.09-.882.657-.882.48 0 .701.178.822.66.091.364.097.84.013 1.059-.154.403-.992.544-1.315.22zm-7.992-.915c-.135-.424.007-.714.577-1.18.895-.733 1.742-.807 2.245-.198.291.352.296.462.023.554-.188.063-.681.401-1.097.75-.933.786-1.515.81-1.748.074zm9.937-.492c-.637-.394.373-1.59 1.343-1.59.677 0 .792.091.721.577-.098.668-1.504 1.359-2.064 1.013zm-12.293-.773c-.253-.409.125-1.023.726-1.18.454-.119.505-.217.247-.476a1.033 1.033 0 0 1 .059-1.533c.306-.254.32-.422.072-.82-.433-.694.074-1.165 1.002-.932.588.147.65.241.377.57-.265.32-.242.458.124.725.374.273.402.46.165 1.085-.158.415-.218.973-.133 1.24.115.362-.016.528-.511.653-.366.092-.805.334-.974.538-.35.421-.933.487-1.154.13zm-3.41-.2c-.38-.38-.166-1.147.32-1.147.596 0 1.205.66.965 1.047-.19.308-1.013.372-1.285.1zm9.184-1.188c.28-1.398.879-1.84 1.751-1.288.634.4-.393 2.123-1.265 2.123-.591 0-.637-.079-.486-.835zm2.545.438c-.464-.56.106-1.19 1.075-1.19 1.025 0 1.248.5.485 1.088-.774.595-1.13.619-1.56.102zm-10.195-2c-.095-.153-.105-.55-.022-.88.122-.487-.008-.673-.687-.978-1.181-.53-1.187-.894-.03-1.956 1.11-1.02 1.453-1.12 1.916-.563.243.292.167.48-.364.898-1.02.802-.838 1.402.783 2.58.523.38.524.39.016.782-.598.462-1.365.518-1.612.118zm-4.258-1.168c-.227-.59-.016-.724.808-.518.816.205.773.736-.069.86-.344.051-.641-.086-.74-.342zm-5.39-1.562c0-.54.723-1.042 1.223-.85.4.153.396.211-.038.69-.547.605-1.185.691-1.185.16zm-1.154-.878c-.298-.298-.182-.61.228-.61.218 0 .396.112.396.25 0 .333-.413.572-.624.36zm8.122-1.024c-.241-.628.323-1.07.829-.65.313.26.34.427.111.702-.396.478-.744.458-.94-.052zm-1.559-.932c-.272-.44.34-.947.706-.582.305.306.114.87-.295.87-.128 0-.313-.13-.41-.288zm2.18-2c-.363-.363-.174-.925.282-.837.255.05.463.257.463.46 0 .418-.467.655-.744.377zm26.277 21.073c0-.145-.052-.264-.116-.264-.065 0-.19.119-.28.264-.09.146-.038.265.116.265s.28-.12.28-.265zm-26.987-.612c-.541-.498-5.947-1.56-7.413-1.456-.982.07-1.186.175-1.186.613 0 .45.231.554 1.531.694.843.09 1.578.21 1.635.264.056.055 1.391.134 2.966.176 2.449.064 2.806.022 2.467-.29zm33.734.083c.09-.145.448-.264.795-.264.351 0 .812-.26 1.042-.588.672-.959.507-1.88-.527-2.944-.83-.856-1.088-.966-2.249-.966h-1.31v1.048c0 1.543.974 3.979 1.591 3.979.272 0 .568-.12.658-.265zm-48.015-1.472c.388-1.022.352-1.079-.94-1.44-1.453-.407-1.821-.151-.894.62.378.315.761.78.852 1.035.238.668.683.57.982-.215zm3.08.264c.209-.546-.34-1.115-.714-.741-.303.303-.075 1.155.31 1.155.134 0 .316-.186.403-.414zm-5.733-.115c0-.145-.106-.264-.236-.264-.454 0-.531-.782-.118-1.196.23-.23.374-.458.32-.508-.054-.05-.863-.285-1.798-.523-2.09-.531-2.7-.189-1.11.623 1.3.663 1.453 1.34.303 1.34-.54 0-.92-.201-1.205-.637-.23-.35-.708-.71-1.064-.799-.457-.115-.648-.345-.648-.783 0-.553-.21-.67-1.918-1.07-4.197-.981-5.922-1.681-9.034-3.667-2.87-1.83-5.113-3.85-5.88-5.295-.796-1.501.415-2.495 1.274-1.045.237.4.739 1.016 1.115 1.369l.685.641v-.707c0-.427-.35-1.1-.885-1.7-.547-.614-1.157-1.8-1.6-3.109-.393-1.164-.83-2.325-.97-2.58-.248-.453-.146-1.907.573-8.136.515-4.457-.084-14.407-.978-16.246-.205-.422-.373-.977-.373-1.231 0-.531-.973-3.37-1.922-5.611-1.042-2.459-2.138-3.412-6.153-5.352-4.608-2.226-6.214-2.35-7.046-.542-.435.946-.93 1.733-1.47 2.336-.288.322-.84 1.166-1.227 1.875-.579 1.061-.702 1.624-.695 3.175.013 2.783.394 5.27 1.006 6.562.297.63.775 1.799 1.06 2.6.56 1.566 2.059 5.065 5.037 11.758 2.015 4.527 4.162 8.477 5.37 9.88.921 1.07.939 1.507.083 2.068-1.009.66-1.983.317-4.424-1.564-3.724-2.869-8.837-5.847-12.321-7.177-3.075-1.174-8.942-2.143-11.388-1.881-.969.104-3.071.27-4.672.371-4.224.266-5.193.757-7.554 3.833-1.252 1.632-1.839 2.628-1.839 3.126 0 .887 2.377 6.045 3.379 7.332.397.51.841 1.129.987 1.375 1.054 1.783 5.351 6.284 6.615 6.927.582.297 1.307.828 1.611 1.181.756.876 2.047 1.121 5.93 1.125 3.96.004 5.084-.155 5.802-.824.505-.47.597-.477 1.343-.091.685.354 1.137.371 3.112.121 1.27-.16 2.667-.448 3.104-.638.436-.19 1.686-.545 2.778-.79 1.091-.245 2.222-.58 2.513-.743.291-.163 1.442-.332 2.557-.375 1.871-.072 2.171-.006 3.902.86 1.487.744 1.876 1.062 1.876 1.531 0 .326.169.824.375 1.107.333.455.744.518 3.638.558 3.66.05 12.199.52 13.13.723.468.102.665-.02.86-.534.339-.89 1.704-.825 1.716.083.004.32.08.654.17.743.152.152 3.584.546 5.445.624.473.02.86-.083.86-.229zm-10.847-3.01c0-.2.184-.518.41-.705.338-.28.483-.267.825.075.228.228.334.545.235.704-.26.422-1.47.361-1.47-.074zm-19.484-4.001c-.187-.487.085-1.274.378-1.093.117.073.38.028.585-.098.3-.185.239-.362-.317-.917-.807-.808-.726-1.53.22-1.961.913-.416 1.068-.376 1.044.272-.03.829.582.906.941.119.17-.373.529-.747.798-.833.639-.203.623-.57-.034-.779-.287-.09-.771-.516-1.076-.944-.65-.913-.934-.976-1.124-.248-.181.693-1.158.694-1.378.002-.244-.77.093-1.127.947-1.002.492.073.803-.022.899-.272.145-.377 1.076-.339 2.718.111.545.15.595.075.595-.897 0-.918-.091-1.083-.679-1.23-.929-.234-.829-1.378.111-1.275.403.044.805-.166 1.143-.596.287-.364.603-.663.703-.663.1 0 .331.483.515 1.072.284.908.275 1.132-.059 1.466-.26.26-.34.66-.237 1.177.134.671.076.783-.406.783-.867 0-.74 1.21.223 2.108.908.849.787 1.138-.386.918-.887-.167-.934-.102-1.993 2.729-.274.732-.452.86-1.198.86-.652 0-.92.14-1.05.544-.094.3-.467.657-.828.794-.851.323-.876.32-1.055-.148zm-5.057-1.892c-.48-.198-.405-1.33.1-1.524.586-.225 1.2.337 1.104 1.009-.08.552-.587.77-1.204.515zm2.664-1.746c-.117-.182-.347-.716-.512-1.186-.351-1.001.012-1.49 1.003-1.348.472.067.62.278.674.96.038.48.194 1.105.346 1.389.245.457.187.516-.512.516-.433 0-.882-.15-.999-.331zm-6.069-.318c-.163-.426.07-.939.426-.939.382 0 1.077.82.916 1.08-.237.383-1.179.284-1.342-.141zm-1.244-2.196c-.065-.109-.016-.466.108-.793.264-.7 1.237-.805 1.484-.16.258.671-1.233 1.564-1.592.953zm-4.479-.89c-.806-.601-.956-1.413-.307-1.662.502-.192.903.012.903.459 0 .177.243.53.54.785.543.465.494.985-.093.97-.173-.006-.642-.253-1.043-.552zm7.806.39c-.452-.19-.42-1.136.045-1.314.561-.216 1.52.395 1.423.906-.085.449-.857.663-1.468.407zm-16.548-1.42c-.158-.606.255-.898 1.054-.744.775.149.603 1.128-.215 1.223-.52.06-.729-.058-.839-.479zm19.223-.13c-.206-.538.072-1.19.507-1.19.65 0 1.287.651 1.103 1.13-.216.564-1.4.607-1.61.06zm-25.936-.281c-.095-.249-.03-.645.143-.88.174-.235.457-.754.63-1.154.231-.54.5-.728 1.033-.728.396 0 .793-.119.883-.265.09-.145.523-.264.961-.264.616 0 .778.105.709.46-.102.53-1.047 1.045-2.199 1.197-.673.09-.814.243-.926 1.007-.146.994-.938 1.397-1.234.627zm20.726.082c-.414-.303-.417-.38-.035-.926.239-.34.693-.595 1.063-.595.537 0 .647.13.647.765 0 1.022-.81 1.388-1.675.756zm-9.548-.633c-.19-.494-.22-.45.576-.863.458-.238.56-.46.437-.95-.132-.527-.042-.67.512-.808 1.198-.301 1.75.643.702 1.204-.347.185-.53.554-.53 1.067 0 .69-.093.785-.765.785-.466 0-.83-.17-.932-.435zm5.53-.86c.106-.634.064-1.1-.11-1.207-.424-.263-.34-.859.148-1.046.545-.21 1.157.286 1.157.938 0 .275.138.721.306.99.472.756.096 1.355-.85 1.355-.813 0-.823-.016-.651-1.03zm-8.444-.18c-.569-.569-.525-.772.246-1.123.767-.35.826-.815.245-1.937-.869-1.68.488-1.974 1.465-.316.674 1.142.673 1.333-.01 1.55-.331.105-.49.322-.404.549.21.546-.293 1.694-.742 1.694-.211 0-.571-.188-.8-.416zm11.954-.529c-.898-.486-.94-1.108-.091-1.32 1.254-.316 2.475 1.135 1.326 1.576-.5.192-.355.222-1.235-.256zm-20.745-.786c-.086-.224-.09-.474-.009-.555.232-.232.712.161.712.582 0 .508-.505.489-.703-.027zm4.848-1.29c-.088-.23-.335-.418-.55-.418-.617 0-.752-.478-.375-1.33.484-1.093 1.16-.997 1.8.257.292.575.741 1.166.997 1.315.429.25.424.272-.064.283-.291.006-.78.079-1.088.161-.368.099-.614.007-.72-.268zm-7.711-.103c-.076-.076-.139-.365-.139-.641 0-.392.16-.485.726-.42.96.112 1.122.9.22 1.072-.368.07-.73.065-.807-.011zm2.704-.59c-.357-.217-.403-.397-.2-.778.208-.387.48-.468 1.25-.373.98.122 1.553.585 1.181.956-.357.358-1.76.48-2.231.194zm14.23-.348c-.557-.408-.39-1.23.25-1.23.529 0 1.528 1.005 1.325 1.333-.226.366-1.003.315-1.574-.103zm20.058-.056c-.191-.498.277-1.04.682-.79.436.269.345 1.204-.118 1.204-.223 0-.476-.186-.564-.414zm-1.359-2.284c-.174-.175-.317-.61-.317-.968 0-.357-.298-1.04-.662-1.517-.999-1.309-.844-2.097.351-1.784.389.101.575.356.575.784 0 .708.488 1.707.992 2.03.471.3.41 1.42-.087 1.612-.533.204-.48.214-.852-.157zm1.644-2.69c-.199-.518.072-.962.586-.962.26 0 .37.202.315.575-.102.698-.686.948-.901.386zm-.245-2.296c-.242-.763.256-1.267.87-.88.654.413.581 1.27-.116 1.37-.396.056-.629-.095-.754-.49zm-3.626-.716c-.632-.725-1.056-1.654-.755-1.654.146 0 .388-.231.54-.513.23-.43.149-.588-.501-.972-.427-.252-.837-.692-.912-.977-.1-.38-.288-.478-.706-.369-.793.207-1.313-.045-1.313-.637 0-.634 1.263-.7 1.502-.078.116.303.372.38.907.273.487-.097.889-.006 1.157.262.227.227.797.431 1.267.455.706.035.837.136.748.572-.059.29-.118 1.231-.132 2.09-.02 1.302-.112 1.595-.554 1.767-.763.298-.803.29-1.248-.22zm2.35-1.83c-.214-.215-.235-1.147-.026-1.147.082 0 .388.128.678.283.423.226.466.36.215.662-.344.414-.595.473-.866.202zm-1.893-5.373c-.149-.468-.315-.526-1.081-.383-.851.16-.906.127-.906-.55 0-.673.058-.71.86-.549.473.096 1.217.198 1.654.229.693.048.793.156.793.85 0 .611-.13.811-.572.874-.391.056-.628-.093-.748-.47zm-4.392-1.226c-.3-.362-.277-.481.15-.794 1.116-.816 2.121-.228 1.153.674-.705.657-.847.67-1.303.12zm3.73-1.291c-.179-.217-.257-.574-.172-.794.203-.529 1.335-.513 1.781.025.3.362.278.481-.15.794-.647.473-1.05.466-1.458-.025zm-3.508-1.66c-.63-.14-.593-1.186.06-1.778.507-.458.542-.453 1.05.157.593.711.613.783.341 1.18-.259.378-.882.568-1.45.442zm3.559-3.556c-.565-.565-.356-1.005.476-1.005.475 0 .794.138.794.344 0 .352-.509.979-.794.979-.087 0-.301-.143-.476-.318zm-4.984-.873c-.253-.657.111-1.19.812-1.19.682 0 1.369.85 1.073 1.328-.255.412-1.715.305-1.885-.138zm2.677-.14c-.103-.167-.062-.428.09-.58.355-.355 1.184-.045 1.04.39-.148.442-.896.568-1.13.19zm-4.98-1.698c-.381-.993.671-1.585 1.678-.944.306.196.33.36.105.724-.381.617-1.574.764-1.783.22zm-1.233-2.13c-.262-.317-.262-.478 0-.795.181-.218.48-.396.662-.396.182 0 .48.178.661.396.263.317.263.478 0 .794-.18.219-.479.397-.661.397-.183 0-.48-.178-.662-.397zm1.673-2.144c-.248-.648.99-1.25 1.355-.659.261.422-.156 1.082-.683 1.082-.28 0-.582-.19-.672-.423zm79.016 49.027c.377-.687.37-.762-.096-1.027-.483-.275-.477-.306.125-.76.617-.466.62-.483.13-1.023-.566-.627-1.23-.698-2.04-.22-.448.265-.584.265-.68 0-.202-.557-.79-.37-1.507.484-.776.922-.893 2.116-.27 2.74.454.453 1.701.57 1.701.16 0-.14.251-.39.558-.554.752-.403 1.268.07.753.69-.318.384-.285.424.28.343.369-.053.813-.406 1.046-.833zm-3.119-1.92c.094-.452.553-.566.685-.17.047.14-.108.326-.343.416-.295.114-.4.037-.342-.246zm-68.27-.712c-.153-.154-.482-.122-.865.083-.593.317-.597.338-.094.521.612.223 1.333-.23.96-.604zm86.585.202c.237-.361.726-.731 1.088-.822.781-.196.88-.637.142-.637-.986 0-1.865-.584-1.865-1.24 0-.423-.213-.706-.661-.877-.888-.337-.834-.635.264-1.473.952-.725 1.179-1.173.596-1.172-.422 0-2.38 1.772-2.94 2.66-.416.659-.394.717.908 2.447.734.974 1.492 1.772 1.686 1.772.193 0 .545-.296.782-.658zm-4.042-4.965c.517-.618 1.072-1.375 1.236-1.68.163-.307.734-1.08 1.269-1.72.535-.64 1.212-1.7 1.505-2.354.292-.655.744-1.608 1.003-2.117.258-.51.652-1.97.875-3.247.223-1.276.475-2.434.562-2.573.086-.14.328-1.724.538-3.52.21-1.798.58-3.664.822-4.148.399-.8.41-1.407.125-6.595-.176-3.197-.5-6.471-.734-7.434-.445-1.818-1.588-4.937-2.012-5.486-.337-.437-2.912-1.819-4.12-2.211-1.108-.36-5.01-2.242-5.512-2.659-.76-.63-3.355-2.08-3.725-2.08-.797 0-4.472 2.252-6.018 3.688-4.675 4.34-6.957 7.495-7.765 10.733-.766 3.069-.652 4.705.628 8.995.347 1.165 1.178 4.26 1.846 6.88.669 2.619 1.376 5.38 1.571 6.135.349 1.344 2.027 4.609 3.028 5.888l.505.646.268-.97c.442-1.6 1.27-2.519 2.643-2.938 2.985-.909 3.754-1.512 2.868-2.249-.271-.224-.598-.2-1.315.1-1.183.495-1.406.498-1.589.022-.158-.414.666-2.88 1.164-3.48.4-.481 1.735-.49 1.918-.012.077.2-.019.67-.213 1.043-.34.656-.323.682.483.76.785.077.849.164 1.049 1.43.19 1.2.325 1.41 1.24 1.925.565.317 1.325.931 1.689 1.364.706.839 1.194.977 1.693.478.235-.235.562-.194 1.376.172 1.4.632 1.405 1.195.009 1.195-1.067 0-1.293.279-.825 1.017.186.294.367.283 1.04-.066 1.324-.684 1.71-.571 1.495.438-.23 1.075-.254 1.098-1.119 1.112-.638.011-.733.14-.918 1.242-.113.676-.379 1.563-.59 1.97-.28.54-.306.836-.098 1.086.505.609 1.144.372 2.106-.78zm-1.421-8.695c-.4-.299-.728-.771-.728-1.05 0-.434.196-.507 1.356-.507h1.356l-.165.826c-.091.455-.166.932-.166 1.059 0 .41-.905.23-1.653-.328zm-3.492-1.5c-.067-.066-.055-.448.025-.85.081-.405.017-.81-.145-.91-.467-.29-.344-1.47.172-1.652.255-.09.725-.4 1.045-.687.614-.553 1.402-.462 1.402.161 0 .203-.238.672-.529 1.042-.68.865-.675 1.826.01 2.255.297.185.47.45.383.59-.152.247-2.125.29-2.363.051zm3.321-3.331c-.372-.449-.127-1.152.521-1.5.388-.207.552-.137.803.339.173.329.431.674.574.767.448.293-.074.757-.85.757-.41 0-.882-.163-1.048-.363zm-5.584-.157c-.349-.224-.343-.308.046-.697.533-.534 1.353-.298 1.227.354-.104.54-.71.704-1.273.343zm.574-2.06c-.56-1.089.418-1.493 1.476-.61.848.707.738 1.074-.32 1.074-.607 0-.998-.157-1.156-.463zm-3.296-.759c-.331-.331-.202-1.097.212-1.256.588-.225 1.75.385 1.658.872-.081.432-1.525.73-1.87.384zm6.603-.742c-.407-1.059.94-1.7 1.685-.802.4.482.142.807-.834 1.048-.498.123-.736.054-.851-.246zm-6.921-2c-.091-.148-.397-.269-.68-.269-.6 0-.719-.923-.147-1.142.46-.177 1.486.52 1.486 1.01 0 .476-.445.747-.66.401zm1.429-.694c-.3-.362-.278-.481.15-.794.925-.676 1.531-.31 1.255.756-.15.58-.938.601-1.405.038zm2.934-1.145c-.804-.208-1.061-1.254-.373-1.518.318-.122.644.058 1.069.59.477.6.681.698.93.449.25-.25.218-.431-.142-.83-.394-.434-.41-.592-.116-1.064.43-.687 1.055-.71 1.645-.058.495.547.897 2.401.527 2.435-1.508.136-3.004.134-3.54-.004zm-2.905-3.146c-.335-.112-.357-1.02-.029-1.223.133-.082.324-.631.423-1.22.153-.904.271-1.06.75-.992.395.056.595.3.652.789.059.51.3.783.863.98.922.32 1.233.936.762 1.504-.244.293-.73.384-1.744.329-.774-.043-1.529-.118-1.677-.167zm6.28-3.552c-.172-.465.062-1.025.352-.846.311.193.316 1.177.006 1.177-.13 0-.291-.15-.358-.331zm-7.031-1.867c-.444-.473-.503-.682-.258-.926.174-.174.39-.316.48-.316.232 0 1.846 1.466 1.846 1.677 0 .446-1.547.12-2.068-.435zm3.06.324c-.573-.333-.592-.87-.05-1.411.373-.373.486-.358 1.19.163.951.703.962.836.105 1.227-.79.36-.666.358-1.244.022zm-.104-6.729c-.093-.242.018-.619.251-.851.38-.38.48-.377 1.11.037.879.575.732 1.058-.353 1.165-.59.059-.89-.046-1.008-.35zm-1.417-1.6c0-.383.115-.606.265-.513.145.09.264.395.264.677 0 .283-.119.514-.264.514-.146 0-.265-.305-.265-.677zm1.522 36.595c.306-.327.637-.923.736-1.323.1-.4.287-.728.417-.728.424 0 .248-1.236-.27-1.894-.761-.968-2.198-1.654-3.026-1.447-.386.097-.702.298-.702.447 0 .53.974 1.323 1.416 1.153.296-.113.436-.028.436.266 0 .51-.77.88-1.019.489-.094-.149-.558-.354-1.031-.457-.849-.184-.86-.173-.86.792 0 .924.04.97.728.837a4.543 4.543 0 0 1 1.455.002c.579.114.727.29.727.858 0 .655-.071.704-.86.592l-.86-.122.505.565c.651.73 1.509.719 2.208-.03zM55.56 139.42c1.02-.509 1.215-1.6.239-1.338-.328.088-.744.161-.926.163-.19.002-.331.341-.331.798 0 .928-.05.91 1.018.377zm2.338-2.03c.255-.398.85-2.545.866-3.127.009-.322-.24-.401-1.113-.355-1.039.055-1.119.112-1.05.74.07.628.013.668-.727.52-.648-.13-.803-.071-.803.3 0 .35.16.43.66.335.743-.142 1.04.132 1.293 1.19.186.777.53.933.874.396zm44.255-5.723c-.32-.57-.857-1.185-1.193-1.364-.336-.18-.745-.653-.91-1.05-.328-.793-1.461-1.476-1.729-1.043-.088.143.449 1.025 1.194 1.961 2.389 3.002 3.998 3.914 2.638 1.496zm-42.158-.231c1.955-4.346 2.35-7.035 1.464-9.988-.305-1.019-.855-2.292-1.222-2.83-.367-.538-.668-1.116-.668-1.285 0-.169-.268-.635-.595-1.037a18.002 18.002 0 0 1-.86-1.135c-.226-.346-.51-.362-1.938-.114l-1.673.29.189.939c.104.516.212 1.117.24 1.336.392 3.034.44 3.175 1.024 3.038.314-.073.737-.025.94.107.57.372.132 1.08-.783 1.263-.781.156-.813.212-.648 1.12.096.524.34 1.124.543 1.333.32.329.435.32.862-.066.758-.686 1.376-.569 1.376.261 0 .389.182.908.403 1.153.39.43.293 1.315-.144 1.315-.117 0-.074.368.095.817.277.736.245.868-.328 1.332-.857.695-1.19.52-1.356-.714-.11-.823-.012-1.195.474-1.799.789-.978.651-1.336-.553-1.437l-.972-.083v2.133c0 1.72.077 2.133.397 2.133.218 0 .397.11.397.244s.308.61.685 1.058c.376.448.585.819.463.824-.188.008 1.234 1.308 1.435 1.312.038 0 .377-.683.753-1.52zm-1.749-8.883c0-.702.505-1.05 1.042-.718.517.32.212 1.19-.45 1.285-.475.068-.592-.043-.592-.567zm-2.822-5.093c-.207-.54.567-1.208 1.142-.987.212.081.35.4.305.71-.102.715-1.198.925-1.447.277zm96.488 10.933c.671-1.101.704-2.123.064-2-.486.094-1.356 1.607-1.378 2.397-.02.76.75.526 1.314-.397zm-52.92-2.355c0-.193-.518-1.144-.972-1.783-.04-.058-.254.046-.475.23-.221.183-.641.27-.933.194-.636-.166-.689.262-.13 1.06.3.428.664.567 1.455.556.58-.008 1.055-.124 1.055-.257zm92.876-3.565c.49-2.364.385-2.56-1.595-2.947a49.897 49.897 0 0 0-2.513-.435 131.13 131.13 0 0 1-1.006-.128c-.116-.016-.13-.743-.032-1.616.165-1.454.137-1.588-.33-1.588-.281 0-.65.14-.82.31-.235.235-.35.202-.48-.138-.183-.479.34-2.025.8-2.36.39-.282-.582-.987-1.362-.987-.337 0-.82.104-1.073.23-1.004.5-2.182.774-2.326.54-.082-.132-.56-.24-1.06-.24-.832 0-.91.067-.91.78 0 .43.161.876.359.992.394.233 2.442 1.99 5.18 4.445 5.994 5.374 6.176 5.514 6.535 5.023.186-.254.47-1.1.633-1.881zm-9.797-7.744c0-.658.639-.88 1.458-.508 1.038.473.826 1.01-.4 1.01-.862 0-1.058-.094-1.058-.502zm-27.634 7.02c.244-.973-.427-.927-1.016.07-.534.904-.59 1.785-.123 1.953.333.12.816-.737 1.139-2.022zm-57.033 1.154a.265.265 0 0 0-.264-.264.265.265 0 0 0-.265.264.265.265 0 0 0 .53 0zm-.945-2.205c-.093-.242-.276-.44-.406-.44-.276 0-.32.886-.055 1.15.297.298.643-.234.46-.71zm-1.502-1.05c.441.018.594-.123.591-.543-.002-.312-.117-.746-.256-.964-.215-.338-.338-.344-.825-.043-.5.31-.638.289-1.103-.176-.619-.619-.454-1.35.35-1.56.774-.203.539-1.02-.267-.929-.74.084-1.863-.867-1.863-1.577 0-.27-.3-.626-.666-.792-.563-.257-.641-.43-.51-1.124.113-.607.01-.987-.4-1.459-.69-.795-.562-1.219.348-1.154.812.058.891-.341.318-1.597a55.483 55.483 0 0 1-.794-1.859c-.351-.87-.473-.974-.815-.69-.326.27-.488.258-.86-.06-.252-.217-.664-.467-.916-.556-.8-.283-.244-.976.782-.976 1.06 0 1.058.114.078-3.043a70.272 70.272 0 0 1-.92-3.254c-.189-.77-.417-1.473-.506-1.562-.088-.09-.624.047-1.19.302-1.222.551-1.976.466-2.112-.237-.156-.814-1.361-2.57-1.688-2.46-.828.275-.757.9.302 2.643.595.979 1.085 1.872 1.088 1.983.003.112.235.501.515.865.407.53.575.596.84.33.452-.45 1.413-.416 1.811.063.483.582.114 1.825-.471 1.59l-.783-.317c-.569-.233-.372.947.331 1.981.364.536.661 1.062.661 1.17 0 .107.307.864.68 1.682.642 1.403.708 1.462 1.157 1.056.662-.6 1.868-.068 1.868.822 0 .671-.287.767-1.06.354-.278-.15-.559-.164-.64-.033-.172.28.824 3.28 1.794 5.399.385.841.7 1.583.7 1.648 0 .143 2.17 4.616 2.475 5.102.138.219.42.271.788.146.315-.108.84-.185 1.168-.171zm60.656-1.406c0-.219-.12-.324-.265-.234-.145.09-.264.342-.264.56 0 .22.119.324.264.234.146-.09.265-.342.265-.56zm36.777-.436c0-.836-.27-1.592-1.044-2.915-.574-.982-1.199-1.958-1.389-2.17-.19-.21-.499-.566-.686-.789-.188-.223-.725-.406-1.194-.406-.553 0-.963-.178-1.168-.507-.27-.432-.63-.506-2.436-.501-2.218.007-2.797.27-2.62 1.19.132.681.966.747 1.63.129.349-.324 1.035-.566 1.756-.62 1.133-.084 1.202-.048 1.646.884.254.535.573 1.04.707 1.123.146.09.153.555.018 1.145-.196.853-.149 1.054.33 1.42.418.32.514.596.386 1.109-.15.595-.027.769.954 1.357.668.4 1.529.675 2.118.677.992.002.992.002.992-1.126zm-34.566-1.912c.083-.216.817-.82 1.63-1.34 1.375-.88 1.578-.933 2.895-.769 2.229.279 3.43-.04 4.71-1.249a55.278 55.278 0 0 1 2.295-2.027c.645-.532 1.43-1.223 1.746-1.535.734-.727 3.51-.953 10.707-.869 8.49.1 14.185-.868 15.535-2.639 1.52-1.994 2.777-7.257 3.5-14.65.345-3.537.627-3.3-3.873-3.265l-3.844.03-.42 1.059c-1.28 3.23-5.115 8.069-7.92 9.994-1.146.787-1.084 1.028.212.82.91-.145 1.135-.085 1.47.394.293.418.674.566 1.46.566.864 0 1.046.085.974.457-.049.252-.442.58-.875.728-.433.148-.997.478-1.254.733-.257.254-.706.463-.997.463-.386 0-.529.176-.529.652 0 .837-.843 1.333-1.588.935-.696-.373-2.236.038-3.589.955-.854.58-1.226.67-2.334.563-.725-.07-1.684.017-2.13.192-.466.183-1.82.294-3.191.261-1.772-.042-2.821.08-4.101.478-.946.294-1.767.575-1.824.624-.057.049.17.31.503.58l.607.492-1.28.421c-1.114.367-1.42.374-2.355.057-.591-.2-1.584-.445-2.206-.544-1.264-.2-1.575-.486-1.123-1.03.396-.478-.346-1.671-1.254-2.016-.779-.296-1.122-.115-1.122.592 0 .309-.14.49-.328.427-.216-.072-.335-.743-.349-1.973-.018-1.563.06-1.914.485-2.18.408-.254.596-.235.965.099.253.228.715.415 1.027.415.746 0 1.477 1.114 1.233 1.88-.138.437-.03.701.428 1.047.536.404.567.519.247.904-.314.378-.312.48.013.696 1.039.693 1.293.756 1.977.496.58-.22.678-.385.544-.918-.186-.74.458-1.288 1.857-1.579.453-.094 1.074-.459 1.38-.811.907-1.043 5.401-3.132 7.454-3.465.51-.083 1.343-.374 1.852-.647.51-.274 1.58-.8 2.381-1.17 2.68-1.24 3.465-1.876 6.685-5.41 3.368-3.699 3.808-5.293 2.132-7.731a896.592 896.592 0 0 1-2.941-4.327c-1.082-1.6-2.043-2.97-2.136-3.042-.092-.073-.76-.787-1.483-1.588-2.029-2.245-4.194-3.894-5.351-4.074-1.217-.19-4.85.532-12.516 2.489-.51.13-1.239.3-1.62.378-.382.078-.96.356-1.283.618-.539.437-.599.764-.717 3.906-.07 1.887-.266 3.847-.432 4.356-.198.603-.306 3.438-.309 8.123-.004 5.192-.092 7.284-.319 7.51-.242.243-.525.19-1.238-.231-.508-.3-1.158-.484-1.443-.41-.477.125-.534.472-.708 4.312-.105 2.296-.108 4.578-.007 5.07.527 2.581.67 2.872 1.606 3.263.79.33 1.443 1.216 1.443 1.956 0 .277-1.623.844-1.909.667-.134-.083-.181-.314-.105-.513.076-.198.024-.432-.116-.519-.437-.27-.592.642-.25 1.469.349.84 1.159 1.066 1.416.394zm4.09-4.309c-.537-.069-.751-.279-.88-.862-.342-1.56.59-1.793 1.47-.368.643 1.04.487 1.368-.59 1.23zm-4.008-2.352c-.278-.278-.206-1.097.115-1.295.38-.235 1.415.8 1.18 1.18-.198.32-1.017.393-1.295.115zm24.165-3.122c0-.213.252-.522.56-.687.442-.236.644-.216.957.098.539.538.206.977-.739.977-.507 0-.778-.135-.778-.388zm7.42-1.848c-.258-.31-.174-.566.43-1.323.412-.516.83-.939.928-.939.224 0 1.012 1.554 1.012 1.997 0 .69-1.846.897-2.37.265zm-21.443-3.421c0-.517-.225-.704-1.25-1.042-.972-.32-1.334-.341-1.628-.097-.469.39-1.416.255-1.699-.241-.116-.204-.444-.371-.728-.371-.85 0-.586-.792.402-1.204 1.257-.526 1.752-.482 1.923.17.12.46.283.528.948.395 1.04-.208 1.21-.399.64-.717-.253-.142-.46-.535-.46-.874 0-.799-.648-1.321-1.654-1.333-.942-.01-1.56-.736-1.057-1.24.25-.25.461-.244.968.028.37.198.856.262 1.13.15.79-.326 2.27-.384 2.78-.11.62.331.604.969-.05 1.957-.68 1.027-.666 1.416.066 1.696.944.36 1.481 1.136 1.408 2.03-.09 1.114-.334 1.433-1.093 1.433-.504 0-.646-.138-.646-.63zm24.178-1.167c-.52-.332-.668-1.281-.254-1.626.645-.534 1.608-.247 1.608.48 0 .691-.89 1.444-1.354 1.146zm-4.136-1.296c-.537-.14-.649-1.405-.125-1.405.53 0 1.514.783 1.514 1.206 0 .374-.465.44-1.389.2zm-16.959-1.272c-.172-.3-.582-.53-.944-.53-.887 0-1.003-.603-.176-.918.49-.186.683-.452.683-.937 0-.582-.103-.668-.728-.602-.587.061-.744-.043-.814-.538-.085-.6-.05-.61 1.542-.448 1.055.108 1.755.062 1.988-.131.197-.164.753-.26 1.236-.214.717.069.878.197.884.704.004.379.252.752.638.958l.63.338-.69.453c-.984.645-1.64.444-1.653-.505-.008-.613-.16-.813-.727-.965-.915-.244-1.002-.076-.807 1.567.121 1.022.264 1.344.587 1.319.943-.072 2.036.074 2.412.32.69.453-.2.758-2.062.706-1.387-.038-1.749-.143-1.999-.577zm21.449-.464c-.321-.895.757-1.57 1.627-1.02.292.186.254.338-.198.79-.628.629-1.25.729-1.429.23zm-1.72-1.486c-.405-.25-.176-.991.37-1.2.214-.083.457.035.545.264.203.53-.465 1.215-.915.936zm-26.34-1.799c-.319-.319-.185-.599.5-1.047.53-.348.742-.374.991-.12.248.252.18.435-.307.833-.669.546-.905.613-1.184.334zm27.654-.103c-.652-.261-.607-.498.288-1.493.806-.895 1.887-1.022 2.854-.333l.816.581-.73.762c-.773.808-1.972.987-3.228.483zm-12.473-.369c-.222-.267-.798-.37-1.9-.34-1.124.031-1.65-.066-1.815-.335-.269-.434.135-1.058.684-1.058.196 0 .747-.337 1.225-.749 1.02-.879 1.643-1.145 2.192-.934.58.223.487.499-.286.85-.904.413-.694.91.435 1.035 1.163.13 1.376.352 1.16 1.215-.2.792-1.153.97-1.695.316zm-11.917-1.442c-.219-.123-.844-.303-1.39-.401-1.04-.187-1.137-.309-.741-.934.146-.232.145-.564-.005-.844-.158-.294-.15-.52.02-.626.47-.29 1.344.156 1.593.813.18.473.511.677 1.308.804 1.091.175 1.185.28.906 1.008-.173.45-1.045.542-1.692.18zm-4.28-.744c-.617-.743 1.104-1.397 1.87-.711.192.172-.513.841-1.029.976-.28.073-.66-.046-.841-.265zm20.865-1.176c-.304-.17-.4-.447-.297-.856.114-.455-.017-.716-.528-1.05-.535-.351-.68-.663-.68-1.466 0-.596.17-1.16.409-1.358.578-.48.933-.027 1.029 1.315.043.613.333 1.457.644 1.877.31.42.565.935.565 1.144 0 .504-.585.706-1.142.394zm-14.888-.317c-.138-.361.853-2.29 1.173-2.283.095.002.343.112.551.244.316.2.326.418.056 1.319-.266.887-.44 1.079-.983 1.079-.362 0-.72-.162-.797-.359zm3.862-.3c-.475-.571-.127-1.193.667-1.193.974 0 1.711.46 1.711 1.067 0 .428-.182.52-1.026.52-.585 0-1.166-.169-1.352-.393zm6.606-.803c-.272-.328-.246-.597.14-1.455.524-1.162.887-1.295 1.544-.568.622.686.544 1.246-.259 1.878-.833.655-.988.671-1.425.145zm-3.633-2.004c-.698-.26-.832-1.487-.188-1.734.502-.193 1.445.62 1.445 1.244 0 .582-.492.774-1.257.49zm-.708-3.683c-.996-.636-1.389-1.308-.931-1.591.215-.133.711.097 1.349.627 1.564 1.297 1.247 2.028-.418.964zm1.965-1.45a.398.398 0 0 1 .794 0 .398.398 0 0 1-.397.397.398.398 0 0 1-.397-.397zm-3.576-2.845c-.222-.505-.431-.582-1.385-.51-.969.072-1.124.011-1.124-.436 0-.633.33-.762 1.795-.699 1.663.071 3.181 1.634 2.02 2.08-.73.28-1.037.177-1.306-.435zm-81.233 34.639c-.391-1.373-1.07-2.82-1.321-2.821-.58-.002-.39 1.392.273 2.006.364.337.661.864.661 1.17 0 .32.118.485.276.388.151-.094.201-.428.111-.743zm84.694-.31c-.154-.82-.098-.958.474-1.175.356-.136.726-.373.822-.527.257-.417-2.793-.357-3.82.075l-.847.356 1.016.793c2.113 1.651 2.593 1.748 2.355.477zm-.556-7.789c.085-.137.717-.33 1.405-.43.688-.1 1.489-.308 1.78-.462.29-.153.767-.295 1.058-.314 1.631-.106 1.685-.132 1.768-.86.09-.773.638-.894 2.038-.45.48.152.601.112.507-.17-.068-.205-.233-.381-.366-.392-.134-.012-.69-.114-1.238-.229-.674-.14-1.121-.103-1.385.116-.234.194-.675.253-1.097.148-.83-.209-1.826.152-3.738 1.356-.767.483-1.496.878-1.621.878-.343 0-.841.686-.642.884.262.263 1.356.21 1.531-.075zm-19.966-7.035c0-.223.178-.474.397-.557.525-.202.5-.5-.112-1.363-.28-.395-.585-1.205-.678-1.8-.15-.964-.094-1.133.509-1.528.557-.365.677-.651.677-1.607 0-1.284-.198-2-.553-2-.3 0-1.032 1.75-1.148 2.739-.088.76-.515 1.218-1.143 1.226-.388.004-.446.695-.077.923.14.086.457 1.105.706 2.264.366 1.702.547 2.108.938 2.108.266 0 .484-.182.484-.405zM84.78 93.866c.062-.255.137-1.115.167-1.911.057-1.471.348-2.124.948-2.124.183 0 .47-.166.639-.37.169-.203.527-.311.796-.24.355.092 1.288-.663 3.385-2.74 3.37-3.338 5.163-5.636 5.754-7.378.232-.684.716-1.745 1.076-2.358.855-1.46.838-1.939-.074-2.044-.524-.06-.728-.232-.728-.612 0-.463.156-.522 1.23-.468 1.352.067 1.216.215 2.129-2.31.95-2.633 1.546-5.38 1.803-8.335.271-3.105.124-8.92-.264-10.451-.129-.51-.372-1.521-.541-2.249a51.9 51.9 0 0 0-.661-2.513 61.562 61.562 0 0 1-.645-2.382c-.382-1.559-1.738-5.252-2.708-7.376a62.536 62.536 0 0 1-1.19-2.778c-.681-1.769-.942-1.927-1.975-1.193-1.76 1.252-3.822 3.287-5.178 5.115a248.69 248.69 0 0 1-1.782 2.378c-.217.28-.525.906-.685 1.389-.16.483-.459.878-.666.878-.72 0-.363.668.988 1.852 1.872 1.64 2.029 1.711 2.607 1.188.383-.346.743-.404 1.607-.258 1.076.181 1.108.167.946-.437-.092-.344-.169-.758-.17-.92-.003-.17-.282-.24-.666-.167-.477.091-.661.011-.661-.287 0-.305.328-.434 1.257-.494 1.15-.074 1.263-.142 1.34-.808.075-.65.19-.728 1.074-.728.545 0 1.21.162 1.48.359.648.473.35 1.229-.484 1.229-.762 0-1.075.622-.652 1.298.49.784.088 1.348-.958 1.348-.698 0-1.036.164-1.362.661-.473.723-1.104.868-1.32.304-.082-.215-.389-.31-.767-.237-.736.14-.635.664.346 1.79.5.576.773.68 1.455.562.743-.13.91-.037 1.445.802.706 1.104.6 1.357-.38.91-1.2-.546-1.294-.036-.491 2.665 1.27 4.277 1.345 6.197.63 16.223-.155 2.183-.338 4.058-.405 4.167-.068.11.182.199.554.199.373 0 .677.11.677.245 0 .5.854 1.078 1.591 1.078.99 0 1.26.468.555.962-.307.215-.558.542-.558.726 0 .185-.295.613-.656.952-.475.447-.614.788-.5 1.237.092.371.037.62-.138.62-.162 0-.383-.002-.492-.005-.11-.002-.199-.264-.199-.582 0-.397-.205-.625-.661-.733-1.018-.24-1.023-1.194-.009-1.547.795-.277.806-.304.465-1.138-.515-1.263-.88-1.196-1.224.224-.17.698-.472 1.625-.673 2.062-.2.436-.518 1.33-.704 1.984-.187.655-.554 1.475-.817 1.822-.263.347-.478.896-.478 1.22 0 .795-.974 2-1.465 1.812-.503-.193-.51-1.95-.012-3.681.206-.718.454-1.841.552-2.496.097-.655.572-2.857 1.055-4.895.539-2.272 1.054-5.486 1.333-8.313.637-6.46.323-9.298-1.535-13.878-.682-1.682-1.147-2.37-2.412-3.572a1532.87 1532.87 0 0 1-2.536-2.415c-2.03-1.94-3.821-3.331-5.13-3.986a91.322 91.322 0 0 1-2.153-1.109 52.452 52.452 0 0 0-1.899-.96c-.607-.292-1.342-.679-1.632-.86-.428-.267-.612-.258-.98.047-.376.312-2.107 2.737-3.162 4.428-1.449 2.325-2.056 3.385-2.91 5.085-.55 1.09-1.293 2.37-1.654 2.843-1.8 2.36-.684 8.697 2.9 16.473 1.392 3.02 2.256 4.669 3.16 6.032.414.626.753 1.19.753 1.254 0 .064.506.928 1.125 1.92l1.389 2.23a36.126 36.126 0 0 0 3.97 5.214c1.9 2.071 2.119 2.664.98 2.664-.528 0-1.077-.344-1.919-1.203a32.86 32.86 0 0 0-2.592-2.315c-.776-.612-1.807-1.723-2.29-2.469-.763-1.177-.972-1.34-1.574-1.224-.665.127-.681.103-.377-.564.23-.506.24-.858.034-1.289-.155-.326-.954-2.022-1.775-3.768-.82-1.746-1.605-3.354-1.745-3.572-.14-.218-.726-1.35-1.303-2.514-.578-1.164-1.164-2.295-1.304-2.513-.415-.65-2.082-5.547-2.566-7.54-.248-1.02-.49-1.9-.537-1.957-.048-.057-.748.104-1.555.357-1.169.368-1.548.396-1.858.138-.994-.825.136-1.819 1.52-1.336 1.58.55 1.794.426 1.794-1.048 0-1.174-.112-1.443-.944-2.275-1.065-1.066-1.526-1.027-.674.057.59.749.71 1.169.335 1.169-.124 0-1.213-1.005-2.42-2.233-2.322-2.36-2.45-2.423-5.472-2.677-1.748-.147-11.19.402-11.926.694-.422.167-.592.448-.583.969.014.882.531 2.75 1.135 4.098.242.541.44 1.039.44 1.106 0 .067.346.875.769 1.794.422.92.956 2.09 1.187 2.599.636 1.406 2.185 4.142 2.887 5.1.344.469 1.32 2.103 2.17 3.63.848 1.529 1.807 3.077 2.13 3.44.322.364 1.058 1.351 1.635 2.193 2.019 2.947 6.842 7.451 10.347 9.663 2.365 1.492 12.982 6.136 14.029 6.136.13 0 .392.188.583.419.191.23 1.045.77 1.897 1.2l1.55.783 1.191-.804c1.47-.993 1.854-1.007 2.072-.077.457 1.96 1.274 2.865 1.55 1.72zM67.595 79.362c-.277-.724.358-1.065.964-.517.294.267.535.586.535.709 0 .403-1.336.233-1.499-.192zm-3.616-1.349c-.359-.358-.159-.617.477-.617.471 0 .61.11.5.397a.594.594 0 0 1-.977.22zm1.41-.353c0-.56.639-.703 1.292-.29.513.326.124.82-.645.82-.47 0-.646-.145-.646-.53zm-1.248-2.56c.074-.39.004-.921-.158-1.18-.345-.552-.109-.888.47-.666.224.086.408.448.408.804 0 .356.149.698.33.76.443.148-.229.99-.79.99-.287 0-.358-.196-.26-.709zm-4.3-.34c-.214-.135-.308-.327-.21-.425.243-.242.996.066.996.407 0 .336-.274.342-.786.018zm33.445-.831c-.273-.442 1.021-1.615 1.555-1.41.52.199.587.926.13 1.384-.399.398-1.444.414-1.685.026zm-32.083-.943c.112-.583 1.144-.662 1.144-.088 0 .218-.278.436-.619.484-.48.068-.598-.02-.525-.396zm24.03.099c0-.213.19-.545.423-.737.369-.306.41-.271.33.277-.1.687-.752 1.085-.752.46zm11.94-1.694-.604-.49.545-.493c.447-.405.618-.433.947-.16.49.407.498.565.06 1.165-.327.446-.37.445-.947-.022zm-34.366-.47c.083-.431-.023-.856-.276-1.109-.51-.51-.134-1.24.703-1.364.518-.077.568.035.568 1.257 0 .737.03 1.43.066 1.54.037.108-.217.238-.564.287-.554.078-.614.004-.497-.61zm22.691.125c0-.631.407-.702.633-.11.227.59.21.639-.236.639-.22 0-.397-.235-.397-.53zm-29.272-.66c-.092-.239-.04-.56.115-.716.403-.403 1.167-.035 1.062.512-.118.61-.965.756-1.177.204zm3.343-.398c0-.604.585-.703 1.024-.175.35.422.133.704-.539.704-.309 0-.485-.193-.485-.53zm24.936-.596c-.322-.403-.04-2.712.332-2.712.145 0 .303.357.35.794.048.437.197.907.332 1.045.134.138.244.466.244.728 0 .552-.854.65-1.258.145zm10.167-.794c-.229-.376-.319-1.058-.244-1.852.103-1.088.198-1.256.71-1.256.807 0 .978.235.634.877-.247.462-.176.638.472 1.162l.764.618-.662.518c-.862.674-1.23.66-1.674-.067zm-37.575-.153c-.458-.505-.596-1.368-.22-1.368.323 0 1.37 1.175 1.37 1.538 0 .474-.656.377-1.15-.17zm4.853-1.084c0-.378.786-1.078 1.21-1.078.56 0 .458.443-.21.911-.669.469-1 .524-1 .167zm-7.592-1.062c-.12-.46-.318-.546-1.106-.486-.797.061-.972-.019-1.037-.474-.054-.375.137-.645.608-.86.876-.4.925-.394.925.093 0 .224.422.655.937.96.968.57 1.083 1.082.28 1.237-.29.057-.515-.117-.607-.47zm42.488-.214c-.016-.11-.01-.451.015-.76.024-.309-.142-.632-.368-.72-.638-.244-.485-.939.247-1.123.547-.137.648-.306.596-.997-.061-.797-.018-.835 1.026-.912.947-.069 1.112 0 1.253.53.319 1.19.02 1.505-1.544 1.626-.289.022-.569.265-.622.54-.08.41.025.475.597.366.901-.172 1.074.148.53.98-.407.62-1.658.96-1.73.47zm-9.43-.77c-.367-.149-.46-1.148-.107-1.148.354 0 1.12.95.924 1.146-.197.196-.332.197-.817.002zm-30.493-.893c0-.628.392-.864 1.075-.647.41.13.471.255.253.518-.498.6-1.328.682-1.328.13zm2.646-.388c0-.773.783-.915 1.34-.244.287.346.28.458-.034.657-.735.465-1.306.285-1.306-.413zm24.93-.574c-.186-.075-.575-.601-.865-1.17-.618-1.21-.833-1.267-1.419-.372-.483.737-1.152.868-1.382.27-.18-.47 1.419-2.255 2.019-2.255.432 0 1.323.886 1.323 1.315 0 .138.417.583.926.99.51.406.926.887.926 1.069 0 .327-.876.415-1.528.153zm-31.766-.913c.07-.494.274-.647.95-.712 1.288-.124 1.05.818-.291 1.155-.678.17-.74.128-.659-.443zm5.25.098c-1.281-.64-1.278-1.152.013-1.997.6-.393 1.186-.715 1.302-.715.281 0 .473 1.392.328 2.382-.135.917-.373.965-1.644.33zm35.982-1.653c0-.531.403-.663 1.152-.375.598.23.21.904-.519.904-.457 0-.633-.148-.633-.53zm-40.86-1.202c-.428-.223-.92-.35-1.095-.283-.175.067-.596-.073-.937-.312-.341-.239-.938-.4-1.327-.36-.859.09-1.148-.294-.763-1.013.37-.692 1.152-.679 2.117.035.52.384 1.211.585 2.121.617 1.163.041 1.4.144 1.707.735.197.378.289.755.206.838-.276.276-1.243.153-2.03-.257zm42.278.011c-.294-.768.12-1.229 1.025-1.141.985.095 1.44 1.009.502 1.009-.293 0-.606.119-.696.264-.24.389-.656.323-.83-.132zm-16.452-.53c-.286-.363-.692-.66-.901-.66-.525 0-.724-.248-.555-.688.083-.217.513-.37 1.037-.37.776 0 .946.124 1.292.953.614 1.469.06 1.953-.873.766zm6.443-.062c-.759-.112-2.196-.952-2.573-1.503-.223-.327.251-.948.725-.948.19 0 .715.313 1.17.695.854.719 1.404.692.797-.039-.19-.228-.328-.845-.308-1.37.023-.614-.12-1.07-.398-1.274-.548-.4-.277-1.187.408-1.187.405 0 .543.256.683 1.257.408 2.914.431 2.977 1.125 2.977h.652l-.615.779c-.339.428-.675.768-.748.754a51.277 51.277 0 0 0-.918-.14zM69.8 58.963c-.301-.3-.195-1.067.193-1.388.293-.244.485-.161.922.395.304.386.488.808.409.936-.169.273-1.267.314-1.524.057zm25.09-1.42c-1.007-.652-1.05-1.416-.086-1.528.509-.059.784-.3.979-.86.35-1.005 1.026-1.005 2.18.003.959.838.877 1.223-.294 1.38-.504.067-.662.245-.665.75-.005.857-.996.976-2.113.254zm-48.48-.255c-.248-.292-.592-.53-.762-.53-.34 0-.729-.784-.502-1.011.078-.078.561.058 1.074.302.512.245 1.106.445 1.32.445.237 0 .387.256.387.661 0 .83-.855.905-1.516.133zm21.15.211c-.175-.174-.318-.46-.318-.633 0-.514.854-.69 1.281-.263.323.323.333.467.053.804-.41.493-.599.51-1.017.092zm-12.687-.387c-.182-.073-.331-.397-.331-.72 0-.823-.491-1.221-1.508-1.221-.755 0-.873-.09-.873-.662 0-.577.115-.661.91-.661.5 0 .984.119 1.074.265.09.145.603.266 1.14.268 1.068.005 2.017.466 1.44.7-.186.075-.331.59-.331 1.17 0 .905-.076 1.034-.595 1.016-.328-.012-.744-.081-.926-.155zm16.363-.833c-.283-.555-.434-1.135-.336-1.29.326-.512 2.738-1.465 3.013-1.19.383.383-.239 1.372-.863 1.372-.462 0-.503.123-.353 1.058.152.954.114 1.059-.389 1.059-.38 0-.722-.323-1.072-1.01zm4.067-.87c-.097-.306-.065-.667.07-.803.411-.41 1.13.05 1.13.725 0 .816-.946.877-1.2.078zm-25.775-.355c-.277-.334-.264-.434.074-.564.633-.243 1.368-.017 1.368.42 0 .54-1.028.643-1.442.144zm31.912-.696c-.33-.472-.46-.502-.92-.215-.434.271-.615.268-.957-.015-.607-.504-.046-1.074 1.057-1.074.956 0 1.458-.437.794-.691-.228-.088-.414-.323-.414-.523s-.327-.435-.727-.523c-.4-.087-.884-.208-1.075-.267-.476-.149-.299-1.988.215-2.23.218-.104.772-.384 1.231-.623 1.018-.53 1.393-.534 2.07-.023.42.318.464.488.226.87-.243.39-.155.638.492 1.379l.79.904-.613.4c-1.693 1.107-1.921 1.893-.618 2.12.417.074.734.223.706.332-.028.109-.05.317-.05.463 0 .522-1.805.29-2.207-.284zm-13.206-.159c-.624-.17-.59-1.07.05-1.272.643-.204 1.64.392 1.541.92-.078.413-.79.57-1.59.352zm7.618-.571c-.262-.348-.878-.869-1.368-1.158-.49-.29-.892-.698-.892-.908 0-.21-.261-.735-.58-1.166-.445-.602-.508-.858-.27-1.096.24-.24.55-.054 1.334.795.768.831 1.222 1.107 1.824 1.107.95 0 1.429.48 1.231 1.234-.104.398.006.584.408.69.886.231.668.915-.33 1.031-.69.081-.983-.033-1.357-.529zm-5.882-1.8c-.205-.533.221-1.258.805-1.373.458-.09 1.092 1.12.819 1.563-.253.41-1.448.27-1.624-.19zm26.343-.195c-.174-.383-.472-.695-.661-.695-.576 0-.944-.952-.508-1.314.434-.36 1.064-.1 1.845.764.391.432.695.521 1.356.397.53-.1.924-.042 1.045.154.305.494-.49 1.084-1.675 1.243-.98.131-1.116.078-1.402-.55zM71.75 48.436c-.424-.512-.127-.938.652-.938.347 0 .707.124.801.276.207.334-.338 1.047-.8 1.047-.183 0-.477-.174-.653-.385zm3.219-.197c-.175-.175-.318-.452-.318-.616 0-.163-.302-.582-.672-.93-.897-.842-.79-1.737.196-1.635.496.052.801-.09 1.001-.463.301-.562 1.327-.75 1.327-.244 0 .16.29.52.642.798.558.438.61.615.4 1.348-.133.464-.422.945-.642 1.068-.22.123-.4.396-.4.608 0 .467-1.086.514-1.534.066zm20.584-.207c0-.602 1.195-1.033 1.638-.59.19.191.027.404-.536.695-1.033.534-1.102.528-1.102-.105zm58.467 42.745c-.356-.356-.62.005-.409.557.152.396.216.408.419.08.144-.234.14-.487-.01-.637zm.089-1.758c.82-.228.993-.387.926-.858-.065-.456-.233-.561-.788-.497-.863.1-3.05-1.395-3.727-2.55-.43-.732-.4-1.633.052-1.633.275 0 .806-1.237.614-1.429-.087-.087-.436-.158-.776-.158-.484 0-.617-.145-.617-.668 0-.53-.164-.701-.788-.826-1.11-.222-1.391-.647-.994-1.503.354-.762.92-.93 1.147-.338.078.203.663.646 1.3.984 1.068.567 1.238.587 2.165.255 1.501-.537 2.298-1.428 2.082-2.33-.508-2.133-4.034-9.38-4.993-10.265-1.327-1.223-3.778-3.105-4.904-3.764-1.058-.62-1.46-.701-3.31-.662-1.456.031-2.765.26-4.253.745-2.48.807-5.312 2.637-5.312 3.434 0 .303.768 1.22 1.853 2.214 4.65 4.258 10.525 10.243 13 13.246.417.505.966 1.13 1.22 1.389.256.258.465.56.467.668.002.11.449.69.992 1.29.544.6 1.406 1.638 1.915 2.305.998 1.309 1.195 1.377 2.729.951zm-8.02-11.002c-.445-.146-1.417-.552-2.321-.97-.331-.152-.557-.403-.501-.559.147-.416 1.75-.266 2.113.198.171.22.729.647 1.238.95.68.405.785.546.397.532a4.087 4.087 0 0 1-.926-.15zm3.175-1.15c0-.554.205-.637.904-.369.67.257.496.898-.243.898-.485 0-.661-.141-.661-.53zm-1.986-.002c-.09-.147.027-.34.26-.43.507-.194.79.02.546.414-.22.356-.591.363-.806.016zm-3.835-2.909c-.156-.29-.51-.529-.788-.529-.754 0-.855-.397-.24-.953.535-.484.555-.484.929.027.21.288.573.524.806.526.657.005 1.109.883.616 1.197-.614.391-1.014.31-1.323-.268zm-.992-3.888c-.614-.12-.804-.714-.325-1.01.515-.319 1.881.155 1.792.62-.09.466-.512.578-1.467.39zm-3.232-.73c-.384-.464-.203-.826.506-1.011.72-.188 1.25.467.808.999-.417.502-.903.506-1.314.012zm18.264 17.252c.01-.182.074-1.057.143-1.944.123-1.584.103-1.643-1.098-3.241-.678-.902-1.429-1.628-1.684-1.628-.254 0-.737.294-1.075.654-.504.536-.555.725-.284 1.05.267.323.247.48-.106.833-.553.553-.406 1.01.362 1.123.488.071.57-.007.436-.426-.256-.808.484-1.275 1.378-.868l.718.328-.585.474c-.463.375-.58.735-.56 1.718.021 1.068.093 1.226.508 1.117.31-.081.631.1.898.507.448.685.921.835.95.303zm-4.298-1.74c.068-.463-.048-.575-.596-.575-.724 0-.893.475-.359 1.009.442.44.854.253.955-.434zm-.265-3.44c.062-.418-.052-.575-.419-.575-.444 0-.561.429-.349 1.28.082.327.7-.239.768-.705zM59.047 48.563c-.682-.516-1.065-.48-1.065.1 0 .47 1.116.962 1.455.643.173-.163.037-.42-.39-.743zm2.682-1.682c-.05-.568.034-.97.201-.97.157 0 .285-.12.285-.265 0-.146-.285-.265-.633-.265-.765 0-1.089.935-.689 1.988.385 1.012.937.69.836-.488zm-3.073.338c.406-.448.436-.635.174-1.055-.176-.281-.32-.867-.32-1.302 0-.543-.198-.922-.633-1.207-.35-.229-.96-.884-1.357-1.457-.692-.999-.703-1.07-.283-1.71.341-.522.582-.633 1.091-.505.542.136.654.068.654-.4 0-.653-1.24-1.376-1.54-.898-.1.157-.418.33-.71.383-.29.054-.646.366-.79.692-.305.694-.399.715-1.054.236-.646-.473-.35-1.23.483-1.23.416 0 .687-.184.777-.528.078-.3.36-.53.65-.53.288 0 .642-.288.812-.661.354-.775.49-.797 1.583-.252.89.444 1.703 1.765 1.467 2.382-.1.26.032.383.41.383.307 0 .557.12.557.265 0 .146.16.265.357.265.455 0 1.966-.75 2.167-1.076.362-.585.602-.16.562.997-.04 1.136.02 1.267.688 1.507.655.236.812.169 1.51-.649.946-1.106 1.019-1.77.206-1.885-.395-.057-.684-.36-.86-.905-.335-1.036-.672-1.436-1.737-2.062l-.852-.5.175.699c.132.525.076.699-.226.699-.272 0-.402.262-.402.81 0 .73-.074.804-.728.729-.604-.07-.714-.197-.647-.746l.166-1.389c.046-.4.1-.846.117-.992.019-.145.236-.264.483-.264.693 0 .168-.382-2.162-1.57-2.35-1.2-2.52-1.245-2.52-.68 0 .219.153.397.34.397.187 0 .74.333 1.226.74.835.696.86.765.434 1.19-.741.742-1.03.588-2.013-1.07-.361-.61-.704-.86-1.18-.86-.578 0-.648-.088-.508-.646.404-1.609-.794-1.407-1.25.21-.171.604-.59 1.952-.93 2.997-.34 1.044-.618 2.097-.618 2.34 0 .244-.167.819-.372 1.277-.588 1.32-1.48 4.193-1.48 4.77 0 .551.964 1.752 1.406 1.752.141 0 .77.257 1.399.571.943.471 1.213.512 1.55.232.865-.718.225-1.673-1.284-1.913-.846-.135-1.147-.902-.68-1.734.597-1.065 1.313-1.112 1.313-.085 0 .682.103.813.636.813.442 0 .824.295 1.256.969.904 1.408 1.237 2.015 1.393 2.536.182.608.492.585 1.094-.08zm-4.772-11.622c-.215-.347.33-1.33.733-1.324.177.002.482.105.677.229.296.188.297.319.002.79-.367.587-1.136.753-1.413.305zm8.33 8.99c0-.145-.052-.264-.116-.264s-.19.119-.28.265c-.09.145-.037.264.117.264s.28-.119.28-.264zm2.068-.598c.11-.568-.8-.633-1.252-.089-.237.285-.229.404.034.512.59.241 1.126.055 1.218-.423zm-3.4-1.5c.396-.739.368-1.276-.043-.865-.175.175-.71.318-1.19.318-1.09 0-1.208.708-.146.868.4.061.813.129.917.15.104.022.312-.19.463-.472zm21.838-1.076c.09-.146.421-.265.736-.265h.572l-.53-.53c-.704-.705-2.446-.83-2.852-.205-.236.364-.19.536.228.852.602.455 1.606.535 1.846.148zm-3.307-1.46c0-.23-1.697-1.184-2.11-1.185-.46-.002 1.295 1.29 1.78 1.309.181.007.33-.049.33-.124zm-3.015-2.438c-.27-.269-.491.136-.27.493.166.27.228.27.318.002.061-.184.04-.407-.048-.495zm5.396.354c0-.347-.537-.69-1.08-.69-.134 0-.243.238-.243.53 0 .387.177.529.662.529.389 0 .661-.152.661-.37zm3.439.038c-.002-.587-1.063-2.093-1.396-1.982-.54.18-.506.854.083 1.603.581.739 1.314.95 1.313.379zm-4.908-1.455c.071-.182.371-.331.667-.331.296 0 .537-.134.537-.298 0-.185-.28-.241-.74-.15-1.075.216-1.513-.125-1.116-.867.26-.487.464-.56 1.182-.425.478.09 1.069.086 1.315-.008.4-.154.386-.236-.143-.8-.324-.345-.771-.627-.992-.627-.876 0-3.977 2.6-3.996 3.351-.01.44.475.574 1.906.527.721-.024 1.306-.182 1.38-.372zM185.07 209.799c-.088-.23.018-.594.234-.811.582-.582 2.163-.13 2.277.649.076.525-.031.58-1.133.58-.865 0-1.264-.121-1.378-.418z" style="fill:#39473c;stroke-width:.26458332" transform="translate(-.108 -27.39)"/></svg>