<svg xmlns="http://www.w3.org/2000/svg" width="469.693" height="963.585" viewBox="0 0 124.273 254.949"><path d="M85.938 268.044c-.254-.41 4.916-4.047 8.052-5.665 1.952-1.006 5.29-1.938 5.533-1.544.237.382 2.12.219 4.617-.401 1.785-.443 2.176-.321.969.303-.841.435-6.508 1.717-7.606 1.72-1.065.005-3.711 1.408-8.28 4.392-1.872 1.223-3.012 1.637-3.285 1.195zm-15.304-2.607c-.645-2.221-2.125-7.916-2.697-10.385-1.06-4.576-2.147-8.214-3.026-10.133-1.111-2.426-2.943-5.162-4.289-6.404-2.2-2.03-7.42-7.416-8.208-8.466-2.832-3.778-6.245-10.104-6.994-12.965-.19-.728-.827-3.228-1.416-5.556-1.728-6.831-2.156-7.824-4.797-11.113-1.484-1.848-3.15-5.398-3.486-7.43-.244-1.47-.206-2.019.282-4.016 1.133-4.645 1.422-6.235 1.285-7.078-.077-.473-.039-.964.084-1.09.124-.126.109-.825-.032-1.552-.336-1.734-.414-7.22-.152-10.716.296-3.96.33-18.264.053-22.49-.302-4.62-.309-4.472.336-7.408.304-1.382.68-3.942.838-5.689.297-3.31.516-5.531.68-6.879.052-.436.225-2.208.383-3.938.495-5.429 2.502-18.728 3.186-21.121.155-.54.396-1.054.536-1.14.14-.087.255-.53.255-.983 0-.455.112-1.192.248-1.639.137-.446.567-1.884.955-3.193.925-3.12 1.435-4.658 1.73-5.222.133-.253.242-.642.242-.866 0-.54.985-4.039 1.787-6.348a161.73 161.73 0 0 0 1.418-4.365c.427-1.383.97-2.93 1.207-3.44.666-1.43 2.681-3.929 3.52-4.362.702-.364.765-.53.927-2.446.225-2.647.532-4.531 1.337-8.207.358-1.637.953-4.376 1.32-6.085 1.797-8.348 3.584-11.976 7.054-14.321 1.095-.74 1.302-1.004 1.2-1.532-.219-1.146.344-5.376.92-6.916.876-2.34 3.99-4.979 6.643-5.63 1.575-.387 4.431-.183 5.225.373.563.394.65.368 1.653-.49.582-.499 1.759-1.23 2.615-1.625 1.064-.491 1.511-.836 1.414-1.09a11.52 11.52 0 0 1-.314-1.073c-.191-.78-1.512-3.266-2.257-4.245-.264-.347-.48-.851-.48-1.12 0-.575 1.94-1.893 2.597-1.767.243.047.893.948 1.445 2.002.893 1.705 1.13 2.533 1.66 5.797.112.69.288.872.988 1.019.468.098 1.54.524 2.383.946 1.409.707 1.626.745 2.707.472.647-.163 1.575-.221 2.062-.13 1.205.226 4.832 2.006 6.437 3.16 3.217 2.31 6.36 7.466 6.863 11.259l.179 1.35h2.065c2.716 0 3.325.257 3.92 1.65.557 1.302 2.791 8.047 4.012 12.109.459 1.528 1.047 3.373 1.307 4.101.26.728.538 2.037.618 2.91.222 2.408 1.14 6.218 2.051 8.521.953 2.404 2.194 4.783 5.358 10.265 2.358 4.086 2.986 5.877 2.65 7.559-.136.677-.012.97.754 1.785 1.108 1.178 2.527 3.583 3.384 5.737.348.873.78 1.826.961 2.117.18.29.647 1.362 1.037 2.381 1.425 3.726 2.394 5.896 4.194 9.393a685.291 685.291 0 0 1 2.234 4.365c.843 1.694 3.6 6.411 4.441 7.598.486.687 1.797 2.71 2.913 4.498a439.717 439.717 0 0 0 4.733 7.357c2.513 3.816 2.714 4.218 2.84 5.688.074.87.4 3.487.725 5.816.55 3.934.58 4.869.437 13.229-.084 4.947-.269 11.687-.41 14.977-.277 6.468-.508 7.693-3.055 16.244-.52 1.746-1.425 5.199-2.01 7.673a549.097 549.097 0 0 1-1.842 7.54c-1.404 5.498-3.947 19.477-4.609 25.34-.426 3.776-.86 10.258-1.107 16.53-.125 3.182-.225 3.903-.541 3.903-.646 0-.34-17.306.381-21.563 2.006-11.832 3.076-17.342 4.573-23.548a307.94 307.94 0 0 0 1.31-5.689c.655-3.021 1.807-7.375 3.185-12.038 1.88-6.362 2.379-9.54 2.683-17.06.455-11.259.422-15.106-.207-24.612-.19-2.866-.583-5.154-1.197-6.979-1.013-3.006-5.423-10.355-9.517-15.862-.67-.9-1.429-2.046-1.688-2.547-.26-.502-.638-1.078-.84-1.281-.204-.203-.561-.745-.796-1.204a14.953 14.953 0 0 0-.986-1.61c-.822-1.14-2.19-3.516-2.978-5.178-1.597-3.362-2.476-5.295-2.476-5.444 0-.087-.426-1.127-.947-2.31a73.639 73.639 0 0 1-1.694-4.277c-.947-2.692-3.523-8.122-4.066-8.573-.336-.279-1.042-.28-3.82-.009-4.078.4-6.694.126-8.765-.914-1.561-.784-3.45-2.27-3.458-2.72-.01-.676.815-.538 2.023.338.704.51 1.55 1.036 1.882 1.17 1.933.777 8.763 1.103 9.879.47 1.68-.954 1.663-2.437-.06-5.309a76.214 76.214 0 0 1-1.971-3.51c-.45-.873-1.387-2.66-2.081-3.97-2.51-4.73-3.975-9.082-4.544-13.493-.132-1.026-.218-1.204-.384-.794-.117.291-.222 1.099-.232 1.795-.014.953-.133 1.306-.482 1.434-.254.093-.746.386-1.093.652-.346.266-1.477.736-2.513 1.044-1.578.47-2.368.542-4.88.446-1.672-.064-3.077-.237-3.176-.392-.098-.152-.666-.525-1.263-.827-1.403-.711-3.276-2.54-4.179-4.08-1.247-2.128-2.304-5.621-2.576-8.51-.138-1.468-.353-2.771-.478-2.896-.806-.806-1.778 10.85-1.475 17.684.313 7.072.586 9.59 1.903 17.595.65 3.946.79 4.438 1.46 5.114.408.411.742.817.742.9 0 .085.297.544.661 1.021.364.477.665 1.143.67 1.48.005.337.18.84.388 1.115.21.276.32.6.246.72-.075.12.037.49.247.821.21.332.92 2.091 1.577 3.91 1.457 4.03 1.847 4.986 2.843 6.969.427.849.776 1.659.776 1.8 0 .14.602 1.53 1.337 3.086.735 1.556 1.54 3.275 1.786 3.819.247.544.55.99.676.992.124.002.158.181.074.4-.158.413.733 3.06 1.335 3.962.192.287.352.763.356 1.058.019 1.392 5.708 11.889 6.93 12.788.435.32.688 1.904.304 1.904-.091 0-.627-.417-1.191-.927-.564-.509-1.199-.926-1.411-.926-.213 0-.627-.506-.922-1.124l-.535-1.125.097 5.689c.094 5.543.417 9.333 1.51 17.727.636 4.897 1.973 12.413 2.47 13.89.68 2.02 1.271 5.201 1.015 5.458-.155.155-.369-.178-.568-.885a450.742 450.742 0 0 0-2.153-7.218c-.269-.873-.693-2.838-.942-4.366-.25-1.528-.494-2.825-.542-2.882-.049-.057-.273.05-.498.236-.225.187-.48.27-.567.183-.228-.228.599-.986.835-.765.11.102.134-.35.055-1.005-1.437-11.816-2.038-17.64-2.069-20.052l-.026-2.04-.354 1.719c-.252 1.22-.36 4.255-.375 10.451-.026 11.163.239 13.681 2.653 25.268.438 2.104.432 3.704-.016 3.704-.538 0-2.189-6.924-2.65-11.113a525.84 525.84 0 0 0-.782-6.482c-.294-2.328-.536-5.394-.538-6.813 0-1.419-.086-2.58-.188-2.58-.101 0-1.045.922-2.097 2.048s-2.004 1.956-2.116 1.844c-.112-.112.77-1.183 1.962-2.38l2.166-2.178-.033-2.358-.032-2.359-.91 1.038c-1.925 2.199-3.781 4.08-4.022 4.08-.138 0-.379.685-.534 1.522-.156.837-.518 2.593-.803 3.903-.818 3.744-.94 5.774-.888 14.816.055 9.605.16 10.519 1.224 10.716 1.158.213 2.422 1.422 4.01 3.833 1.22 1.852 2.014 2.682 4.451 4.648 1.632 1.316 3.294 2.461 3.695 2.545.4.084.727.314.727.511s.48.604 1.068.903c1.087.555 1.208 1.213.167.908-.315-.093-1.667-.697-3.004-1.342-2.036-.984-2.83-1.57-4.898-3.614-1.357-1.341-3.033-3.06-3.725-3.82-1.154-1.269-2.228-2.098-2.438-1.881-.11.113 1.28 4.399 1.897 5.85 1.06 2.49 3.93 8.103 4.978 9.73.614.955 1.729 2.348 2.477 3.097.75.749 1.362 1.486 1.362 1.638 0 .514-.542.282-1.441-.616-.653-.654-1.064-.862-1.526-.773-.527.1-.809-.135-1.7-1.422-1.518-2.189-1.93-3.028-4.339-8.818-3.012-7.243-3.415-8.762-4.738-17.891-.84-5.788-.504-13.935.902-21.917.357-2.03.603-3.74.546-3.796-.057-.057-.71 1.183-1.452 2.755-.742 1.573-1.449 2.924-1.57 3.003-.24.154-1.216 2.002-1.62 3.062-.31.818-.049.83.805.038.905-.839 2.098-1.602 2.257-1.443.184.184-2.078 2-2.864 2.3-.358.135-.715.494-.794.796-.197.751-.056.703 1.357-.464 1.837-1.517 2.167-1.596.83-.2-.654.684-1.486 1.386-1.848 1.561-.362.175-.701.54-.753.81-.075.39.169.292 1.16-.464.689-.527 1.385-.955 1.546-.952.295.006-1.1 1.31-2.343 2.189-.37.262-.672.707-.672.99 0 .492.024.494.559.053.307-.253.715-.609.907-.79.192-.183.439-.331.549-.331.11 0 .475-.259.811-.575.337-.316.69-.495.788-.398.184.184-.47.826-2.026 1.99-1.717 1.283-2.117 1.847-2.117 2.98 0 1.18-.079 1.19 1.93-.246.697-.499 1.33-.844 1.406-.768.076.076-.06.299-.3.496a30.5 30.5 0 0 0-1.023.886c-.32.291-.695.573-.834.627-.14.053-.48.256-.757.45-.475.333-.493.613-.318 4.93.103 2.517.18 7.791.172 11.72-.022 10.419.71 13.91 4.157 19.844 1.906 3.28 3.837 5.749 8.353 10.68 3.037 3.316 5.277 6.604 5.16 7.574-.084.698-.11.684-1.012-.566-.51-.706-1.002-1.462-1.095-1.68-.092-.219-1.35-1.648-2.797-3.176-1.445-1.528-2.874-3.075-3.174-3.44-.3-.363-1.411-1.673-2.47-2.91-1.058-1.237-2.341-2.903-2.851-3.704-.51-.8-1.223-1.812-1.585-2.249l-.658-.794.133 1.985c.174 2.574.998 5.04 3.538 10.583 1.225 2.673 1.58 3.832 1.828 5.953.085.728.21 1.584.278 1.902.068.319.022.642-.102.719-.124.076-.372-.541-.551-1.373-.549-2.554-1.339-4.532-3.38-8.463-1.078-2.076-2.138-4.339-2.357-5.027-.218-.688-.502-2.859-.63-4.823-.14-2.13-.459-4.374-.79-5.557-.85-3.037-1.322-9.285-1.33-17.594l-.009-7.409-.731 1.323c-.402.728-1.024 1.68-1.381 2.117-.728.89-5.517 5.671-6.1 6.092-.208.15-1.092.817-1.965 1.484a53.804 53.804 0 0 1-3.175 2.22c-3.703 2.347-9.848 8.033-11.836 10.952-2.334 3.426-4.062 8.011-4.495 11.925-.042.378-.27.696-.533.747-.401.076-.443-.077-.321-1.188.37-3.379 1.076-6.174 2.127-8.42 1.635-3.496 4.802-7.316 8.88-10.715 3.244-2.704 4.02-3.304 6.16-4.763 2.443-1.665 2.514-1.72 4.949-3.78 3.094-2.617 4.93-4.7 6.074-6.89.595-1.138 1.022-2.13.95-2.203-.074-.072.08-.629.34-1.236.318-.741.529-2.132.64-4.229.178-3.352.827-7.914 1.233-8.673.137-.256.384-1.099.55-1.874.358-1.682 1.275-3.827 2.412-5.642 1.132-1.808 3.472-4.9 4.256-5.621.355-.326.857-1.04 1.117-1.588.575-1.21 2.657-8.934 4.226-15.678.518-2.226.868-6.43.596-7.165l-.211-.572-.484.627c-.266.345-.827 1.223-1.246 1.95-1.28 2.223-2.276 3.376-6.782 7.857l-4.338 4.314-1.605 3.307c-.882 1.82-1.748 3.903-1.924 4.63-.176.728-.505 2.038-.731 2.91-.34 1.318-.923 9.302-.702 9.624.037.054.206-.454.376-1.129.363-1.44.932-2.024.639-.656-.105.491-.28 1.012-.39 1.158-.109.145-.52 1.308-.912 2.583-.922 2.992-2.366 5.819-4.494 8.794l-2.648 3.704c-1.219 1.704-2.366 3.043-2.608 3.043-.337 0-.204-.432.334-1.084.288-.35.615-.757.727-.904.112-.147.382-.493.6-.769.386-.486.375-.488-.397-.05-.436.247-1.627 1.1-2.645 1.893-1.019.795-3.222 2.157-4.895 3.027a759.784 759.784 0 0 0-9.128 4.836c-.728.39-1.671.837-2.097.992-.922.337-5.465 2.93-6.744 3.85-1.378.991-3.756 3.284-4.783 4.613-.507.655-1.064 1.37-1.238 1.587-.932 1.166-2.204 2.934-2.204 3.063 0 .081-.291.53-.647.997-1.094 1.433-2.206 4.131-3.012 7.306-.424 1.667-.904 3.076-1.069 3.13-.399.134-.376-.64.106-3.648.346-2.158.671-3.056 2.297-6.35 1.041-2.11 1.99-3.876 2.11-3.924.118-.049.215-.209.215-.356 0-.64 3.16-4.887 4.75-6.384 1.9-1.788 3.633-2.808 8.082-4.755 1.601-.701 3.625-1.64 4.498-2.086 4.903-2.506 8.293-4.19 8.432-4.19.306 0 3.75-2.202 5.717-3.655 3.657-2.703 6.337-5.928 8.141-9.799.639-1.37.695-1.764.67-4.674-.014-1.749-.212-4.547-.438-6.218a236.503 236.503 0 0 1-.707-5.877l-.297-2.839.86-1.527c1.113-1.973 1.858-3.044 2.012-2.89.067.067-.211.64-.619 1.272-1.235 1.915-1.323 2.16-1.126 3.134.103.509.27 1.509.37 2.222l.18 1.296 1.384-3.28c.76-1.805 1.643-3.698 1.961-4.207.648-1.037.794-.866.191.224-.214.386-1.005 2.071-1.757 3.745-1.113 2.473-1.37 3.317-1.374 4.51-.003.808.114 1.682.26 1.942.21.375.327.095.566-1.351.165-1.004.91-3.656 1.652-5.894 1.685-5.072 1.73-6.169.414-9.996-.502-1.46-1.036-2.883-1.186-3.163-.491-.919-.592-3.079-.238-5.098.291-1.659.432-1.985.856-1.985.463 0 .509.22.526 2.514.021 2.874.328 4.445 1.527 7.802l.848 2.38.272-1.583c.207-1.203.39-1.604.763-1.676.453-.086.478.05.321 1.783-.093 1.033-.113 1.877-.044 1.877.07 0 .937-.812 1.928-1.804.991-.993 2.161-2.094 2.6-2.448.857-.69 4.652-5.248 5.856-7.033.46-.68 1.416-3.233 1.416-3.778 0-.224-.465.083-1.1.723-.996 1.007-1.546 1.351-1.546.969 0-.078.532-.697 1.182-1.376 1.516-1.582 1.302-1.863-.256-.334-.649.637-1.264 1.073-1.368.97-.103-.104.393-.778 1.103-1.5.71-.72 1.207-1.394 1.104-1.497-.103-.103-.953.638-1.89 1.647-.936 1.01-1.708 1.71-1.715 1.559-.014-.317 2.52-3.383 2.907-3.516.14-.049.256-.267.256-.485 0-.624-.377-.336-1.705 1.3-.68.837-1.419 1.522-1.644 1.522-.253 0 .207-.696 1.205-1.822.888-1.001 1.615-1.954 1.615-2.116 0-.169-.46-.295-1.074-.295-.59 0-1.01.102-.933.228.078.126-.505.93-1.295 1.786-.79.857-1.442 1.418-1.449 1.247-.01-.284.71-1.26 1.915-2.593.453-.502.453-.53 0-.71a3.182 3.182 0 0 0-3.275.554c-1.048.916-1.397.835-.503-.117.341-.363.49-.66.332-.66-.159 0-.527.327-.818.727-.292.4-.62.638-.73.528-.109-.11.081-.496.422-.86.762-.81.4-.88-.447-.084-.612.575-.89.338-.299-.254.172-.172.237-.388.145-.481-.093-.093-.367.03-.61.273-.242.242-.515.36-.607.26-.092-.1-.018-.235.164-.3.404-.144.44-.603.047-.603-.492 0-1.045.737-.878 1.171.088.23.236.418.33.42.093.002.706.494 1.36 1.093.655.599 1.692 1.315 2.305 1.591 1.267.572 1.585.937 1.173 1.349-.508.508-2.346-.28-4.29-1.84-2.097-1.681-2.473-2.47-1.557-3.265.688-.596.648-.71-.276-.787-1.595-.133-1.822-.029-2 .915-.183.981-3.084 4.77-4.939 6.454-1.039.942-4.55 3.483-4.813 3.483-.072 0-.554.287-1.072.638-.518.351-2.1 1.091-3.518 1.644-3.615 1.412-3.748 1.525-3.758 3.205-.005.762-.244 2.005-.531 2.762-.595 1.565-.53 1.943.142.835.251-.412.672-1.066.936-1.451.264-.386.557-1.012.653-1.392.221-.883.645-1.145.956-.59.134.239.416.434.627.434.704 0 .395.858-.847 2.354-.677.816-1.813 2.733-2.525 4.26-.711 1.529-1.53 3.225-1.82 3.77-.844 1.592-.422 1.155 1.11-1.148 1.425-2.143 1.692-2.562 2.266-3.545.17-.29.382-.453.472-.363.22.22-3.374 6.198-4.113 6.843-.083.073-.246.37-.361.661-.125.314-.258.4-.329.213-.065-.173.024-.59.198-.926.298-.577.274-.572-.446.09-.903.829-3.144 1.956-6.013 3.025-1.722.641-2.263.994-3.175 2.067a61.762 61.762 0 0 1-2.091 2.325c-1.005 1.045-1.366 2.196-.596 1.9.219-.083.397-.317.397-.52s.12-.369.265-.369c.41 0 .32.256-.397 1.107-.364.432-.66.926-.66 1.097.004.405 1.472-1.194 2.635-2.868 1.145-1.65 1.573-2.093 1.8-1.866.098.098.053.26-.1.362-.279.184-2.977 3.895-3.896 5.359-.917 1.458-.306 1.314.883-.21.655-.838 1.157-1.622 1.117-1.742-.04-.121.021-.162.135-.091.114.07.802-.752 1.528-1.829.726-1.076 1.464-2.012 1.64-2.08.352-.136.027.425-1.722 2.968-.625.91-1.065 1.77-.978 1.912.087.14.004.203-.186.138-.457-.158-2.709 3.3-2.78 4.272-.126 1.686-.44 2.9-.907 3.495-.271.347-.494.833-.494 1.08 0 .248-.089.54-.198.648-.11.11-.204.278-.21.375-.036.526-1.296 2.503-2.397 3.762-4.215 4.818-9.63 9.054-9.63 7.532 0-.247.268-.673.595-.946.51-.425.529-.498.133-.505-.628-.012-.594-.803.035-.803.893 0 4.537-2.452 6.013-4.046 1.429-1.543 3.543-4.554 3.543-5.045 0-.14-.45.21-.999.78-2.12 2.197-5.45 4.558-8.389 5.947-1.933.913-2.403.957-2.777.259-.31-.581-.087-.76 1.642-1.318 1.397-.45 4.575-2.589 6.29-4.231 4.44-4.255 5.577-5.445 5.677-5.946.123-.618.444-3.581.433-3.995-.004-.145-.076-3.777-.16-8.07-.136-6.898-.468-10.849-.912-10.847-.079 0-.382.358-.673.793-.291.436-.678.793-.86.793-.182 0-.42.002-.529.003-.25.003-.342-1.951-.107-2.278.095-.133.615-.538 1.155-.9.843-.564 1.074-.953 1.642-2.775.826-2.65.892-3.075 1.234-7.94.153-2.183.39-5.457.526-7.276.137-1.819.307-4.32.379-5.556.072-1.237.188-2.845.258-3.573.07-.728.04-1.65-.067-2.051-.19-.715-.216-.696-1.372 1.008-2.191 3.232-3.717 4.33-3.931 2.827-.061-.43.309-.97 1.361-1.981 1.447-1.39 3.12-3.903 2.598-3.903-.152 0-.371.149-.488.33-.116.183-.747.792-1.402 1.354a99.234 99.234 0 0 0-2.45 2.197c-1.928 1.796-2.562.93-.765-1.043a29.201 29.201 0 0 0 1.786-2.19c.422-.59 1.584-1.836 2.581-2.769 2.908-2.72 4.294-5.226 5.261-9.516.477-2.115.566-3.323.552-7.545-.025-7.916-.317-9.454-2.205-11.605-1.117-1.271-2.61-2.029-4.356-2.21-2.024-.208-4.804 1.17-6.401 3.172-1.01 1.265-2.215 4.312-2.741 6.924-.174.865-.89 3.187-1.592 5.16-1.8 5.06-1.78 5.004-2.265 6.76-.241.874-.84 2.819-1.33 4.322-.61 1.873-.892 3.236-.892 4.326 0 1.411-.086 1.672-.759 2.3-.937.876-1.353 2.576-2.437 9.955-1.01 6.88-1.183 8.45-1.825 16.669-.296 3.783-.732 7.712-.968 8.73-.37 1.591-.44 4.263-.499 18.919-.037 9.386.035 17.84.16 18.785.126.946.353 2.672.506 3.836.152 1.163.526 2.77.83 3.571.917 2.417 1.268 4.974.85 6.186-.196.564-.356 1.294-.356 1.621 0 .694-.704 1.392-1.043 1.033-.125-.132-.28-1.49-.344-3.018-.064-1.528-.27-3.135-.456-3.572l-.34-.793-.218.762c-.39 1.364-.906 5.808-.896 7.704.014 2.572.41 3.685 2.31 6.5 3.021 4.475 3.36 5.122 4.426 8.45.583 1.818 1.06 3.545 1.06 3.836 0 1.296 1.84 5.96 4.175 10.583 2.688 5.32 4.486 8.254 6.146 10.03.557.595 1.35 1.5 1.761 2.008.93 1.15 3.432 3.67 3.132 3.156-.121-.208.8.681 2.048 1.976 1.274 1.322 2.556 2.945 2.926 3.704 1.553 3.189 4.082 12.073 5.191 18.233.288 1.6.761 3.277 1.075 3.808.308.523.498 1.111.422 1.309-.198.517-1.126.441-1.285-.105zm42.864-121.717c.224-.332.355-.656.291-.72-.064-.064-.864.773-1.779 1.86-1.57 1.868-2.145 2.325-2.145 1.707 0-.237.925-1.295 3.512-4.016.404-.424.666-.882.583-1.016-.083-.134-.651.37-1.263 1.119-1.049 1.285-1.787 1.855-1.763 1.36.006-.12.72-.989 1.588-1.928.867-.94 1.577-1.87 1.577-2.066 0-.196-.668.364-1.484 1.246-1.364 1.473-1.972 1.912-1.946 1.404.006-.11.84-1.088 1.852-2.176 1.355-1.455 1.842-2.17 1.842-2.706 0-.716-.02-.706-1.124.507-1.593 1.751-2.032 2.192-2.183 2.192-.337 0-.052-.486.86-1.468 2.417-2.603 3.075-3.559 2.447-3.559-.145 0-.264.106-.264.236 0 .396-2.407 2.939-2.782 2.939-.334 0-.498.456-.807 2.249a13.11 13.11 0 0 1-.27 1.236c-.072.243-.185.66-.249.926s-.352 1.436-.64 2.6c-.846 3.406-.775 3.447 1.61.926 1.172-1.236 2.313-2.52 2.537-2.852zm-49.406 1.702c0-.395 2.164-4.65 2.643-5.2a54.99 54.99 0 0 0 1.275-1.534c.726-.91 4.216-3.686 5.518-4.39 1.38-.745 2.659-2.133 3.13-3.396.409-1.097.43-1.55.179-3.704-.158-1.35-.354-4.001-.436-5.893-.293-6.749-.747-10.411-1.63-13.163-.395-1.235-.422-1.257-1.508-1.257-.608 0-2.096.35-3.306.778-2.075.734-2.589 1.004-3.435 1.802-.48.453-1.107.416-1.107-.066 0-.65 2.152-2.437 3.547-2.945.714-.26 3.366-1.068 4.325-1.318.189-.05.33-.504.33-1.062 0-.926-.024-.953-.481-.54-.265.24-1.143.655-1.952.921-.81.267-2.067.923-2.795 1.458-1.466 1.076-1.65 1.143-1.65.6 0-.631 2.455-2.612 4.74-3.823 1.54-.817 2.25-1.355 2.44-1.852.85-2.23 1.025-3.907 1.289-12.428.15-4.877.344-9.145.429-9.484.197-.784-.418-.833-1.094-.087-.263.291-.588.53-.72.53-.134 0-.422.178-.64.396-.474.474-1.153.523-1.153.084 0-.172.601-.893 1.336-1.601 1.002-.966 1.296-1.418 1.173-1.804-.234-.738-.457-.649-1.334.537-.428.578-.927 1.055-1.109 1.058-.557.01-.368-1.138.365-2.217 3.34-4.915 4.098-6.739 4.932-11.865.266-1.634.243-1.87-.266-2.779-.307-.545-.814-1.706-1.128-2.58-.314-.873-.64-1.766-.726-1.984a22.096 22.096 0 0 1-.2-.529 15.37 15.37 0 0 0-.21-.53c-.996-2.421-1.73-6.967-1.878-11.621-.105-3.332-.205-4.124-.542-4.313-.227-.127-.413-.41-.413-.628 0-.46-1.521-1.164-2.514-1.164-1.736 0-5.078 2.158-6.345 4.098-1.164 1.783-2.47 5.302-3.535 9.528-.453 1.799-1.183 6.176-2.393 14.354-.113.764-.158 1.436-.1 1.495.058.058.54-.014 1.071-.16 1.929-.533 5.022.446 7.069 2.238 2.55 2.231 3.522 6.871 3.034 14.484-.3 4.712-.307 4.447.097 3.969.74-.875 3.087-3.009 3.087-2.806 0 .12-.854 1.097-1.897 2.173-2.167 2.235-2.058 2.63.165.598.817-.747 1.561-1.282 1.654-1.19.22.22-.8 1.295-2.36 2.485-.686.523-1.371 1.306-1.523 1.74-.276.792-.14 1.327.205.81.209-.314 3.187-2.752 3.36-2.752.399 0-.431.877-2.128 2.25-1.906 1.54-2.422 2.154-2.092 2.484.088.087.567-.285 1.065-.828.498-.543.905-.934.905-.87 0 .066.467-.353 1.038-.93.57-.576 1.195-1.042 1.389-1.035.193.007-.854 1.168-2.326 2.58-2.4 2.3-3.496 3.626-3.225 3.897.051.051.97-.643 2.04-1.544s2.187-1.814 2.482-2.028c.5-.365.518-.356.255.132-.156.287-1.083 1.177-2.061 1.978-.978.8-1.917 1.588-2.087 1.75-.17.164-.54.374-.825.47-.284.095-.908.82-1.387 1.613l-.87 1.44.577 1.134c.514 1.009.575 1.525.552 4.705-.015 1.965-.148 4.763-.297 6.218-.148 1.455-.398 4.67-.555 7.144-.342 5.39-1.093 10.354-1.877 12.401-.545 1.426-.55 1.52-.11 2.006.483.534.724 2.776 1.089 10.153l.168 3.394.634-.932c.348-.513.633-.987.633-1.053zm-.264-9.424c0-.14 1.042-.931 2.315-1.758a276.437 276.437 0 0 0 2.985-1.959c1.224-.832 2.902-1.598 2.902-1.324a.27.27 0 0 1-.267.27c-.147 0-.832.392-1.522.871-.69.48-1.909 1.27-2.709 1.755-.8.485-1.515.956-1.587 1.046-.202.25-1.812 1.355-1.974 1.355-.079 0-.143-.115-.143-.256zm3.168-.662c.388-.468 2.599-1.73 3.017-1.723.305.006-2.85 2.112-3.165 2.112-.096 0-.03-.175.148-.389zm-3.168-1.671c0-.114.387-.433.86-.71a19.515 19.515 0 0 0 1.786-1.226c.993-.776 3.704-2.411 3.704-2.233 0 .059-.923.769-2.05 1.578-1.128.81-2.17 1.566-2.316 1.681-1.253.994-1.984 1.329-1.984.91zm2.769-3.746c.236-.383 4.113-2.926 4.46-2.926.167 0-.087.268-.564.596a111.09 111.09 0 0 0-2.227 1.587c-1.313.96-1.989 1.26-1.67.743zm1.2-2.529c.55-.662 3.729-2.841 3.898-2.672.19.19.358.043-1.951 1.708-1.906 1.373-2.553 1.694-1.948.964zm-1.752-3.123c.419-.32 1.53-1.206 2.469-1.97 1.753-1.426 2.27-1.726 1.63-.946-.61.744-4.214 3.527-4.548 3.51-.172-.007.03-.275.449-.594zm-1.147-1.714c.006-.104.81-.754 1.786-1.444s2.19-1.62 2.7-2.065c.51-.446 1.164-.943 1.455-1.104 1.006-.558-.08.494-2.614 2.533-2.285 1.84-3.353 2.507-3.327 2.08zm-.276-2.176c0-.14.504-.584 1.12-.987.617-.402 1.302-.876 1.522-1.053 2.583-2.08 3.773-2.984 3.924-2.978.207.008-1.119 1.24-2.968 2.755-1.677 1.374-3.598 2.583-3.598 2.263zm2.67-4.43c1.22-.982 2.785-2.308 3.478-2.947.693-.638 1.26-1.033 1.26-.878 0 .497-4.592 4.555-6.002 5.304-1.221.649-.875.243 1.264-1.479zm.785-2.522c1.59-1.24 3.04-2.47 3.116-2.64.048-.11.193-.135.32-.056.356.22-2.96 3.044-3.554 3.027-.162-.005-.109-.154.118-.331zm.768-2.784c.359-.247.832-.657 1.051-.912.22-.254.581-.46.804-.458.24.003-.022.377-.652.926-.58.507-1.235.915-1.455.907-.265-.009-.181-.164.252-.463zm-2.636-7.164c0-.128.533-.67 1.184-1.203.651-.533 1.371-1.157 1.6-1.386.23-.229.491-.341.582-.25.17.17-2.81 3.055-3.167 3.066-.11.003-.199-.099-.199-.227zm-1.036-1.192c.06-.057.943-.777 1.962-1.6a490.378 490.378 0 0 0 2.34-1.901c.269-.222.542-.35.607-.285.262.262-4.066 3.888-4.64 3.888-.209 0-.33-.046-.27-.102zm-.287-.8c0-.158 5.614-5.04 6.086-5.292.522-.279-3.27 3.437-4.63 4.537-.97.784-1.456 1.036-1.456.754zm.298-2.215c.1-.27 5.209-4.82 5.414-4.82.267 0 .027.307-1.176 1.501-2.052 2.04-4.46 3.924-4.238 3.319zm3.936-13.227c0-.157.313-.533.697-.835.748-.589 1.428-.766.835-.217-1.08.998-1.532 1.308-1.532 1.052zm.328-2.097c.393-.392.794-.633.892-.535.193.193-.927 1.226-1.347 1.24-.142.005.063-.312.455-.705zm1.652-11.93c.203-.69 1.451-2.942 1.456-2.627.006.363-.753 2.031-1.2 2.642l-.433.59zm-.489-8.182c.228-.551.712-1.657 1.077-2.457.364-.8.907-2.11 1.207-2.91.3-.801.591-1.32.646-1.155.104.312-1.47 4.509-2.336 6.23-.665 1.32-1.11 1.539-.594.292zm-1.227.54c0-.157.253-.865.562-1.575l1.022-2.348c.253-.582.787-1.929 1.187-2.992s.77-1.89.823-1.837c.193.193-.499 2.257-1.795 5.358-1.266 3.027-1.799 4.032-1.799 3.394zm-.388-2.468c.445-1.55 2.833-7.433 2.965-7.301.181.181-2.257 6.722-2.772 7.433-.367.507-.375.501-.193-.132zm-1.2-.755c0-.19.407-1.317.903-2.507a127.077 127.077 0 0 0 1.617-4.096c.392-1.063.777-1.87.855-1.792.168.169-.825 3.19-1.66 5.049-.327.727-.684 1.62-.793 1.984-.25.833-.921 1.825-.921 1.362zm-.252-2.556c-.017-.392 3.153-8.42 3.44-8.71.329-.334 0 .705-1.323 4.186-1.102 2.898-2.096 5.021-2.117 4.524zm-.012-3.444c0-.142.487-1.508 1.082-3.035.594-1.528 1.21-3.165 1.367-3.638.157-.473.38-.86.494-.86.115 0-.215 1.161-.734 2.58a425.656 425.656 0 0 0-1.22 3.373c-.313.895-.989 1.974-.989 1.58zm.53-4.896c0-.15.168-.538.375-.86.206-.322.765-1.71 1.24-3.082.476-1.372.907-2.372.957-2.22.096.286-.855 3.35-1.647 5.311-.418 1.036-.926 1.502-.926.85zm.812-5.283c0-.218.17-.694.378-1.058.218-.382.378-.494.378-.264 0 .218-.17.694-.378 1.058-.219.382-.378.494-.378.264zm-.533 97.938c3.462-.666 7.024-3.984 8.513-7.928.455-1.206.087-1.305-1.047-.283-.55.495-1.951 1.606-3.116 2.469-3.692 2.737-5.405 4.357-6.13 5.8l-.68 1.356.643-.594c.353-.327 1.17-.696 1.817-.82zm43.378-5.003c.001-.109.675-.912 1.498-1.786 1.247-1.324 1.531-1.806 1.712-2.91.12-.726.113-1.698-.014-2.157-.143-.518-.131-.936.03-1.097.144-.144.22-.474.17-.734-.068-.356-.271-.198-.83.647-.408.615-.973 1.318-1.257 1.561-.284.243-.517.62-.517.836 0 .234.383-.013.947-.611.521-.553 1.012-.94 1.09-.862.079.079-.02.314-.22.523-.199.21-.587.691-.862 1.07-.275.38-.662.692-.86.692a.369.369 0 0 0-.36.375c0 .206-.072.565-.161.797-.119.308-.048.377.264.258.564-.217.54.026-.06.61-.459.446-.945 1.4-.713 1.4.058 0 .668-.715 1.354-1.588.685-.873 1.352-1.588 1.482-1.588.333 0-.13.756-1.218 1.985-.516.582-.94 1.147-.942 1.256-.003.11-.171.199-.374.199-.203 0-.44.188-.53.418-.231.606-.197.905.105.905.145 0 .265-.09.266-.199zm1.057-3.704c0-.109.482-.734 1.07-1.389.881-.983.998-1.052.666-.397-.657 1.296-1.738 2.409-1.736 1.786zm1.287-4.713c.488-.6.864-1.492.699-1.657-.096-.096-.276.004-.4.22-.125.218-.533.806-.907 1.307-.815 1.093-.947 2.098-.141 1.073.286-.364.623-.788.749-.943zm.3-2.775c0-.412-.117-.822-.261-.91-.146-.09-.197.007-.116.218.08.208-.04.825-.268 1.369-.54 1.292-.51 1.459.125.696.286-.343.52-.961.52-1.373zm-26.35-6.169c2.39-1.797 5.611-4.774 6.046-5.588.193-.36-.033-.253-.701.333-1.41 1.237-2.17.558-.857-.763 1.466-1.476 2.019-2.625 2.007-4.174-.014-1.748-.097-2.161-1.657-8.262-1.174-4.587-3.03-9.23-3.691-9.23-.158 0-.495-.188-.749-.418-.42-.38-.521-.378-1.145.03-.376.247-.684.546-.684.664 0 .267-3.702 3.164-4.043 3.164-.377 0 .005-1.272.934-3.11.856-1.693 1.792-2.529 3.74-3.343.758-.317.957-.545.957-1.102v-.702l-.978.858c-.538.473-1.64 1.144-2.448 1.492-.808.348-1.737.768-2.064.933-.81.409-1.061.064-.58-.796.385-.691.851-.977 3.48-2.133.814-.357 1.484-.905 1.925-1.57.648-.98.678-1.198.711-5.102.052-6.19-.408-7.851-2.634-9.502-1.328-.985-4.605-4.232-5.274-5.226-.221-.327-.573-.595-.783-.595-.21 0-.316-.108-.234-.24.081-.132.042-.52-.087-.86-.216-.57-.251-.535-.432.438-.108.582-.296 1.185-.418 1.34-.122.155-.587 1.398-1.032 2.761-.446 1.364-.927 2.62-1.07 2.792-.173.208-.13.838.124 1.87.48 1.947.61 7.767.307 13.807l-.23 4.579.707-.178c.822-.206.933-.213 2.628-.157 1.05.034 1.261.122 1.19.494-.049.249-.444.541-.88.65-3.191.794-3.956 1.142-3.343 1.52.272.168.231.422-.196 1.219-.497.928-.509 1.958-.012 1.155.119-.193.303-.265.408-.16.106.106-.06.462-.37.79-.308.33-.75 1.073-.983 1.653l-.421 1.055.938-1.022c1.285-1.398 1.185-.812-.147.86-.667.838-1.024 1.521-.926 1.775.121.316.446.097 1.381-.93.673-.74 1.357-1.343 1.522-1.34.207.002.212.063.016.198-.479.33-2.578 3.243-2.437 3.383.072.073.594-.279 1.159-.781 1.55-1.38 1.471-.854-.103.68-.758.739-1.38 1.44-1.38 1.56 0 .653.668.382 1.976-.803 2.01-1.82 2.188-1.678.295.235-1.065 1.077-1.498 1.7-1.385 1.995.146.38.256.362.95-.15.432-.32.844-.734.915-.92.137-.358 1.219-1.036 1.219-.765 0 .087-.589.78-1.308 1.54-.958 1.014-1.244 1.486-1.069 1.768.193.312.442.188 1.303-.653.585-.572 1.123-.98 1.196-.908.072.072-.402.655-1.054 1.295-.72.707-1.185 1.4-1.185 1.77 0 .333.094.606.208.606.115 0 .795-.596 1.512-1.323.716-.728 1.423-1.323 1.57-1.323.147 0-.474.747-1.38 1.66-1.09 1.1-1.645 1.874-1.645 2.29 0 .576.102.527 1.241-.596 1.7-1.676 1.8-1.33.12.407-1.552 1.602-1.53 1.46-1.1 6.98.31 3.98.53 5.398.843 5.398.572 0 6.652-4.643 7.795-5.954 1.282-1.469 2.243-1.794 2.433-.824.101.519-4.203 4.86-5.848 5.898-.77.486-.966.73-.712.886.463.287 3.178-1.217 5.919-3.278zm-7.647-5.923c1.178-1.076 1.718-1.475 1.718-1.27 0 .292-1.897 1.999-2.22 1.997-.161 0 .065-.328.502-.727zm-1.973-.116c.007-.19.676-.882 1.487-1.537.811-.654 1.645-1.353 1.852-1.552.208-.2.45-.29.538-.202.09.09-.136.43-.5.76l-1.695 1.536c-1.34 1.216-1.698 1.428-1.682.995zm-.807-.675c0-.276 3.253-3.507 3.531-3.507.299 0-2.495 3.168-3.06 3.47-.26.14-.47.155-.47.037zm12.435-5.081c.655-.566 1.25-.968 1.323-.894.167.17-1.89 1.932-2.248 1.927-.146-.002.27-.467.925-1.033zm-2.513-1.232c.96-.74 1.604-.96.794-.27-.437.371-.913.676-1.059.676-.145 0-.026-.182.265-.406zm-1.852-3.909c.582-.516 1.199-.943 1.37-.948.172-.005.5-.197.728-.426.228-.229.416-.305.416-.17 0 .23-2.719 2.197-3.308 2.394-.145.049.212-.334.794-.85zm-1.669-.197c.15-.462 3.667-3.13 4.137-3.137.377-.006-.245.535-2.7 2.351-.855.633-1.501.986-1.437.786zm-.05-2.062c0-.253.918-.888 1.71-1.18.65-.24.52-.107-.726.738-.541.367-.985.567-.985.442zm-1.588-1.456c0-.06.42-.37.933-.687.513-.317 1.094-.738 1.292-.936.384-.384 2.66-1.706 2.938-1.706.293 0-.497.627-2.588 2.05-1.822 1.242-2.575 1.616-2.575 1.28zm1.08-2.908c.152-.15 2.664-1.856 3.153-2.142.344-.202.348-.172.028.222-.472.582-2.608 2.028-2.996 2.028-.162 0-.246-.048-.185-.108zm-1.077-10.392c.005-.336 1.808-1.421 1.958-1.178.074.119-.338.48-.914.805-.576.324-1.046.492-1.044.373zm-.996-1.06c.255-.066.464-.211.464-.323 0-.237 1.202-.82 1.666-.808.175.004-.158.301-.74.66-.583.358-1.237.638-1.456.622-.283-.02-.264-.064.066-.15zm.86-2.25c1.738-.917 2.85-1.335 2.638-.993-.234.379-2.758 1.572-3.3 1.56-.217-.005.08-.26.662-.567zm1.852-3.917c.728-.312 1.146-.312.662 0-.218.141-.576.25-.794.242-.262-.01-.216-.092.132-.242zm-4.01-1.766c.143-.143 4.685-2.202 4.858-2.202.043 0 .079.097.079.215 0 .12-.713.557-1.585.974-.871.416-1.544.797-1.494.847.05.05.851-.149 1.783-.44 1.926-.604 2.184-.641 1.961-.28-.087.14-.66.395-1.272.564-1.184.327-4.588.58-4.33.322zm1.365-1.938c.727-.312 1.145-.312.661 0-.218.141-.575.25-.794.242-.261-.01-.216-.092.133-.242zm0-1.303c1.586-.706 2.249-.88 2.249-.592 0 .281-2.221 1.113-2.892 1.083-.229-.01.061-.231.644-.491zm-.926-.925c0-.06.625-.316 1.389-.567a237.97 237.97 0 0 0 1.786-.593c1.092-.374-.128.305-1.352.753-1.431.523-1.823.61-1.823.407zm-.145-1.456c.2-.325 2.783-1.174 2.977-.98.178.178-2.161 1.225-2.738 1.225-.214 0-.322-.11-.24-.245zm-.12-.94c0-.068.357-.31.794-.535.436-.226.794-.293.794-.149 0 .145-.23.386-.512.536-.537.288-1.076.362-1.076.149zm0-1.168c0-.28.657-.562 1.278-.548.316.006.253.117-.22.387-.775.443-1.058.486-1.058.16zm-.53-1.112c0-.132.239-.24.53-.24.291 0 .53.046.53.102 0 .056-.239.164-.53.24-.291.076-.53.03-.53-.102zm29.2 43.02c-.12-.313-.662-.397-2.549-.397-1.318 0-2.329.068-2.246.15.21.21 2.493.575 3.832.613.89.024 1.085-.05.964-.366zm-1.052-2.448a7.53 7.53 0 0 0-.51-1.389c-.502-.983-1.179-2.57-1.179-2.761 0-.092-.195-.465-.433-.828-.38-.58-.484-.615-.86-.286-.654.574-2.676 1.535-2.676 1.272 0-.128.715-.614 1.588-1.08 1.647-.877 1.73-.974 1.352-1.57-.273-.43-1.065-.225-2.41.623-.51.321-1.21.674-1.555.784-1.168.37-.356-.254 1.54-1.183 1.724-.846 1.87-.98 1.721-1.585-.089-.363-.2-.699-.247-.746-.047-.046-1.113.579-2.369 1.389-1.256.81-2.399 1.473-2.54 1.473-.479 0-.256-.443.367-.727 1.602-.73 4.456-2.767 4.215-3.009-.167-.166-1.06.223-2.535 1.104-1.253.749-2.432 1.309-2.62 1.244-.189-.064.252-.44.98-.834 2.872-1.559 3.572-2.057 3.572-2.544 0-.272-.096-.553-.214-.626-.188-.116-2.146 1.023-4.356 2.534-.403.276-.857.425-1.008.331-.153-.094.077-.364.516-.607 2.45-1.354 4.533-2.752 4.533-3.042a1 1 0 0 0-.232-.584c-.128-.138-.501-1.084-.83-2.103-.545-1.688-1.731-4.101-2.015-4.101-.234 0-2.898 1.405-3.592 1.895-.693.489-.77.49-2.447.043-1.805-.48-1.91-.583-1.458-1.426.215-.403.56-.512 1.618-.512 1.178 0 2.62-.338 4.65-1.089.772-.285.507-1.028-.366-1.028-.355 0-1.027.2-1.493.443-.466.244-1.48.592-2.252.774-1.23.29-1.425.279-1.564-.085-.211-.55.492-1.036 2.298-1.588 1.545-.473 2.656-1.056 2.656-1.395 0-.112-.447-.044-.993.15-.545.196-1.318.36-1.717.367-.398.006-1.346.248-2.107.537-.866.329-1.476.432-1.632.275-.363-.363.245-.985 1.304-1.335.494-.163.872-.417.839-.565-.053-.239 2.828-2.418 3.5-2.647.145-.05.194-.354.109-.676-.148-.565-.219-.541-1.912.648-3.043 2.138-4.38 2.98-4.728 2.98-.243 0-.336.562-.336 2.024 0 1.868.07 2.13.92 3.41.557.838 1.196 2.37 1.612 3.864.38 1.362 1.08 3.727 1.558 5.255.774 2.48 1.044 3.697 1.597 7.206.101.639.363 1.104.74 1.314.538.3 4.411.582 9.519.695l2.055.045zm-3.805-3.037c.509-.319.988-.668 1.065-.775.076-.107.315-.084.529.052.3.19.308.247.035.25-.196.003-.658.243-1.028.534-.37.29-.865.527-1.1.525-.246-.004-.034-.251.499-.586zm-8.203-6.538c0-.122.566-.485 1.257-.807a35.72 35.72 0 0 0 2.747-1.485c1.56-.941 2.096-1.137 1.505-.552-.919.913-5.509 3.282-5.509 2.844zm.43-1.816c-.075-.121.69-.667 1.701-1.213 1.011-.546 1.838-.884 1.838-.752s-.268.372-.595.532c-.328.16-1.093.597-1.702.972-.608.375-1.167.583-1.242.461zm-.694-1.242c.181-.219.479-.397.661-.397.183 0 .473-.17.645-.377.172-.207.69-.508 1.15-.668.98-.342.791-.143-.948 1.002-1.37.902-2.058 1.102-1.508.44zm.132-1.985c.09-.145.282-.264.427-.264.144 0 .7-.298 1.236-.662 1.036-.704 1.65-.888 1.068-.32-.346.337-2.485 1.51-2.755 1.51-.076 0-.066-.118.024-.264zm1.257-9.466c.513-.45.57-.802.222-1.352-.189-.3-.348-.26-.855.216-.343.32-1.01.823-1.484 1.116-.473.294-.86.59-.86.66 0 .284 2.547-.264 2.977-.64zm-4.396-.766c.999-.68 1.876-1.305 1.949-1.391.072-.086.644-.488 1.271-.894l1.14-.739-.18-1.905c-.097-1.047-.269-2.003-.38-2.124-.11-.122-.9.307-1.754.952a71.238 71.238 0 0 1-3.074 2.176c-1.61 1.06-1.648 1.112-1.277 1.698.187.295.788-.021 2.89-1.521 1.459-1.042 2.75-1.893 2.868-1.89.312.008-1.681 1.731-3.224 2.788-2.19 1.501-2.574 1.861-2.476 2.328.074.352.684.024 2.868-1.543 1.525-1.095 2.894-1.986 3.043-1.982.148.005.018.214-.29.463l-1.323 1.076c-.42.341-1.568 1.162-2.55 1.824-.982.662-1.786 1.365-1.786 1.562 0 .572.354.435 2.285-.878zm-1.419-4.32c.37-.291.743-.53.829-.53.086 0 .874-.528 1.753-1.175.878-.646 1.83-1.25 2.117-1.34.434-.138.52-.406.52-1.603 0-.79-.07-1.437-.157-1.437-.358 0-1.69 1.115-1.568 1.313.073.118-.015.198-.195.178-.18-.02-1.31.558-2.511 1.284-1.974 1.194-2.524 1.823-2.027 2.32.17.17 3.348-1.808 4.937-3.072.546-.434 1.055-.726 1.131-.65.185.185-1.669 1.664-4.041 3.226-1.055.694-1.918 1.432-1.918 1.639 0 .517.336.472 1.13-.153zm1.544-4.432c1.466-.982 2.894-1.904 3.174-2.048.28-.145.448-.423.373-.617-.075-.195-.136-.845-.136-1.445v-1.09l-.992.948c-.546.521-2.004 1.69-3.241 2.595-2.06 1.508-2.71 2.12-2.252 2.12.388 0 2.508-1.387 2.396-1.568-.067-.108.023-.196.2-.196.176 0 .855-.334 1.51-.744 1.002-.627 1.108-.653.677-.167-.282.316-.908.82-1.391 1.119-.483.299-.8.67-.704.826.101.164.05.206-.122.1-.377-.234-2.43 1.11-2.43 1.592 0 .198.06.361.136.361.076 0 1.336-.803 2.802-1.786zm-2.293-1.794c.388-.293.416-.389.117-.389-.219 0-.628.175-.91.389-.389.293-.417.388-.118.388.219 0 .628-.174.91-.388zm1.61-.602c-.081-.081-.295 0-.474.18-.26.262-.23.292.148.149.26-.1.407-.248.326-.329zm.481-2.178c.56-.161 1.452-.695 1.984-1.187l.968-.894-1.059.373c-.582.205-1.273.377-1.537.384-.907.022-.172-.478 1.54-1.048 1.038-.345 1.717-.72 1.717-.947 0-.465-.214-.46-1.058.022-.818.468-2.203.523-2.056.083.057-.173.782-.54 1.61-.816 1.131-.378 1.504-.627 1.504-1.009 0-.594-.102-.616-.877-.188-.723.398-1.769.564-1.769.28 0-.118.432-.446.959-.73 1.006-.542 1.886-1.61 1.579-1.918-.1-.099-.412-.036-.694.14-.604.378-1.315.422-1.315.083 0-.131.4-.474.887-.762.949-.56 1.579-1.837.748-1.515-.821.317-1.9.467-1.9.263 0-.27.782-.88 1.522-1.19.457-.19.595-.464.595-1.175 0-.884-.03-.914-.678-.668-1.648.627-1.96.064-.383-.691.982-.47 1.056-.583 1.058-1.616l.003-1.11-1.444.64c-1.99.88-2.103.354-.148-.688 1.378-.734 1.592-.95 1.592-1.605 0-.416-.061-.757-.137-.757-.076 0-.87.298-1.766.661-1.757.714-2.33.812-2.33.397 0-.145.142-.264.315-.264.173 0 1.174-.443 2.224-.983 1.787-.92 1.92-1.05 2.075-2.02.092-.57.114-1.089.05-1.152-.063-.063-.632.116-1.265.399-1.586.709-3.142 1.19-3.309 1.024-.076-.077.616-.514 1.54-.971 2.199-1.09 3.925-2.189 3.926-2.498 0-.136.226-.493.5-.794.276-.3.813-1.15 1.194-1.887.682-1.32 1.911-2.495 2.608-2.495.907 0 .927-.575.093-2.602-.906-2.198-2.012-4.278-2.276-4.278-.091 0-.397.175-.679.389-.282.214-.752.388-1.043.388-.497 0-.49-.032.096-.52.343-.287.864-.521 1.156-.521.506 0 .51-.03.094-.595-.242-.328-.51-.809-.595-1.07-.148-.446-.185-.447-.654-.023-.273.247-.585.362-.693.254-.108-.109.011-.35.266-.535.254-.186.463-.426.463-.534 0-.481-3.022-4.415-4.161-5.417-2.584-2.272-6.305-4.03-7.256-3.427-.197.124-.588.228-.87.23-1.443.012-3.993 1.957-5.777 4.409-1.483 2.038-2.35 4.148-4.085 9.949-.12.4.052.463 1.268.463 1.03 0 1.328.079 1.114.293-.161.162-.838.25-1.505.197-1.281-.102-1.483.064-1.483 1.223 0 .696.443.933 1.742.933.497 0 .904.119.904.264 0 .146-.582.265-1.294.265-1.166 0-1.311.067-1.463.674-.238.946-.008 1.178 1.17 1.178.565 0 1.1.12 1.19.265.155.25-.174.325-1.72.39-.572.024-.648.133-.568.811.109.911.423 1.17 1.428 1.176.4.002.728.123.728.269 0 .145-.476.264-1.058.264-.985 0-1.057.05-1.032.728.05 1.395.317 1.781 1.296 1.874.95.09 1.758.552 1.045.597-.21.014-.74.044-1.177.067-.742.039-.788.102-.702.967.05.51.115.952.145.984.03.032.516.093 1.079.136.58.045 1.077.238 1.146.445.096.289-.116.335-.997.217l-1.119-.15.182.97c.218 1.157.48 1.358 1.787 1.363.546.002.993.123.993.269 0 .145-.485.264-1.077.264-.992 0-1.062.047-.899.596.245.826.893 1.273 1.593 1.097.324-.081.669-.02.766.138.114.185-.159.286-.77.286-.9 0-.938.036-.768.728.215.879.528 1.115 1.485 1.12.4.002.728.123.728.269 0 .145-.298.264-.662.264-.363 0-.657.09-.653.199.02.456.718 1.08 1.304 1.165.807.117 1.008.685.283.799-.52.081-.527.122-.133.682.231.327.651.595.934.595.283 0 .514.119.514.264 0 .146-.18.265-.399.265-.628 0 .103.993.874 1.187.475.119.561.241.35.496-.382.46.352 1.492 1.06 1.492.402 0 .493.123.373.501-.116.368.142.763.975 1.486 2.383 2.072 4.86 2.602 7.971 1.707zm-5.912-1.842c0-.145.179-.264.397-.264.218 0 .397.119.397.264 0 .146-.179.265-.397.265-.218 0-.397-.12-.397-.265zm-.794-1.587c0-.146.179-.265.397-.265.218 0 .397.12.397.265 0 .145-.179.264-.397.264-.218 0-.397-.119-.397-.264zm-.529-1.588a.265.265 0 0 1 .53 0 .265.265 0 0 1-.53 0zm-1.111-2.17c.247-.246.388-.246.635 0 .247.248.176.318-.318.318s-.564-.07-.317-.317zm-.74-1.799c0-.145.237-.264.528-.264.291 0 .53.119.53.264 0 .146-.239.265-.53.265-.29 0-.529-.12-.529-.265zm-.662-2.116c-.095-.153.15-.263.58-.26.576.002.654.06.346.26-.509.328-.723.328-.926 0zm-.919-2.107c-.334-.21-.324-.271.066-.42.25-.097.66-.097.911 0 .39.149.4.21.066.42-.214.136-.449.247-.521.247-.073 0-.308-.111-.522-.247zm-.341-2.325c-.257-.059-.399-.216-.316-.35.199-.321 1.179-.318 1.179.004 0 .345-.313.47-.863.346zm-.852-2.969c-.088-.141.15-.334.526-.428.755-.19 1.07-.031.803.403-.218.352-1.116.37-1.33.025zm-.226-2.565c-.332-.332-.176-.618.338-.618.665 0 .927.427.389.634-.517.198-.512.198-.727-.016zm11.95-2.545c.193-.235.789-.568 1.323-.74.534-.172 1.67-.719 2.525-1.215 1.602-.93 2.384-.974 1.22-.068-.813.632-3.66 2.012-4.671 2.264-.667.166-.71.14-.397-.24zm-12.39-.69c0-.335.719-.57 1.19-.389.672.258.44.625-.397.625-.436 0-.794-.106-.794-.236zm12.755-2.18c.055-.164.928-.761 1.94-1.327 2.395-1.338 2.494-1.381 2.702-1.173.22.22-1.084 1.278-2.316 1.878-.51.248-1.133.557-1.386.686-.632.324-1.06.295-.94-.063zm-12.888-.494c-.093-.15.135-.265.53-.265.394 0 .622.114.528.265-.09.145-.328.264-.529.264-.2 0-.439-.119-.529-.264zm.132-2.382c0-.145.179-.264.397-.264.219 0 .397.119.397.264 0 .146-.178.265-.397.265-.218 0-.397-.119-.397-.265zm19.305-1.069c.943-.806 1.333-.964 1.333-.54 0 .266-1.64 1.351-2.016 1.334-.128-.006.18-.363.683-.794zm-5.81.3c0-.224 2.056-1.347 2.464-1.347.531 0 .049.586-.867 1.053-1.142.583-1.598.666-1.598.293zm-1.06-2.38c0-.332 2.118-1.542 3.061-1.749l.776-.17-.661.566c-1.567 1.342-3.175 2.027-3.175 1.353zm6.167-.43c.772-.68 1.242-.833 1.242-.404 0 .343-1.086 1.075-1.58 1.065-.275-.006-.167-.217.338-.662zm-21.446-1.103c-.994-.195-.665-.61.485-.61.747 0 1.047.103.97.332-.122.368-.566.454-1.455.278zm14.494-.922c.012-.48 1.018-1.168 2.171-1.486 1.387-.383 1.445-.062.136.753-1.489.927-2.317 1.19-2.307.733zm-14.295-1.508c0-.281 1.06-.59 1.368-.4.48.297.175.633-.575.633-.436 0-.793-.105-.793-.233zm12.964-1.07c0-.133.447-.388.992-.566.546-.177 1.227-.484 1.514-.682.593-.408.934-.46.934-.142 0 .12-.487.537-1.082.927-1.06.693-2.358.949-2.358.464zm-12.17-1.078c0-.145.178-.265.396-.265.218 0 .397.12.397.265 0 .146-.179.265-.397.265-.218 0-.397-.12-.397-.265zm11.376-1.003c0-.115.655-.53 1.456-.923 1.725-.846 1.953-.505.307.46-1.167.684-1.763.84-1.763.463zm6.086-.32c0-.145.126-.264.28-.264.154 0 .207.119.117.264-.09.146-.216.265-.28.265-.065 0-.117-.12-.117-.265zm-6.615-2.353c0-.279.656-.56 1.279-.549.38.007.37.062-.073.397-.573.434-1.206.514-1.206.152zm-.793-1.852c0-.33.746-.583.916-.309.076.124-.049.297-.278.385-.555.213-.638.203-.638-.076zm28.563 35.945c1.394-.77 1.537-1.157 1.573-4.25.024-2.119-.152-3.13-1.45-8.308-.109-.436-.171-.906-.138-1.043.034-.138-.057-.495-.201-.794-.32-.664-2.154-6.548-2.154-6.912 0-.144-.23-.458-.512-.7-.626-.536-4.235-.687-5.44-.227-2.953 1.126-4.178 1.784-4.4 2.364-.17.442-.39.586-.75.492-.672-.176-2.257 1.527-2.61 2.807-.265.961.165 6.078.76 9.04.578 2.877 2.43 5.61 4.709 6.946 2.12 1.244 2.873 1.402 6.259 1.317 2.79-.07 3.318-.159 4.354-.732zm-3.693-.916c.181-.218.43-.397.554-.397.123 0 .155.179.071.397-.084.218-.333.397-.553.397-.326 0-.34-.074-.072-.397zm-1.38-.192c.155-.186.677-.56 1.162-.832l.88-.496-.662.641c-.731.71-1.875 1.279-1.38.687zm-.472-.866c.61-.51 1.285-.926 1.5-.926.427 0-.686 1.025-1.68 1.548-1.018.535-.958.329.18-.622zm-1.456.099c.176-.46 2.73-2.22 2.93-2.02.146.145-.905 1.008-2.338 1.92-.534.338-.694.365-.592.1zm-1.719-.405c-.364-.191-.542-.35-.397-.353.265-.005 1.134-.742 3.236-2.741.615-.586 1.197-.987 1.293-.891.17.17-.422.785-2.809 2.908-1.4 1.246-.733.949 1.305-.581.79-.593 1.553-1.079 1.694-1.079.432 0-.567.947-2.156 2.045-1.38.953-1.56 1.01-2.166.692zm-.793-1.105c0-.34 3.965-4.105 4.14-3.93.147.147-3.708 4.15-3.999 4.15-.078 0-.141-.099-.141-.22zm-1.123-.99c-.202-.202 4.637-4.585 4.893-4.432.19.113-4.269 4.563-4.586 4.577-.085.004-.223-.062-.307-.146zm-.2-1.337c0-.25 4.027-4.31 4.596-4.633.813-.462.277.22-2.057 2.616-1.946 1.998-2.54 2.47-2.54 2.017zm-.53-1.23c0-.04.774-.814 1.72-1.72.946-.905 1.72-1.517 1.72-1.359 0 .318-2.909 3.152-3.235 3.152-.112 0-.205-.033-.205-.073zm1.177-3.234c.664-.655 1.327-1.19 1.472-1.19.146 0-.279.535-.943 1.19-.664.655-1.327 1.19-1.472 1.19-.146 0 .279-.535.943-1.19zm-1.177-.764c0-.207 2.413-2.544 2.625-2.544.121 0-.32.596-.98 1.323-1.036 1.142-1.645 1.593-1.645 1.22zm.266-6.182c.002-.338 1.266-1.794 1.423-1.639.173.172-.933 1.826-1.226 1.833a.192.192 0 0 1-.197-.194zm2.28-2.856c-.268-.699.235-1.079 1.895-1.431 1.87-.397 3.068-.292 3.176.28.062.33-.35.516-1.85.837-1.062.227-2.182.493-2.489.59-.394.124-.61.042-.732-.276zm-.914-3.4.97-.413-.377-1.66c-.393-1.727-.42-1.798-1.523-4.174-.627-1.348-5.001-6.361-5.543-6.352-.116.002-.928-.472-1.805-1.055-1.574-1.045-2.901-1.337-4.059-.893-.394.151-.395.204-.007.633.27.298.634.413 1.004.318.534-.138.549-.111.183.337-.373.457-.35.475.377.294.654-.163.725-.134.458.187-.173.21-.242.571-.152.804.14.365.29.327 1.07-.267 1.156-.882 1.498-.607.397.32-1.323 1.113-1.097 1.396.628.786.434-.153.413-.092-.12.342-.555.454-.597.59-.294.955.32.386.438.361 1.261-.266.5-.381.982-.618 1.073-.527.09.09-.066.33-.348.534-1.649 1.186-1.639.894-.113 3.328 1.366 2.18 2.905 5.306 2.908 5.906.001.169.125.75.275 1.29l.273.985 1.247-.5c.686-.274 1.683-.684 2.217-.912zm-1.764-1.218c.09-.146.365-.263.611-.26.386.003.393.039.05.26-.518.335-.868.335-.66 0zm-.51-1.026c-.172-.28.584-.973.813-.744.086.086-.028.342-.254.569-.227.226-.478.305-.558.175zm-.416-1.364c0-.14.179-.256.397-.256.218 0 .397.047.397.104 0 .057-.179.173-.397.256-.218.084-.397.037-.397-.104zm-4.498-5.01c0-.14.268-.395.595-.567.593-.31.593-.31.092.255-.56.631-.687.689-.687.313zm-25.66 6.01c.499-1.934.857-2.946 1.36-3.844.268-.477.488-1.003.488-1.17 0-.405 1.555-3.815 2.277-4.992.564-.919.566-.954.081-1.257-.79-.493-1.707-.369-3.074.419-2.107 1.213-2.655 1.453-3.029 1.326-.196-.067.354-.459 1.223-.871.869-.413 1.444-.795 1.278-.85-.598-.2-3.149 1.346-4.413 2.674-1.853 1.946-2.61 3.723-2.648 6.209l-.03 2 1.227-.071c1.512-.088 3.15.332 3.974 1.018.867.722.96.68 1.286-.59zm-2.004-.603c.668-.506 1.099-.5.677.009-.181.218-.523.393-.76.388-.362-.007-.349-.07.083-.397zm-.91-2.972c0-.111.624-.437 1.388-.723 2.035-.762 2.056-.757.463.109-1.54.837-1.852.94-1.852.614zm.528-1.632c0-.136.268-.324.596-.418.327-.094 1.114-.407 1.749-.694 1.8-.817 1.571-.395-.29.53-1.79.89-2.055.965-2.055.582zm-.186-1.233c.292-.304 4.22-1.718 4.366-1.572.166.166-2.606 1.368-3.688 1.6-.489.105-.794.092-.678-.028zm.718-1.633c.002-.217 1.27-.855 1.704-.857.153-.001.623-.182 1.045-.402.702-.367 1.26-.346.882.033-.294.294-3.634 1.422-3.631 1.226zm13.907-8.68c-.097-.388-.236-.645-.31-.573-.072.073-.052.45.046.838.097.387.236.645.309.572.073-.072.052-.45-.045-.837zm-1.16-3.402c-.277-.825-.584-1.502-.68-1.506-.697-.03-.73.285-.113 1.107.375.5.766 1.186.87 1.525.102.338.241.56.308.493.067-.067-.106-.795-.384-1.62zm-8.514 248.32c-.842-.113-1.214-.294-1.276-.623-.078-.412.167-.463 2.265-.463 3.547 0 6-.902 11.841-4.356 4.617-2.73 6.3-3.316 10.71-3.723 2.107-.195 3.88-.305 3.94-.246.265.265-4.444 1.446-5.766 1.446-1.21 0-6.531 2.28-7.198 3.084-.163.196-.442.356-.621.356-.18 0-1.325.591-2.547 1.314-5.279 3.123-7.435 3.733-11.348 3.21zm-.267-5.001c0-.117.102-.325.227-.463.288-.321 1.895-4.379 2.823-7.13.923-2.74 2.271-6.013 2.416-5.868.062.062-.065.574-.282 1.138-.217.564-1.187 3.228-2.155 5.92-1.964 5.459-2.452 6.614-2.794 6.614-.13 0-.235-.095-.235-.211zm-3.962-1.689c-.004-.245.341-1.388.766-2.54a223.864 223.864 0 0 0 1.645-4.675c.48-1.418.915-2.45.968-2.292.053.158-.52 2.104-1.274 4.326-1.487 4.383-2.096 5.882-2.105 5.181zm1.924-.613c.21-1.14 2.038-6.036 2.888-7.739.484-.968.541-.476.073.633-.236.561-.97 2.509-1.63 4.328-1.245 3.432-1.58 4.13-1.33 2.778zm46.032-1.323c.372-1.305 4.488-11.933 4.708-12.158.402-.41.286.436-.18 1.31-.233.436-.935 2.222-1.56 3.969-1.227 3.433-2.687 7.02-2.953 7.26-.091.081-.098-.09-.015-.381zm-5.085-.238c-.02-.31 1.752-5.236 2.436-6.774.292-.654.805-1.964 1.141-2.91 1.1-3.096 1.373-3.801 2.611-6.747 1.673-3.978 1.756-4.147 1.562-3.175a10.01 10.01 0 0 1-.492 1.588c-.811 1.93-3.862 9.88-3.958 10.316-.032.147-.209.624-.392 1.06a121.86 121.86 0 0 0-.945 2.382c-.812 2.102-1.944 4.558-1.963 4.26zm-34.802-1.085c1.342-4.001 1.698-4.96 1.705-4.599.012.583-1.112 3.944-1.539 4.599l-.344.53zm37.698.33c0-.036.34-.958.754-2.05a896.865 896.865 0 0 0 1.735-4.63c1.361-3.663 2.533-6.684 3.08-7.938.253-.582.646-1.504.872-2.05.226-.546.47-.992.545-.992.16 0-.293 1.31-1.533 4.434a350.996 350.996 0 0 0-2.38 6.281c-2.041 5.535-2.646 7.01-2.875 7.011-.11 0-.198-.029-.198-.065zm-47.882-1.123c-.004-.146.455-1.336 1.02-2.646.566-1.31 1.593-3.845 2.284-5.633.69-1.787 1.295-3.21 1.343-3.162.164.164-.636 2.498-2.266 6.615-1.478 3.733-2.359 5.518-2.38 4.826zm37.718-.927c.095-.51.342-1.257.55-1.662.206-.405.612-1.477.9-2.381.288-.905.767-2.062 1.063-2.571.297-.51.46-.688.364-.397-.097.29-.293.886-.435 1.323a16.25 16.25 0 0 1-.499 1.323c-.131.29-.66 1.6-1.177 2.91-.516 1.31-.86 1.964-.766 1.455zm16.594.397c.251-.873 4.563-12.362 5.014-13.361.23-.51.428-.732.44-.494.012.238-.156.774-.374 1.19-.217.418-.396.943-.396 1.169-.001.225-.108.523-.238.661-.13.139-.74 1.68-1.356 3.427-1.913 5.42-2.677 7.398-2.965 7.673-.191.182-.23.1-.125-.265zm-11.458-.414c0-.067.223-.716.495-1.442.273-.725.762-2.033 1.087-2.906 1.142-3.063 2.454-6.353 2.639-6.615.102-.146.406-.858.674-1.583.268-.726.53-1.19.583-1.034.052.157-.16.87-.472 1.583-.312.714-1.448 3.615-2.524 6.447-1.637 4.306-2.482 6.195-2.482 5.55zm15.198-3.092c.095-.4.525-1.582.955-2.627.43-1.045.78-2.024.78-2.176 0-.37 1.369-3.243 1.488-3.124.052.052-.136.68-.418 1.398-.283.717-1.012 2.643-1.622 4.28-1.066 2.862-1.548 3.78-1.183 2.25zm-56.98-2.111c-.012-.179.15-.774.36-1.323.209-.549.443-1.236.52-1.527.077-.29.096-.111.043.399-.1.951-.884 3.036-.923 2.451zm60.311-.204c0-.145.116-.443.257-.661.14-.219.256-.278.256-.133 0 .146-.115.444-.256.662-.141.218-.257.278-.257.132zm2.241-1.455c.09-.146.216-.265.28-.265.065 0 .117.12.117.265 0 .145-.126.265-.28.265-.154 0-.207-.12-.117-.265zm3.045-1.763c-.003-.484 1.62-3.529 1.88-3.529.379 0 .272.41-.295 1.13-.29.37-.53.774-.53.896-.002.123-.239.58-.528 1.017-.29.437-.526.655-.527.486zm-11.485-1.412c.19-.708.907-1.877.888-1.448-.006.142-.248.674-.538 1.183-.393.692-.482.759-.35.265zm-39.317-4.786c0-.17 2.282-5.967 2.646-6.723.14-.291 1.133-2.851 2.207-5.689 2.355-6.225 2.788-7.264 2.956-7.095.072.071-.213 1.072-.632 2.223-.965 2.652-4.123 10.874-4.629 12.052-.21.49-.708 1.664-1.107 2.61-.654 1.552-1.441 2.984-1.441 2.622zm-1.306-2.409c2.111-5.74 5.91-15.503 7.573-19.46.076-.181.23-.273.343-.203.113.07-.655 2.301-1.707 4.96a776.617 776.617 0 0 0-2.766 7.081c-1.063 2.798-1.76 4.515-2.525 6.218a28.822 28.822 0 0 0-.916 2.311c-.177.544-.432 1.057-.566 1.14-.135.083.12-.838.564-2.047zm7.958-3.322c1.011-3.02 2.012-5.866 2.224-6.324.211-.459.39-.994.397-1.19.013-.386 1.542-3.394 1.562-3.076.007.105-.33 1.057-.75 2.116-.42 1.059-1.549 4.28-2.51 7.156-1.589 4.76-2.39 6.808-2.662 6.808-.055 0 .727-2.47 1.739-5.49zm-3.875 4.432c.106-.51.418-1.426.692-2.036.275-.61.5-1.206.5-1.323 0-.358 2.889-8.244 3.478-9.497.303-.646.675-1.25.827-1.344.16-.099.195-.041.084.139-.105.17-.587 1.408-1.072 2.752-2.118 5.877-4.403 11.952-4.546 12.087-.086.081-.07-.27.037-.778zm8.6-.924c0-.07.29-.875.643-1.786.353-.91.906-2.404 1.229-3.318.688-1.95 1.14-2.466.566-.645-1.09 3.456-2 5.879-2.207 5.879-.127 0-.231-.059-.231-.13zm-2.108-.25c-.012-.331 2.477-7.145 3.152-8.634 1.285-2.832.186.667-1.864 5.94-.277.71-.503 1.432-.503 1.603 0 .374-.773 1.447-.785 1.09zm-1.332-.63c0-.495 1.265-4.103 3.193-9.11.323-.837.69-1.522.817-1.522s.039.447-.196.992c-.45 1.045-1.03 2.64-2.628 7.21-1.056 3.021-1.186 3.287-1.186 2.43zm-23.935-.247c-.1-.255-.247-1.248-.328-2.208-.204-2.404.64-4.88 2.637-7.729.706-1.007 4.673-5.68 4.918-5.793.095-.043.737-.793 1.428-1.666.691-.873 1.392-1.75 1.559-1.947.166-.198.71-.967 1.21-1.71.854-1.268 2.62-3.544 4.145-5.34.371-.436.679-.887.684-1.003.005-.115.314-.532.686-.926 1.313-1.388 3.477-4.442 4.492-6.337.696-1.3 1.113-1.83 1.296-1.647.182.183.165.437-.055.789-.178.285-.324.772-.324 1.08 0 .816-1.43 3.358-2.664 4.738a30.953 30.953 0 0 0-1.899 2.38 135.4 135.4 0 0 1-2.332 3.176c-2.53 3.349-4.668 7.175-5.397 9.657a123.99 123.99 0 0 1-.838 2.733c-.725 2.233-.925 4.765-.6 7.576.425 3.652.424 3.714-.028 3.714-.667 0-1.129-2.37-1.161-5.953-.027-2.921.058-3.601.722-5.821.414-1.382.869-2.733 1.01-3.002.143-.27.195-.553.116-.632-.147-.147-.893.61-2.579 2.617l-2.46 2.93c-2.245 2.677-2.749 3.985-2.96 7.693-.155 2.696-.237 3.094-.638 3.094-.253 0-.541-.208-.64-.463zm30.036-.646c.008-.336.25-1.147.538-1.801.289-.655.46-.893.382-.53a45.98 45.98 0 0 0-.309 1.66c-.187 1.121-.634 1.612-.611.671zm1.973-.346c.091-.437.277-.907.412-1.045.398-.408.272.442-.176 1.177l-.402.662zm-18.922-.092c0-.172.112-.519.249-.772.136-.252 1.048-2.483 2.027-4.957 2.132-5.39 3.249-7.925 3.417-7.757.118.118-1.278 3.815-2.181 5.773-.235.509-1.045 2.447-1.8 4.307-1.344 3.306-1.712 4.038-1.712 3.406zm21.316-.94c.268-1.066.885-2.691.898-2.362.025.67-.621 2.997-.833 2.997-.123 0-.152-.286-.065-.635zm-21.812-2.408c-.01-.578.217-1.225 1.636-4.67 1.234-2.993 2.824-6.138 3.01-5.953.08.081-.217.897-.661 1.813-.686 1.414-3.377 7.696-3.831 8.943-.102.279-.148.24-.154-.133zm-.563-4.917c-.002-1.116 2.076-7.52 2.104-6.484.014.498-1.775 6.796-1.992 7.013-.06.06-.111-.177-.112-.529zm-26.164-14.057c.921-1.805 3.408-5.5 3.703-5.5.15 0-.003.386-.34.858-.706.987-1.965 3.068-2.72 4.497-.286.54-.674 1.041-.862 1.113-.219.084-.14-.265.22-.968zm19.021 1.007c0-.329 1.435-2.803 1.625-2.803.342 0 .297.118-.606 1.57-.757 1.22-1.019 1.535-1.019 1.233zm-23.126-1.793c.236-.455.892-1.585 1.459-2.51.566-.927 1.03-1.75 1.03-1.83 0-.168 1.363-2.027 1.639-2.233.103-.077.304-.434.448-.794.143-.36.268-.474.277-.255.01.22-.436 1.113-.989 1.984-1.685 2.656-3.492 5.737-3.492 5.954 0 .113-.18.274-.4.359-.346.133-.343.043.028-.675zm2.365-.65c.359-.53.653-1.076.653-1.215 0-.313 2.857-4.635 3.545-5.361.578-.612.42-.302-.878 1.719-.514.8-1.158 1.871-1.43 2.38-.899 1.682-2.082 3.44-2.315 3.44-.126 0 .065-.433.425-.963zm18.91.858c0-.075.356-.742.793-1.482.437-.74.794-1.45.794-1.577s.149-.284.33-.35c.182-.064.232-.223.11-.352-.219-.233-.827.356-1.921 1.86-.38.522-.617.663-.75.447-.276-.445 2.1-2.781 2.623-2.58.275.106.402-.01.402-.367 0-.286.119-.52.264-.52.395 0 .288.563-.277 1.454a41.08 41.08 0 0 0-1.166 2.032c-.584 1.09-1.203 1.828-1.203 1.435zm-23.284-4.584c0-.145.318-.727.707-1.293.388-.566 1.035-1.505 1.437-2.087.82-1.189 2.502-3.125 2.186-2.518-.86 1.654-4.33 6.38-4.33 5.898zm.534-3.182a32.276 32.276 0 0 1 1.825-2.844 61.188 61.188 0 0 0 1.881-2.734c.498-.776.946-1.286.997-1.134.051.153-.1.55-.334.882-.234.333-1.188 1.795-2.119 3.25-.93 1.456-1.795 2.765-1.92 2.91-.126.146-.309.474-.406.728-.097.255-.311.463-.475.463-.164 0 .084-.684.55-1.521zm32.973-3.836c.111-.182.986-1.403 1.945-2.712.958-1.31 1.93-2.68 2.158-3.043.505-.804 2.99-3.47 2.713-2.91-.108.218-.627.932-1.153 1.587-.527.655-1.603 2.143-2.392 3.307-.79 1.164-1.597 2.282-1.794 2.485a8.057 8.057 0 0 0-.77.992c-.412.63-1.08.907-.707.294zm3.542-.307c-.007-.233 1.883-2.859 2.54-3.528.177-.182.571-.646.876-1.033.304-.387.625-.63.714-.542.09.089-.12.505-.466.925-.346.42-.986 1.226-1.422 1.79-1.215 1.57-2.233 2.655-2.242 2.388zm-4.759-1.215c-.004-.218.616-1.192 1.38-2.164.763-.973 2.102-2.695 2.975-3.827.873-1.133 1.766-2.247 1.984-2.476.218-.23.784-.863 1.257-1.408.473-.545.86-.92.86-.832 0 .234-.58 1.293-.791 1.447-.25.18-5.33 6.585-5.877 7.408-.879 1.323-1.78 2.256-1.788 1.852zm9.382-1.058c.09-.146.216-.265.28-.265.064 0 .117.12.117.265 0 .145-.126.264-.28.264-.155 0-.207-.119-.117-.264zm.67-.397c0-.146.115-.443.256-.661.14-.219.256-.278.256-.133 0 .146-.115.443-.256.662-.141.218-.257.278-.257.132zm-10.694-.612c-.086-.14.467-.978 1.23-1.862a74.963 74.963 0 0 0 2.012-2.425c.344-.449.698-.744.786-.656.088.088.036.243-.115.344-.15.101-.642.72-1.092 1.375-.45.654-1.04 1.428-1.314 1.72-.274.29-.69.805-.924 1.143-.234.338-.496.5-.583.361zm-2.544-.443c0-.227 3.531-4.63 3.633-4.529.121.122-1.075 1.905-1.904 2.84-.34.383-.753.948-.918 1.257-.264.493-.81.785-.81.432zm-40.613-.4c-.09-.146.029-.265.264-.265.236 0 .355.12.265.265-.09.145-.21.264-.265.264-.055 0-.175-.119-.264-.264zm52.784-1.427c0-.057.185-.175.41-.262.236-.09.342-.046.25.104-.156.252-.66.372-.66.158zm46.142-4.212c-.497-.517-1.906-2.488-2.618-3.66-1.222-2.015-3.307-5.723-3.307-5.881 0-.482.556.236 1.46 1.885 1.088 1.983 3.518 5.747 4.698 7.276.827 1.072.673 1.323-.233.38zm-91.121-.954c0-.133.097-.282.216-.33.118-.049.791-.803 1.495-1.676.704-.873 1.735-2.123 2.29-2.778a102.94 102.94 0 0 0 1.54-1.852c.29-.364.53-.52.535-.349.01.317-3.062 4.2-4.67 5.905-.48.51-.874 1.015-.875 1.124 0 .11-.121.199-.267.199-.145 0-.264-.11-.264-.243zm-2.506-.286c.886-1.582 5.945-7.783 5.945-7.287 0 .077-.602.885-1.337 1.795-.736.91-1.737 2.25-2.225 2.978-.825 1.231-2.876 3.395-2.383 2.514zm.918-3.97c.311-.436.625-.793.698-.793.073 0-.122.357-.433.794-.311.436-.625.794-.698.794-.072 0 .122-.358.433-.794zm72.232-.528c0-.146.119-.265.264-.265a.265.265 0 0 1 0 .53.265.265 0 0 1-.264-.265zm-72.749-.104c-.007-.13.498-.844 1.122-1.588.624-.743 1.348-1.689 1.609-2.102.6-.948.868-.742.341.263-.462.882-3.054 3.773-3.072 3.427zm91.772-1.81c-1.046-1.927-1.243-2.398-.694-1.658.66.888 1.828 3.081 1.707 3.202-.063.063-.519-.631-1.013-1.543zm3.13.786a65.66 65.66 0 0 0-1.385-2.51c-.525-.91-.83-1.654-.675-1.654.153 0 .28.179.28.397 0 .218.089.398.198.399.109 0 .33.269.49.595.16.326.617 1.228 1.016 2.003.398.775.676 1.458.616 1.518-.06.06-.303-.277-.54-.748zm2.296-.781a2155.1 2155.1 0 0 0-1.219-2.183c-.247-.442-.604-1.1-.792-1.465-.19-.363-.97-1.772-1.734-3.13-.764-1.359-1.39-2.527-1.39-2.596 0-.692 1.722 2.099 4.104 6.653.838 1.6 1.688 3.178 1.89 3.505.203.328.265.596.14.596-.126 0-.575-.621-.999-1.38zm-25.376-1.002c.09-.145.216-.264.28-.264.065 0 .117.119.117.264a.273.273 0 0 1-.28.265c-.154 0-.206-.12-.117-.265zm26.573-2.844c-.323-.633-1.233-2.125-3.41-5.59-.309-.492-.497-.958-.419-1.036.179-.179.026-.396 1.918 2.723 1.832 3.019 2.544 4.368 2.39 4.523-.059.059-.274-.22-.479-.62zm2.329-1.46c-.252-.311-.459-.647-.459-.746 0-.1-.774-1.564-1.72-3.254-.945-1.69-1.718-3.222-1.716-3.404.004-.351.2-.05 1.438 2.213.429.784.964 1.747 1.19 2.14.953 1.654 1.876 3.465 1.803 3.538-.042.043-.284-.177-.536-.488zm-42.792-1.315c0-.225.195-.485.435-.576.651-.25.692-.035.096.505-.449.406-.531.417-.531.071zm45.1-.03c-.574-.629-4.68-8.4-4.524-8.557.165-.165 1.053 1.21 1.61 2.491.286.658.606 1.049.78.95.161-.092.204-.069.095.051-.11.12.402 1.344 1.137 2.72 1.27 2.376 1.519 3.024.901 2.345zM88.261 174c.42-1.174 6.522-9.568 6.522-8.97 0 .149-.418.85-.93 1.557-.51.707-1.693 2.416-2.628 3.799-1.804 2.67-3.262 4.447-2.964 3.615zm4.979-.384c.346-.821 2.996-4.56 3.071-4.334.052.156-.131.617-.408 1.025-.276.407-.91 1.365-1.407 2.129s-1.003 1.389-1.124 1.389c-.121 0-.18-.094-.132-.209zm-2.015-.774c.259-.395.957-1.32 1.551-2.055a42.096 42.096 0 0 0 2.14-2.97c1.292-1.996 2.005-2.437.845-.524-.768 1.269-3.237 4.725-4.146 5.805-.615.732-.911.538-.39-.256zm-5.173.341c0-.062.175-.289.39-.503.351-.352 2.853-3.804 3.653-5.042.27-.418 2.968-4.027 3.27-4.374.052-.06.154-.051.225.02.072.072-.613 1.193-1.522 2.492a462.075 462.075 0 0 0-2.7 3.902c-1.728 2.537-3.316 4.216-3.316 3.505zm60.254-1.54c-1.259-2.178-3.369-6.202-3.369-6.426 0-.304 1.418 1.948 2.303 3.658 1.774 3.43 2.425 5.117 1.066 2.768zm-80.092.65c-.003-.188.243-.605.548-.926a70.715 70.715 0 0 0 1.637-1.841c.595-.691 1.188-1.257 1.317-1.257s.077.175-.116.389c-.192.214-.647.763-1.01 1.22-1.388 1.746-2.37 2.744-2.376 2.415zm36.374-.584c.55-.437 1.132-.79 1.293-.787.42.01-1.482 1.565-1.924 1.573-.202.004.082-.35.631-.786zm-37.967.366c0-.145.278-.641.619-1.103.986-1.336 3.879-4.365 3.879-4.062 0 .152-.268.55-.596.885-.327.335-1.13 1.263-1.786 2.063-1.708 2.086-2.116 2.514-2.116 2.217zm6.628.03c.01-.43 2.314-2.919 2.516-2.717.102.102-.424.815-1.169 1.584-.745.769-1.351 1.28-1.347 1.134zm-2.395-.617c0-.303 2.792-3.219 3.082-3.219.207 0-1.332 1.877-2.264 2.762-.45.427-.818.633-.818.457zm-6.085-.254c0-.14.19-.412.422-.605.233-.193 1.33-1.428 2.437-2.745 1.107-1.316 2.345-2.75 2.75-3.187.406-.436.739-.89.74-1.007 0-.118.12-.14.267-.05.171.106.147.286-.066.503-.183.186-.63.732-.994 1.213-.364.48-1.614 2.007-2.779 3.393-1.993 2.372-2.777 3.074-2.777 2.485zm38.648-.253c.032-.333 1.841-1.733 2.015-1.56.09.09-.242.52-.737.957-.893.786-1.315.986-1.278.603zm-39.442-.748c0-.169 3.862-4.936 5.218-6.441.47-.52.856-.809.86-.64.007.28-.646 1.12-4.43 5.708-1.131 1.37-1.648 1.801-1.648 1.373zm38.894-.629c0-.31 2.377-2.117 2.778-2.112.145.002-.212.42-.794.93-1.32 1.155-1.984 1.551-1.984 1.182zm0-1.278c0-.246 2.115-1.909 2.429-1.909.555 0 .104.528-1.301 1.522-.903.638-1.128.715-1.128.387zm50.82-.06c-.011-.22-.447-1.034-.968-1.808-.522-.775-.878-1.479-.791-1.565.343-.343 2.137 2.89 1.912 3.447-.087.216-.139.191-.153-.074zm-90.023-.989a46.055 46.055 0 0 1 1.772-2.05c.538-.583 1.33-1.458 1.758-1.947.43-.488.826-.841.883-.785.232.232-4.521 5.774-4.952 5.774-.14 0 .102-.446.539-.992zm38.41.265c.002-.11.448-.49.993-.846.544-.356 1.25-.874 1.567-1.153.317-.278.73-.454.919-.391.192.064-.403.657-1.357 1.351-1.665 1.212-2.125 1.437-2.121 1.039zm12.17-1.59c0-.145.178-.412.396-.593.222-.184.397-.213.397-.065 0 .146-.178.413-.397.594-.22.184-.396.212-.396.065zm-50.536-1.014c0-.086.246-.473.546-.86.3-.387 1.312-1.705 2.249-2.928 2.379-3.108 2.136-2.16-.304 1.19-1.75 2.4-2.49 3.173-2.49 2.598zm38.365-.291c0-.262 1.358-1.344 2.759-2.196 1.416-.862.954-.22-.728 1.013-1.748 1.28-2.031 1.445-2.031 1.183zm-18.095-1.471c1.022-1.752 3.265-4.495 2.944-3.6-.245.68-2.646 3.93-2.905 3.93-.127 0-.145-.148-.039-.33zm-1.341-.922c1.524-2.351 4.304-5.765 4.52-5.55.084.085-.072.394-.346.688-.275.295-1.269 1.61-2.21 2.922-.94 1.312-1.874 2.45-2.075 2.529-.259.102-.227-.067.11-.589zm30.813.603c0-.243 2.166-2.26 2.427-2.26.11 0-.19.386-.666.86-1.154 1.143-1.761 1.626-1.761 1.4zm-49.213-.318c0-.096.47-.797 1.045-1.558 1.032-1.368 1.17-2.118.234-1.27-.626.566-.633.086-.009-.586.262-.282 1.093-1.466 1.847-2.63s1.373-1.961 1.376-1.771c.003.19-.588 1.246-1.314 2.346-.726 1.1-1.254 2.106-1.175 2.234.143.232 1.623-1.542 2.224-2.666.172-.322.381-.517.464-.434.168.168-1.212 2.344-3.073 4.843-1.112 1.494-1.619 1.961-1.619 1.492zm12.72-.523c-.302-.384-.549-.812-.549-.952 0-.14-.22-.57-.489-.956s-.824-1.595-1.233-2.687c-1.11-2.961-2.323-4.73-3.583-5.226-.575-.226-1.04-.541-1.036-.7.011-.375 2.108-2.483 2.108-2.12 0 .15-.238.53-.53.842-.667.717-.663.763.099.954.345.087 1.06.636 1.587 1.22.527.584 1.019 1.062 1.092 1.062.073 0 .133-.588.133-1.306 0-1.64.378-2.662.986-2.667.283-.002.837-.596 1.395-1.497 1.914-3.088 2.959-4.67 3.326-5.037.667-.667.406-.046-.524 1.25-.497.69-1.107 1.657-1.355 2.147-.25.49-.914 1.575-1.479 2.41-1.02 1.51-1.026 1.534-1.026 4.134 0 4.89-.093 4.895 3.253-.168a702.376 702.376 0 0 1 3.01-4.536c.048-.06.173-.024.278.08.105.105.063.274-.093.375-.156.102-.438.482-.627.846-.19.364-1.474 2.38-2.856 4.482l-2.513 3.82 1.114 2.197c.613 1.208 1.04 2.316.949 2.463-.287.465-.87.29-1.437-.43zm10.834-.235c.184-.222.389-.35.455-.283.184.184-.189.686-.509.686-.175 0-.155-.152.054-.403zm-6.022-.59c.177-.4.442-.872.59-1.049.614-.738.847-1.068 1.694-2.4.49-.77.944-1.345 1.011-1.278.067.067-.542 1.13-1.353 2.36-.811 1.233-1.549 2.433-1.64 2.668-.09.235-.267.427-.394.427s-.086-.327.092-.727zm31.623.328c.333-.648 1.336-1.585 1.51-1.41.07.07-.302.535-.828 1.035-.589.56-.85.703-.682.375zm-63.707-.086c0-.15 1.161-1.11 2.58-2.133 1.419-1.024 2.723-1.984 2.9-2.135.413-.353.952-.354.733 0-.093.15-.963.804-1.934 1.454-.97.65-2.33 1.611-3.022 2.135-.691.523-1.257.829-1.257.679zm63.143-1.192c.415-.487.797-.851.85-.81.17.138-1.051 1.694-1.33 1.694-.15 0 .066-.398.48-.884zm-32.186.5c0-.113.296-.575 2.469-3.849 1.046-1.577 2.19-3.022 1.885-2.381-.476.998-3.978 6.35-4.156 6.35-.109 0-.198-.054-.198-.12zm30.734-1.137c2.738-2.969 3.243-3.483 3.334-3.392.204.204-3.34 4.12-3.73 4.12-.151 0 .027-.328.396-.728zm2.603-.595a.265.265 0 0 1 .53 0 .265.265 0 0 1-.53 0zm-48.944-.728c.002-.109.245-.496.54-.86.297-.364.95-1.248 1.453-1.965.502-.716.914-1.163.914-.992 0 .17-.447.934-.993 1.696-1.073 1.5-1.92 2.438-1.914 2.121zm-14.553-.246c.002-.12.432-.494.955-.833.523-.34.876-.494.783-.343-.259.418-1.741 1.421-1.738 1.176zm27.716.03c-.152-.153 1.05-1.966 1.655-2.496.083-.073.426-.608.761-1.19.86-1.49 3.244-4.677 3.39-4.531.13.13-3.974 6.413-5.002 7.658-.339.41-.7.662-.804.559zm-28.775-.988c.363-.335 1.076-.84 1.585-1.124.51-.284 1.014-.635 1.12-.78.124-.168.196-.152.199.044.002.17-.388.552-.868.848a13.84 13.84 0 0 0-1.495 1.08c-.862.747-1.355.685-.54-.068zm61.647.543c.005-.225 2.644-2.565 2.644-2.344 0 .359-2.017 2.41-2.37 2.41-.152 0-.275-.03-.274-.066zm-29.627-.596c0-.145.116-.443.257-.661.14-.218.256-.278.256-.132 0 .145-.115.443-.256.661-.141.218-.257.278-.257.132zm16.738-.65c.163-.432.337-.744.387-.694.165.165-.252 1.477-.47 1.477-.117 0-.08-.353.083-.784zm30.35.64c0-.078.427-.763.95-1.521.97-1.41 1.01-.848.054.77-.458.776-1.004 1.185-1.004.751zm-1.323-.447c0-.237.154-.588.342-.78.188-.193.51-.767.716-1.276.553-1.37 1.34-2.646 1.633-2.646.142 0-.298 1.042-.977 2.315-1.361 2.555-1.714 3.045-1.714 2.387zm-26.767-.337c-.137-.137.682-2.65 1.336-4.1.273-.605.284-.584.131.255-.227 1.247-1.288 4.025-1.467 3.845zm5.041-1.459c.493-.434 1.028-.786 1.19-.782.163.004-.093.362-.569.794-.475.433-1.01.784-1.19.782-.18-.002.076-.36.569-.794zm-54.738.137c.18-.219.442-.397.58-.397.138 0 .073.178-.146.397-.218.218-.48.397-.58.397-.101 0-.036-.179.146-.397zm47.91-.022c.013-.308.075-.371.16-.16.076.19.067.42-.021.507-.088.088-.15-.068-.139-.347zm28.29-.373c0-.5 2.4-5.363 2.566-5.197.073.073-.296 1.025-.82 2.114-.524 1.09-.956 2.08-.961 2.2-.016.406-.785 1.272-.785.883zm-50.536-.531c.156-.291.384-.53.508-.53.123 0 .296-.208.384-.462.088-.255.37-.78.626-1.168 3.958-5.98 5.059-7.492 5.289-7.262.069.07-.012.283-.18.475-.168.191-1.027 1.479-1.908 2.861a149.703 149.703 0 0 1-2.11 3.242c-.28.401-.801 1.175-1.158 1.72-.872 1.33-1.158 1.653-1.47 1.653-.169 0-.162-.191.02-.53zm58.91-.86c-1.2-1.356-1.61-2.442-.86-2.268.537.124 2.54 2.638 2.54 3.19 0 .758-.38.55-1.68-.922zm-85.368.899c0-.217 2.14-1.84 4.233-3.21.218-.142.837-.55 1.374-.907.537-.356.92-.507.851-.336-.068.172-.865.81-1.77 1.416a130.51 130.51 0 0 0-3.167 2.203c-.837.606-1.521.98-1.521.834zm3.175-.833c.218-.141.516-.256.661-.256.146 0 .086.115-.132.256-.218.141-.516.257-.661.257-.146 0-.086-.116.132-.257zm72.231.13c0-.249 1.983-4.486 2.63-5.62.354-.619.74-1.125.858-1.125.274 0 .284.456.012.574-.112.048-.856 1.486-1.653 3.195-.798 1.71-1.54 3.108-1.648 3.109-.11 0-.199-.059-.199-.133zm-57.406-.285c-.008-.287 1.45-2.298 2.571-3.544.328-.363.596-.519.596-.345 0 .174-.298.613-.662.977-.364.364-.661.727-.661.806 0 .08-.185.353-.41.607-.227.255-.64.761-.918 1.125-.279.364-.51.532-.516.374zm75.398-.588c-1.322-.64-4.498-2.77-4.498-3.017 0-.115-.142-.209-.314-.209-.36 0-2.973-1.992-4.676-3.565-1.255-1.16-3.477-3.955-3.477-4.375 0-.634.776-.148 2.02 1.264.738.84 2.222 2.238 3.298 3.109 1.075.87 2.186 1.791 2.47 2.046.282.255.623.463.757.463.133 0 .595.296 1.025.659 1.046.88 3.831 2.505 4.982 2.907.51.178.926.49.926.694 0 .54-1.42.553-2.513.024zm-67.027-.226c-.095-.095-.04-.334.124-.53.164-.198.49-.696.726-1.108 1.616-2.828 5.414-8.77 5.605-8.77.24 0 .063.315-3.193 5.689-2.51 4.141-3.054 4.927-3.262 4.719zm35.507-.273c.32-.614.787-1.004.977-.814.062.063-.2.402-.583.754-.664.61-.682.614-.394.06zm-61.557-.84c1.163-1.014 3.912-2.753 3.912-2.474 0 .208-4.345 3.233-4.644 3.233-.075 0 .254-.341.732-.758zm73.762.623c0-.352 3.725-7.518 3.994-7.685.41-.253.387-.197-1.738 4.095-1.56 3.151-2.256 4.26-2.256 3.59zm-12.7-1.127c0-.112.953-1.151 2.117-2.309 1.164-1.157 2.116-1.988 2.116-1.846 0 .143-.844 1.182-1.874 2.31-1.72 1.882-2.359 2.382-2.359 1.845zm1.588-.104c0-.17.074-.234.165-.143.09.09.384-.098.652-.42.269-.32.492-.495.497-.388.012.272-.857 1.26-1.109 1.26-.113 0-.205-.14-.205-.309zm10.318-.87c0-.162 3.165-6.55 3.338-6.737.056-.06.169-.043.25.038.18.18-2.927 6.443-3.315 6.682-.15.093-.273.1-.273.017zm-72.896-.402c.138-.224 2.289-1.73 3.597-2.52 2.668-1.61 3.132-1.483.583.16-.987.636-1.914 1.206-2.06 1.266-.145.06-.324.183-.396.273-.19.235-1.539 1.079-1.727 1.079-.086 0-.085-.116.002-.258zm47.344-2.004c.093-.371.832-2.366 1.643-4.432.81-2.066 1.584-4.042 1.719-4.39.135-.347.311-.565.392-.483.14.14-2.064 6.43-3.101 8.855-.531 1.24-.919 1.507-.653.45zm-46.679-.069c0-.265 7.162-5.148 7.32-4.99.06.06-.64.657-1.555 1.325a111.97 111.97 0 0 0-1.928 1.43c-.83.67-3.837 2.422-3.837 2.235zm72.886-2.63c.815-1.564 1.723-3.142 2.018-3.506l.536-.661-.176.661c-.096.364-.441 1.078-.766 1.588-.325.509-.998 1.781-1.495 2.827-.497 1.046-1.06 1.91-1.251 1.919-.211.01.233-1.099 1.134-2.828zm-22.184 1.521c.086-.364.488-1.435.892-2.381.404-.946 1.189-2.956 1.744-4.468 1.237-3.367 1.5-3.172.35.26-.808 2.414-3.304 7.92-2.986 6.59zm-24.176-2.315c.79-1.128 1.485-2.17 1.546-2.315.315-.749 1.726-2.785 2.005-2.891.176-.068-.011.436-.416 1.12-1.061 1.79-2.733 4.395-2.921 4.55-.089.072-.37.459-.624.86-.255.4-.59.727-.744.727-.154 0 .365-.923 1.154-2.05zm8.588 1.602c-.068-.117-.203-1.165-.3-2.33a185.322 185.322 0 0 0-.467-4.676c-.278-2.43-.263-2.624.306-3.836.329-.702.68-1.337.78-1.41.101-.072 1.04-1.375 2.087-2.894 1.047-1.52 1.901-2.651 1.899-2.514-.008.441-2.824 4.814-3.626 5.63-.268.274-.308 1.034-.173 3.308.298 5.004.266 8.717-.075 8.831-.169.057-.363.007-.431-.11zm14.099-.692c0-.256.164-.73.364-1.051.201-.323.882-1.819 1.513-3.325.631-1.506 1.188-2.618 1.237-2.471.103.31-2.206 6.014-2.749 6.79-.327.467-.365.473-.365.057zm22.23-.057c-.005-.522 1.898-4.502 2.394-5.007.528-.537.203.341-1.07 2.899-.725 1.454-1.32 2.403-1.324 2.108zm-70.38-.324c.001-.109.714-.615 1.583-1.124.869-.51 1.581-1.002 1.584-1.094.002-.092.271-.233.599-.314.584-.143.585-.139.066.248-3.183 2.373-3.842 2.766-3.833 2.284zm51.998-.33c.099-.364.51-1.436.914-2.382.404-.946.812-1.977.907-2.29.191-.637.945-1.385.945-.94 0 .152-.093.316-.207.364-.114.049-.653 1.22-1.198 2.602-1.016 2.58-1.706 3.922-1.36 2.646zm2.237-2.183c0-.572 1.614-4.758 1.773-4.599.114.113-1.428 4.629-1.675 4.908-.054.06-.098-.078-.098-.309zm33.726-.525c-.927-.697-9.292-9.048-10.015-9.999a24.05 24.05 0 0 0-1.038-1.25c-.296-.326-.46-.672-.362-.77.096-.096.418.112.714.463 2.29 2.707 5.28 5.825 9.335 9.734 1.265 1.22 2.3 2.261 2.3 2.315 0 .179-.142.103-.934-.493zm-17.623-.122c.337-.643.83-1.039.83-.667 0 .132-.255.466-.567.744-.564.5-.566.5-.263-.077zm-12.639-2.745c-.013-.228.325-1.478.751-2.778.427-1.3.782-2.184.79-1.966.02.549-1.51 5.259-1.54 4.744zm-17.21-.429c.005-.118.273-.65.595-1.182.32-.532.99-1.663 1.485-2.513.496-.85.949-1.409 1.006-1.241.057.167-.511 1.33-1.262 2.582-1.272 2.12-1.852 2.87-1.825 2.354zm-.612-1.035c-.098-.098.056-.507.343-.91.287-.403.521-.806.521-.896 0-.09.417-.77.926-1.51 1.087-1.58 1.182-1.497.279.243-1.067 2.055-1.88 3.263-2.07 3.073zm-1.2-.96c.21-.33.904-1.523 1.541-2.65.637-1.129 1.262-2.051 1.388-2.051.127 0-.275.922-.893 2.05-1.546 2.82-1.63 2.947-2.05 3.108-.31.12-.307.044.014-.458zm5.24-.171c0-.128.197-.396.44-.595.399-.33.41-.308.123.232-.329.615-.564.767-.564.363zm-6.35-.686c0-.27 2.666-4.62 2.933-4.785.362-.224-.335 1.132-1.674 3.256-.947 1.501-1.26 1.881-1.26 1.53zm-1.58-.764c-.013-.364 5.068-7.882 5.222-7.728.077.077-.157.589-.52 1.137-.364.548-1.239 1.945-1.945 3.103-1.257 2.06-2.742 3.94-2.757 3.488zm-35.991-.41c0-.15.625-.734 1.389-1.3a40.583 40.583 0 0 0 2.578-2.103c1.287-1.166 1.816-1.282.774-.17-.649.693-3.803 3.306-4.41 3.655-.183.104-.331.067-.331-.083zm32.543-1.203c0-.171.592-1.265.794-1.467.073-.073.543-.728 1.045-1.456.502-.727.987-1.382 1.078-1.455.091-.073.39-.519.666-.992.275-.473.608-.86.74-.86.136 0 .13.143-.013.33-.14.183-1.053 1.549-2.03 3.036-1.606 2.445-2.28 3.291-2.28 2.864zm25.636-4.312c.14-.254.438-.7.663-.992.548-.711.546-.035-.004.803-.488.745-1.054.907-.66.19zm1.352.232c0-.414 1.099-2.727 1.232-2.593.182.181-.782 2.824-1.03 2.824-.111 0-.202-.104-.202-.23zm1.257-.187c-.085-.085.072-.65.347-1.257.275-.606.503-1.304.507-1.55.003-.246.137-.53.299-.629.393-.243.06 1.743-.47 2.805-.42.84-.447.866-.683.631zm28.43-1.626c-.393-.396-1.49-1.422-2.435-2.28-1.82-1.648-2.905-3.028-1.23-1.564 1.773 1.552 4.804 4.565 4.59 4.565-.115 0-.531-.324-.925-.72zm-37.13-1.491c.324-.344 1.148-1.012 1.833-1.485l1.244-.858-1.498 1.484c-.824.816-1.648 1.484-1.832 1.484-.197 0-.094-.256.254-.625zm2.343-.751c.757-.758 1.47-1.284 1.582-1.171.245.244-2.12 2.547-2.615 2.547-.189 0 .276-.62 1.033-1.376zm-2.6-.411c.93-.836 2.046-1.75 2.478-2.029l.785-.508-.359.574c-.197.316-.43.575-.518.575-.088 0-.846.655-1.686 1.455s-1.722 1.455-1.96 1.454c-.256 0 .26-.623 1.26-1.521zm-.635-.763c2.054-1.937 3.211-2.812 3.008-2.272-.17.449-4.495 4.293-4.816 4.28-.17-.007.644-.91 1.808-2.008zm-48.55.711a88.884 88.884 0 0 0 1.388-1.26c.255-.238.463-.313.463-.167 0 .147-.446.622-.992 1.056-1.4 1.113-1.966 1.357-.86.371zm46.037.562c0-.385 4.24-4.36 4.439-4.162.166.167-3.983 4.38-4.314 4.38-.069 0-.125-.098-.125-.218zm-.794-.988c0-.312 3.68-3.82 4.008-3.82.19 0-.543.893-1.627 1.984-1.79 1.802-2.38 2.258-2.38 1.836zm-45.244-1.168c0-.139.238-.38.53-.536.29-.156.529-.246.529-.2 0 .045-.238.287-.53.536-.29.249-.529.34-.529.2zm44.98.052c0-.358 3.416-3.61 3.6-3.426.095.096-.577.952-1.495 1.903-1.566 1.622-2.105 2.012-2.105 1.523zm-.265-1.091c0-.318 2.675-2.936 3-2.936.283 0-1.83 2.386-2.537 2.866-.255.172-.463.204-.463.07zm42.637-.731c-.196-.214-.303-.443-.236-.51.067-.066.274.064.461.289.442.532.243.727-.225.22zm-42.637-.56c0-.266 1.667-1.91 1.937-1.91.105 0 .002.29-.23.643-.455.696-1.707 1.624-1.707 1.267zm41.163-1.037c-.925-.998-.658-1.073.324-.091.443.443.7.806.572.806s-.532-.322-.896-.715zm-41.428-.02c0-.557 2.245-3.18 2.505-2.928.153.147-2.158 3.398-2.415 3.398-.05 0-.09-.212-.09-.47zm8.511-1.882c.113-.301 2.083-2.418 2.736-2.94.441-.352.47-.352.263 0-.806 1.373-3.343 3.86-2.999 2.94zm-1.622-2.668c1.28-1.138 1.97-1.425 1.156-.48-.822.955-1.537 1.513-1.95 1.522-.213.005.145-.464.794-1.042zm14.719-.448a.729.729 0 0 1-.176-.45c0-.166.123-.15.313.04.172.172.251.374.176.45-.075.075-.216.057-.313-.04zm-60.736-4.301c.775-.717 1.495-1.25 1.599-1.186.253.157-2.255 2.488-2.677 2.488-.182 0 .303-.586 1.078-1.302zm.764-14.522c0-.154.387-.551.86-.884.473-.332 1.017-.757 1.21-.944.191-.187.49-.335.66-.33.278.007-.036.316-1.416 1.394-.223.174-.61.48-.86.68-.265.212-.454.247-.454.084zm-1.987-1.37c.24-.387 4.936-3.708 5.243-3.708.338 0-.674.887-2.198 1.926a33.501 33.501 0 0 0-1.938 1.428c-.76.625-1.4.83-1.107.354zm60.4-.945c-.08-.081-.09-.366-.02-.634.11-.424.503-.503 3.08-.623 3.693-.172 6.825-.584 7.628-1.003 1.184-.617 1.415-.689 2.057-.641.355.026.685.166.734.31.253.76-2.947 2.067-6.048 2.47-2.124.275-7.194.358-7.43.121zM56.42 91.974c0-.103 2.916-1.945 3.932-2.484 1.505-.798.748-.114-1.78 1.61-1.216.83-2.152 1.21-2.152.874zm0-1.477c0-.148.327-.475.727-.728.4-.252 1.544-1.089 2.54-1.858 2.115-1.631 2.773-1.85 1.158-.383-1.455 1.321-4.425 3.314-4.425 2.969zm.035-1.556c.14-.388 5.315-4.281 5.69-4.281.174 0 .376-.149.45-.33.085-.212.14-.223.154-.031.011.165-.307.515-.707.777-.4.262-1.599 1.169-2.663 2.015-2.092 1.662-3.082 2.288-2.924 1.85zm.494-2.115c0-.118.387-.5.86-.848 1.005-.74 1.1-.814 2.298-1.776.509-.409.8-.538.662-.293-.222.392-3.478 3.132-3.722 3.132-.054 0-.098-.096-.098-.215zm66.911-1.538c-.38-.458-.07-.892.64-.895.318-.001 1.188-.286 1.932-.633 2.222-1.035 2.792.009.595 1.089-1.434.705-2.79.893-3.167.439zm-66.118-.862c0-.129.268-.42.596-.648.327-.228 1.179-.956 1.892-1.618.714-.662 1.428-1.2 1.588-1.194.312.011-3.546 3.683-3.877 3.69-.11.002-.199-.101-.199-.23zm42.484-1.318c-.742-1.464-.787-1.623-.46-1.623.295 0 1.5 2.602 1.298 2.804-.087.087-.465-.444-.838-1.181zm-41.682-.763c.011-.286 3.166-2.537 3.328-2.375.16.16-2.743 2.573-3.095 2.573-.133 0-.237-.089-.233-.198zm64.698-.042c-.313-.506.188-1.083.94-1.083.892 0 1.044.626.253 1.05-.63.337-.999.347-1.193.033zm-23.534-2.36c-.397-.628-.675-1.282-.618-1.453.057-.17.428.204.825.833.396.628.675 1.282.618 1.453-.057.17-.428-.204-.825-.833zm-39.165-.151c.57-.495 1.087-.851 1.149-.791.2.192-1.39 1.69-1.794 1.69-.22 0 .065-.396.645-.9zm40.396-1.416c-1.088-1.405-2.007-2.979-1.839-3.148.08-.078.599.553 1.155 1.403s1.16 1.704 1.342 1.896c.318.336.45.841.22.841-.06 0-.455-.446-.878-.992zm-.503-3.309c-.83-1.256-1.202-2.049-.962-2.049.207 0 .47.367 1.467 2.05.663 1.119.233 1.117-.505-.001zm17.896-.32c0-.067.268-.265.595-.44.54-.287.562-.276.233.123-.339.41-.828.598-.828.317zm-18.138-3.124c-.283-.467-.607-1.075-.719-1.351-.365-.902.504.024.996 1.06.571 1.204.392 1.393-.277.291zm15.494-3.318c.001-.1.864-.43 1.918-.736 1.054-.305 2.125-.645 2.38-.756.272-.118.463-.089.463.073 0 .15-.625.503-1.39.784-1.55.57-3.374.914-3.371.635zm-13.789-2.504c-1.713-2.25-2.617-3.756-2.617-4.362 0-.397 2.835 3.522 3.848 5.32.786 1.395.234.964-1.23-.958zm13.966 1.752a.65.65 0 0 1-.179-.39c0-.365 1.14-1.288 1.591-1.288.239 0 .713-.298 1.055-.662.342-.364.716-.661.83-.661.343 0 .767.99.605 1.411-.226.589-3.549 1.943-3.902 1.59zm-16.04-1.917c-.305-.597-.46-1.084-.344-1.084.292 0 1.244 1.82 1.053 2.011-.086.086-.406-.331-.71-.927zm1.976-3.003c-1.895-2.316-2.519-3.169-2.519-3.441 0-.42.737.307 2.019 1.993 1.167 1.534 1.616 2.308 1.34 2.308-.075 0-.453-.387-.84-.86z" style="fill:#316152;stroke-width:.26458332" transform="translate(-35.574 -13.268)"/></svg>