<svg xmlns="http://www.w3.org/2000/svg" width="741.033" height="746.602" viewBox="0 0 196.065 197.539"><path d="M-81.597 224.471c0-.317 1.427-1.6 2.91-2.615 1.832-1.253 4.044-2.29 7.805-3.657 3.607-1.31 4.273-1.52 8.305-2.625 4.006-1.097 6.244-1.955 10.878-4.169 5.822-2.782 8.025-3.94 10.583-5.563.8-.508 2.348-1.4 3.44-1.983a119.703 119.703 0 0 0 5.556-3.124c.8-.475 2.527-1.49 3.836-2.255 1.31-.764 2.62-1.596 2.91-1.847.444-.384 2.223-1.38 5.659-3.171.505-.263.558-.38.264-.582-.26-.181-.195-.206.23-.086.38.107.856-.015 1.322-.338 1.227-.852 7.167-3.767 7.673-3.765.182 0 .33-.118.33-.264 0-.145.138-.264.307-.264.457 0 8.243-4.358 10.674-5.973 1.164-.774 2.533-1.782 3.043-2.239.51-.457 1.35-1.149 1.868-1.537.843-.63 2.84-2.725 3.942-4.134 1.381-1.768 7.47-7.284 8.038-7.284.096 0 1.788-1.09 3.762-2.42 4.188-2.826 8.047-6.643 12.365-12.234.766-.99 1.101-1.123 1.773-.698.328.207.235.42-.548 1.252-.518.552-1.865 2.156-2.992 3.565-2.43 3.037-7.543 7.767-10.89 10.075-5.445 3.755-6.814 4.823-8.001 6.24-2.95 3.524-9.363 9.086-13.454 11.67a110.67 110.67 0 0 0-2.545 1.647c-.76.521-8.228 4.295-11.442 5.782-4.432 2.05-8.137 4.01-8.996 4.758-.48.417-1.694 1.219-7.012 4.626-1.993 1.277-4.999 3.043-5.178 3.043-.068 0-.627.32-1.243.712a46.804 46.804 0 0 1-2.707 1.545c-5.067 2.663-7.627 4.028-9.392 5.01-4.798 2.666-6.591 3.335-15.875 5.92-2.11.587-4.6 1.262-5.535 1.5-1.891.481-5.24 2.017-7.831 3.592-.938.57-1.839 1.036-2 1.036-.163 0-.641.246-1.064.547-.422.301-.768.44-.768.307zm-.655-20.488c.074-.191 1-1.18 2.058-2.197l4.957-4.761c1.668-1.602 4.104-3.804 5.414-4.895 1.31-1.09 2.538-2.132 2.73-2.314.421-.397.842-.43.842-.066 0 .146-.09.265-.199.265-.209 0-.994.647-3 2.468a176.5 176.5 0 0 1-2.081 1.86c-.885.774-4.293 3.966-8.082 7.573-2.294 2.183-2.85 2.62-2.639 2.067zm6.22-1.599a820.02 820.02 0 0 1 2.76-2.447 210.14 210.14 0 0 0 5.021-4.659c1.61-1.543 3.49-3.292 4.181-3.887.69-.595 1.536-1.384 1.878-1.754.343-.37.698-.598.788-.507.09.09-.521.833-1.36 1.65-4.366 4.248-10.66 10.063-12.321 11.383-1.18.937-1.946 1.116-.948.221zm-7.682-.949c0-.582 14.049-14.33 14.643-14.33.091 0-3.1 3.274-7.09 7.276-3.992 4.001-7.324 7.276-7.405 7.276-.081 0-.148-.1-.148-.222zm13.512-.911c.907-.784 2.6-2.185 5.009-4.148 3.184-2.593 4.252-3.497 5.875-4.972.84-.764 1.66-1.39 1.82-1.39.34 0-2.227 2.412-5.05 4.742a237.34 237.34 0 0 0-3.417 2.88c-.788.683-1.681 1.413-1.984 1.62a21.44 21.44 0 0 0-1.42 1.125c-.478.41-1.014.743-1.191.738-.177-.005-.016-.272.358-.595zm-14.835-.927c0-.512 11.808-11.844 13.784-13.228 1.04-.728.005.506-1.587 1.894-.815.71-3.819 3.597-6.675 6.416-2.857 2.819-5.268 5.125-5.358 5.125-.09 0-.164-.093-.164-.207zm28.7-6.288c1.887-1.812 3.554-3.29 3.704-3.285.15.005-1.272 1.494-3.159 3.308-1.887 1.813-3.554 3.292-3.704 3.284-.15-.007 1.271-1.495 3.159-3.307zm.957 2.366c.164-.441 7.475-8.04 7.608-7.906.177.177-1.029 1.633-3.31 3.996-2.327 2.41-4.462 4.353-4.298 3.91zm6.862-.831c.006-.205.818-1.142 3.397-3.923.82-.884 1.884-2.049 2.365-2.587.48-.54.988-.909 1.129-.822.14.088-.144.597-.633 1.132-5.525 6.053-6.277 6.797-6.258 6.2zm-3.975-.456c0-.07.59-.523 1.312-1.01.722-.486 2.092-1.62 3.043-2.52 1.687-1.595 2.588-2.134 1.963-1.174-.92 1.411-6.318 5.43-6.318 4.704zm8.202-.088c0-.348 5.788-6.259 5.96-6.086.165.164-1.863 2.442-4.353 4.888-1.491 1.465-1.607 1.551-1.607 1.198zm3.704-.803c0-.269.442-.737 3.146-3.337 1.73-1.665 1.259-.707-.583 1.183-2.046 2.099-2.563 2.533-2.563 2.154zm-41.275-1.096c0-.465 9.242-9.765 10.187-10.25.456-.235-.837 1.241-3.043 3.474-5.653 5.72-7.144 7.134-7.144 6.776zm45.73-1.641c1.038-1.045 1.968-1.819 2.069-1.718.225.225-3.18 3.619-3.63 3.619-.178 0 .524-.856 1.561-1.901zm1.41 1.151c.204-.51 3.69-3.54 3.866-3.36.206.211-3.272 3.58-3.698 3.58-.14 0-.216-.099-.168-.22zm-45.865-4.344c2.638-2.988 5.847-6.532 6.53-7.21.44-.436 1.14-1.24 1.556-1.785.703-.923 1.224-1.261 1.221-.794 0 .109-.387.622-.86 1.14-.472.517-1.263 1.41-1.757 1.984-.494.574-1.684 1.877-2.645 2.895a93.136 93.136 0 0 0-2.914 3.241c-.641.764-1.329 1.39-1.528 1.39-.224 0-.074-.327.397-.86zm-8.047-2.884c-.218-.353.382-.863 1.877-1.597 1.193-.585 1.642-.845 3.236-1.874.616-.397 1.22-.722 1.343-.722.672 0 11.03-9.332 16.88-15.208 1.906-1.914 4.05-3.82 4.762-4.236a82.91 82.91 0 0 0 3.28-2.073 97.065 97.065 0 0 1 4.366-2.69c3.083-1.774 4.959-2.91 6.687-4.05.768-.507 1.84-1.018 2.382-1.137a107.24 107.24 0 0 0 1.713-.39c.596-.144.727-.087.726.318 0 .359-.708.853-2.58 1.802-2.641 1.34-7.847 4.293-10.912 6.19-1.727 1.067-5.11 3.832-8.07 6.596a1914.4 1914.4 0 0 0-7.938 7.469c-2.974 2.812-4.407 3.982-7.984 6.516a598.653 598.653 0 0 0-3.393 2.415c-3.387 2.531-5.829 3.554-6.375 2.671zm-14.394-5.464c0-.318 9.765-9.813 10.45-10.161.532-.27-2.03 2.413-6.783 7.104-2.663 2.628-3.667 3.466-3.667 3.057zm-2.382-.628c0-.172 1.717-2.047 3.815-4.168 2.098-2.12 4.36-4.45 5.025-5.178 1.298-1.42 1.694-1.28.487.174-1.497 1.803-8.946 9.483-9.197 9.483-.071 0-.13-.14-.13-.311zm5.447-.254c.12-.195.581-.653 1.024-1.018.443-.364 1.975-1.795 3.406-3.178 1.43-1.383 2.71-2.554 2.844-2.603.67-.242.056.575-1.674 2.23-3.577 3.42-6.226 5.581-5.6 4.569zm-7.034-.929c0-.478 6.293-7.181 8.174-8.707 1.269-1.03.16.447-1.7 2.264a87.603 87.603 0 0 0-3.39 3.542c-2.632 2.945-3.084 3.37-3.084 2.901zm10.583.078c0-.372 6.464-6.257 6.873-6.257.282 0-1.973 2.242-5.285 5.254-1.054.957-1.588 1.295-1.588 1.003zm5.162-2.294a48.038 48.038 0 0 0 1.587-1.858c.29-.371.706-.783.924-.915.672-.41-2.206 3.09-2.91 3.537-.48.305-.371.096.399-.764zm2.511.147c0-.068.506-.694 1.124-1.392.619-.697 1.383-1.624 1.699-2.058.315-.435.66-.705.764-.6.2.2-.71 1.502-2.225 3.182-.789.874-1.362 1.24-1.362.868zm3.161-.34c.57-.98 2.132-2.458 2.13-2.016-.001.332-1.871 2.48-2.158 2.48-.134 0-.122-.206.028-.463zm-20.394-1.058c.337-.61 4.492-5.119 5.279-5.728 1.238-.96.756-.227-1.226 1.862-1.119 1.178-2.432 2.635-2.918 3.236-.897 1.109-1.621 1.51-1.135.63zm-1.023-.711c0-.55 5.41-6.468 5.672-6.206.162.162-1.19 1.745-4.019 4.703-.91.95-1.653 1.627-1.653 1.503zm-.231-2.186c1.71-2.12 4.729-5.254 4.729-4.91 0 .167-.633.994-1.406 1.84a361.42 361.42 0 0 0-2.291 2.528c-.865.969-1.752 1.435-1.032.542zm-.828-1.84c0-.39 2.345-3.221 4.072-4.914 1.24-1.217 1.138-.588-.129.788a54.105 54.105 0 0 0-2.09 2.429c-1.37 1.72-1.853 2.163-1.853 1.697zm-8.943-3.404c-3.903-1.902-5.873-3.108-5.873-3.598 0-.423.55-.244 1.72.56.634.437 1.28.795 1.434.795.154 0 1.907.833 3.894 1.852 1.988 1.018 3.775 1.852 3.972 1.852.196 0 .357.119.357.264 0 .651-1.753.102-5.504-1.725zm9.748.79c.016-.344 2.106-2.708 2.098-2.372-.004.145-.48.796-1.058 1.446-.578.65-1.046 1.066-1.04.926zm-.214-1.446c.362-.58.618-.663.856-.278.086.138-.078.376-.363.53-.753.402-.866.345-.493-.252zm-1.12-.67c0-.38 1.348-1.775 1.535-1.588.087.087-.223.54-.688 1.005-.466.465-.847.728-.847.584zm1.852-.078c0-.12.298-.498.662-.84.77-.724.872-.405.147.464-.515.617-.809.753-.809.376zm22.225-.132c0-.4 1.092-1.501 1.488-1.501.145 0 2.161-.965 4.48-2.145 2.32-1.18 4.804-2.44 5.52-2.8.714-.36 1.768-1.032 2.34-1.493 2.158-1.738 2.855-2.367 2.746-2.477-.063-.062-.87.03-1.795.205-1.544.293-3.254.768-9.09 2.523-2.136.643-5.526 1.97-6.747 2.642-1.082.595-4.72 1.713-6.113 1.877-1.183.14-1.295.107-1.295-.394 0-.593.14-.656 2.488-1.122 2.136-.424 4.535-1.355 7.83-3.039 6.88-3.514 13.49-5.266 19.05-5.047 2.058.08 2.396.019 3.97-.724 2.021-.954 3.22-1.96 6.22-5.22 1.51-1.64 2.775-3.285 2.775-3.607 0-.386 1.33-1.669 1.73-1.669.213 0 .387.071.387.158 0 .313-2.996 4.605-3.215 4.605-.124 0-.225.123-.225.274 0 .15-.82 1.133-1.824 2.183a322.058 322.058 0 0 0-2.62 2.768c-.437.473-.873.86-.968.86-.095 0-.542.345-.993.767-.469.437-1.25.835-1.821.926-.985.158-4.088 1.386-4.606 1.823-.146.123-.906.602-1.69 1.066l-1.89 1.117a8.06 8.06 0 0 0-.864.606c-.22.182-2.048 1.152-4.063 2.156-2.015 1.004-4.015 2.134-4.443 2.512-.428.377-.932.627-1.12.555-.342-.131-3.964 1.28-4.438 1.728-.381.361-1.204.284-1.204-.113zm-28.045-.836c-2.647-.59-5.66-2.99-8.555-6.816-1.913-2.527-1.92-2.569-.721-4.562.566-.941 2.297-4.224 5.304-10.057 1.897-3.68 4.506-9.582 5.732-12.965 1.255-3.467 4.044-9.43 5.197-11.112.299-.437 1.713-2.364 3.143-4.282 1.43-1.919 2.6-3.553 2.6-3.633 0-.079.79-1.129 1.755-2.332.966-1.204 2.036-2.631 2.38-3.172.842-1.329 4.596-7.895 4.596-8.04 0-.063.286-.568.636-1.122.35-.554 1.38-2.487 2.292-4.295.91-1.807 2.28-4.299 3.043-5.536 1.448-2.347 6.27-11.652 6.6-12.736.435-1.427 2.394-5.88 4.024-9.144 1.856-3.72 2.453-4.443 6.953-8.422 1.577-1.395 8.115-5.68 8.665-5.68.153 0 3.706-2.19 5.358-3.3.654-.441 1.391-.92 1.636-1.066.246-.146 1.615-1.073 3.043-2.06 1.428-.987 3.223-2.177 3.989-2.646a61.152 61.152 0 0 0 7.042-5.059c2.359-1.968 4.55-2.901 5.469-2.327.79.493.935.423 2.654-1.27 2.145-2.112 6.105-4.064 9.088-4.478 6.359-.885 12.538-.019 19.545 2.74 3.489 1.373 4.421 1.822 5.964 2.869l1.148.779 1.498-.492c2.279-.748 4.834-.649 6.715.262 3.008 1.456 5.397 3.948 5.87 6.125.096.437.587 1.27 1.092 1.852.818.943.89.98.66.331-.208-.586-.181-.728.14-.728.22 0 .467.18.55.397.246.64.819.469 2.38-.71 1.735-1.31 6.084-3.758 7.77-4.373.754-.275 2.066-.442 3.573-.453l2.38-.018 1.72 1.176c2.643 1.807 4.396 3.686 4.832 5.179.349 1.197.438 1.285 1.594 1.579.674.171 1.683.628 2.243 1.016.56.388 1.15.705 1.314.705.633 0 2.032 1.501 2.604 2.795.884 1.998 2.363 11.638 2.636 17.181.086 1.747.263 3.95.393 4.895.13.946.365 3.268.522 5.16.292 3.51.757 6.746.968 6.746.064 0 1.213-.93 2.552-2.068 3.118-2.649 3.424-2.83 5.425-3.206 1.745-.328 3.797-.085 4.973.59.774.445 2.151 2.078 2.479 2.94.15.395.277 1.932.282 3.414.015 4.23-.6 8.654-1.886 13.588a402.14 402.14 0 0 0-1.33 5.248c-1.411 5.815-3.389 10.554-5.19 12.435-.557.582-1.84 2.19-2.85 3.572-1.011 1.382-1.913 2.573-2.005 2.646-.092.073-.615.966-1.162 1.984-1.475 2.744-3.358 6.03-3.715 6.482-.172.219-.792 1.29-1.377 2.382-2.87 5.352-3.12 5.723-5.416 8.003-1.496 1.487-2.33 2.519-2.33 2.886 0 .792-1.866 3.188-3.472 4.458-.735.581-1.434 1.057-1.553 1.057s-.715.417-1.324.926c-1.062.887-1.593.993-1.583.315.003-.173.33-.587.728-.918 2.5-2.087 5.088-4.427 5.088-4.601 0-.32-2.805 1.45-4.003 2.526-1.405 1.262-2.064 1.611-2.401 1.274-.525-.524.135-1.415 2.198-2.966 1.158-.87 2.157-1.583 2.221-1.583.488 0 3.807-2.582 5.436-4.23 2.532-2.559 4.185-5.06 7.082-10.72.223-.436.49-.852.591-.925.102-.073.615-.966 1.14-1.985a70.806 70.806 0 0 1 1.746-3.175 89.1 89.1 0 0 0 1.3-2.249c.28-.509.77-1.161 1.088-1.45.319-.287.735-.883.926-1.322.19-.44.846-1.335 1.457-1.99 1.728-1.853 2.795-3.224 3.294-4.233 1.19-2.41 2.745-7.634 3.582-12.039.166-.873.527-2.54.802-3.704 1.452-6.136 1.916-13.36.98-15.24-.634-1.273-2.514-2.167-4.611-2.193-1.946-.023-3.69.929-6.232 3.4-2.792 2.712-4.329 5.379-5.268 9.136-.272 1.091-.72 2.461-.996 3.044-.275.582-1.116 2.428-1.87 4.102a367.465 367.465 0 0 1-2.138 4.668c-.913 1.932-1.03 3.744-.284 4.419.672.608.765.555.631-.356-.161-1.099.538-1.052 2.032.135.639.508 1.264.923 1.389.923.379 0 .254.707-.19 1.076-.348.288-.57.263-1.342-.152-.607-.327-.986-.403-1.104-.22-.099.152-.656.277-1.238.277-1.487 0-4.51.981-5.609 1.82-.846.645-3.736 3.554-5.11 5.143a84.03 84.03 0 0 1-1.422 1.581 184.373 184.373 0 0 0-4.528 5.153 88.936 88.936 0 0 1-2.116 2.41c-.437.47-1.612 1.817-2.61 2.995-1 1.178-2.012 2.145-2.25 2.147-.372.004-1.529.577-3.607 1.788-.291.17-1.482.746-2.646 1.28-1.164.536-2.652 1.337-3.307 1.782-1.348.915-3.175 2.67-3.175 3.05 0 .14-.09.293-.199.342-.28.125-1.653 1.993-1.655 2.253 0 .119-.286.573-.635 1.008-.595.744-.664.766-1.123.36-.27-.238-.984-.514-1.59-.613-1-.164-1.148-.293-1.63-1.418-.63-1.471-1.31-5.007-1.65-8.588-.261-2.732-.893-4.447-1.82-4.944-.281-.15-1.182-.273-2.002-.273-1.393 0-1.486-.04-1.407-.593.048-.336.308-.635.6-.69.283-.055.965-.384 1.517-.732l1.002-.633-.497-1.256c-1.825-4.61-3.966-7.354-8.162-10.457-2.778-2.053-3.396-2.392-4.322-2.365-.39.01-.956-.21-1.257-.49-.665-.62-1.996-.662-3.327-.106-.534.223-1.49.444-2.123.491-1.2.09-2.817.92-3.391 1.74-.492.702-3.823 2.39-4.716 2.39-1.205 0-.968-.72.353-1.072 1.144-.304 1.971-.838 4.3-2.772 1.248-1.038 4.744-2.27 6.902-2.433 1.858-.14 1.954-.116 4.69 1.19 4.898 2.34 6.863 4.04 10.53 9.113l.426.59 2.949-2.374c1.621-1.306 3.066-2.413 3.211-2.462.783-.262-.065.616-2.764 2.866-1.658 1.382-2.974 2.554-2.924 2.604.158.158.81-.31 2.518-1.81a83.21 83.21 0 0 1 3.25-2.687c1.626-1.26 1.61-1.256 2.803-.558.059.035-.239.327-.661.65-1.114.851-5.149 4.785-5.03 4.904.206.206 1.778-.935 3.392-2.461.915-.865 2.14-1.925 2.722-2.356a74.34 74.34 0 0 0 1.984-1.527c.51-.41 1.045-.835 1.191-.944.145-.109 1.275-.968 2.51-1.909 2.138-1.628 4.388-3.166 4.634-3.166.062 0 .677-.357 1.365-.794.689-.436 1.45-.793 1.692-.793s.856-.392 1.364-.87c.908-.858.917-.889.598-1.972-.416-1.406-.139-4.296.754-7.874.363-1.455.86-3.658 1.105-4.895.59-2.992 1.036-4.987 1.681-7.54 2.801-11.085 4.308-20.224 3.53-21.416-.1-.154-.183-.518-.183-.81 0-.823-.709-.623-1.395.394-.342.508-.763.924-.936.926-.173.002-.646.228-1.05.502-.838.568-1.398.321-.587-.258.29-.208 1.21-.942 2.043-1.632 1.274-1.056 1.491-1.36 1.372-1.916-.162-.754-1.247-2.462-2.187-3.44-.35-.363-1.361-1.554-2.25-2.645-.887-1.092-1.946-2.342-2.353-2.778-.407-.437-1.243-1.536-1.858-2.444-.777-1.146-1.246-1.61-1.54-1.517-.679.215-1.77-.852-3.304-3.229-.788-1.222-1.433-2.282-1.433-2.356 0-.074-.118-.278-.261-.453a62.468 62.468 0 0 1-1.137-1.508c-1.53-2.078-4.358-3.442-7.136-3.442-1.13 0-2.843.432-2.843.718 0 .075.398.689.885 1.363.928 1.286 1.706 3.322 2.037 5.327.46 2.795-.854 6.415-3.313 9.128-1.75 1.931-1.746 2.011.27 5.953.794 1.552 1.444 2.957 1.444 3.122 0 .455.86 2.211 1.45 2.96 1.494 1.898 3.702 3.731 5.58 4.635 2.416 1.162 3.336 1.337 5.07.965 2.332-.5 4.17.208 3.16 1.218-.258.257-1.092.379-2.722.399-1.994.024-2.74-.102-4.9-.826-1.4-.47-3.198-1.245-3.993-1.724l-1.447-.871-.636.926c-1.039 1.513-1.545 3.154-2.092 6.791-.285 1.892-.76 4.63-1.055 6.086-.295 1.455-.608 4.074-.696 5.82-.142 2.85-.101 3.305.395 4.442.472 1.082.495 1.29.16 1.418-.412.158-1.425-.846-1.44-1.428-.02-.698-.485-.282-.9.803-.543 1.423-.54 1.565.052 2.336 1.244 1.622.656 2.181-.734.698l-.806-.86-.001.863c0 .475.143 1.095.32 1.377.176.283.239.595.14.694-.271.271-1.456-.596-1.65-1.207-.093-.295-.378-.537-.632-.537s-1.823 1.435-3.488 3.188c-3.296 3.472-7.963 7.66-8.537 7.66-.198 0-.694.287-1.102.638-.675.58-1.456.667-1.456.161 0-.268 10.952-11.12 12.273-12.16.566-.445 1.27-.81 1.567-.81.626 0 2.69-2.054 2.97-2.955.106-.34.398-.914.65-1.278.404-.586 1.493-6.27 1.248-6.515-.051-.052-.353.369-.671.934-.318.565-.746 1.092-.951 1.17-.343.132-2.79-1.532-2.806-1.908-.004-.09-.773-.64-1.71-1.222-1.81-1.126-1.962-1.306-1.309-1.557.557-.214 1.734.422 3.931 2.124 1.007.78 1.904 1.418 1.992 1.418.314 0 1.6-2.233 1.593-2.765-.007-.47-.053-.489-.339-.146-.181.219-.654.686-1.05 1.039-1.146 1.02-.853.087.334-1.065.87-.845 1.094-1.279 1.284-2.49.255-1.624.05-2.023-.571-1.12-.958 1.391-2.81 3.227-2.818 2.792-.008-.523 2.806-3.654 3.284-3.654.281 0 1.033-2.378.82-2.591-.124-.124-2.61 2.664-3.534 3.962-.192.27-.463.42-.603.333-.275-.17 1.768-2.802 3.822-4.926.674-.697 1.432-2.485 1.166-2.751-.125-.125-1.926 1.785-2.888 3.063-.98 1.303-1.84 2.175-1.993 2.022-.268-.269 1.175-2.172 3.54-4.667.9-.95 1.765-2.083 1.923-2.517.278-.768.257-.76-.68.267a57.644 57.644 0 0 0-1.922 2.25c-.527.654-1.021 1.25-1.1 1.322-.077.073-.395.464-.706.869-.37.484-.629.632-.752.433-.103-.166-.082-.379.047-.472.128-.092.723-.823 1.321-1.624.599-.8 1.887-2.288 2.864-3.307 2.327-2.428 2.7-2.977 2.292-3.385-.22-.219-.372-.229-.503-.032-1.006 1.517-5.475 6.736-5.557 6.49-.122-.365 2.195-3.477 4.175-5.609.73-.785 1.327-1.503 1.327-1.596 0-.351-.796-2.056-1.027-2.198-.132-.082-.311.035-.397.26-.09.234-.046.34.104.247.144-.088.262.003.262.203 0 .478-4.243 5.223-4.671 5.223-.373 0 .17-.755 1.786-2.487 1.942-2.078 2.286-2.657.686-1.15l-2.533 2.377c-.89.834-1.618 1.625-1.618 1.758 0 .132-.982 1.116-2.182 2.186-1.2 1.07-2.306 2.066-2.459 2.211-.563.537-4.62 5.773-4.62 5.963 0 .109-.493.395-1.095.636-.603.24-1.585.837-2.183 1.325-.598.487-1.92 1.428-2.94 2.09-1.018.662-2.168 1.448-2.555 1.747-.387.298-.823.542-.97.542-.147 0-.306.091-.355.203-.048.11-1.048.93-2.221 1.82-2.976 2.255-6.686 6.16-7.442 7.833-.247.546-.542.992-.656.992-.277 0-1.279 2.095-1.279 2.674 0 .35.433.557 1.839.877 1.01.23 2.32.418 2.91.418 1.19 0 1.518.613.477.891-.873.234-4.815.186-6.914-.085-2.895-.373-3.988-.076-6.538 1.775-1.223.888-2.939 1.956-3.812 2.373a61.42 61.42 0 0 0-2.188 1.089l-.6.33.763 1.113c.969 1.413 1.904 3.305 2.675 5.412.499 1.364.546 1.726.267 2.062-.478.576-.76.205-1.601-2.1-1.283-3.517-3.94-6.187-5.904-5.933-.642.082-.63.112.537 1.407.656.728 1.484 1.74 1.84 2.25.355.508 1.124 1.58 1.707 2.38 1.763 2.418 2.325 3.868 2.523 6.505.165 2.19.119 2.534-.649 4.822-.77 2.295-1.073 2.945-2.683 5.739a43.59 43.59 0 0 0-1.006 1.852c-.534 1.07-3.239 5.01-4.45 6.482-1.416 1.72-5.99 6.083-6.378 6.085-.708.003-.247-.667 1.884-2.74 3.37-3.277 5.473-6.046 8.064-10.62 3.51-6.197 4.148-8.47 3.602-12.81-.249-1.98-2.211-5.176-4.771-7.769-1.11-1.124-2.06-2.044-2.11-2.044-.052 0-.647-.386-1.321-.86-2.292-1.606-2.636-1.783-3.473-1.784-.487 0-1.599.431-2.662 1.033-1.573.892-2.19 1.077-4.455 1.338-3.125.361-5.557.904-7.461 1.668-1.488.596-2.149.424-1.54-.4.49-.662 5.238-2.317 6.649-2.317.647 0 1.177-.12 1.177-.268 0-.164.407-.203 1.046-.1.966.154 1.058.114 1.219-.527.096-.381.288-.693.428-.693s.178.238.086.53c-.226.71-.094.68 1.898-.434 1.243-.695 1.622-1.026 1.366-1.193-.195-.128-1.783-.155-3.53-.06-3.135.169-3.183.181-3.89.995-.395.453-.723.699-.729.546-.006-.153.13-.419.303-.591.596-.597-.059-.679-.835-.105-.943.698-1.1.718-.883.114.138-.385.059-.368-.471.102-.35.31-.935.655-1.297.765-.577.176-.617.15-.316-.212.986-1.188-6.842 2.315-10.058 4.5-1.02.694-2.126 1.44-2.46 1.658-.333.218-1.17.79-1.861 1.272-.832.58-1.345.787-1.519.613-.35-.35-.054-1.062.53-1.272.257-.093.66-.358.895-.59 1.747-1.721 4.023-3.283 7.433-5.101 2.05-1.093 2.11-1.769.144-1.616-5.342.413-7.606.977-7.608 1.895 0 .624-1.115 2.355-1.254 1.95-.063-.184.13-.75.43-1.257l.543-.922-.587.387c-.322.213-.811.69-1.086 1.059-.527.707-1.602.906-1.82.338-.174-.451 1.58-2.387 2.674-2.952 1.058-.547 6.34-1.966 7.893-2.12.606-.06 1.32-.221 1.587-.357.267-.137 1.854-.2 3.527-.143 1.674.058 3.162.107 3.308.109.145.002 1.276-.254 2.513-.567 2.547-.645 6.12-.75 8.235-.243.725.174 1.386.248 1.469.166.082-.083.068-.808-.033-1.612-.18-1.447-.194-1.465-1.289-1.756-.608-.162-1.966-.7-3.017-1.196-1.05-.496-2.162-.902-2.469-.902-.333 0-.511-.134-.442-.33.172-.486 1.756-.313 4.192.456 1.162.367 2.28.668 2.485.668.484 0 1.452-3.111 1.452-4.667 0-.644.19-1.614.423-2.155.232-.54.646-1.65.92-2.466.48-1.43 3.04-5.896 4.884-8.517.496-.704.825-1.443.74-1.663-.083-.218.027-.6.246-.849.219-.25.472-.697.562-.995.143-.47-.178-.717-2.416-1.852-1.575-.8-2.614-1.49-2.666-1.773-.113-.612.597-.602 1.5.022.617.426 2.742 1.367 3.089 1.367.07 0 .127-.095.127-.212 0-.116-.447-.368-.992-.56-.935-.33-2.949-1.697-4.523-3.071a1264.26 1264.26 0 0 0-1.827-1.592c-.619-.537-1.125-1.082-1.125-1.21 0-.646 1.259-.062 3.143 1.46 3.45 2.785 5.282 3.616 7.092 3.219.921-.203 2.588-1.81 4.344-4.19.726-.985 1.821-2.1 2.433-2.48 1.577-.977 2.211-1.786 2.57-3.28.24-1.004.69-1.715 1.955-3.094.904-.985 1.928-2.267 2.276-2.85.348-.582.701-1.117.785-1.19.21-.183.783-1.51 1.2-2.778.404-1.223.501-3.014.504-9.261.002-3.633-.085-4.716-.451-5.63-.51-1.276-1.932-2.969-2.493-2.969-.81 0-5.029 2.744-4.906 3.191.034.127-.095.17-.288.095-.193-.074-.698.208-1.121.626-.424.419-1.545 1.343-2.49 2.054-.947.712-1.86 1.417-2.029 1.567-.683.604-6.563 4.237-6.758 4.175-.115-.036-.21.031-.21.15s-.506.495-1.124.835c-4.373 2.41-9.674 5.69-11.549 7.145a499.03 499.03 0 0 1-3.572 2.75c-3.163 2.397-5.428 5.387-7.236 9.55-.63 1.45-1.234 2.7-1.344 2.778-.11.078-.368.677-.574 1.332a17.485 17.485 0 0 1-.98 2.355c-.335.64-.608 1.315-.608 1.5 0 .184-.109.374-.242.423-.133.048-1.249 2.171-2.48 4.718-1.232 2.547-2.929 5.88-3.77 7.408a391.496 391.496 0 0 0-4.614 8.6c-1.524 2.913-2.112 3.938-3.975 6.926-.8 1.284-1.575 2.53-1.72 2.77-.717 1.182-8.92 12.704-10.53 14.792-.175.226-.545.821-.822 1.322a36.946 36.946 0 0 1-1.26 2.055c-1.017 1.536-2.337 4.396-2.337 5.064 0 .297-.09.54-.2.54-.11 0-.354.506-.542 1.125-1.78 5.864-5.749 14.495-8.913 19.38-.47.728-1.297 2.01-1.835 2.848l-.978 1.525.81.983c.445.54.81 1.07.81 1.178 0 .416 2.615 2.697 4.67 4.075 1.187.794 2.22 1.605 2.295 1.8.075.196.681.62 1.348.942.667.323 1.212.696 1.212.828 0 .273.09.28-1.852-.152zm123.46-25.07c2.382-2.603 5.314-5.39 6.053-5.755.437-.216 1.36-.731 2.05-1.146.691-.414 2.18-1.086 3.308-1.493 1.128-.406 2.377-.869 2.776-1.028 1.146-.458 3.014-2.333 4.632-4.652 2.098-3.007 13.748-15.01 14.912-15.365.791-.24 1.823-1.166 1.823-1.636 0-.242-.34-.14-1.076.325-2.583 1.631-3.422 1.986-3.422 1.448 0-.144.804-.673 1.786-1.177 2.11-1.082 3.087-1.753 3.168-2.18.033-.17-.964.163-2.215.74-3.387 1.566-3.575 1.114-.235-.564 2.613-1.313 3.671-2.113 3.296-2.489-.075-.074-1.202.394-2.505 1.041-2.374 1.178-3.643 1.528-3.08.848.155-.186.735-.495 1.29-.687 2.089-.724 4.757-2.436 5.181-3.325l.409-.857-1.894 1.237c-2.132 1.393-4.66 2.5-4.979 2.18-.116-.116.887-.727 2.23-1.359 1.344-.631 2.502-1.223 2.575-1.315.073-.092.617-.496 1.21-.898.949-.643 2.472-2.311 2.11-2.311-.074 0-1 .58-2.058 1.288-2.381 1.594-4.09 2.473-4.601 2.365-.214-.044.545-.595 1.688-1.223 3.455-1.9 6.297-4.223 5.787-4.732-.06-.06-.747.297-1.527.793-1.637 1.042-3.95 2.107-4.149 1.909-.174-.174-.347-.062 2.805-1.827 3.167-1.773 3.91-2.39 4.149-3.444.173-.765.17-.767-.437-.324-2.934 2.147-6.626 4.252-6.927 3.95-.217-.216.747-.844 3.943-2.566 1.78-.96 4.05-2.86 4.36-3.65.187-.48.497-1.23.687-1.667.467-1.072 1.602-4.574 1.8-5.556.092-.457.012-1.075-.188-1.456-.208-.395-.369-1.726-.399-3.307-.132-7.02-1.232-19.8-2.072-24.077-.762-3.88-1.38-5.412-2.715-6.733-1.378-1.364-2.45-1.94-4.466-2.396-1.397-.317-1.398-.316-2.879.702-3.539 2.433-5.577 5.744-6.965 11.31-.546 2.191-.577 2.788-.46 8.73.069 3.508.212 6.638.317 6.954.105.317 1.161 1.387 2.348 2.378 2.355 1.968 2.583 2.21 2.388 2.524-.328.53-1.506.144-2.582-.847-.631-.582-1.224-1.059-1.317-1.059-.093 0-.169.358-.169.794 0 .437.091.794.202.794.11 0 .504.282.876.626.37.344 1.5 1.142 2.51 1.774 1.01.631 1.918 1.267 2.017 1.412.26.378 0 .686-.578.686-.463 0-3.291-1.613-4.731-2.7-.347-.261-.721-.475-.831-.475-.453 0-1.807 3.48-4.117 10.583-.497 1.528-1.007 3.016-1.134 3.308-.127.29-.435 1.184-.686 1.984-2.361 7.54-2.107 8.768 2.864 13.819 1.404 1.426 1.79 2.056 1.263 2.056-.126 0-.623-.345-1.105-.766-.787-.686-.919-.723-1.281-.361-.234.234-.442.29-.495.132-.05-.15-.313-.214-.586-.142-.54.141-2.919-1.846-2.919-2.44 0-.895-1.681-.892-3.483.007-1.091.544-5.558 3.547-7.365 4.95-1.794 1.395-8.492 8.196-10.112 10.267-2.045 2.616-2.087 2.699-1.662 3.286 1.184 1.635 1.713 4.04 1.718 7.808.002 1.121.073 1.371.32 1.124.174-.174.412-.317.529-.317.38 0 .222.595-.252.95-.414.31-.393.33.199.181.581-.145.62-.113.316.257-.303.369-.27.402.264.265.548-.141.573-.111.242.291-.326.398-.311.428.133.266.474-.174.473-.151-.029.43l-.53.612.58-.304c.572-.3 1.154.024.627.35-.141.087-.19.333-.108.547.082.213.017.388-.144.388-.402 0-.37.718.038.883.576.233.639.198 1.686-.946zm.364-6.972c0-.11.209-.445.464-.745.422-.497.423-.514.009-.194-.858.663-.995.168-.191-.691.806-.862 1.306-1.09 1.306-.595 0 .145-.149.266-.33.268-.223.003-.203.086.06.252.338.213.317.35-.148.972-.537.719-1.17 1.116-1.17.733zm-.624-1.828c.084-.22.007-.397-.173-.397-.242 0-.233-.113.037-.44.294-.356.298-.462.02-.556-.268-.09-.246-.27.102-.817.442-.693.437-.692-.383.076-1.563 1.463-.832.158 1.173-2.096 1.103-1.24 2.055-2.253 2.117-2.253.35 0-.008.661-.88 1.63-.64.711-.873 1.141-.657 1.214.226.077.07.448-.485 1.148-.451.57-.72 1.035-.597 1.035s.368-.232.546-.517c.178-.284.593-.66.924-.837.565-.3.578-.29.217.187-.21.278-.74.893-1.176 1.366-1.024 1.11-.587 1.12.554.014.48-.465.873-.697.873-.516 0 .338-1.831 2.152-2.175 2.154-.104 0-.121-.177-.037-.395zm1.021-3.308c.09-.145.038-.264-.116-.264s-.28.119-.28.264c0 .146.052.265.116.265s.19-.12.28-.265zm-.937-1.955c1.995-2.332 3.291-3.46 2.688-2.338-.527.98-4.049 4.822-4.42 4.822-.225 0 .518-1.065 1.732-2.484zm-2.361 1.36c.01-.44 2.547-3.285 2.75-3.084.174.174-2.242 3.384-2.56 3.403-.11.007-.195-.137-.19-.319zm-.803-1.832c0-.524.708-1.451.935-1.224.101.101-.068.504-.375.895-.336.427-.56.558-.56.329zm1.323.077c0-.145.12-.338.265-.428.145-.09.264-.044.264.101 0 .146-.119.338-.264.428-.146.09-.265.045-.265-.1zm37.316-30.026c.213-.198 1.042-.704 1.841-1.124.8-.42 2.211-1.277 3.137-1.905.925-.627 1.749-1.074 1.83-.992.083.082.1.19.04.238-1.08.864-3.928 2.684-5.196 3.32-1.787.895-2.256 1.027-1.652.463zm.945-1.973c-.073-.12.664-.68 1.639-1.245a48.6 48.6 0 0 0 3.341-2.16c1.46-1.053 2.017-1.275 1.63-.65-.527.853-6.372 4.439-6.61 4.055zm.898-2.691c0-.141.577-.55 1.283-.907.706-.358 2.088-1.201 3.07-1.874 2.134-1.46 2.187-1.006.07.606-1.584 1.207-4.423 2.603-4.423 2.175zm2.108-3.034c.176-.212.578-.464.892-.56.314-.095.962-.465 1.44-.823.476-.358 1.012-.6 1.19-.54.378.13-2.882 2.31-3.455 2.31-.31 0-.324-.078-.067-.387zm1.331-2.259c.899-.703 1.675-.695.83.009-.343.286-.819.518-1.058.514-.326-.004-.27-.133.228-.523zm-3.704-10.68c0-.335 2.082-1.146 2.414-.941.25.154.142.291-.384.491-1.096.417-2.03.623-2.03.45zm-.63-.91c-.16-.26 2.216-1.904 2.75-1.904.626 0 .164.505-.996 1.088-.69.348-1.33.734-1.422.859-.09.124-.24.105-.332-.043zm-.564-1.369c.271-.439 3.366-2.156 3.542-1.965.091.099.038.226-.118.282-.155.056-.925.516-1.71 1.022-1.43.921-2.014 1.146-1.714.661zm-.394-1.025c0-.124.834-.78 1.853-1.457 2.323-1.546 2.445-1.168.15.469-1.752 1.25-2.003 1.374-2.003.988zm.53-1.891c0-.146.096-.265.214-.265s.449-.217.735-.484c.799-.744 2.056-1.518 1.936-1.19-.106.287-2.502 2.204-2.755 2.204-.072 0-.13-.12-.13-.265zm-1.17-1.138c.213-.53 4.268-2.995 4.518-2.746.137.138-3.45 2.612-4.195 2.893-.291.11-.405.059-.322-.147zm-.947-1.329c0-.047.863-.67 1.918-1.386 1.055-.716 2.15-1.51 2.431-1.767.563-.51.943-.6.943-.222 0 .243-3.067 2.572-4.152 3.153-.547.292-1.14.408-1.14.222zm.265-1.71c0-.113.327-.402.727-.64.4-.239.975-.667 1.278-.952.817-.769 2.757-1.946 2.757-1.673 0 .13-.327.45-.728.708-.4.259-1.335.987-2.079 1.618-1.275 1.083-1.955 1.41-1.955.94zm.264-1.886c0-.243 2.684-2.451 4.035-3.32 1.537-.988.627.096-1.502 1.79-2.265 1.8-2.533 1.961-2.533 1.53zm1.058-3.695c0-.26 2.413-2.513 3.348-3.125 1-.656 1.314-.233.337.454-.499.35-1.436 1.147-2.083 1.77-1.156 1.113-1.602 1.364-1.602.901zm1.323-2.353c0-.13.477-.619 1.059-1.086.65-.524 1.058-.712 1.058-.491 0 .198-.327.598-.728.89-1.107.805-1.389.945-1.389.687zm-.264-1.953c0-.487 2.209-2.46 2.334-2.086.113.34-1.104 1.743-1.871 2.16-.326.176-.463.154-.463-.074zM7.865 136.9c.33-.42.32-.43-.1-.1-.254.2-.462.408-.462.463 0 .218.217.078.563-.363zM6.07 117.5c.703-.645 1.707-1.564 2.23-2.045.523-.48 1.287-1.071 1.697-1.313.41-.243.746-.535.746-.649 0-.322-.21-.25-.858.295-4.96 4.174-6.285 5.367-6.285 5.661 0 .284.212.117 2.47-1.95zm-51.323-13.704c.33-.31.727-.564.882-.564.47 0 3.321-1.362 4.447-2.125 1.534-1.04 5.329-2.903 6.802-3.34.853-.254 1.411-.612 1.703-1.094 1.061-1.752 2.388-3.644 2.906-4.143.31-.299 2.274-2.217 4.365-4.264 2.092-2.046 4.458-4.262 5.258-4.923 1.568-1.297 4.133-3.13 4.379-3.13.083 0 1.319-.763 2.746-1.695 2.482-1.62 3.244-2.379 5.629-5.596.83-1.12 4.178-4.82 8.146-9.001 3.24-3.416 4.585-5.055 4.295-5.235-.114-.07-.502-1.03-.861-2.132-.36-1.102-.853-2.27-1.096-2.593l-.443-.59-2.732 1.365c-4.102 2.05-5.099 2.45-7.869 3.165-2.368.612-2.863.647-7.432.534-3.352-.083-5.394-.256-6.482-.55-2.391-.649-5.96-2.02-7.072-2.717-.543-.341-1.173-.62-1.4-.62-.226 0-.735.545-1.13 1.212-.394.666-1.503 2.159-2.465 3.317-1.16 1.397-1.99 2.721-2.465 3.933-.803 2.047-2.01 3.336-3.917 4.18-.89.393-1.322.807-1.81 1.736-.733 1.392-3.17 4-4.27 4.568-.612.317-.739.555-.739 1.387 0 1.203-.662 3.263-1.459 4.538-.318.51-1.078 1.927-1.688 3.151-.61 1.224-1.327 2.534-1.591 2.91-.265.378-.937 1.638-1.494 2.803-.873 1.823-1.037 2.464-1.188 4.63-.139 1.991-.327 2.813-.906 3.955-.588 1.158-.672 1.535-.431 1.921.165.265.374 1.223.465 2.131.208 2.083.698 3.103 1.485 3.087.324-.007 1.483.095 2.574.225 2.87.344 4.15.23 4.858-.436zM32.02 85.504c.404-1.09.957-2.48 1.228-3.085.272-.605.633-1.677.804-2.381.171-.704.574-1.638.896-2.074.979-1.328 1.048-2.502.24-4.06-.695-1.338-1.162-1.558-1.162-.547 0 .63-1.182 5.708-1.726 7.418-.43 1.35-1.45 6.131-1.45 6.796 0 .717.399.013 1.17-2.067zM-72.072 60.49c0-.313-.5-.312-.62 0-.098.255-.02.333.236.235.211-.08.384-.187.384-.235zm63.764-3.835c2.168-.342 6.406-1.707 7.839-2.525.6-.342 1.166-.894 1.256-1.226.136-.494.211-.533.416-.214.212.33.355.292.922-.24.369-.347.745-.865.837-1.153.13-.413.212-.446.391-.156.35.566 3.022-2.219 3.97-4.137.805-1.631 1.48-5.53 1.053-6.08-.113-.146-.219-.71-.234-1.252-.045-1.548-1.774-4.437-2.656-4.437-.165 0-.3-.105-.3-.234 0-.364-3.097-2.28-5.296-3.277-4.578-2.074-9.187-3.149-14.15-3.3-5.051-.154-7.828.282-10.526 1.652-3.278 1.665-5.425 3.874-4.661 4.794.16.193.533 1.514.831 2.937.446 2.131.535 3.473.506 7.614-.02 2.765-.095 5.384-.167 5.82-.073.438-.065.646.018.464a.628.628 0 0 1 .526-.33c.444 0 .45.035.125.887-.21.553-.148.724.388 1.076.863.565.92.54.92-.398 0-.538.113-.777.331-.7.203.071.302.485.255 1.066-.06.748.046 1.015.497 1.256.596.32 1.021.014 1.03-.74.002-.182.139-.331.303-.331.195 0 .247.325.15.925-.135.827-.079.943.522 1.094.719.18 1.135-.194 1.142-1.027.002-.255.123-.463.269-.463.366 0 .332.885-.049 1.266-.407.407-.213.576 1.02.891 2.797.715 9.42.968 12.522.478zm-11.377-.84c0-.636.287-1.266.576-1.266.14 0 .173.267.074.596-.241.798-.65 1.219-.65.67zm2.158-.2c.05-.345.24-.676.422-.736.476-.157.408.6-.092 1.014-.368.306-.41.271-.33-.277zm1.978.313c-.094-.152-.03-.613.143-1.026.296-.707.32-.716.416-.162.121.695-.304 1.6-.559 1.188zm2.479-.563c0-.493.326-1.073.532-.946.27.166.013 1.189-.298 1.189a.24.24 0 0 1-.234-.243zm2.381-.419c0-.218.12-.397.265-.397.145 0 .264.179.264.397 0 .218-.119.397-.264.397-.146 0-.265-.179-.265-.397zm2.381-.397a.265.265 0 0 1 .53 0 .265.265 0 0 1-.53 0zm5.56-.183a1.93 1.93 0 0 1 .261-.875c.2-.31.258-.242.26.315.003.392-.114.786-.26.876-.145.09-.263-.052-.26-.316zm-1.59-.33c0-.3.118-.545.264-.545.145 0 .264.171.264.381s-.119.455-.264.545c-.146.09-.265-.082-.265-.381zm3.174-.53c0-.136.12-.322.265-.412.145-.09.264.022.264.249s-.119.412-.264.412c-.146 0-.265-.112-.265-.248zm-8.84-1.272c.199-1.101.296-1.29.537-1.048.249.248-.149 2.04-.452 2.04-.161 0-.195-.387-.085-.992zm2.225.098c0-.364.12-.736.265-.825.15-.093.265.124.265.497 0 .364-.12.736-.265.825-.15.093-.265-.124-.265-.497zm-8.82-1.42c.205-2.329.618-2.778.618-.67 0 1.698-.168 2.455-.547 2.455-.125 0-.156-.804-.07-1.786zm2.057.4c.188-1.418.304-1.723.559-1.468.243.243-.195 2.853-.478 2.853-.166 0-.196-.515-.081-1.384zm2.27.79c.005-.7.421-1.449.668-1.202.24.24-.132 1.797-.429 1.797-.134 0-.242-.268-.24-.595zm6.564.46c-.2-.2.062-1.43.342-1.604.291-.18.301.958.013 1.412-.117.184-.277.271-.355.193zm-13.088-.857c.075-.4.212-1.414.305-2.253.106-.958.27-1.461.445-1.354.276.171.11 3.595-.199 4.094-.322.522-.681.204-.551-.487zm16.838.008c0-.805.643-3.25.854-3.25.29 0 .254.805-.105 2.362-.3 1.294-.749 1.827-.749.888zm-19.223-.67c.083-.472.232-1.737.331-2.81.137-1.471.245-1.838.44-1.49.242.433.084 3.627-.232 4.697-.247.837-.697.507-.539-.396zm17.375.265c.005-.702.398-1.412.6-1.085.204.33-.094 1.68-.37 1.68-.129 0-.232-.267-.23-.595zm-19.487-.661c.086-.4.237-1.825.334-3.167.11-1.5.279-2.376.44-2.277.271.168.094 4.457-.23 5.576-.249.859-.733.741-.544-.132zm23.28-.331c.087-.51.236-1.432.331-2.05.095-.62.277-1.125.404-1.125.305 0 .291.479-.062 2.17-.337 1.61-.925 2.49-.673 1.005zm-25.352-1.125a85.3 85.3 0 0 0 .244-2.976c.132-2.136.148-2.197.41-1.588.315.735.32 4.45.006 5.275-.45 1.182-.816.787-.66-.71zm26.847 1.19c0-.383 1.043-3.842 1.207-4.003.217-.214-.117 2.24-.455 3.343-.231.753-.752 1.21-.752.66zm2.256-2.031c.183-.79.417-2.16.52-3.043.102-.883.29-1.606.418-1.606s.181.328.119.728c-.063.4-.184 1.549-.27 2.552-.154 1.807-.475 2.806-.901 2.806-.121 0-.07-.647.114-1.437zm-31.234-2.645c.007-3.712.261-4.074.7-.995.285 2.007.062 4.548-.4 4.548-.218 0-.305-1.032-.3-3.553zm33.091 1.7c.094-.654.278-1.607.409-2.116.13-.51.24-1.522.243-2.25.003-.727.12-1.5.262-1.719.43-.666.312 3.312-.153 5.121-.52 2.027-1.002 2.637-.761.964zm-30.832-6.813c.003-.567.06-.64.26-.33.335.517.335 1.058 0 1.058-.145 0-.262-.327-.26-.728zm29.63.067c0-.395.113-.623.264-.53.145.09.264.329.264.53 0 .2-.119.439-.264.529-.15.093-.265-.135-.265-.53zm-32.238-1.985c0-.364.06-.512.133-.33.074.181.074.48 0 .661-.073.182-.133.033-.133-.33zm64.048 13.338c2.114-4.277 3.887-6.347 6.488-7.578.91-.43 1.653-.894 1.653-1.03 0-.61-.796-2.056-1.617-2.939-3.255-3.5-6.95-3.955-11.93-1.47-2.216 1.104-3.709 2.027-3.871 2.391-.048.11-.196.199-.328.199-.131 0-.449.176-.705.392-.257.215-.69.553-.965.75-.478.343-.457.424.499 1.918 1.175 1.837 2.588 3.567 4.725 5.783a66.48 66.48 0 0 1 3.03 3.422l1.478 1.814.308-.888c.169-.489.725-1.732 1.235-2.764zm-1.907.282c.184-.222.389-.349.455-.282.184.183-.189.685-.509.685-.175 0-.155-.152.054-.403zm-.27-.76c0-.056.178-.172.397-.255.218-.084.396-.037.396.104 0 .14-.178.256-.396.256-.219 0-.397-.047-.397-.104zm.264-1.123c0-.413.702-1.127 1.125-1.145.377-.016.197.705-.286 1.141-.61.553-.839.554-.839.004zm-1.852-.296c0-.302 1.71-1.715 3.374-2.786.779-.502 1.124-.613 1.124-.361 0 .2-.744.858-1.654 1.463-.91.604-1.921 1.29-2.249 1.524-.327.234-.595.306-.595.16zm.266-1.557c0-.124.357-.465.792-.756.436-.29.793-.626.793-.745.001-.12-.345.03-.767.33-.908.647-1.12.685-.92.163.132-.344 1.762-1.467 2.129-1.467.08 0 .076.179-.007.397-.131.342-.062.338.492-.025.355-.232.78-.377.944-.323.164.055-.388.614-1.227 1.242-1.647 1.23-2.23 1.541-2.23 1.184zm-.53-1.563c0-.278 1.986-1.968 2.315-1.97.588-.002.338.378-.828 1.256-1.108.834-1.487 1.016-1.487.714zm-.212-1.76c-.426-.425-.4-.652.099-.843.229-.088.606.03.837.26.356.357.363.456.046.657-.493.312-.606.303-.982-.073zm-50.254 116.404c-1.473-1.588-3.66-6.735-4.582-10.781-2.089-9.168-2.932-11.622-5.365-15.61-2.325-3.814-3.852-5.9-6.164-8.421-2.48-2.705-3.058-3.52-3.51-4.941-.484-1.525-.72-7.674-.303-7.931.583-.36.76.224 1.021 3.353.385 4.624 1.076 5.782 6.168 10.35 1.885 1.69 3.094 3.364 3.953 5.476.389.955.946 2.208 1.238 2.785.671 1.325 2.542 7.592 4.458 14.939 1.407 5.391 2.746 9.027 3.662 9.943.433.434.569 1.434.194 1.434-.12 0-.467-.268-.77-.596zm-84.207.066a.265.265 0 0 1 .529 0 .265.265 0 0 1-.53 0zm-1.413-1.07c-3.013-.506-8.75-2.738-10.288-4.003-.891-.733-2.094-2.475-1.866-2.703.37-.37.962-.084 2.652 1.287 2.01 1.63 4.718 3.048 7.078 3.706 2.158.601 5.689 1.777 5.689 1.894 0 .155-1.884.05-3.265-.182zm109.22-7.74c-.215-.855 1.343-5.056 2.914-7.858.422-.754 1.104-.894.988-.203-.053.318.048.411.329.303.723-.277.768.66.082 1.693-.86 1.294-1.923 3.18-2.881 5.112-.832 1.677-1.19 1.916-1.432.954zm10.99-2.187c0-.167 1.462-1.45 2.044-1.793.524-.31.744-.01.303.414-1.14 1.099-2.346 1.808-2.346 1.38zm-.778-1.636c.018-.234 2.477-2.14 3.038-2.356.213-.082.386-.017.386.144 0 .162-.09.293-.2.293-.111 0-.498.273-.86.605-1.31 1.203-2.402 1.81-2.364 1.314zm-79.052-2.32c1.648-1.545 2.237-1.541.72.004-.643.655-1.352 1.189-1.576 1.186-.243-.003.103-.484.856-1.19zm78.508.666c0-.146.107-.265.24-.265.131 0 .742-.42 1.358-.934 1.516-1.267 1.752-.866.254.431-1.167 1.01-1.852 1.295-1.852.768zm-128.588-1.046c0-.98.727-1.61 3.008-2.608 3.083-1.349 3.634-1.544 5.723-2.026 2.004-.463 3.44-.52 3.44-.135 0 .349-.65.604-3.63 1.426-2.497.69-7.26 2.756-7.593 3.295-.225.364-.948.4-.948.048zm48.154-.233c0-.323 4.814-4.315 4.99-4.138.16.16-.43.735-3.041 2.97-1.622 1.387-1.949 1.583-1.949 1.168zm56.533.044c-.374-.374-.138-.577.872-.748.577-.097 1.528-.524 2.114-.949.587-.425 1.118-.772 1.182-.772.064 0 .843-.483 1.733-1.074 2.406-1.598 6.377-2.899 7.077-2.318.572.475-.736 1.443-2.248 1.665-1.244.182-1.755.426-6.276 3.005-2.247 1.281-3.917 1.728-4.454 1.191zm23.638-.022c.003-.22 1.251-1.26 2.417-2.011 1.149-.741.684.07-.576 1.004-.577.428-1.05.874-1.05.992 0 .117-.178.214-.396.214-.218 0-.396-.09-.395-.199zm-.796-1.065c0-.224.152-.36 2.483-2.253.856-.695 1.617-1.203 1.69-1.13.189.189-3.437 3.563-3.842 3.577-.182.006-.33-.081-.33-.194zm-78.951-.81c-.077-.123 1.116-1.285 2.65-2.581 1.534-1.296 3.523-2.982 4.42-3.746.897-.764 1.741-1.389 1.877-1.389.398 0-.866 1.254-3.414 3.388-1.308 1.096-2.51 2.12-2.67 2.278-.161.158-.687.585-1.17.949-.483.364-1.03.81-1.216.994-.186.183-.4.231-.477.107zm78.951-1.092c0-.394 3.148-2.92 3.639-2.92.255 0 .332.09.185.218-3.304 2.867-3.824 3.234-3.824 2.702zm-127-.238c0-.208 2.868-1.623 3.29-1.623.456 0-.27.598-1.448 1.195-1.367.693-1.842.803-1.842.428zm30.957-.39c0-.237 9.636-9.989 11.338-11.475 3.872-3.379 2.112-1.266-4.234 5.083-5.494 5.496-7.104 6.946-7.104 6.392zm95.433-.344c-.156-.157 3.782-3.542 4.38-3.767.621-.232-.064.534-1.95 2.178-2.097 1.829-2.153 1.866-2.43 1.589zm-58.92-.334c0-.133.283-.819.63-1.523 1.295-2.626 1.785-4.157 2.486-7.765.598-3.076.798-3.703 1.183-3.703.621 0 .596.34-.338 4.502-.848 3.778-2.507 7.823-3.452 8.413-.28.176-.51.21-.51.076zm57.84-.747a.575.575 0 0 1-.162-.341c0-.402 3.711-4.311 3.907-4.116.076.076-.028.342-.231.592-.32.393-.315.424.028.23a6.5 6.5 0 0 0 .862-.622c.255-.22.533-.33.617-.246.162.162-3.496 3.815-4.354 4.348-.279.174-.58.243-.668.155zm-94.18-1.065c-.207-.335 1.166-1.926 4.734-5.485 3.345-3.337 4.34-4.208 4.554-3.994.084.084-1.843 2.156-4.28 4.605-2.439 2.45-4.527 4.605-4.642 4.79-.123.2-.274.234-.366.084zm5.138-.487c3.06-3.27 10.579-10.237 10.802-10.01.22.223-10.602 10.67-11.066 10.684-.254.008-.168-.212.264-.674zm8.182.187c0-.128.86-.991 1.912-1.918a199.61 199.61 0 0 0 4.035-3.687c2.981-2.81 4.4-4.071 7.282-6.472 1.383-1.151 2.597-2.213 2.698-2.358.101-.146.275-.174.385-.064.206.206-.372.775-4.044 3.985-1.67 1.461-5.55 4.999-8.305 7.573a62.5 62.5 0 0 1-1.863 1.582c-.79.652-1.478 1.277-1.526 1.39-.122.28-.574.256-.574-.03zm6.35-.21c0-.232 1.948-2.211 5.988-6.083l4.16-3.99c1.252-1.201 2.425-2.183 2.608-2.183.313 0-.879 1.196-8.693 8.73-3.565 3.439-4.063 3.87-4.063 3.527zm-11.112-.258c0-.68 10.987-11.205 11.697-11.205.478 0 .08.48-1.593 1.918-1.54 1.323-4.157 3.793-8.847 8.35-.692.672-1.257 1.094-1.257.937zm52.79-.347c-.58-.939 1.219-2.215 4.095-2.906 1.853-.445 3.184-1.115 5.096-2.563 1.703-1.29 1.783-1.324 1.783-.746 0 1.302-5.021 4.67-7.54 5.059-.582.09-1.554.45-2.16.799-.708.408-1.163.536-1.274.357zm-49.87-.36a187.01 187.01 0 0 1 2.234-1.918c3.072-2.608 6.462-5.668 8.16-7.365.376-.377.839-.681 1.027-.677.891.024-10.543 10.31-11.46 10.31-.27 0-.261-.079.039-.35zm7.795-1.158c5.868-5.35 9.28-8.678 11.594-11.31 2.372-2.7 2.466-2.792 2.807-2.792.322 0 .387.439.085.573-.109.049-.912.917-1.786 1.929-3.615 4.191-12.592 12.59-13.436 12.572-.177-.004.154-.441.736-.972zm-18.917-.281c0-.391 5.823-6.182 6.813-6.775.8-.48.147.28-2.415 2.81-3.919 3.87-4.398 4.302-4.398 3.965zm-1.588-.744c0-.598 4.89-5.995 7.355-8.118 1.71-1.473.781-.093-1.468 2.18-1.273 1.288-3.015 3.185-3.87 4.216-1.378 1.66-2.017 2.205-2.017 1.722zm81.372-.62c-.163-.266 1.322-1.113 1.55-.884.135.134-.973 1.127-1.258 1.127-.077 0-.209-.11-.292-.244zm-.023-1.475c.431-.352.848-.575.926-.497.184.185-1.012 1.16-1.408 1.147-.166-.005.051-.298.482-.65zm-1.18-.26c0-.159 1.49-.935 1.773-.924.366.015-1.02 1.05-1.405 1.05-.203 0-.368-.057-.368-.126zm-.53-.779c0-.14 1.725-1.212 1.95-1.212.453 0 .078.562-.613.92-.758.391-1.336.518-1.336.292zm-92.339-.386c0-.433.656-.723 3.308-1.466 2.51-.704 4.322-1.38 7.011-2.613 1.534-.704 8.029-4.217 8.202-4.437.073-.093.393-.305.712-.473.441-.232.625-.23.774.01.107.175.048.366-.131.426-.18.06-.588.37-.907.688-.785.785-3.432 2.54-5.21 3.455-2.258 1.162-7.202 3.234-8.216 3.442-.502.104-1.67.416-2.594.694-1.803.543-2.949.65-2.949.274zm91.697-.381c.161-.42 2.495-1.597 2.495-1.258 0 .196-2.23 1.607-2.539 1.607-.05 0-.03-.157.044-.35zm-4.913-.168c0-.293 1.94-1.666 3.836-2.712.99-.547 1.173-.731.728-.735-.328-.003-.596-.118-.596-.256 0-.468 1.187-1.518 1.919-1.697.4-.098.727-.295.727-.438 0-.143.12-.26.265-.26.51 0 .256.703-.527 1.453-.435.417-.758.79-.717.831.04.04.545-.094 1.122-.3 1.106-.394 2.184-.519 1.884-.218-.099.098-.982.493-1.963.877-.98.384-2.83 1.375-4.108 2.203-2.465 1.595-2.57 1.647-2.57 1.252zm3.179-.74c.007-.308 3.567-2.006 3.944-1.88.185.06-.54.554-1.608 1.096-1.995 1.011-2.344 1.128-2.336.784zm-13.498-3.442c0-.306 1.086-.918 1.282-.722.095.095-.059.341-.341.548-.566.414-.941.483-.941.174zm-.53-.857c0-.146.186-.265.413-.265.227 0 .339.12.25.265-.09.145-.276.264-.413.264-.137 0-.25-.119-.25-.264zm-1.851-.216c0-.118.412-.412.916-.652 1.131-.54 1.531-.11.428.46-.875.452-1.344.52-1.344.192zm11.178-1.996c-.58-.288-.806-.699-.383-.699.383 0 1.636.658 1.638.86.003.267-.529.198-1.255-.161zm-14.188-.116c-.086-.14.208-.327.654-.416.446-.09 1.213-.353 1.705-.587.492-.233 1.048-.368 1.236-.299.187.07-.236.38-.94.688-1.698.745-2.464.922-2.655.614zm-4.134-1.08c0-.128.803-.433 1.786-.68.982-.246 2.307-.677 2.944-.958 1.251-.552 1.62-.622 1.62-.31 0 .25-1.147.761-3.504 1.559-1.93.653-2.846.778-2.846.39zm3.32.012c.437-.382 3.294-1.36 3.294-1.126 0 .278-2.443 1.347-3.078 1.347-.274 0-.363-.092-.216-.22zm-4.526-.951c.282-.229.68-.416.886-.416.205 0 1.554-.476 2.997-1.058 2.58-1.04 3.507-1.296 2.998-.827-.517.477-5.362 2.439-6.359 2.575-.975.133-1.006.117-.522-.274zm.544-1.599c2.71-1.213 4.515-1.92 4.628-1.812.183.174-.64.628-2.643 1.46-1.775.736-3.544 1.05-1.985.352zm-1.315-.9c.338-.317 3.641-1.632 3.773-1.5.055.055-.159.24-.476.41-.877.47-3.59 1.367-3.297 1.09zm78.662-.893c.889-1.288 1.896-2.269 1.896-1.846 0 .157-.149.444-.33.636-.183.192-.665.796-1.072 1.342-1.023 1.37-1.45 1.255-.494-.132zm-2.33.4c-.008-.366 2.32-3.109 2.837-3.343.73-.33.25.444-1.25 2.015-.868.91-1.583 1.508-1.587 1.328zm-77.65-.577c.223-.215 5.594-2.668 5.842-2.668.054 0 .099.1.099.223 0 .122-.804.614-1.786 1.093-2.66 1.297-4.828 2.002-4.154 1.352zm75.835-.002c.203-.565 2.943-3.459 3.275-3.459.24 0 .165.202-.223.602a69.584 69.584 0 0 0-1.683 1.852c-1.031 1.172-1.572 1.569-1.37 1.005zm-59.543-.249c.148-.444 4.26-3.469 4.509-3.315.248.153-1.012 1.276-2.69 2.395-1.76 1.175-1.933 1.263-1.82.92zm1.555-.3c0-.145.095-.264.212-.264.116 0 .945-.476 1.84-1.059 1.726-1.12 1.917-1.202 1.917-.814 0 .302-3.179 2.402-3.636 2.402-.183 0-.333-.12-.333-.265zm53.754.012c.165-.473 3.97-4.515 4.536-4.818.468-.25.436-.15-.192.6-2.824 3.371-4.675 5.168-4.344 4.218zm2.602-.237c0-.124.328-.574.728-1a91.36 91.36 0 0 0 1.538-1.693c1.985-2.248 2.488-2.247.645.002-2.01 2.452-2.91 3.285-2.91 2.691zm-59.267-.145c0-.15 4.657-3.598 4.86-3.598.467 0 .057.598-.825 1.2-.545.373-1.57 1.089-2.278 1.591-1.164.826-1.757 1.098-1.757.807zm55.417-.58c.707-1.092 3.396-4.354 4.216-5.114 1.152-1.069 1.048-.44-.15.897a63.076 63.076 0 0 0-2.455 2.99c-1.386 1.806-2.57 2.708-1.611 1.226zm-70.362.15c.18-.29 3.469-1.845 3.905-1.845.44 0-1.018 1.033-2.236 1.586-1.262.572-1.926.676-1.669.26zm13.931-.784c.138-.407 4.014-3.154 4.248-3.01.225.14-.482.762-2.608 2.293-1.389 1-1.796 1.179-1.64.717zm-1.187-.705c-.095-.095.162-.423.571-.728.409-.305 1.422-1.137 2.252-1.849 1.92-1.647 2.289-1.399.433.291-2.819 2.567-2.91 2.631-3.256 2.286zm23.104-.817c0-.273 1.817-2.02 3.466-3.332 1.475-1.175 2.334-1.294 1.031-.144-3.727 3.292-4.497 3.888-4.497 3.476zm-25.284-.572c.282-.456 4.91-2.988 4.91-2.687 0 .216-1.294 1.428-2.488 2.33-.526.397-.848.498-.968.304-.131-.213-.329-.213-.726 0-.662.354-.926.373-.728.053zm24.754-.234c0-.463 4.08-4.025 4.611-4.025.406 0-.043.487-2.147 2.333-2.14 1.877-2.464 2.1-2.464 1.692zm-36.534-.956c.17-.204.627-.451 1.016-.549.389-.098 1.23-.415 1.867-.706.637-.29 1.2-.486 1.251-.436.233.233-.405.684-1.896 1.344-1.828.81-2.739.95-2.238.347zm36.27.17c0-.126.356-.57.79-.987 1.026-.983.807-1.207-.283-.29-1.312 1.104-1.286.522.031-.722 1.708-1.611 3.152-2.665 3.364-2.453.1.1.034.276-.148.389-.183.112-.262.389-.176.614.104.269-.298.84-1.17 1.666-1.56 1.476-2.408 2.105-2.408 1.783zm3.296-3.47c-.076-.076-.461.199-.857.61l-.72.749.857-.612c.471-.336.795-.672.72-.748zm-40.867 2.771c0-.095.268-.276.595-.403.328-.127 1.22-.48 1.985-.783 1.685-.67 1.88-.219.222.515-1.3.575-2.802.935-2.802.671zm0-.904c0-.176.783-.65 2.183-1.32.109-.053.198.012.198.142 0 .223-1.864 1.394-2.219 1.394-.089 0-.162-.097-.162-.216zm37.57-1.181c1.918-1.815 2.922-2.572 3.395-2.563.352.007.313.116-.192.537-.349.29-1.292 1.12-2.096 1.843-1.812 1.63-2.81 1.794-1.106.183zm-38.364.093c0-.313 2.325-1.487 2.533-1.279.146.147-1.985 1.525-2.358 1.525-.096 0-.175-.111-.175-.246zm37.306-.251c0-.231 2.363-2.345 3.095-2.769.98-.568.466.152-1.078 1.508-1.706 1.498-2.017 1.692-2.017 1.261zm12.995-.227c.113-.308 4.015-3.25 5.023-3.787.584-.311.606-.302.265.11-.475.576-4.405 3.578-4.965 3.793-.244.093-.382.044-.323-.116zm-103.217-.452c0-.397.475-.82.685-.609.184.185-.18.99-.45.99-.13 0-.235-.171-.235-.38zm.903.05c.085-.181.228-.538.318-.793.141-.401.63-.671.63-.348 0 .437-.569 1.472-.809 1.472-.16 0-.223-.148-.139-.33zm100.838.081c-.087-.14.202-.443.644-.671.441-.228.802-.531.802-.673 0-.142.124-.258.275-.258.15 0 1.312-.695 2.58-1.546 2.754-1.847 3.495-2.257 3.495-1.934 0 .186-4.38 3.259-7.322 5.137-.173.111-.387.087-.474-.055zm-99.625-.106c0-.282.87-1.773.973-1.669.137.136-.645 1.76-.847 1.76-.07 0-.126-.04-.126-.09zm57.415-.144c0-.13.305-.313.679-.406.373-.094 1.505-.72 2.516-1.393 1.011-.672 1.908-1.153 1.993-1.068.216.217-.687.952-2.593 2.11-1.57.955-2.595 1.254-2.595.757zm-5.931-.258c-.078-.126-.442-.171-.81-.101-.972.186-.819-.069.409-.676.885-.438 1.1-.466 1.218-.16.289.752-.426 1.57-.817.937zm36.622-.213c0-.098.185-.381.41-.63.37-.408.37-.492 0-.862-.225-.225-.41-.473-.41-.551 0-.354 1.685-2.013 2.045-2.013.336 0 .345.069.055.417-.286.346-.281.457.03.65.303.187.223.396-.414 1.089l-.79.858.88-.713c1.49-1.206 1.581-.778.132.616-1.247 1.2-1.937 1.605-1.937 1.14zm1.537-2.872c-.082-.081-.23.065-.329.326-.143.377-.113.408.148.148.181-.179.262-.393.18-.474zm-33.274 2.587c.007-.11.972-.794 2.146-1.522 1.173-.727 2.291-1.472 2.484-1.655.2-.19.416-.228.502-.088.207.334-4.31 3.463-5 3.463-.08 0-.14-.09-.132-.198zm43.38-.564c0-.22 3.804-3.207 4.086-3.207.119 0-.694.766-3.019 2.845-.7.626-1.068.75-1.068.362zm-44.158-.486c.158-.428 2.698-2.362 3.394-2.583.871-.276.487.246-.832 1.13-2.13 1.427-2.663 1.73-2.562 1.453zm43.427-.406c.154-.47 3.145-2.844 3.585-2.844.202 0-.209.46-.913 1.02-.704.561-1.507 1.276-1.784 1.588-.554.623-1.058.757-.888.236zm-95.443-.661c.05-.255.113-.493.142-.53.03-.036.068-.204.087-.374.04-.385.694-.629.694-.26 0 .148-.116.575-.258.948-.29.764-.801.93-.665.216zm1.717-.013c0-.384.657-1.636.86-1.639.283-.003.246.399-.109 1.177-.29.637-.751.92-.751.462zm49.212.102c0-.248 2.684-2.058 2.831-1.91.142.141-.18.449-1.756 1.68-.398.311-1.075.455-1.075.23zm16.665-2.352c-.319-.367-.837-1.183-1.15-1.815-.482-.97-.735-1.183-1.626-1.374-2.07-.443-3.696-1.101-3.778-1.529-.074-.382.213-.366 2.68.153 1.52.32 2.924.752 3.122.96.397.418.786 1.173 1.412 2.74.525 1.315.154 1.801-.66.865zm-48.68.126c0-.12.298-.498.662-.84.496-.465.662-.52.662-.219 0 .221-.218.6-.484.84-.529.478-.84.56-.84.22zm4.631-1.369c-.09-.145.015-.264.233-.264.219 0 .47.119.56.264.09.146-.014.265-.233.265-.218 0-.47-.12-.56-.265zM57.763 102.7c1.477-.847 1.663-.912 1.663-.576 0 .314-1.97 1.373-2.55 1.37-.286-.001.086-.335.887-.794zm-41.266-1.184c-.798-.702-.94-1.195-.345-1.195.588 0 1.846 1.193 1.629 1.544-.267.432-.455.381-1.284-.349zm40.105.466c.23-.372 3.368-2.263 3.514-2.117.172.172-2.31 1.934-3.061 2.173-.358.113-.543.09-.453-.056zm-143.756-.814c0-.519 4.688-7.197 5.052-7.197.391 0 .301.177-1.052 2.074a92.526 92.526 0 0 0-2.405 3.573c-.994 1.574-1.595 2.157-1.595 1.55zm11.113-.278c0-.114.386-.71.857-1.323.993-1.292 1.349-.987.426.365-.6.878-1.283 1.388-1.283.958zm2.381.106c0-.296 1.652-2.527 1.871-2.527.39 0 .301.212-.614 1.456-.752 1.022-1.257 1.453-1.257 1.07zm2.674-1.336c.837-1.166 1.429-1.583 1.126-.794-.084.218-.233.397-.331.397-.099 0-.39.357-.649.794-.257.436-.588.793-.734.793-.147 0 .118-.535.588-1.19zm2.618 1.045c0-.343.902-1.846 1.484-2.474.498-.538.633-.588.633-.238 0 .245-.121.52-.269.61-.147.092-.507.635-.799 1.207-.45.881-1.05 1.393-1.05.895zm8.366-.069c-.104-.167-.044-.574.133-.904.388-.725.604-.276.283.59-.146.396-.296.51-.416.314zm116.517-.015c0-.126.834-.772 1.852-1.436 2.324-1.514 2.436-1.179.151.452-1.756 1.253-2.003 1.374-2.003.984zm-133.614-.31c0-.151.416-.894.926-1.65 1.08-1.604 1.218-1.28.26.61-.611 1.207-1.186 1.71-1.186 1.04zm7.335.114c-.18-.18.743-1.788 1.284-2.237.739-.613.621-.086-.256 1.148-.484.68-.946 1.17-1.028 1.089zm57.604-1.496c1.01-.908 2.968-2.748 4.351-4.09 2.425-2.353 3.024-2.781 2.448-1.75-.633 1.131-7.612 7.498-8.214 7.493-.236-.002.385-.728 1.415-1.653zm-65.95 1.194c.406-.87 1.397-2.216 1.47-1.996.108.325-1.023 2.167-1.341 2.183-.122.006-.18-.078-.128-.187zm11.33-.04c0-.432 1.345-2.408 1.639-2.408.135 0-.025.483-.357 1.074-.67 1.193-1.283 1.83-1.283 1.334zm-13.23-.171c0-.08.417-.797.926-1.593.51-.796.93-1.535.933-1.64.014-.362 1.54-2.044 1.704-1.88.2.201-3.001 5.258-3.329 5.258-.129 0-.234-.066-.234-.145zm5.838.012c0-.369 1.024-1.56 1.194-1.39.076.076-.16.48-.528.897-.366.417-.666.639-.666.493zm58.72-.117c0-.137.243-.42.54-.627.296-.208 1.338-1.142 2.315-2.075 2.088-1.996 2.623-2.389 2.213-1.622-.345.645-4.487 4.574-4.822 4.574a.248.248 0 0 1-.245-.25zm-66.145-.24c0-.25 2.15-3.506 3.17-4.802 1.144-1.45.44.107-1.065 2.355-1.56 2.332-2.105 2.966-2.105 2.448zm-2.107-.262c-.006-.195.449-1.029 1.01-1.852.56-.824 1.7-2.54 2.53-3.813.83-1.273 1.622-2.315 1.759-2.315.418 0 .29.27-.943 1.999-.655.917-1.19 1.744-1.19 1.837 0 .093-.299.559-.662 1.036-.364.477-.664.975-.666 1.106-.007.4-1.827 2.383-1.838 2.002zm19.048-.34c-.005-.237.17-.58.389-.76.509-.423.514.008.008.677-.326.431-.39.444-.397.083zm48.675-1.039c1.625-1.473 2.382-1.985 2.382-1.61 0 .367-3.055 2.948-3.476 2.938-.198-.005.294-.602 1.094-1.328zm72.77.702c.748-.714 3.43-2.289 3.43-2.013 0 .153-.297.414-.661.58-.364.165-.662.379-.662.474 0 .196-1.939 1.33-2.275 1.33-.12 0-.045-.167.168-.37zm-39.27-.657c-.743-.776-1.622-1.211-4.925-2.439-1.14-.423-3.36-1.94-4.186-2.861-1.126-1.255-1.447-2.669-.605-2.669.303 0 .562.243.655.615.257 1.024 2.658 2.788 5.876 4.317 2.897 1.377 4.61 2.657 4.61 3.442 0 .59-.648.406-1.425-.405zm-35.441-.209c-.08-.08.192-.43.605-.778.742-.624 1.34-.818 1.333-.433-.005.285-1.764 1.385-1.938 1.211zm74.702-.832c0-.331 4.46-3.735 4.895-3.735.258-.001.05.196-2.607 2.46-1.28 1.091-2.288 1.653-2.288 1.275zm-75.245-.266c-.193-.313.509-.926.908-.793.174.058.08.292-.23.572-.292.265-.59.362-.678.221zm-49.727-.488c-.499-.499.025-.65 1.985-.571 1.429.057 2.199.198 2.271.417.082.246-.427.33-1.985.33-1.152 0-2.174-.079-2.27-.176zM57.22 95.36c-.145-.238 1.57-1.556 3.38-2.597 1.872-1.077 1.235-.318-.93 1.108-1.007.663-1.83 1.315-1.83 1.447 0 .29-.45.32-.62.042zm-79.55-.807c0-.323 2.028-2.17 2.382-2.17.453 0 .3.235-.826 1.258-1.198 1.09-1.556 1.3-1.556.912zm79.918-1.31c.013-.195 3.263-2.644 4.784-3.603.431-.272.867-.405.97-.294.102.11.035.254-.15.32-.184.065-.958.623-1.72 1.239-2.463 1.992-3.92 2.87-3.884 2.339zm-127.543-.676c0-.404.775-1.503.782-1.11.003.146-.067.533-.155.86-.171.64-.627.821-.627.25zm93.927.189c0-.406 1.846-2.185 2.003-1.93.093.15-.11.574-.453.94-.669.715-1.55 1.277-1.55.99zM56.78 91.59c0-.146.099-.265.22-.265.12 0 1.058-.652 2.084-1.45 1.912-1.485 3.252-2.193 3.252-1.718 0 .142-.109.258-.241.258-.133 0-1.224.774-2.425 1.72-2.074 1.634-2.89 2.045-2.89 1.455zm-133.086-.999c0-.293 3.16-5.933 4.623-8.25.372-.588.793-1.07.937-1.07.385 0 .339.124-.538 1.422-.44.651-1.342 2.175-2.006 3.387-2.182 3.982-3.016 5.23-3.016 4.511zm100.021.006c.012-.29 2.363-2.016 2.526-1.854.075.076-.366.569-.982 1.095-1.088.932-1.56 1.164-1.544.76zm-96.581-.259c0-.205 1.844-3.287 2.1-3.51.084-.074.484-.578.889-1.122.845-1.133 2.012-1.935 1.543-1.06a3.474 3.474 0 0 1-.703.865c-.239.198-.803.902-1.254 1.565-.451.664-.888 1.266-.97 1.339-.082.072-.377.578-.654 1.124-.453.89-.951 1.309-.951.8zm-1.588-.16c0-.408 4.037-6.562 4.624-7.05.743-.616.417.03-1.517 2.999-1.056 1.622-2.047 3.18-2.201 3.462-.26.475-.906.894-.906.588zm3.586-.684c-.083-.134-.001-.402.182-.597.184-.194.785-1.023 1.336-1.842.552-.818 1.225-1.688 1.495-1.933.791-.716.845-.062.066.793-.391.429-1.16 1.464-1.706 2.301-1.041 1.592-1.13 1.674-1.373 1.278zm3.823-.051c0-.433 1.12-2.351 1.371-2.351.402 0 .22.666-.455 1.658-.697 1.027-.916 1.192-.916.693zm-10.578-.248c.003-.21.24-.681.524-1.045.284-.364.52-.755.523-.869.003-.114.571-1.09 1.263-2.168a90.673 90.673 0 0 0 1.755-2.836c.274-.48.55-.732.612-.56.062.173-.437 1.245-1.11 2.382-2.935 4.96-3.579 5.878-3.567 5.096zm8.726.075c0-.287 1.31-2.219 1.879-2.77.26-.254.54-.353.622-.222.081.132.056.28-.057.328-.113.049-.602.714-1.088 1.478-.793 1.249-1.356 1.74-1.356 1.186zm93.133-.056c0-.355 2.33-2.626 2.712-2.643.41-.018.174.446-.53 1.038-.4.337-1.054.916-1.454 1.288-.456.423-.728.541-.728.317zm33.749.017c-.083-.134.382-.58 1.033-.993.651-.412 1.142-.873 1.09-1.023-.05-.151.102-.283.34-.293.238-.01.671-.105.962-.211.427-.155.401-.086-.132.358a33.8 33.8 0 0 1-.927.75c-.145.11-.703.527-1.24.927-.537.401-1.043.62-1.126.485zM1.68 88.235c-.254-.068-.463-.279-.463-.469 0-.19-.176-.491-.391-.67-.464-.385-1.196-1.789-1.196-2.294 0-.804 1.004-.265 2.087 1.122 1.551 1.986 1.54 2.732-.037 2.311zm-80.896-.32c0-.128.476-.947 1.058-1.819.582-.871 1.059-1.704 1.059-1.85 0-.36.767-.973.967-.773.15.15-1.552 3.16-2.381 4.214-.395.502-.703.602-.703.229zm104.51-1.661 1.774-1.575c.466-.414.912-.647.992-.519.179.29-2.834 2.935-3.33 2.924-.2-.004.055-.378.564-.83zm33.338.605c0-.374 2.918-2.759 3.122-2.551.102.104-.448.773-1.222 1.486-1.358 1.251-1.9 1.556-1.9 1.065zm-115.207-1.324c-.307-.496 4.102-6.44 4.492-6.057.106.106-.239.72-.768 1.366-.528.645-1.547 2.023-2.262 3.062-.716 1.039-1.374 1.772-1.462 1.629zm83.174-1.622c1.081-1.013 2.032-1.775 2.112-1.694.213.212-3.291 3.551-3.718 3.543-.198-.004.525-.836 1.606-1.849zm-84.384.296c0-.319 2.701-4.066 3.698-5.13 1.105-1.178 1.007-.487-.122.865-.507.607-1.417 1.868-2.021 2.803-1.006 1.555-1.555 2.071-1.555 1.462zm82.291-.226c.003-.109.64-.652 1.415-1.208.775-.555 1.799-1.364 2.274-1.799.476-.434.914-.741.973-.682.247.247-.24.887-1.147 1.506-.533.364-1.096.783-1.252.932-1.148 1.093-2.276 1.717-2.263 1.251zm-82.81-.775c-.016-.495 1.782-3.373 2.805-4.49l.932-1.019-.593 1.059a22.241 22.241 0 0 1-1.212 1.9c-.34.463-.62.94-.62 1.059-.002.353-1.302 1.83-1.312 1.491zm84.063-2.127a177.955 177.955 0 0 0 2.843-2.51c1.018-.94 1.21-.471.21.508-1.633 1.595-4.361 3.78-4.722 3.78-.21 0 .542-.8 1.669-1.778zm-84.593.52c.02-.438 2.738-3.863 2.835-3.572.057.172-.123.557-.402.856a6.9 6.9 0 0 0-.878 1.258c-.564 1.08-1.582 2.035-1.555 1.459zm61.35-.793c.476-.852 2.135-2.541 2.316-2.36.1.099-.062.447-.358.774s-.814.921-1.151 1.322c-.683.81-1.209.982-.807.264zm21.993-.264c.005-.11.51-.585 1.124-1.056.614-.471 1.7-1.394 2.414-2.05 1.902-1.75 2.151-1.452.29.346-2.304 2.226-3.852 3.342-3.828 2.76zm-83.352-1.003c0-.079.417-.762.926-1.518 1.09-1.617 1.262-1.175.198.508-.638 1.011-1.124 1.447-1.124 1.01zm83.08-.638c0-.138.167-.347.372-.463.403-.228 1.596-1.27 3.778-3.3.756-.702 1.53-1.277 1.72-1.276.325.002-.692 1.04-3.951 4.034-1.324 1.216-1.92 1.528-1.92 1.005zM-.702 77.78c.32-.32.66-.5.758-.403.257.257-.418.984-.915.984-.34 0-.31-.114.157-.58zm24.672.156c0-.088.328-.416.728-.728.4-.312 1.957-1.62 3.46-2.907 1.501-1.287 2.79-2.281 2.86-2.21.189.189-1.002 1.344-3.941 3.825-2.347 1.98-3.107 2.475-3.107 2.02zm-25.664-.34c0-.308 1.285-1.352 1.664-1.352.149 0 .045.25-.231.554-.633.7-1.433 1.145-1.433.798zm-57.409-.757c.008-.248 1.738-2.182 1.953-2.182.32 0 .14.416-.504 1.165-.363.423-.66.87-.66.992 0 .123-.18.224-.398.224-.218 0-.394-.09-.39-.199zm57.541-.733c1.378-1.187 1.814-1.184.662.006-.494.51-1.083.921-1.309.916-.253-.006-.004-.36.647-.922zm-1.72.498c0-.224 2.458-2.463 2.712-2.47.407-.013.166.319-1.058 1.456-1.194 1.11-1.654 1.392-1.654 1.014zm-.799-.558c-.01-.378 4.107-4.014 4.209-3.718.056.163-.776 1.111-1.849 2.106-1.858 1.723-2.348 2.058-2.36 1.612zm29.614-1.073c.64-.538 2.223-1.916 3.515-3.062 1.293-1.147 2.416-2.02 2.496-1.94.08.08-.653.899-1.628 1.82-.975.921-1.968 1.873-2.206 2.115-.953.971-2.514 2.073-2.916 2.06-.269-.01.005-.377.739-.993zm-85.7-.307c0-.437.88-2.126 1.107-2.126.366 0 .239.62-.31 1.521-.53.87-.797 1.072-.797.605zm1.329-.043c-.006-.427.701-1.2.908-.992.06.059-.12.403-.397.765-.377.49-.507.548-.511.227zm54.763.09c0-.191 1.06-1.247 3.897-3.878.616-.571 1.202-.957 1.303-.856.182.183-4.628 4.933-5.002 4.939a.2.2 0 0 1-.198-.204zm29.898-1.622c0-.133.108-.282.241-.33.133-.05 1.274-1.035 2.535-2.192 1.261-1.156 2.492-2.254 2.735-2.439.343-.26.358-.338.066-.344-.207-.005-1.208.795-2.226 1.777-1.14 1.1-1.895 1.655-1.966 1.444-.063-.188.671-1.062 1.631-1.942.96-.88 1.746-1.748 1.746-1.93 0-.305 2.507-3.062 2.786-3.062.356 0 .03.59-.705 1.278-.491.46-.75.902-.635 1.089.142.23.329.191.699-.143.96-.869.836-.117-.166 1.01-1.398 1.572-6.2 6.027-6.497 6.027a.244.244 0 0 1-.244-.243zm-5.667-2.353c-1.23-.29-1.212-.89.02-.704.559.084 1.765.047 2.68-.083.916-.13 1.723-.143 1.794-.028.379.613-2.86 1.2-4.494.815zm-66.65-1.811c-.096-.096.33-.723.948-1.395.617-.67 1.41-1.608 1.762-2.082.414-.558.732-.772.898-.606.166.166-.154.752-.905 1.657-2.366 2.851-2.32 2.81-2.703 2.426zm49.945-.857c.553-1.07 4.208-4.908 4.33-4.546.054.164-.625 1.071-1.51 2.017-.884.945-1.87 2.073-2.19 2.507-.745 1.007-1.147 1.021-.63.022zm-51.183.08c0-.085.4-.591.89-1.124.489-.533 1.313-1.444 1.83-2.026.519-.581 1.038-.962 1.154-.845.117.116.09.294-.06.396-.15.1-.444.433-.654.737-1.406 2.042-3.16 3.63-3.16 2.863zm-1.323-.745c0-.345 3.668-3.87 3.801-3.654.198.32-2.96 3.762-3.451 3.762-.192 0-.35-.049-.35-.108zm-.793-1.034c0-.297 2.7-2.853 2.932-2.776.312.105-2.272 2.86-2.682 2.86-.138 0-.25-.038-.25-.084zm80.433-.981c0-.355 2.06-2.677 3.154-3.557l.649-.521-.497.841c-.509.86-2.012 2.558-2.843 3.21-.36.281-.463.288-.463.027zm-80.081-1.48c.557-.517 1.093-.86 1.19-.76.202.206-1.508 1.72-1.93 1.71-.15-.004.182-.431.74-.95zm-1.94.48c0-.344.605-.846 1.02-.846.306 0 .286.11-.094.53-.492.543-.926.692-.926.317zm81.756-.204c0-.245 3.288-3.812 3.516-3.814.348-.005-.232.847-1.664 2.444-1.214 1.354-1.852 1.826-1.852 1.37zm-82.124-1.017c.088-.23.277-.419.419-.419.347 0 .13.602-.266.733-.193.065-.252-.056-.153-.314zM29.28 60.7c.026-.29 3.686-3.326 3.686-3.057 0 .32-1.515 1.949-2.475 2.66-.823.611-1.242.749-1.211.398zm-.282-.835c0-.302 2.73-2.673 2.892-2.512.146.147-2.395 2.752-2.684 2.752-.115 0-.208-.108-.208-.24zm-.531-1.016c-.003-.338 1.957-1.919 2.38-1.919.23 0-.092.45-.758 1.059-1.112 1.015-1.619 1.284-1.622.86zm-.528-1.01c0-.34 1.801-2.028 2.066-1.935.333.117-1.342 2.085-1.775 2.085-.16 0-.29-.068-.29-.15zm-62.946-3.26c1.303-1.419 2.092-1.95 2.092-1.41 0 .36-2.777 2.968-3.16 2.968-.2 0 .28-.701 1.068-1.558zm41.541.017c-.322-.63-.538-1.285-.48-1.456.058-.17.37.204.692.834.323.629.539 1.284.48 1.455-.058.17-.37-.204-.692-.833zm-43.14.284c.025-.412 3.162-3.608 3.162-3.222 0 .222-.605 1.083-1.344 1.912-1.228 1.378-1.851 1.827-1.819 1.31zM7.08 53.61c-.366-.803-.377-.913-.085-.913.192 0 .836 1.13.836 1.468 0 .38-.49.02-.751-.554zm-43.23-.532c-.102-.102.365-.885 1.037-1.741 1.208-1.538 1.6-1.79 1.296-.833-.225.71-2.113 2.794-2.333 2.574zm44.008-.33c-.18-.335-.279-.751-.22-.925.059-.178.245-.051.43.294.18.335.28.751.221.925-.06.179-.246.051-.43-.294zm.528-1.052c-.2-.477-.296-.934-.215-1.014.227-.227.762.93.664 1.434-.061.31-.2.18-.45-.42zm-44.203-.745c-.01-.35 1.312-2.207 1.938-2.723.732-.603.795-.132.09.677-.36.412-.96 1.107-1.337 1.543-.375.437-.686.663-.691.503zm45.037-.032c-.38-.136-.455-1.132-.084-1.132.242 0 .683 1.024.505 1.174-.05.042-.24.023-.421-.042zm.38-1.304c-.1-.1-.182-.425-.182-.723 0-.51.026-.516.452-.09.308.308.366.538.18.723-.148.149-.351.19-.45.09zm-45.153-1.1c-.004-.19.349-.725.785-1.19.436-.465.793-.699.794-.519.002.444-1.57 2.144-1.579 1.71zm.755-5.55c.289-.54 1.354-1.546 1.354-1.28 0 .355-.83 1.445-1.213 1.591-.298.115-.33.043-.14-.311zm-.334-.917c.68-1.156.98-1.5 1.192-1.369.279.172-.733 1.7-1.125 1.7-.144 0-.175-.15-.067-.331z" style="fill:#2f6052;stroke-width:.26458332" transform="translate(122.872 -26.983)"/></svg>