<svg width="979.748" height="573.436" viewBox="0 0 259.225 151.722" xmlns="http://www.w3.org/2000/svg"><path d="M229.229 151.543c.072-.116.076-.563.01-.992-.067-.43-.175-2.33-.24-4.22-.166-4.782-.37-7.098-.814-9.257-.767-3.726-3.052-10.936-4.324-13.64-.448-.951-.945-2.44-1.104-3.307-.36-1.954-2.328-5.787-5.682-11.066-1.373-2.163-2.497-3.978-2.497-4.035 0-.057.244-.103.543-.103.504 0 1.427.453 4.884 2.396.73.41 2.278 1.016 3.44 1.346 1.85.526 2.736.6 7.14.612 4.417.01 5.313-.063 7.386-.6 1.297-.335 2.582-.767 2.855-.958.464-.325.414-.415-.771-1.388a65.08 65.08 0 0 0-2.675-2.053c-.773-.557-1.31-1.103-1.19-1.213.119-.11 1.029-.336 2.023-.505 2.89-.49 12.73-4.322 15.59-6.072.86-.527 1.975-1.206 2.475-1.51 1.085-.657 2.425-1.9 2.803-2.597.232-.427.2-.475-.211-.317-.266.102-2.013.416-3.883.699-2.474.374-3.7.448-4.508.27-1.39-.302-7.033-.922-13.412-1.473-2.692-.232-6.145-.535-7.673-.674-5.466-.496-9.773-.266-15.61.834-5.522 1.04-8.208 2.004-9.531 3.42l-.757.81-1.801-1.24c-2.723-1.871-2.717-1.863-1.89-2.56 1.6-1.347 4.36-5.837 5.256-8.551.175-.53.237-1.428.143-2.054-.158-1.054-.283-1.186-2.342-2.472-1.196-.748-2.613-1.538-3.15-1.757-1.106-.451-4.364-1.351-5.82-1.607-.621-.11-1.447-.6-2.291-1.358-1.517-1.364-3.862-2.523-5.438-2.69-1.012-.105-1.132-.045-1.748.878-.59.884-.661 1.262-.661 3.524 0 1.394.083 3.159.186 3.923.154 1.15.116 1.389-.218 1.389-.49 0-2.243-.978-4.73-2.638a77.686 77.686 0 0 0-3.97-2.435l-4.365-2.474a287.047 287.047 0 0 1-4.763-2.778 134.27 134.27 0 0 0-4.233-2.428 207.683 207.683 0 0 1-2.91-1.595c-.655-.37-2.642-1.424-4.416-2.346-2.12-1.102-3.281-1.86-3.39-2.215-.137-.454-.191-.472-.346-.117-.153.352-.304.37-.927.112-.585-.243-.67-.37-.397-.594.19-.157.764-.29 1.274-.296.509-.006 1.759-.268 2.778-.582 2.938-.906 3.653-.908 7.01-.011 8.349 2.228 13.973 2.093 21.805-.523 3.494-1.167 11.562-5.035 14.623-7.01l2.798-1.805c4.235-2.731 13.874-7.822 15.612-8.246 1.313-.32 1.007-.57-.917-.75-1.04-.096-2.02-.281-2.175-.41-.156-.13-1.713-.432-3.46-.672-1.746-.24-3.71-.56-4.365-.711-4.272-.987-14.764-1.358-18.113-.64-.88.189-2.79.552-4.244.807-8.334 1.462-14.875 4.4-20.013 8.993-1.432 1.28-5.254 5.478-6.07 6.667-.215.314-.968 1.048-1.673 1.63-1.13.934-1.498 1.08-3.107 1.243-2.118.212-2.38.074-2.851-1.496-1.051-3.507-5.34-7.67-9.272-8.998-1.698-.573-1.713-.597-1.346-2.176.475-2.05-.266-2.332-1.441-.55-.902 1.368-4.27 4.144-4.885 4.027-.224-.042-.444-.338-.49-.657-.088-.62-1.56-2.048-2.595-2.52-.346-.158-.628-.417-.627-.575 0-.16 1.579-.808 3.506-1.443 4.362-1.44 5.747-2.184 11.41-6.137 4.689-3.273 7.514-5.761 9.892-8.712 2.003-2.484 1.786-3-.726-1.727-.714.362-2.228 1.043-3.365 1.515-1.953.81-2.24.855-5.241.836-1.746-.011-3.71-.17-4.366-.35-2.142-.593-6.134-1.04-10.848-1.218-7.858-.295-12.178.474-17.86 3.182-3.82 1.82-6.593 3.78-9.823 6.936-1.95 1.905-5.12 5.893-6.324 7.954-.362.62-.694.86-1.19.86-.43 0-1.207.445-2.088 1.197-1.173 1-1.538 1.176-2.233 1.07-3.983-.61-16.86-.256-23.85.654-4.905.639-4.82.64-5.036-.04-.148-.47-.325-.536-1.077-.414-.793.129-.87.09-.652-.315.136-.254.642-.646 1.125-.872 2.045-.954 3.35-1.52 4.782-2.076 2.717-1.052 4.076-1.974 7.847-5.322 5.044-4.48 7.4-7.362 12.626-15.446 1.882-2.91 5.1-8.895 5.123-9.525.005-.145.486-1.514 1.067-3.042 1.105-2.898 2.19-6.696 2.494-8.732a47.425 47.425 0 0 1 .59-2.964c.482-2.066.34-2.893-.385-2.274-.662.564-3.515 2.064-6.41 3.37-7.316 3.302-9.752 4.716-13.108 7.61-2.598 2.242-4.453 4.188-6.8 7.134-1.537 1.93-4.854 6.89-5.155 7.708-.09.248-.7 1.336-1.35 2.418-1.415 2.348-2.846 5.582-3.98 8.993-.81 2.436-.828 2.605-.828 7.433 0 5.298-.01 5.345-1.536 7.535-.405.58-.95 1.097-1.207 1.147-.305.059-1.223-.657-2.603-2.03-3.15-3.134-6.297-4.477-8.834-3.77-.848.235-1.086.215-1.327-.11-.507-.682-.88-.437-1.185.778-.227.902-.527 1.327-1.296 1.835-.744.493-1.28 1.226-2.087 2.862-1.614 3.265-3.142 5.162-4.766 5.914-1.136.526-1.48.58-2.173.338-1.071-.374-2.516-.032-8.176 1.934-9.167 3.183-17.28 6.3-17.943 6.894-.377.337-.85.762-1.048.944-.198.182-.531.33-.74.33-.207 0-.377.12-.377.265 0 .146.12.265.265.265.46 0 4.504-1.474 7.937-2.893a237.31 237.31 0 0 1 5.424-2.166 123.317 123.317 0 0 0 3.307-1.3c3.752-1.576 7.515-2.877 8.79-3.036 1.622-.203 3.526.104 6.556 1.056 1.09.343 2.55.7 3.24.793.692.094 1.258.275 1.258.405 0 .26 1.423-.172 2.249-.682.78-.483 2.249-.744 2.249-.4 0 .157-.11.285-.243.285-.134 0-.496.41-.805.91-.378.61-.798.937-1.28.992-.55.063-.774.283-.97.946-.3 1.017-.75.987-.935-.063-.073-.41-.311-.838-.53-.953-.9-.474-7.382-1.912-8.73-1.937-1.232-.023-1.492.057-1.697.52-.181.414-1.197.87-4.101 1.843-2.123.712-4.158 1.438-4.522 1.614-.363.177-1.494.639-2.513 1.027-6.188 2.359-13.132 5.738-12.694 6.176.068.068-.302.412-.822.765-1.268.862-1.005 1.01.443.25 1.13-.593 6.438-3.07 8.046-3.755.436-.186 2.222-.878 3.969-1.538a159.247 159.247 0 0 0 5.424-2.17c2.692-1.16 8.703-3.24 9.569-3.311 1.059-.088 1.925.006 2.31.25.307.194.254.437-.3 1.385-1.301 2.226-3.856 7.518-4.388 9.088-1.315 3.882-1.764 10.204-.935 13.16.856 3.05 4.02 5.488 7.41 5.71 2.06.134 3.18-.238 4.68-1.558 2.384-2.098 4.236-6.255 5.717-12.83.672-2.985.824-4.218.794-6.467-.03-2.208.036-2.76.32-2.687 2.65.672 5.013.176 6.795-1.426 2.536-2.28 3.693-6.022 2.805-9.074-.45-1.547-.34-2.014.287-1.213 1.036 1.326 2.085 4.896 1.85 6.3a221 221 0 0 0-.252 1.553c-.176 1.11.345 7.245.77 9.078.61 2.634 2.12 6.96 3.317 9.512.613 1.307 1.225 2.664 1.36 3.015.674 1.764 5.554 9.464 8.372 13.212 3.022 4.018 12.256 12.84 18.27 17.457 2.879 2.21 3.44 2.392 2.784.906-.758-1.714-7.45-22.013-8.307-25.201-1.313-4.882-1.81-6.331-3.078-8.996-2.403-5.047-3.357-6.64-7.61-12.7-1.225-1.745-3.293-4.247-3.861-4.67-.225-.17-.882-.735-1.46-1.26-.577-.523-1.922-1.517-2.99-2.207-3.203-2.075-4.057-2.782-4.982-4.13-.486-.706-.883-1.375-.883-1.486 0-.11.43-.27.954-.356 1.425-.23 2.215-1.666 1.379-2.503-.172-.172-.234-.392-.136-.49.362-.362 6.819-1.09 11.297-1.275 2.546-.104 5.344-.223 6.218-.263 1.558-.073 3.862.08 10.98.722l3.572.323-.025 2.249c-.023 2.049-.114 2.424-1.018 4.21-2.378 4.7-4.663 13.463-5.163 19.796-.267 3.385-.022 11.09.49 15.419.716 6.033 2.568 11.907 6.408 20.323.42.92.766 1.753.769 1.852.003.1.216.454.474.788.907 1.18 1.438.398 3.197-4.71a94.274 94.274 0 0 1 1.475-3.968c2.078-5.1 3.97-11.645 5.163-17.86.307-1.6.804-4.1 1.103-5.555.77-3.753.94-9.37.374-12.386-1.033-5.495-3.362-10.126-7.667-15.245-1.99-2.366-2.798-3.46-2.8-3.794-.001-.112.285-.335.637-.495.35-.16.7-.528.776-.817.126-.48.294-.512 1.94-.367.993.087 2.876.226 4.185.309 1.31.082 3.036.26 3.837.394 2.437.41 7.492 1.12 8.334 1.172.437.026.992.069 1.234.094.377.04 2.338 3.464 2.338 4.083 0 .108-.28.197-.621.197-.7 0-4.131 2.798-5.215 4.252-1.15 1.543-2.372 3.68-2.918 5.103a39.746 39.746 0 0 1-.77 1.89c-.135.29-.503 1.243-.816 2.116-1.221 3.41-1.346 4.13-1.196 6.877.125 2.275.26 2.872.977 4.284.936 1.843 1.89 2.808 3.506 3.542 1.322.6 3.86.67 4.893.136 1.468-.76 4.742-4.537 5.86-6.762 1.92-3.816 2.508-6.047 2.749-10.41.062-1.138.186-2.141.275-2.23.088-.088.487.136.886.5 1.168 1.063 1.977 1.47 3.513 1.77 2.55.499 3.426.526 4.965.159 2.11-.505 2.152-.484.979.48-1.234 1.015-3.866 3.757-4.212 4.388-.133.242-.325.5-.425.573-.276.2-2.11 3.508-3.597 6.488-1.476 2.958-1.882 4.144-3.934 11.504-3.825 13.72-4.067 14.914-4.64 22.886-.69 9.57-.667 11.876.124 12.92.338.445.694.152 4.642-3.837 10.643-10.754 13.1-14.857 16.13-26.942 1.143-4.558 1.4-10.834.667-16.272a92.114 92.114 0 0 1-.56-5.957c-.158-2.824-.126-3.132.43-4.233.329-.653.633-1.227.677-1.276.043-.05.938.12 1.99.376 1.65.402 2.13.42 3.527.137.888-.18 2.06-.633 2.605-1.006 1.202-.822 2.58-2.83 2.586-3.763.007-1.23.292-1.39 1.598-.898 1.754.66 8.684 4.267 9.972 5.189 1.385.99 1.6 1.315 2.837 4.288 1.7 4.086 2.033 4.943 1.945 5.018-.046.04-.826.2-1.733.357-3.205.553-5.12 2.243-7.103 6.266-1.6 3.245-2.073 5.822-1.873 10.204.115 2.505.317 3.849.822 5.446.606 1.919.845 2.297 2.524 3.985 1.416 1.425 1.959 2.189 2.296 3.233.555 1.72 2.102 3.497 3.73 4.287 1.818.882 4.977.877 6.782-.012 1.595-.785 2.954-1.953 3.537-3.04 1.32-2.462 1.945-4.565 2.09-7.037.265-4.567-.4-8.104-2.331-12.413-.761-1.697-.762-1.697-.23-2.193.939-.874.587-1.39-1.334-1.957-1.812-.534-2.033-.72-2.38-2.005a21.007 21.007 0 0 0-.441-1.464c-.13-.34-.031-.388.506-.253.48.12.802.02 1.145-.36.262-.29.427-.56.368-.6-1.187-.804-2.732-2.27-3.081-2.92-1-1.862-2.133-4.675-1.884-4.675.248 0 1.88.903 5.65 3.127a38.21 38.21 0 0 1 3.088 2.08c.826.629 1.564 1.143 1.64 1.143.407 0 2.652 1.758 3.48 2.724 1.23 1.433 2.507 3.36 2.507 3.78 0 .18-.424.965-.943 1.74-1.018 1.527-3.61 6.714-4.25 8.51-.217.608-.564 2.653-.771 4.545-.207 1.892-.446 3.916-.532 4.498l-.155 1.058.652-.763.652-.763-.141 5.526c-.13 5.047-.057 6.443.61 11.875.664 5.405 2.127 11.195 3.659 14.487.525 1.129.955 2.164.955 2.3 0 .49 1.854 4.306 2.442 5.027.33.404.776.99.99 1.3.525.765.82.716 1.772-.293.965-1.024 1.745-3.027 3.526-9.058 1.68-5.691 2.294-8.984 2.658-14.271.528-7.672-.842-15.788-3.508-20.786-.584-1.094-1.15-2.085-1.26-2.203-.164-.18 6.17-6.797 6.509-6.797.303 0 3.695 3.062 3.862 3.486.104.265.312.482.463.482.493 0 .287 1.328-.568 3.66-.72 1.966-.842 2.652-.85 4.807-.014 4.862 1.854 11.24 4.8 16.39.963 1.68 2.018 3.355 2.345 3.718 1.124 1.25 4.757 5.956 6.3 8.159 2.378 3.398 5.397 6.86 8.484 9.732 1.546 1.438 3.216 3.174 3.71 3.857 1.719 2.37 2.293 2.895 2.61 2.383zm-2.473-4.993c-.004-.17-.766-1.896-1.693-3.836-.928-1.94-1.776-3.825-1.885-4.19-.11-.363-.32-.812-.468-.998-.148-.185-.2-.407-.113-.494.24-.241 1.704 1.464 2.618 3.05.452.786 1.143 1.798 1.537 2.25.66.76.726 1.046.85 3.734l.135 2.91-.487-1.058c-.268-.582-.49-1.198-.494-1.368zm-1.33-.19c0-.17-.208-.495-.463-.722-.255-.227-1.04-1.031-1.747-1.787-1.155-1.238-1.303-1.54-1.484-3.02-.166-1.355-.177-2.405-.032-3.07.037-.17 4.52 8.74 4.52 8.985 0 .126-.18.16-.397.077-.22-.084-.397-.292-.397-.462zm-38.415-2.347c-.742-1.426-.94-2.07-.824-2.69.194-1.031 2.168-5.18 2.465-5.18.292 0 .47 1.863.655 6.839l.15 4.06-.735-.577c-.404-.317-1.174-1.42-1.711-2.452zm3.049 2.119c.08-.328.029-2.74-.114-5.358-.3-5.534-.332-6.944-.242-10.702.077-3.26.077-3.26 2.196 1.005.749 1.506 1.405 2.608 1.458 2.449.142-.426-.698-2.811-1.24-3.52-.256-.335-.844-1.28-1.306-2.097-.785-1.39-.84-1.658-.846-4.1-.003-1.438-.128-3.388-.277-4.334-.15-.946-.32-2.434-.376-3.307l-.102-1.588 1.24 1.326c1.797 1.92 2.607 2.942 3.984 5.024l1.225 1.852-.07 2.216c-.118 3.663-1.11 9.599-1.635 9.774-.154.05-.28.452-.28.89 0 1.764-1.271 4.787-1.343 3.194-.011-.255-.08-.321-.15-.147-.07.174.005.564.168.868.317.593.266.814-1 4.372-.744 2.087-1.063 2.778-1.284 2.778-.083 0-.086-.268-.006-.595zm1.764-7.782c0-.145-.38-.85-.843-1.566-1.066-1.646-.983-1.548-1.16-1.37-.084.083.29.787.83 1.565 1.199 1.725 1.173 1.695 1.173 1.37zm34.925 2.92c0-.2-.09-.364-.2-.364-.108 0-.517-.57-.907-1.265-.391-.696-1.675-2.273-2.854-3.506-1.798-1.88-2.223-2.496-2.634-3.828a48.201 48.201 0 0 0-1.163-3.24c-.37-.91-.573-1.655-.452-1.655.36 0 4.83 4.5 6.242 6.282.718.907 1.345 1.535 1.393 1.395.22-.656-4.095-5.464-7.53-8.388l-1.612-1.372-1.28-3.92c-.704-2.155-1.506-4.305-1.782-4.778-.277-.473-.414-.86-.305-.86.729 0 6.97 6 8.728 8.39.82 1.117 1.509 2.518 2.143 4.366 1.209 3.524 1.743 5.44 1.79 6.426.02.437.12.925.222 1.086.1.16.308 1.172.46 2.249.6 4.245.593 4.055.147 3.684-.223-.185-.406-.5-.406-.701zm-7.613-1.922c-1.476-1.74-1.554-1.894-1.75-3.47-.24-1.947-.34-8.73-.126-8.73.179 0 1.4 2.85 1.7 3.969.098.363.64 1.756 1.205 3.095.962 2.279 1.027 2.6 1.019 5.027l-.01 2.593-.526-.661c-.29-.364-.97-1.184-1.512-1.823zm-33.785 1.105c-.1-.395-.545-1.474-.99-2.398-.646-1.338-.756-1.798-.542-2.26a34.76 34.76 0 0 0 .499-1.135c.506-1.228 4.214-7.497 4.438-7.504.14-.005.17 1.563.074 3.762l-.166 3.77-1.33 2.613c-.732 1.437-1.331 2.896-1.331 3.242 0 .854-.43.795-.652-.09zm29.129-6.69a98.98 98.98 0 0 0-1.885-2.746c-.611-.85-.927-1.588-.927-2.161 0-.48-.09-1.09-.198-1.356-.152-.372-.23-.255-.33.502l-.134.987-2.214-2.996c-2.531-3.424-2.593-3.53-3.762-6.386-.476-1.164-.961-2.246-1.08-2.404-.924-1.243-1.831-5.862-1.812-9.237.015-2.707.108-3.32.926-6.086a287.39 287.39 0 0 0 .57-1.947c.07-.248.36-.106.94.46.46.45 1.025.88 1.254.953.229.072.814.996 1.3 2.053.885 1.923 1.148 2.658 2.008 5.625.566 1.95 2 5.16 2.306 5.16.124 0 .226.283.226.63 0 .38.185.679.466.752.84.22 2.07 3.23 4.02 9.84.417 1.41.545 2.624.56 5.292.01 1.904.107 4.078.215 4.832l.195 1.37-.843-.841c-.464-.463-1.274-1.496-1.801-2.297zm-3.15-10.405c.034-1.922.224-4.355.423-5.406.198-1.051.29-1.982.204-2.068-.547-.547-1.366 9.333-.872 10.52.102.247.213-1.124.246-3.046zm-28.238 11.066c-.237-.555-.822-3.624-1.344-7.057-.347-2.284-.401-2.15 2.08-5.23 1.41-1.753 2.152-3.215 2.99-5.902.352-1.127.704-2.05.782-2.05.445-.004 1.134 4.624 1.122 7.539-.017 4.198-.274 4.88-4.635 12.322-.254.433-.448.873-.432.98.068.446-.086.689-.206.324a14.099 14.099 0 0 0-.357-.926zm-62.455-7.43c.444-.7.808-1.37.808-1.488 0-.118.48-1.342 1.07-2.72 1.415-3.313 2.37-5.968 2.37-6.595 0-.28.072-.435.162-.346.27.27.386 6.805.12 6.805-.134 0-.282.16-.33.357-.097.408-4.768 5.5-4.912 5.355-.052-.052.268-.668.712-1.368zm-1.833-2.19c.009-5.118 1.134-13.531 1.81-13.531.103 0 .409-.387.68-.86.545-.952 1.88-2.3 4.26-4.3a80.339 80.339 0 0 0 1.94-1.666c.586-.553.596-.256.06 1.82-.692 2.683-.96 3.312-2.02 4.756-.502.686-.914 1.372-.914 1.525 0 .152-.822 1.274-1.825 2.49-2.716 3.297-4.015 5.495-3.245 5.495.122 0 .364-.311.538-.692.354-.78 2.448-3.596 3.41-4.588l.63-.65-.188.782c-.415 1.727-2.34 7.484-2.958 8.85-1.183 2.616-1.39 3.12-1.39 3.408 0 .155-.178.213-.396.13-.32-.123-.396-.707-.393-2.97zm61.956-9.166c.032-5.876.77-11.066 2.053-14.443.604-1.59 2.26-4.397 2.964-5.026.81-.721 1.07-1.837.88-3.75-.234-2.342-1.033-5.413-1.56-5.994-.23-.254-.417-.595-.417-.758 0-.435-1.543-1.822-2.91-2.614-.655-.38-1.49-.957-1.852-1.284-.753-.677-5.03-3.327-7.012-4.345-.728-.373-1.382-.745-1.455-.824-.073-.08-.728-.486-1.455-.902-.728-.416-1.607-1.036-1.955-1.376-.933-.916-1.34-.813-1.094.278.406 1.803 2.736 6.648 3.67 7.635.679.716.82.992.506.992-.24 0-.508-.12-.598-.265-.23-.373-1.34-.33-1.657.067-.256.317-.698 1.847-.72 2.494-.016.454-.402.772-.397.328.002-.206.176-1.09.387-1.963.455-1.883.503-3.1.136-3.468-.293-.292-1.801-3.74-2.825-6.453-.357-.946-.907-2.018-1.222-2.382-.316-.364-.403-.512-.194-.33.21.18.574.33.81.33.238 0 .958.336 1.602.747 1.08.689 5.28 3.198 10.43 6.23 2.607 1.537 2.79 1.649 4.708 2.879.85.546 1.764.992 2.029.992.305 0 .548.267.662.728.1.4.39.966.646 1.257 2.319 2.64 3.176 7.953 1.857 11.509-.736 1.983-.84 5.129-.377 11.377.6 8.11.153 10.04-3.5 15.102l-1.527 2.115-.318-2.192c-.175-1.206-.308-4.217-.295-6.69zm37.65 3.308c-1.19-1.237-2.56-2.547-3.044-2.91-2.715-2.036-3.537-2.887-4.223-4.366-.827-1.786-2.382-6.978-2.218-7.406.085-.222-.05-.833-.298-1.358-.405-.853-.41-.996-.05-1.356.36-.36.536-.294 1.676.626.7.565 1.517 1.265 1.815 1.556.639.625 4.89 6.984 4.89 7.314 0 .125.112.227.248.227s.33.268.435.595c.104.328.634 1.31 1.18 2.183.545.873 1.495 2.897 2.11 4.498.617 1.6 1.285 3.285 1.485 3.744.585 1.34.42 1.36-.746.092-.603-.654-2.07-2.202-3.26-3.44zm-26.012-1.572c-.246-.227-1.1-1.175-1.895-2.107-1.447-1.694-2.104-3.015-2.118-4.26-.004-.363-.265-1.434-.58-2.38-.47-1.415-.571-2.353-.577-5.292-.007-3.863.218-5.676.67-5.397.54.334 4.147 6.135 4.935 7.94 1.516 3.47 2.582 8.497 2.85 13.437l.158 2.938-1.497-2.233c-.823-1.228-1.7-2.42-1.946-2.646zm-66.667-1.68c.05-2.147.189-3.452.378-3.571.354-.223 2.066-4.298 2.342-5.573.33-1.528.655-.75 1.734 4.155.267 1.216.513 3.03.545 4.03l.06 1.82-1.696 1.92c-.933 1.058-1.994 2.262-2.358 2.678l-.661.755-.212-1.415c-.117-.778-.176-2.938-.133-4.8zm-31.191 1.33c.085-.62.049-1.595-.08-2.166-.13-.571-.302-3.19-.385-5.818l-.15-4.78.506 1.324c.28.728.7 1.978.935 2.778.235.8.554 1.634.71 1.853.227.318.246.29.098-.133-.102-.29-.544-1.84-.983-3.44-.44-1.6-.963-3.505-1.166-4.233-.883-3.178-.958-7.316-.19-10.518l.43-1.787.57 1.258c.528 1.165 2.082 5.792 3.31 9.857.722 2.388.438.388-.413-2.91-.728-2.82-1.323-4.598-2.701-8.07-.903-2.275-.944-2.52-.912-5.424.032-2.98.666-8.155 1.093-8.918.246-.44.602.027 1.503 1.97.286.616.61 1.122.719 1.124.109.002.198.142.198.313 0 .17.166.497.37.727.62.702 2.698 6.078 3.59 9.289l.845 3.035-.578 2.25c-.81 3.155-1.683 6.116-3.16 10.715a401.668 401.668 0 0 0-2.255 7.276c-1.587 5.362-2.24 6.883-1.904 4.428zm4.394-13.578c-.013-.31-.075-.371-.16-.16-.076.19-.067.419.02.507.089.088.15-.07.14-.347zm-6.068 11.399c-.263-.582-.81-1.773-1.215-2.646-1.043-2.251-1.007-3.592.15-5.5.573-.945.98-1.387 1.09-1.18.096.18.25 2.294.345 4.696.094 2.4.223 4.84.285 5.423.063.583.049.88-.031.662-.08-.218-.36-.873-.624-1.455zm-8.044-1.216a429.145 429.145 0 0 0-3.366-3.132l-1.227-1.121-.18-2.557c-.097-1.407-.237-2.796-.31-3.087-.112-.45-.052-.43.4.133.292.363.797 1.197 1.122 1.852.656 1.319 5.447 8.913 6.26 9.92 1.26 1.564.5.998-2.7-2.01zm1.883-.174c-.538-.764-.98-1.443-.98-1.51 0-.065-.85-1.523-1.888-3.24a272.804 272.804 0 0 1-2.387-3.998c-.7-1.234-2.065-4.282-1.92-4.282.068 0 .626.455 1.24 1.01 2.564 2.319 3.043 2.34.674.03-2.182-2.125-6.301-7.27-6.301-7.87 0-.103-.4-.782-.888-1.508-1.04-1.544-1.407-2.51-.957-2.51.34 0 3.077 1.664 4.184 2.544.387.307.97.642 1.299.745.327.102.595.283.595.402 0 .119.238.278.53.354.29.077.528.06.528-.035 0-.224-5.338-3.8-6.884-4.612-.843-.442-1.778-1.38-3.237-3.251a203.664 203.664 0 0 0-2.448-3.095c-.217-.257-.395-.566-.395-.687 0-.122-.167-.567-.37-.99-.595-1.234-.755-1.958-.433-1.958.16 0 .912.314 1.67.7a51.993 51.993 0 0 0 3.128 1.41c2.558 1.04 5.992 3.147 6.873 4.216.868 1.053 1.66 3.302 2.986 8.49.503 1.965 1.358 4.94 1.9 6.615.544 1.673 1.007 3.22 1.03 3.44.024.218.358 1.05.743 1.852 1.344 2.794 3.904 9.702 3.904 10.536 0 .149-1.167-1.34-2.196-2.798zm44.31-.092c-.05-1.18-.268-2.816-.488-3.638-1.47-5.481-1.496-6.428-.252-8.566 1.045-1.795 1.78-3.883 2.12-6.026l.317-1.984.872 2.646a165.708 165.708 0 0 0 1.359 3.968 88.834 88.834 0 0 1 1.056 3.127c.537 1.698.546 1.864.152 2.85-.23.575-.42 1.222-.42 1.438 0 .986-3.903 8.328-4.427 8.328-.111 0-.241-.964-.29-2.143zm36.404.958c-.843-.36-.826-.365.725-.248l1.587.12-1.323-.39c-.727-.215-1.566-.395-1.863-.402-.71-.015-3.56-3.01-3.56-3.738 0-.094.743-.323 1.653-.511 2.087-.43 3.61-1.302 4.964-2.84 2.45-2.784 3.494-6.523 3.416-12.237-.025-1.82-.03-3.4-.012-3.515.048-.31 1.09.31 1.09.65 0 .162.197.437.438.613.48.35.28.929-.32.929-.21 0-.382.12-.382.265 0 .325.067.326.875.02.543-.207.698-.145.987.396.19.353.294.675.233.716-.06.042-.527.283-1.037.536-.747.372-.798.44-.264.356a5.916 5.916 0 0 0 1.12-.297c.347-.146.528-.016.736.53.15.4.23.77.176.825-.054.055-.712.245-1.462.423s-1.364.42-1.364.538c0 .24 1.752-.025 2.413-.365.53-.273.762-.06.762.695 0 .55-.606.89-2.882 1.608-.203.064-.308.177-.234.252.135.134 2.102-.243 2.939-.564.362-.14.442.002.442.777 0 .925-.036.958-1.522 1.392-.836.245-1.38.494-1.206.554.3.103 1.55-.186 2.53-.587.396-.162.462-.033.462.893 0 .967-.077 1.097-.727 1.23-.4.083-1.204.289-1.786.458-.941.275-.982.319-.374.399.377.05 1.19-.085 1.807-.297l1.122-.387-.16 2.09c-.087 1.15-.305 2.534-.483 3.075-.28.848-.47 1.013-1.38 1.202-.58.12-1.173.35-1.321.51-.268.29-.17.277 1.649-.208 1.39-.371.266 1.73-1.162 2.172-.956.297-.973.318-.261.344.674.025.72.077.399.463-.406.489-3.188 1.83-4.202 2.027-.88.17-2.178-.02-3.238-.472zm2.84-1.958c.384-.16.056-.254-1.19-.336-.945-.063-2.124-.318-2.62-.566-1.06-.532-1.084-.536-1.084-.175 0 .699 3.803 1.535 4.895 1.077zm.927-2.148c0-.146-.684-.267-1.521-.27-.837-.001-1.82-.07-2.183-.151-.638-.143-.643-.133-.148.269.582.47 3.852.6 3.852.152zm-.53-1.692c0-.057-.177-.172-.396-.256-.218-.084-.397-.037-.397.104 0 .14.179.256.397.256.219 0 .397-.047.397-.104zm5.425-.825.794-.376-1.058.157c-.583.087-1.237.258-1.456.38-.706.396.852.25 1.72-.161zm0-1.905c.997-.24 1.119-.674.132-.47-1.177.24-1.966.653-1.19.62a6.697 6.697 0 0 0 1.058-.15zm-55.18 1.452c.675-3.67 1.265-5.905 1.873-7.097.554-1.086 3.792-4.203 5.418-5.216.582-.362 1.75-1.388 2.596-2.28 1.71-1.8 1.657-1.96.695 2.084-1.144 4.812-2.642 7.668-5.145 9.812-.836.715-2.487 2.26-3.67 3.43-1.182 1.172-2.18 2.115-2.214 2.096-.036-.018.166-1.291.448-2.83zm104.26.876c-1.974-.34-3.627-.96-4.66-1.748-.473-.361-.933-.656-1.022-.656-.088 0-.305-.124-.48-.274-.176-.15-.558-.454-.85-.675-.476-.361-.02-.39 4.63-.277 5.599.135 6.919.358 10.98 1.862 1.31.485 2.845.965 3.409 1.067 2.88.52-2.007 1.215-7.376 1.05-1.747-.055-3.83-.212-4.63-.35zm-135.847-2.264c-1.106-3.258-1.125-4.117-.148-6.887.46-1.31 1.007-2.645 1.213-2.968.206-.322.374-.691.374-.82 0-.321 1.91-3.518 2.03-3.397.054.053-.04.732-.205 1.509-.286 1.333-.243 3.437.17 8.322.135 1.582.078 1.986-.394 2.778-.304.509-.878 1.604-1.276 2.433-.397.83-.795 1.425-.885 1.323-.09-.101-.486-1.134-.88-2.293zm-14.848-3.6c-.964-4.472-1.517-9.373-1.06-9.373.399 0 4.863 6.752 5.31 8.029.254.727.492 2.533.58 4.407l.15 3.175-2.307-2.27c-2.202-2.165-2.324-2.346-2.673-3.968zm88.386 5.41c-.582-.087-1.237-.306-1.455-.485-.22-.18-.58-.39-.803-.47-.75-.262-1.88-2.257-2.388-4.215-1.333-5.136-.716-10.974 1.655-15.658.747-1.476 2.563-3.352 3.785-3.91.588-.27 1.677-.487 2.452-.49 1.388-.006 1.393-.002 1.22.722-.095.4-.276.928-.402 1.173-.67 1.31.085 2.862 1.39 2.862.637 0 .787-.15 1.06-1.06.174-.581.402-1.057.507-1.057.466 0 1.34 2.852 1.82 5.949.499 3.196.505 3.52.11 6.056-.743 4.806-1.316 6.563-2.74 8.402-.703.909-1.674 1.87-2.157 2.136-.875.48-1.151.484-4.054.046zm1.845-1.398c.395-.154.196-.247-.813-.381-.735-.098-1.565-.35-1.845-.563-.578-.437-.907-.504-.907-.184 0 .274 2.18 1.376 2.675 1.35.202-.01.603-.11.89-.222zm2.124-1.742c-.663-.225-3.815-.312-3.685-.103.079.129 1 .225 2.047.213 1.046-.011 1.783-.06 1.638-.11zm-4.101-.512c0-.072-.238-.26-.53-.415-.29-.156-.53-.224-.53-.151 0 .073.239.26.53.416.29.155.53.223.53.15zm3.704-1.458c.305-.21.168-.273-.586-.276-.54-.002-1.534-.191-2.208-.42-1.442-.49-1.837-.332-.675.269 1.047.54 2.958.777 3.469.427zm-.53-2.128c-.654-.104-1.65-.393-2.21-.642-1.383-.612-1.548-.33-.207.355a4.924 4.924 0 0 0 2.34.512l1.268-.035zm1.324-1.796c0-.138-.608-.323-1.351-.411-.743-.088-1.517-.298-1.72-.466-.276-.23-.37-.23-.37-.003 0 .364.793.686 2.316.942.665.11 1.125.086 1.125-.062zm.05-1.828c-.192-.077-.42-.067-.508.02-.088.088.068.15.347.14.309-.013.37-.076.16-.16zm-2.167-.625c-1.836-.634-2.31-.63-.926.012.582.27 1.356.49 1.72.49.425 0 .142-.178-.794-.502zm2.38-1.563c0-.086-.505-.29-1.123-.453a80.279 80.279 0 0 1-1.786-.492c-.63-.186-.64-.173-.21.282.422.445 3.12 1.018 3.12.663zm0-1.808c0-.106-.535-.386-1.19-.622-1.15-.413-1.544-.307-.86.23.427.336 2.05.646 2.05.392zm-.263-2.174c0-.145-.246-.264-.545-.264-.3 0-.471.119-.381.264.09.146.335.265.544.265.21 0 .382-.12.382-.265zm-6.515-.463c-.25-1.038-.365-1.073-.365-.11 0 .46.122.838.27.838.16 0 .199-.296.095-.728zm.94-1.307c.01-.464-.1-.918-.246-1.008-.318-.196-.318.585 0 1.323.19.446.23.397.246-.315zm1.073-1.852c.002-.464-.115-.918-.261-1.008-.34-.21-.34.93 0 1.455.195.302.257.195.26-.447zm1.327-1.817c0-.227-.121-.338-.27-.247-.147.092-.2.277-.116.413.227.367.386.299.386-.166zm70.897 20.684c-1.534-.502-3.23-.995-3.77-1.097-.54-.1-.982-.266-.982-.367 0-.101.894-.334 1.986-.517 1.82-.306 2.045-.293 2.712.156.4.27 1.024.643 1.388.83.364.187 1.197.808 1.852 1.38 1.11.97 1.138 1.023.397.784-.437-.141-2.05-.667-3.583-1.17zm-54.875-2.214c.432-2.655.852-4.246 1.555-5.887 1.314-3.065 3.42-7.364 3.62-7.39.215-.024.492 1.678.495 3.043.002.86-.196 1.313-.983 2.249-.543.645-1.083 1.24-1.2 1.326-.745.536-2.64 5.378-3.108 7.943-.39 2.139-.458 2.354-.74 2.354-.127 0 .036-1.637.36-3.638zm-43.95-2.314c-.098-.582-.57-2.037-1.05-3.233-.48-1.197-1.08-3.134-1.333-4.305-.43-1.99-.432-2.301-.035-4.704.235-1.416.5-3.603.59-4.86.258-3.577.887-5.515 3.126-9.62l.432-.795.014 1.852a40.245 40.245 0 0 0 .258 3.837c1.392 11.286 1.37 14.2-.158 20.19-.906 3.553-1.031 3.863-1.332 3.308-.183-.336-.414-1.088-.512-1.67zm77.802.758-1.853-.893 1.297.134c.713.074 1.462.272 1.665.44.242.2.457.217.63.044.168-.168.846-.175 1.907-.02 4.073.598 13.902-.314 17.123-1.588.364-.144 3.043-.887 5.953-1.651 8.07-2.12 13.678-3.723 14.51-4.152.415-.213.8-.341.856-.285.13.13-2.436 1.524-2.807 1.524-.153 0-1.041.358-1.975.794-.934.437-1.77.794-1.858.794-.088 0-.811.298-1.607.66-.795.365-1.591.664-1.77.664-.176 0-.632.164-1.012.362-1.556.812-7.96 2.834-10.554 3.333-4.197.806-7.263 1.006-13.23.862l-5.423-.13zm-142.324-1.921c-.133-.234-.312-.484-.398-.557-.494-.418-4.31-5.963-4.872-7.078-.487-.967-.502-2.243-.07-5.886.2-1.674.312-3.52.25-4.101l-.11-1.06.486.927c.558 1.063 2.563 3.885 3.83 5.392 1.502 1.788 1.74 2.494 1.934 5.74.16 2.687.823 7.137 1.336 8.977.147.527-.052.398-.98-.634-.64-.713-1.273-1.487-1.406-1.72zm144.97.63c-1.165-.21-2.622-.385-3.238-.388l-1.12-.005.503-.828c.277-.456.434-1.01.349-1.233-.136-.353.207-.383 2.733-.238 3.133.18 4.234.427 8.016 1.797 2.198.797 2.394.918 1.72 1.066-1.434.315-6.846.212-8.964-.171zm10.349-.427a19.388 19.388 0 0 1-2.148-.757 27.953 27.953 0 0 0-2.068-.787c-.555-.18-.97-.368-.918-.418.207-.207 5.704-.914 7.105-.914 1.276 0 4.183.416 6.53.936.328.073.596.02.596-.117 0-.136-.387-.34-.86-.45l-.86-.202.926-.193c2.198-.456 5.525-1.098 6.747-1.301a223.733 223.733 0 0 0 5.16-.927c.364-.074.044.16-.71.518-1.22.579-8.475 2.53-9.41 2.53-.2 0-.845.232-1.433.516-1 .482-2.832.99-5.645 1.565-1.654.337-1.784.338-3.012.002zM87.197 94.605c-.598-5.706-.551-9.243.138-10.566.665-1.275 2.65-3.98 5.072-6.907 1.628-1.97 1.785-2.093 1.78-1.405-.004.415-.12 1.23-.255 1.812-.505 2.15-1.112 8.516-.967 10.126.143 1.573.093 1.766-.95 3.704-1.875 3.492-2.58 5.043-3.306 7.287l-.702 2.167-.205-1.19c-.112-.656-.385-2.918-.605-5.028zm117.994 4.847c-.838-.862-1.436-2.057-1.162-2.32.054-.05.574.137 1.156.418 1.1.532 1.775 1.265 2.096 2.28.32 1.01-.968.778-2.09-.378zm-14.707.246c-.203-.4-.76-1.216-1.235-1.813-.476-.597-.865-1.162-.865-1.255 0-.093.268-.472.596-.843.49-.556 1.483-2.1 2.778-4.321.164-.282.717-.063 2.505.994 1.262.745 2.366 1.47 2.453 1.612.278.45-.412 1.379-2.616 3.515-1.18 1.144-2.32 2.25-2.532 2.46-.537.524-.66.485-1.084-.35zm17.81-.4c-.706-.555-.257-.744 1.588-.67 1.466.06 1.918.169 1.918.463 0 .727-2.646.884-3.506.207zm-84.592-3.304c.752-3.276 1.655-6.66 1.96-7.342.129-.291.61-1.482 1.07-2.646 1.127-2.855 3.54-7.637 4.674-9.26 1.295-1.854 2.885-3.45 4.623-4.642 1.964-1.347 3.485-3.113 4.462-5.182.86-1.818.987-3.081.504-4.996-.275-1.095-.373-1.19-1.653-1.592-.75-.235-1.6-.535-1.89-.668-1.654-.752-5.254-1.905-8.11-2.597-1.797-.436-4.577-1.11-6.178-1.495-1.6-.387-3.03-.802-3.178-.924-.364-.302-.918.908-.626 1.369.123.194.226.79.229 1.326.003.699.263 1.312.93 2.185.509.667.926 1.27.926 1.34 0 .07-.268.098-.596.064-.446-.048-.69.15-.973.797-.427.97-.976 1.18-.686.264.51-1.614.447-2.03-.632-4.25-.598-1.231-1.25-2.373-1.448-2.537-.554-.46-3.084-1.143-3.668-.99-.287.075-1.55-.046-2.808-.268-1.257-.222-3.06-.503-4.006-.624a54.638 54.638 0 0 1-2.514-.373c-1.566-.303-7.344-.721-7.928-.575-.403.1-.756-.026-1.09-.395l-.493-.546 2.639.163c4.444.274 5.989.403 8.328.694 1.237.154 4.276.242 6.753.195 4.336-.082 4.533-.063 5.26.51.43.337 1.127.596 1.609.596.468 0 1.196.105 1.618.233.422.129 1.898.482 3.28.786 5.93 1.303 7.73 1.769 11.02 2.85 5.752 1.893 6.448 2.195 6.724 2.92.136.36.248 1.544.248 2.63 0 2.358-.705 4.766-1.93 6.6a38.417 38.417 0 0 0-1.245 1.98c-.218.392-.827 1.116-1.353 1.609-1.981 1.859-3.79 6.787-4.182 11.395-.144 1.699-.45 3.539-.68 4.089-.892 2.134-2.66 4.042-5.974 6.444-.5.36-1.503 1.28-2.23 2.04a84.897 84.897 0 0 1-1.35 1.392c-.016.006.238-1.15.564-2.57zm82.674.992c-.51-.436-1.075-.792-1.257-.793-.182 0-.33-.121-.33-.27 0-.901 5.898-2.955 10.318-3.591.51-.074 1.09-.19 1.29-.257.199-.068 1.568-.198 3.042-.29l2.68-.165-2.117 1.44a407.744 407.744 0 0 0-3.75 2.587c-1.562 1.097-1.745 1.156-4.313 1.389-1.475.133-2.943.348-3.263.477-.961.387-1.332.302-2.3-.527zm11.474.22c-.927-.171-1.682-.38-1.68-.464.013-.324 5.06-3.771 6.467-4.415 1.339-.613 1.786-.677 4.584-.653 1.705.014 3.47.095 3.926.179.796.147.743.196-1.456 1.354-5.534 2.917-7.334 3.78-8.345 4.009-1.503.338-1.605.338-3.496-.01zm-17.643-1.616c-1.186-1.07-6.04-4.424-6.403-4.424-.12 0-.407-.163-.636-.361-.23-.2-1.411-.873-2.625-1.498-1.648-.848-2.26-1.052-2.413-.804-.138.224-.303.052-.505-.526-.525-1.507-.38-1.682.693-.833.546.432 2.48 1.648 4.3 2.702 4.338 2.515 5.968 3.535 8.42 5.27 1.117.79 2.063 1.457 2.103 1.483.04.026-.002.242-.094.48-.153.398-.23.396-.95-.028-.43-.254-1.281-.911-1.89-1.46zm24.7 1.025c.212-.204 1.429-.916 2.703-1.582 1.273-.666 2.583-1.384 2.91-1.595.327-.211 1.242-.638 2.034-.948 1.35-.527 1.625-.545 4.366-.274 1.609.16 3.382.357 3.939.44l1.013.15-2.072.927c-1.14.51-3.023 1.353-4.188 1.876-2.075.93-2.202.953-6.482 1.115-2.401.09-4.42.187-4.488.214-.068.026.05-.12.264-.323zm14.542-2.037c3.042-1.473 3.827-1.6 7.407-1.204 2.532.28 3.08.57 1.49.789-.667.09-1.424.28-1.682.42-.257.14-1.6.4-2.982.576-1.382.176-3.11.404-3.836.507-3.297.467-3.344.34-.397-1.088zm-51.15.093c.23-.891.23-1.015-.024-3.588l-.204-2.066 1.618.816c1.375.695 1.577.885 1.348 1.273a99.89 99.89 0 0 1-1.2 1.912c-.51.8-1.001 1.663-1.09 1.918-.262.756-.654.526-.45-.265zm8.84-3.152c-.668-.387-1.274-.776-1.346-.862-.073-.087-.592-.395-1.154-.685-.562-.29-1.077-.667-1.146-.84-.07-.172.37-1.16.973-2.194.605-1.035 1.165-2.29 1.247-2.79.13-.8.26-.927 1.105-1.067a14.848 14.848 0 0 0 1.69-.39c1.36-.43 3.746-.575 4.528-.274.733.283.754.342.588 1.594-.095.715-.318 1.58-.496 1.92-.742 1.423-4.21 6.293-4.481 6.293-.162 0-.84-.317-1.508-.705zm-166.984-.552c-1.487-.758-2.648-2.241-3.057-3.903l-.195-.793.737.87c.405.48.795.814.865.744.158-.158-.913-1.752-1.491-2.221-.352-.285-.42-.967-.407-4.101.017-3.883.428-6.048 1.868-9.844.63-1.662 2.753-5.076 3.932-6.327 1.43-1.517 3.45-1.123 3.627.708.072.748.189.866.927.938.797.077 1.69-.47 1.967-1.204.054-.145.353-.342.663-.438.452-.14.773.075 1.616 1.09 1.44 1.73 1.718 2.772 1.71 6.387-.006 2.423-.155 3.67-.702 5.857-2.126 8.507-3.255 10.585-6.628 12.203-2.072.994-3.533 1.003-5.432.034zm6.557-.868c.96-.386.683-.734-.33-.417-.51.16-.927.38-.927.49 0 .258.506.229 1.257-.073zm.852-1.834c.7-.443.09-.575-.821-.177-.822.358-.84.39-.23.406.364.01.837-.093 1.05-.23zm.67-1.862c.206-.335-.144-.335-.662 0-.342.22-.335.257.05.26.246.003.52-.114.61-.26zm-9.814-1.058-.873-1.4c-.344-.553-.683-.946-.754-.875-.17.17.873 1.85 1.436 2.31.38.31.406.306.19-.035zm10.607-.53c.09-.145.044-.264-.101-.264-.146 0-.338.119-.428.265-.09.145-.045.264.1.264.146 0 .339-.12.429-.264zM28.84 83.54c0-.155-.128-.361-.286-.46-.157-.096-.514-.55-.792-1.006-.592-.97-.682-.743-.13.326.435.84 1.208 1.57 1.208 1.14zm-.29-3.41c-.193-.32-.408-.526-.478-.457-.07.07.088.333.35.584.456.436.462.43.127-.127zm11.8-1.4c.09-.146.037-.265-.117-.265s-.28.119-.28.264c0 .146.052.265.117.265.064 0 .19-.12.28-.265zm-12.59-.155c-.011-.308-.074-.371-.16-.16-.075.19-.066.42.022.507.088.088.15-.068.14-.347zm1.345-.785c0-.328-.843-1.746-.965-1.624-.142.142.63 1.77.84 1.77.069 0 .125-.066.125-.146zm11.162-.565c-.19-.076-.42-.067-.507.02-.088.089.068.15.347.14.309-.012.37-.075.16-.16zm-9.15-.407c-.423-.314-1.102-1.293-1.51-2.175-.573-1.236-.745-1.447-.754-.92-.014.77 1.383 3.033 2.116 3.425.85.455.939.26.147-.33zm9.63-1.396c.382-.22.494-.378.264-.378-.218 0-.694.17-1.058.378-.382.218-.494.378-.265.378.219 0 .695-.17 1.059-.378zm-9.26-1.317c0-.086-.19-.447-.423-.802-.232-.354-.58-1.213-.77-1.91-.323-1.171-.35-1.2-.372-.392-.023.86.778 2.775 1.296 3.096.148.09.268.095.268.009zm9.26-.8c.364-.208.542-.378.397-.378-.146 0-.563.17-.926.378-.364.208-.543.378-.397.378.145 0 .562-.17.926-.378zm-7.525-1.067c-.283-.213-.596-.388-.697-.388-.101 0-.458-.676-.794-1.503-.64-1.577-1.036-1.548-.513.037.304.92 1.624 2.267 2.207 2.25.17-.004.08-.182-.203-.396zm7.165-1.161c1.318-.804 1.293-1.12-.03-.38-.66.368-1.198.718-1.198.779 0 .228.425.09 1.228-.4zm-6.21-.493c-.563-.473-1.063-1.263-1.381-2.185l-.5-1.444-.008 1.01c-.013 1.548.73 2.6 2.232 3.16.338.125.21-.075-.344-.541zm6.154-1.796c.716-.716.453-.95-.378-.336-.437.323-.794.624-.794.67 0 .253.817.02 1.172-.334zM34 67.372c-.146-.96-.304-1.258-.543-1.02-.08.08.04.547.267 1.036l.413.89zm67.868 20.956c-.96-3.857-2.225-6.801-4.783-11.134-.284-.48-.838-1.612-1.231-2.513l-.715-1.64-.01-7.44-.01-7.44.66.518c1.114.874 3.443 3.76 3.316 4.107-.067.18.008.299.165.264.288-.063.639.472 2.226 3.398 2.388 4.403 3.28 9.132 2.772 14.686-.524 5.727-1.24 9.968-1.618 9.588-.13-.128-.476-1.206-.772-2.394zm-38.235-.008c-.436-.836-.853-1.58-.926-1.652-.265-.264-1.3-2.55-1.858-4.101a45.574 45.574 0 0 0-1.076-2.71c-.278-.616-.506-1.271-.507-1.455-.001-.183-.286-1.17-.633-2.192-.347-1.023-.893-3.153-1.213-4.734-.516-2.546-.561-3.344-.402-7.004l.18-4.13-.837-1.25c-.46-.687-.763-1.37-.672-1.518.096-.154.002-.206-.217-.122-.212.08-.448.045-.525-.08-.077-.125.084-.245.36-.265.52-.04.955.55 2.245 3.045.638 1.235 1.082 1.637 3.799 3.432a35.857 35.857 0 0 1 8.368 7.703 92.714 92.714 0 0 0 1.815 2.246c.73.84 2.63 3.362 3.217 4.27 1.39 2.146 3.153 5.662 2.945 5.87-.168.169-1.532-.557-2.456-1.306-.417-.34-2.188-1.262-3.934-2.05-3.694-1.67-4.8-2.31-5.77-3.346-.996-1.062-4.97-8.298-5.864-10.676-1.25-3.32-1.816-4.518-2-4.22-.174.28 1.703 6.12 2.376 7.395.192.364 1.107 1.922 2.034 3.464.926 1.54 1.683 2.922 1.683 3.07 0 .146.348.746.773 1.332 1.168 1.613 1.36 2.683 1.224 6.818-.068 2.037-.178 3.942-.246 4.234-.067.29-.134 1.005-.15 1.587-.025 1.058-.025 1.058-.482.462-.251-.328-.814-1.28-1.25-2.117zm109.388 1.249c-.638-.342-.67-.767-.05-.642a55.48 55.48 0 0 0 1.504.26c.76.123.938.233.662.408-.51.322-1.49.31-2.116-.026zm18.708-1.181c-.218-.22-.512-.397-.652-.397s-.536-.296-.88-.657c-.342-.362-.828-.66-1.08-.662-.25-.003-.647-.296-.881-.653-.408-.622-.39-.694.414-1.694l.839-1.044 2.689.14c1.479.079 2.738.186 2.798.239.154.135-2.445 5.124-2.668 5.124-.1 0-.36-.178-.58-.396zm-79.646-1.18c-.798-.303-2.722-2-3.127-2.757-.288-.538-.285-.538.477-.048.753.486.759.485.335-.01-.238-.277-.82-1.196-1.292-2.042-1.01-1.81-1.088-3.113-.388-6.575 1.016-5.02 3.07-9.302 5.727-11.93.993-.981 1.967-1.785 2.164-1.785.22 0 .367.32.382.83.029 1.034 1.127 4.197 1.457 4.197.134 0 .16-.208.057-.463-.458-1.14-.896-2.94-.975-4.01-.105-1.436.437-1.773.69-.428.137.732.364 1.02 1.023 1.294 1.03.428 1.272.355 1.817-.542l.423-.698.609 1.3a32.244 32.244 0 0 1 .94 2.225l.334.926-.147-1.06c-.08-.581-.373-1.582-.65-2.222-.275-.641-.43-1.236-.344-1.322.086-.087.555.277 1.04.808 1.248 1.36 1.38 2.622.816 7.76-.59 5.367-1.666 9.105-3.32 11.538-2.768 4.074-4.117 5.226-6.144 5.252-.681.009-1.538-.098-1.904-.237zm2.086-1.07c.09-.145-.03-.264-.265-.264-.235 0-.355.119-.265.265.09.145.21.264.265.264.056 0 .175-.12.265-.264zm-3.89-3.571c-.24-.291-.862-1.237-1.382-2.101-.52-.865-.946-1.365-.946-1.112 0 .742.674 1.82 1.758 2.816.555.51.812.688.57.397zm.29-2.25c-.175-.363-.59-1.018-.921-1.456-.332-.437-.748-1.151-.927-1.587-.238-.582-.353-.674-.43-.347-.14.58.464 1.677 1.647 2.994.675.75.858.866.63.397zm.159-2.513c-.287-.436-.85-1.435-1.252-2.22-.67-1.308-.731-1.36-.731-.635 0 .796 1.048 2.499 2 3.252.48.378.479.359-.017-.397zm1.003-1.39c-.095-.254-.4-.873-.678-1.375a27.498 27.498 0 0 1-1.02-2.116l-.513-1.204.126.998c.069.548.558 1.71 1.086 2.58.963 1.584 1.32 1.985.999 1.118zm.023-3.472c-.368-.71-.736-1.782-.816-2.382-.08-.6-.26-1.09-.4-1.09-.402 0 .054 2.112.757 3.506.348.69.745 1.256.88 1.256.137 0-.053-.58-.421-1.29zm.825-3.472c-.09-.51-.232-1.313-.314-1.786-.083-.473-.27-.86-.414-.86-.36 0-.021 1.997.488 2.876l.404.696zm1.59-1.19c-.075-.437-.21-1.42-.303-2.184-.093-.764-.286-1.39-.43-1.39-.378 0-.085 2.34.432 3.44.43.915.433.917.3.133zm7.374-1.588c-.187-1.173-.924-2.803-1.07-2.37-.052.152.206.985.572 1.852.618 1.459.655 1.497.498.518zm-5.39.842c0-.063-.18-.62-.397-1.24-.218-.618-.397-1.52-.397-2.001 0-.483-.12-.951-.264-1.04-.403-.25-.324 2.124.105 3.15.312.747.953 1.508.953 1.13zm3.285-1.667c-.406-1.35-.553-1.6-.796-1.356-.206.207.452 2.009.856 2.344.224.187.207-.1-.06-.988zm67.675 17.3c.608-.106 1.153-.145 1.212-.087.058.059-.171.48-.51.94l-.616.832-.596-.746-.595-.746zm-16.456 1.252c0-.22.047-.397.104-.397.057 0 .173.178.256.397.084.218.037.397-.104.397-.14 0-.256-.18-.256-.397zm-84.008-1.257c.042-.473.157-1.991.256-3.374.19-2.66.748-6.483 1.233-8.466.966-3.95 2.557-8.731 2.904-8.731.123 0 .162-.16.088-.355-.075-.195.048-.507.272-.694.225-.186.41-.455.41-.598 0-.142.189-.657.42-1.145a16.52 16.52 0 0 0 .745-1.983l.323-1.095.507 1.672c.53 1.756.618 4.185.426 11.903l-.09 3.605-1.423 1.82c-3.776 4.825-4.717 6.107-4.977 6.78-.154.4-.374.727-.488.727-.113 0-.206.179-.206.397 0 .218-.107.397-.238.397s-.204-.387-.162-.86zm99.222-1.511c0-.584.334-1.123 1.312-2.116 1.797-1.825 2.937-2.211 6.58-2.232 2.6-.015 3.21.074 5.072.736 1.969.7 4.19 2.04 4.46 2.69.073.18-1.233.418-3.628.662-3.801.387-4.952.42-9.43.269-1.875-.064-2.75.022-3.44.334-.51.23-.926.424-.926.43zm-1.343-6.17c.08-.84.336-1.894.568-2.344.395-.764.492-.806 1.492-.646 1.257.2 2.35.718 1.862.88-.252.085-.236.245.067.677.863 1.233.537 2.185-1.522 4.44l-1.918 2.1-.347-1.79c-.191-.983-.282-2.475-.202-3.316zm8.153.95c.253-.066.729-.068 1.058-.004.33.063.122.117-.46.12-.582.003-.851-.05-.598-.115zm-2.974-.89c0-.297-.182-.893-.404-1.322-.222-.43-.3-.78-.176-.78.26 0 2.432 1.955 2.432 2.19 0 .14-.68.327-1.521.42-.182.019-.33-.21-.33-.507zM141.5 70.92c-.34-.13-.356-.298-.095-1.056.17-.495.51-1.123.758-1.396.247-.272.384-.56.305-.64-.08-.08.05-.63.288-1.223.388-.97.506-1.065 1.16-.934.625.125.81.009 1.294-.811l.564-.957.998.435c.549.24 1.266.494 1.593.566.612.134.8.704.33.995a.603.603 0 0 0-.255.478c.005.174.243.035.528-.308.809-.97 1.322-.584 1.019.766-.573 2.548-2.003 4.138-3.877 4.309-1.435.13-4.013.006-4.61-.224zm5.08-.407c0-.154-.12-.206-.266-.116-.145.09-.264.216-.264.28 0 .064.119.117.264.117a.273.273 0 0 0 .265-.28zm-1.01-.694c-.19-.076-.42-.067-.507.02-.088.089.069.15.347.14.309-.013.37-.075.16-.16zm-1.753-.472c.692-.524-.03-.53-.942-.008-.605.345-.615.379-.117.387.3.005.776-.165 1.059-.38zm-13.885 1.148c-2.053-.351-3.02-.79-4.19-1.9-.723-.687-.86-1.006-.86-2.02-.002-1.622-.447-3.145-1.214-4.163-.35-.462-.566-1.02-.482-1.24.098-.254-.296-.83-1.082-1.584-1.218-1.167-2.144-3.005-1.73-3.434.227-.235 5.936 1.115 7.529 1.78.526.22 1.032.614 1.124.875.37 1.047.903 2.127 1.674 3.386 1.51 2.469 1.504 2.43.663 3.309-.414.432-.97.855-1.236.939-.485.154-.68.646-.255.646.125 0 .765-.472 1.42-1.05 1.147-1.01 1.212-1.032 1.633-.567.413.457.389.523-.43 1.143-.476.362-1.223.85-1.66 1.085-.587.315-.665.43-.3.437.27.006 1.056-.402 1.743-.906.935-.686 1.324-.84 1.55-.615.195.195.213.41.05.607-.178.214-.086.298.31.284.858-.031.837.448-.045 1.038-.436.29-.793.632-.793.759 0 .126.408-.082.907-.463 1.076-.821 1.056-.818 1.735-.238.743.637.674.834-.46 1.32-1.987.853-3.223.98-5.601.572zm-.061-5.524c.603-.437 1.098-.913 1.098-1.056 0-.144-.566.167-1.257.692-1.557 1.182-1.535 1.16-1.208 1.16.148 0 .763-.358 1.367-.796zm31.659 4.767c-.093-.15.013-.194.249-.104.458.176.542.366.16.366-.135 0-.32-.118-.41-.262zm-3.838-1.93c-3.114-1.451-6.055-2.705-8.07-3.44a74.065 74.065 0 0 1-2.784-1.071c-1.15-.49-2.006-1.37-1.586-1.63.272-.167.95.079 3.047 1.107.436.214.98.428 1.21.476.597.125 6.032 2.79 6.414 3.144.177.164 1.24.752 2.362 1.307 1.123.555 2.116 1.13 2.207 1.277.11.178 0 .18-.325.01-.27-.14-1.384-.671-2.475-1.18zm-20.448.274c-.45-.328-1.738-1.508-2.86-2.622-1.592-1.58-2.278-2.514-3.111-4.234-.801-1.654-.977-2.227-.7-2.29.203-.045 1.536.312 2.962.794l2.593.877-1.521.08c-.88.045-1.522.2-1.522.37 0 .2.688.237 2.249.117 1.508-.116 2.594-.065 3.3.155.96.3 1.067.426 1.218 1.436.09.609.086 1.584-.013 2.168-.146.86-.325 1.11-.953 1.33-.95.33-1.03.683-.103.45l.67-.167-.543 1.065c-.3.586-.612 1.066-.695 1.066-.083 0-.52-.268-.97-.595zm.775-2.314c1.005-.405.913-.742-.11-.4-1.727.577-1.805.62-1.12.625a3.877 3.877 0 0 0 1.23-.225zm.027-1.586c.925-.564 1.2-.997.34-.538-.284.153-1.207.445-2.05.65l-1.531.37 1.19.02c.753.014 1.508-.171 2.05-.502zm-1.521-1.37c.51-.144 1.045-.39 1.19-.545.183-.195.136-.238-.152-.137-.23.08-1.241.234-2.25.342-1.302.14-1.678.257-1.302.404.695.272 1.383.255 2.514-.064zm-92.897 5.15c-.115-.116.73-.211 1.88-.211 1.306 0 2.213-.123 2.417-.327.26-.26-.19-.293-2.177-.162-2.46.16-2.508.153-2.794-.474l-.29-.638 1.885.054 1.885.053-1.957-.221c-2.985-.338-3.84-1.012-3.166-2.492.277-.61.427-.675 1.199-.53.57.107.882.062.882-.128 0-.162-.328-.3-.728-.304l-.728-.01.728-.596c.4-.327.728-.727.728-.888 0-.384-1.221-.706-2.382-.627-1.522.103-.78-.21 1.87-.791 1.373-.3 3.457-.758 4.632-1.017 1.175-.26 2.295-.57 2.49-.69.26-.16.312-.087.195.287-.086.278-.232.802-.326 1.166-.165.646-.16.65.26.132.235-.29.493-.791.574-1.112.14-.555 1.795-1.377 2.12-1.052.516.516.83 4.413.356 4.413-.145 0-.264.17-.264.378 0 .7-1.872 3.983-2.593 4.546-1.77 1.383-2.737 1.71-4.658 1.577-1.005-.07-1.922-.221-2.038-.337zm.822-3.518c0-.146-.328-.267-.728-.27a7.814 7.814 0 0 1-1.39-.151c-.637-.143-.642-.133-.147.269.566.458 2.265.572 2.265.152zm7.774-2.397c.38-1.027.687-2.188.68-2.58-.006-.458-.274.043-.75 1.405-.407 1.164-.831 2.325-.943 2.58-.117.266-.092.462.06.462.143 0 .573-.84.953-1.867zm-.741-1.45c.234-.56.475-1.442.536-1.96.08-.685-.07-.443-.552.892-.708 1.954-.696 2.77.016 1.068zm91.92 2.91c0-.485-.126-1.214-.281-1.622l-.281-.74.674.633c1.052.988 1.268 3.138.277 2.758-.233-.09-.388-.5-.388-1.03zm-25.4-2.106c0-.218.12-.397.266-.397.145 0 .264.179.264.397 0 .218-.12.397-.264.397-.146 0-.265-.18-.265-.397zm45.245-.604c-.946-.297-2.722-.75-3.947-1.008-2.15-.452-2.201-.48-1.456-.79a194.73 194.73 0 0 0 2.89-1.26c1.163-.518 3.068-1.201 4.233-1.52 1.164-.317 2.83-.79 3.704-1.05 2.965-.88 4.832-.597 10.416 1.569 2.672 1.036 4.905 1.885 4.96 1.885.056 0 .102-.103.102-.228s-.625-.475-1.39-.778a201.55 201.55 0 0 1-3.373-1.386c-3.094-1.306-5.568-2.106-6.513-2.106-.475 0-.926-.101-1.003-.225-.268-.434 1.189-.95 7.82-2.77 1.842-.506 2.258-.53 4.63-.264 1.68.188 3.814.686 6.003 1.4 1.868.61 3.462 1.042 3.543.962.08-.08-.198-.273-.618-.427-.42-.153-1.658-.626-2.75-1.05-1.623-.63-3.544-1.15-5.423-1.47-.146-.024-.98-.066-1.852-.093-1.462-.045-1.547-.08-1.07-.44.676-.511 1.505-.732 6.968-1.857 4.322-.89 4.687-.926 6.576-.64 1.1.167 2.83.564 3.843.883l1.843.579-1.754 1.118c-.965.616-1.866 1.119-2.003 1.119-.136 0-.248.092-.248.204 0 .113-.411.426-.914.697-.502.27-1.127.685-1.39.92-1.467 1.324-7.5 4.63-10.793 5.916-6.198 2.422-8.574 2.839-15.478 2.717-2.981-.052-4.22-.188-5.556-.607zm-127.794.472c0-.146.29-.265.646-.265.355 0 .72.12.81.265.095.154-.174.264-.647.264-.445 0-.81-.12-.81-.264zm2.117-.265c0-.146.357-.265.793-.265.437 0 .794.12.794.265 0 .146-.357.265-.794.265-.436 0-.793-.12-.793-.265zm108.61-.265c-.36-.155.1-.233 1.456-.247a58.425 58.425 0 0 0 3.837-.188c1.018-.092 1.78-.088 1.69.009-.51.556-5.912.886-6.982.426zM32.149 60.35c-.685-.313-.715-.366-.22-.385.662-.025 4.818-.912 6.967-1.488.8-.214 2.645-.68 4.1-1.037a122.65 122.65 0 0 0 4.5-1.195c2.18-.644 5.797-1.59 9.63-2.516 1.513-.366 2.886-.778 3.052-.916.274-.227 2.594-.61 5.706-.943A71.403 71.403 0 0 0 68 51.61c.51-.073 1.938-.187 3.175-.252 7.568-.397 10.608-.432 14.388-.163 4.065.29 4.214.283 4.569-.224.68-.973 1.868-1.64 2.593-1.46 1.158.292.798.98-.936 1.786-1.183.55-1.565.854-1.45 1.154.12.314.02.373-.442.26-2.19-.531-6.718-.745-12.504-.59-7.17.194-10.786.508-14.27 1.238-1.32.276-3.454.683-4.742.903-2.35.402-3.346.746-3.346 1.158 0 .12-.512.278-1.138.349-1.237.14-8.842 1.864-10.768 2.442a71.37 71.37 0 0 1-3.175.826c-1.091.258-2.937.734-4.101 1.057-2.547.707-2.695.717-3.704.255zm112.977-.953c-.437-.13-1.31-.297-1.94-.373-.63-.077-1.88-.422-2.778-.768-3.008-1.158-6.965-2.426-9.24-2.961-.957-.225-.917-.708.159-1.881.86-.94.902-.954 1.514-.525.35.245 1.1.432 1.694.422.84-.014.954-.066.537-.247-.291-.126-.993-.305-1.56-.398-.897-.147-.98-.218-.647-.551.31-.31.548-.325 1.253-.08.664.233 1.126.228 1.948-.018.592-.177.954-.401.803-.497-.151-.097-.217-.562-.146-1.035.11-.73.238-.86.856-.86 1.233 0 4.029 1.466 5.695 2.987 1.582 1.444 1.586 1.45 1.083 2.009-.584.65-.286.759.393.144.422-.382.475-.37.64.155.13.403.006.758-.418 1.21-.735.783-.372.852.445.085l.59-.554.286.535c.244.456.16.634-.564 1.202-.47.366-.784.733-.702.816.083.082.465-.098.85-.4 1.07-.843 1.71-.158.795.852-.24.266-.313.484-.16.484.152 0 .348-.186.436-.414.199-.518.69-.244.69.386 0 .539-1.18.668-2.512.275zm-9.525-5.01c.099-.16-.285-.266-.977-.268-.627-.002-1.437-.07-1.801-.152-.64-.143-.644-.134-.148.268.569.462 2.667.57 2.926.152zm8.07-.53a.265.265 0 0 0-.53 0 .265.265 0 0 0 .53 0zm13.247 3.39c.333-.481.792-1.072 1.02-1.311a37.75 37.75 0 0 0 1.343-1.573c.51-.625 1.13-1.322 1.378-1.548a80.402 80.402 0 0 0 1.852-1.826c3.443-3.478 9.023-6.25 15.82-7.855l.662-.157-.643.382c-1.927 1.146-6.574 5.739-8.664 8.565-1.5 2.027-2.281 2.593-4.125 2.982-.616.13-2.907.943-5.09 1.806-2.182.864-4.01 1.534-4.063 1.49-.052-.044.177-.474.51-.955zm-122.734.119c.512-.595 1.376-2.218 2.08-3.905.582-1.4 1.239-2.23 2.437-3.09l.73-.523-.321.708c-.266.583-.255.746.062.928 1.474.847 1.653 1.58.387 1.58-1.047 0-1.982.484-2.24 1.159-.132.35-.34.68-.457.732-.118.052-.63.716-1.138 1.476-.808 1.21-1.476 1.75-1.832 1.48-.06-.044.072-.29.292-.545zm3.515-1.97c.578-1.032.825-1.231 1.71-1.372 1.322-.212 2.132-1.188 2.132-2.567 0-.554-.136-1.091-.303-1.194-.213-.132-.25.02-.127.513.1.403.065.7-.084.7-.314 0-.731-.794-.66-1.256a12.257 12.257 0 0 0 .083-.86c.03-.477.22-.53 1.96-.53 1.475 0 2.208.14 3.11.596l1.18.596-.013 1.59c-.016 1.823-.915 3.774-1.826 3.963-.298.06-1.91.41-3.584.774-3.984.867-4.088.88-4.177.544-.042-.158.228-.831.6-1.496zm7.006-1.735c.607-1.305.78-2.203.543-2.794-.21-.523-.235-.5-.25.246-.01.455-.197 1.336-.417 1.96-.458 1.298-.38 1.67.124.588zm-1.716-.844c.35-.777.416-1.298.26-2.05l-.211-1.01-.19 1.388c-.105.763-.265 1.685-.356 2.05-.243.967-.04.812.497-.378zm13.507 3.074c-.47-.264-.367-.33.872-.545 1.184-.207 1.476-.175 1.852.2.392.393.398.479.05.708-.446.292-1.961.094-2.774-.363zm-9.902-1.756c.292-.606.505-1.61.505-2.382 0-1.45.105-1.562.839-.897.502.454.626 1.694.32 3.22-.16.8-.475 1.013-1.6 1.073l-.57.03zm81.78.345c-.612-.164-.611-.166.25-1.055.475-.49.948-.89 1.05-.89.26 0 2.784-1.717 3.924-2.67 1.529-1.275 1.639-1.357 1.7-1.26.49.792.736 1.603.597 1.967-.16.412-.232.4-.797-.13-.61-.574-.637-.576-1.382-.105-1.94 1.226-3.005 2.153-3.665 3.19-.768 1.206-.756 1.2-1.677.953zm-79.555-1.284c0-.8.028-1.455.063-1.455.034 0 .302.205.595.455.32.276.532.782.532 1.28 0 .925-.164 1.175-.772 1.175-.331 0-.42-.304-.42-1.455zm75.643.533c-.83-.216-1.56-.444-1.622-.506-.062-.063.02-.362.182-.666.204-.382.557-.553 1.146-.556.992-.005 1.325-.187 1.725-.947.302-.576.002-1.164-.597-1.167-.152-.001-.482-.36-.73-.8-.25-.437-.64-.866-.864-.952-.604-.232-1.197.388-1.197 1.25 0 .897-.6 1.344-2.574 1.92-1.547.45-1.79.308-1.524-.903.255-1.16 1.006-1.555 5.197-2.737 2.302-.65 2.538-.594 2.88.678.164.605.225 1.528.138 2.05-.15.889-.134.917.243.437.538-.686.517-2.493-.035-3.103-.603-.667-.058-.61.827.086.678.533.718.679.62 2.22-.08 1.269-.026 1.618.237 1.517.209-.08.34-.594.34-1.325 0-1.01.06-1.146.382-.88.21.175.42.577.47.893.048.317.234.547.412.51.783-.16.194.4-1.267 1.202-.872.479-1.777 1.164-2.012 1.52-.502.767-.448.76-2.377.259zm-3.015-4.09c0-.3-.12-.544-.265-.544-.145 0-.265.17-.265.38s.12.456.265.546c.146.09.265-.082.265-.381zm-28.508 3.548c-.93-.564-1.102-.917-.447-.917.84 0 2.6 1.207 2.35 1.61-.153.247-.656.063-1.903-.693zm-42.533.67c-.09-.145.022-.264.249-.264s.412.119.412.264c0 .146-.112.265-.25.265-.135 0-.321-.12-.411-.265zm4.366-.53c0-.144.126-.263.28-.263.154 0 .206.119.117.264-.09.146-.217.265-.28.265-.065 0-.117-.12-.117-.265zm115.092-.386c0-.323 4.135-5 5.983-6.768 3.128-2.99 4.166-3.54 7.643-4.042 1.6-.231 3.982-.487 5.292-.567l2.38-.147-2.115 1.085c-2.424 1.243-4.185 2.507-8.02 5.758-1.412 1.197-3.47 2.417-4.08 2.42-.535.003-5.05 1.527-6.02 2.032-.69.36-1.063.44-1.063.23zm-49.976-.304c-.057-.048.24-.213.66-.365a14.596 14.596 0 0 0 1.36-.581c.865-.442.94-.163.177.66-.526.567-.814.68-1.38.545-.393-.094-.76-.211-.817-.26zM55.73 51.173c.403-.78.708-1.505.68-1.614-.03-.11.05-.2.178-.2.127 0 .684-.862 1.236-1.917 1.3-2.481 3.824-6.304 5.333-8.076 1.264-1.484 1.92-1.913 3.96-2.596.703-.235 2.11-.785 3.13-1.223 1.018-.438 2.209-.95 2.646-1.136 2.882-1.232 4.365-1.995 4.365-2.244 0-.2-.177-.193-.581.023-.32.17-1.72.7-3.11 1.178a155.19 155.19 0 0 0-4.964 1.815c-1.34.52-2.571.948-2.735.948-.688 0 3.737-6.263 5.672-8.026 2.624-2.391 4.243-3.45 6.554-4.278 4.056-1.457 7.102-2.204 7.102-1.742 0 .485-3.267 5.638-6.63 10.456-3.185 4.562-8.21 9.516-12.097 11.925a8.187 8.187 0 0 0-.887.665c-1.087.945-7.29 3.783-7.708 3.525-.152-.094-.2-.046-.105.107.094.152.023.335-.16.404-.182.07-.794.919-1.36 1.886-1.212 2.073-1.573 2.156-.52.12zm78.28.304c-.09-.146.016-.265.235-.265.218 0 .47.12.56.265.09.146-.015.265-.233.265-.22 0-.47-.12-.56-.265zm-33.865-.45c-5.593-.54-5.73-.591-4.688-1.747.404-.45 1.105-.473 11.489-.397 6.082.044 11.058.157 11.058.25 0 .094-.188.243-.417.33-.277.107-.402.45-.37 1.02.026.475.035.92.02.994-.07.338-12.245.017-17.092-.45zm23.155-.41c.005-.444.515-1.23.52-.802.003.177.332.5.732.717l.728.395-.992.01c-.625.007-.99-.112-.988-.32zm58.753-2.47c1.148-1.226 5.692-4.484 7.555-5.417 1-.5 1.88-.994 1.958-1.096.29-.385 2.44-.534 4.943-.343 2.09.16 2.495.255 2.096.495-.272.164-1.954 1.265-3.738 2.447-3.416 2.263-3.112 2.15-8.468 3.134-1.02.187-2.507.584-3.307.883-.8.298-1.506.55-1.568.562-.062.01.176-.29.53-.666zm17.533-.64c-1.363-.435-2.767-.792-3.12-.792-1.05 0-1.008-.448.059-.628a305.57 305.57 0 0 0 6.94-1.241c1.673-.316 3.935-.625 5.027-.686l1.984-.111-2.778 1.414c-1.528.778-3.314 1.723-3.97 2.1-.654.376-1.296.697-1.427.712-.13.015-1.352-.33-2.715-.767zm-63.578.243c.162-.303.362-.485.444-.403.08.082-.002.33-.186.552-.476.573-.605.499-.258-.15zm-36.525-.208-2.778-.166 1.455-.864c4.17-2.476 9.109-4.421 11.972-4.715 2.348-.24 3.49.1 7.837 2.328 2.03 1.04 4.035 1.883 4.704 1.974.64.088 1.125.202 1.074.252-.277.277-4.968.988-7.595 1.15-3.823.238-13.006.26-16.67.04zm-43.391-2.71c0-3.385 1.023-7.95 2.517-11.228 2.212-4.853 4.2-8.481 4.598-8.39.15.035.21-.102.133-.304-.077-.202-.014-.446.142-.542.182-.112.282.19.282.85 0 .566.247 1.912.548 2.994.578 2.074 1.045 5.768.752 5.95-.095.058-.242.436-.326.84-.084.402-.734 1.447-1.444 2.32-1.78 2.187-4.847 6.8-5.855 8.807-.46.915-.951 1.593-1.092 1.506-.14-.087-.255-1.348-.255-2.802zM95.78 46.49c0-.668 2.474-4.014 4.63-6.263 2.222-2.317 6.93-5.674 9.926-7.075 3.62-1.694 8.564-3.003 10.58-2.803l.926.093-1.094.663c-1.352.82-4.547 3.842-7.46 7.053l-2.2 2.425-2.032.448c-4.207.927-9.14 2.984-11.807 4.923-1.074.782-1.47.925-1.47.536zm26.835-.951c-1.007-.355-3.365-1.427-5.238-2.381-1.874-.955-3.63-1.736-3.903-1.736-.273 0-.496-.12-.496-.265 0-.145.149-.265.33-.266.183 0 .675-.18 1.095-.4 1.35-.704 3.409-1.114 5.85-1.165 2.483-.051 3.535.17 9.859 2.073 1.494.449 3.07.817 3.506.817 1.167 0 .967.382-.598 1.139-1.698.822-7.207 2.682-8.288 2.799-.156.017-1.11-.26-2.117-.615zm71.102.042c.24-.178.7-.501 1.023-.72a115.83 115.83 0 0 0 1.61-1.124c.564-.4 1.146-.728 1.292-.728.147 0 .267-.09.267-.2 0-.11.584-.467 1.297-.795l1.297-.594 3.002.658c1.652.362 3.36.764 3.797.893l.794.234-.662.152c-.364.084-1.257.222-1.984.307-1.727.2-5.39.868-8.864 1.614-3.29.706-3.44.722-2.87.303zm-60.63-3.87c-1.092-.275-3.621-.988-5.621-1.585-2-.597-3.994-1.085-4.432-1.085-1.232 0-.942-.437.593-.891 3.266-.966 9.9-1.262 12.767-.57 1.722.416 4.29.47 5.556.119.523-.146.178-.172-1.013-.078-1.238.098-2.405 0-3.705-.31-2.225-.533-2.61-.783-1.585-1.027.737-.176 3.202-.89 5.774-1.674.727-.222 2.513-1.004 3.968-1.74 4.758-2.401 5.204-2.605 5.359-2.45.433.434-6.275 6.308-9.99 8.748-1.668 1.096-5.1 2.965-5.555 3.026-.073.01-1.025-.208-2.117-.483zm-20.638-1.5c0-.082.153-.303.34-.49.186-.186.99-1.087 1.785-2.002.796-.914 1.978-2.152 2.628-2.75.65-.598 1.505-1.4 1.902-1.78.712-.681 2.985-2.254 4.11-2.842.317-.166 1.642-.302 2.943-.302 3.652 0 4.973.409 3.255 1.008-.42.146-1.952 1.409-3.405 2.805-4.56 4.384-4.715 4.474-8.267 4.81-1.195.113-4.147 1.054-4.617 1.472-.287.255-.674.297-.674.072zm12.446-4.28c1.624-1.796 3.117-3.162 4.487-4.105.655-.45 1.29-.983 1.41-1.184.143-.233.476-.311.927-.216.388.082 1.849.265 3.246.407 1.397.142 2.823.363 3.17.49.62.23.618.238-.292.7-.506.258-1.76 1.275-2.784 2.262-1.78 1.713-1.933 1.8-3.44 1.959-.866.09-2.826.324-4.354.519s-2.942.37-3.142.39c-.2.02.147-.53.772-1.221zm10.573-1.072c0-.3 1.518-1.667 2.782-2.507 1.016-.675 1.205-.705 4.31-.672 1.788.019 3.155.124 3.04.233-.493.467-3.856 1.706-6.428 2.369-3.08.793-3.704.89-3.704.577zm-69.85-3.068c0-.478-.184-1.453-.408-2.167-.642-2.048-1.123-4.765-1.012-5.718.173-1.494 3.465-5.913 7.116-9.552 1.807-1.8 2.884-2.597 2.355-1.741-.1.162-.203 2.573-.227 5.357-.056 6.377-.177 6.8-2.657 9.286a67.021 67.021 0 0 0-4.375 4.828c-.145.176-.263.45-.263.61 0 .16-.12.219-.265.129-.145-.09-.264-.554-.264-1.032zm10.252-8.824c.889-1.62 2.24-3.31 4.736-5.918 2.304-2.41 3.116-2.943 5.804-3.821 1.974-.645 3.02-.806 3.02-.466 0 .309-.59 2.02-1.1 3.19-.268.618-.487 1.18-.487 1.25 0 .286-1.451 3.222-1.836 3.715-.251.32-.65.496-1.017.443-1.24-.176-6.487 1.333-8.525 2.452-1.173.645-1.308.453-.595-.845zm-1.778-4.432c.157-6.275.317-6.931 2.009-8.23 1.694-1.3 3.895-2.692 4.57-2.89.573-.167.616-.124.44.44-.107.345-.284 2.055-.394 3.8-.11 1.747-.341 3.523-.515 3.947-.174.423-1.02 1.523-1.881 2.443-.86.92-2.185 2.687-2.943 3.928-.758 1.24-1.39 2.224-1.402 2.187-.013-.038.039-2.57.116-5.625zm7.398-9.494c.159-1.02.42-2.012.58-2.206.27-.324 3.188-1.797 6.434-3.246.728-.325 1.502-.733 1.72-.907.218-.174.727-.457 1.13-.63.516-.22.207.182-1.03 1.338-.97.909-2.485 2.604-3.365 3.768-.88 1.164-1.666 2.176-1.747 2.25-.4.358-2.1 2.615-2.54 3.373-.275.473-.585.86-.69.86-.104 0-.287.267-.405.595-.35.962-.417-3.066-.087-5.195zm2.69 3.824a67.808 67.808 0 0 0 1.795-2.448c2.858-4.063 5.444-7.36 5.774-7.36.197 0 .282.123.19.274-.094.15-.227.894-.297 1.653-.07.76-.426 2.393-.79 3.63a105.7 105.7 0 0 0-.81 2.844c-.12.496-.327.597-1.238.604-.985.008-2.563.458-4.401 1.257a9.603 9.603 0 0 1-.751.305c-.05.009.189-.333.529-.76z" style="fill:#305b4f;stroke-width:.264583"/></svg>