<svg xmlns="http://www.w3.org/2000/svg" xmlns:xlink="http://www.w3.org/1999/xlink" width="264.764" height="321.957" viewBox="0 0 70.052 85.184"><defs><linearGradient xlink:href="#a" id="b" x1="-185.485" y1="190.172" x2="-31.538" y2="188.568" gradientUnits="userSpaceOnUse" gradientTransform="translate(-531.123 -156.679) scale(.44719)"/><linearGradient id="a"><stop style="stop-color:#dcbb7c;stop-opacity:1" offset="0"/><stop style="stop-color:#c49558;stop-opacity:1" offset="1"/></linearGradient></defs><path style="display:inline;fill:url(#b);fill-opacity:1;stroke:none;stroke-width:.11831874" d="M-581.487-20.763c-9.362-2.723-17.425-7.24-23.133-12.957-5.653-5.665-8.748-12.276-9.335-19.941-.06-.793-.114-12.528-.12-26.592l-.01-25.173h70.051l-.037 26.474c-.04 28.922.011 26.678-.691 29.944-.605 2.81-2.102 6.5-3.702 9.121-4.846 7.944-13.993 14.449-25.688 18.269-2.24.731-4.72 1.385-5.229 1.377-.182-.003-1.13-.238-2.107-.522zm4.15-1.31c8.567-2.334 16.692-6.639 21.993-11.651 3.15-2.978 5.232-5.724 6.955-9.17.829-1.657.905-1.889.599-1.809-.126.033-4.032 2.19-8.68 4.792a36302.03 36302.03 0 0 1-18.568 10.385c-5.564 3.11-10.192 5.724-10.285 5.81-.143.134-.085.194.388.396.51.219 3.085 1.057 4.513 1.469.919.265 1.438.228 3.086-.221zm.965-7.763c5.712-3.197 11.503-6.438 12.87-7.2 11.067-6.18 16.348-9.153 16.465-9.27.183-.184.67-1.77.968-3.155.29-1.348.568-3.414.675-5.015l.078-1.17-.278.054c-.153.03-5.656 3.065-12.229 6.745-6.573 3.68-17.115 9.579-23.427 13.108-14.075 7.87-13.548 7.57-13.548 7.703 0 .178.991.75 3.254 1.88 1.869.934 4.453 2.102 4.7 2.126.048.004 4.76-2.608 10.472-5.806zm-17.377.031 10.073-5.636c4.393-2.457 9.957-5.57 12.365-6.919 2.407-1.348 8.264-4.624 13.015-7.282 4.75-2.657 9.595-5.368 10.767-6.025l2.13-1.194.03-4.427c.018-2.435-.013-4.471-.067-4.526-.085-.084-4.764 2.507-28.123 15.578l-16.092 8.994c-6.963 3.89-12.759 7.168-12.88 7.282-.21.2-.176.244 1.007 1.258a60.213 60.213 0 0 0 1.935 1.595c1.009.775 3.509 2.47 3.641 2.47.062 0 1.051-.525 2.199-1.168zm-.043-17.805c.85-.267 1.654-.816 2.032-1.388.259-.39.338-.667.374-1.302.107-1.886-.867-2.622-4.211-3.183-.798-.134-1.584-.304-1.748-.379-.55-.25-.538-1.107.02-1.404.223-.12.707-.168 1.63-.163 1.108.005 1.454.055 2.231.325.506.175.962.319 1.014.319.094 0 .496-1.551.494-1.905-.002-.243-1.607-.405-3.906-.395-1.378.006-1.695.045-2.308.281-.969.375-1.75 1.176-1.947 1.997-.406 1.693.69 2.76 3.249 3.164 2.536.401 2.906.542 3.063 1.166.41 1.638-2.79 1.953-6.11.602-.174-.07-.205-.02-.195.313.006.218.1.743.207 1.166l.195.77 1.124.139c1.478.184 4.022.118 4.792-.123zm13.193-9.607c0-.035-.088-.235-.196-.443-.249-.481-.367-2.416-.17-2.784.114-.214.242-.257.762-.257.95 0 1.753.287 2.306.823.694.674 1.2 1.61 1.201 2.224v.503h1.717c.943 0 1.715-.047 1.715-.104 0-.057-.082-.172-.182-.255-.1-.083-.576-.75-1.057-1.481-.48-.732-1.064-1.476-1.297-1.653-.232-.177-.422-.36-.422-.407 0-.047.217-.157.481-.244 1.282-.423 2.062-1.745 1.778-3.013-.199-.887-.602-1.405-1.399-1.796l-.682-.335-3.816-.037c-2.33-.023-3.816.006-3.816.074 0 .061.08.302.178.536.26.625.26 7.665-.001 8.166-.097.186-.177.386-.177.444 0 .057.692.105 1.538.105.846 0 1.538-.03 1.538-.065zm-.344-5.238c-.187-.349-.166-2.056.028-2.32.143-.197.315-.212 1.872-.165 1.438.043 1.78.09 2.12.288.777.452.77 1.653-.012 2.111-.35.206-.663.248-2.145.284-1.647.04-1.74.031-1.863-.198zm-27.335.4c2.176-1.218 4.004-2.262 4.063-2.319.064-.061.05-.174-.037-.277-.117-.142.007-.592.653-2.378.439-1.211.857-2.284.93-2.383.11-.15.184-.156.452-.034.176.08.32.212.32.293 0 .081-.32 1.023-.71 2.093-.39 1.07-.71 1.98-.71 2.022 0 .043.056.078.124.078.157 0 2.871-1.535 2.961-1.675.037-.057.162-.623.277-1.256.341-1.874.398-2.04.696-2.037.573.004.604.116.373 1.344-.118.624-.176 1.173-.13 1.22.047.046.23 0 .406-.104.177-.103 1.92-1.08 3.872-2.168 5.642-3.148 6.448-3.614 6.448-3.726 0-.059-.506-1.02-1.124-2.135-.618-1.116-1.124-2.094-1.124-2.175 0-.187.53-.474.692-.374.068.042.638 1.007 1.267 2.144.629 1.137 1.19 2.068 1.246 2.068.23 0 7.751-4.284 7.902-4.5.09-.128.267-.233.396-.233.339 0 2.241-1.066 2.188-1.226-.025-.074-.44-.296-.922-.493-.74-.302-.884-.406-.914-.66-.07-.606.189-.613 1.64-.044.744.291 1.419.53 1.5.53.204 0 11.743-6.468 12.048-6.753.135-.125.318-.228.408-.228.227 0 13.96-7.697 13.96-7.824 0-.136-.006-.135-1.226.089-1.153.211-1.291.163-1.23-.428.03-.289.087-.305 2.752-.779 1.497-.266 2.895-.574 3.106-.684l.385-.2v-6.76l-.68.05c-.439.033-1.527.349-3.056.889-1.32.465-2.439.798-2.519.749-.079-.05-.155-.244-.169-.433-.024-.332.013-.358 1-.7.565-.196 1.066-.396 1.115-.445.049-.049-3.883-.089-8.738-.089h-8.826l-.038.263c-.029.201-.521.544-2.108 1.47-1.139.663-2.136 1.21-2.216 1.216-.187.012-.548-.536-.453-.689.04-.064.843-.557 1.785-1.094.942-.538 1.712-1.02 1.712-1.072 0-.051-1.357-.094-3.016-.094h-3.016l-.559.427-.558.426-.258-.3c-.142-.165-.277-.352-.3-.416-.055-.15-.336-.164-2.9-.15l-2.146.013-.865 1.036c-.476.569-.921 1.073-.988 1.119-.155.105-.586-.172-.633-.407-.019-.097.234-.497.562-.89.329-.393.597-.747.597-.786 0-.04-.582-.072-1.294-.072h-1.294l-.266.474c-.146.26-.354.473-.462.473-.303 0-.59-.385-.51-.687l.069-.264-2.765.032-2.766.031-.465 2.308c-.255 1.269-.512 2.339-.57 2.378-.129.087-.663-.007-.74-.13-.03-.05.13-1.012.357-2.137.227-1.124.413-2.142.413-2.261 0-.203-.152-.217-2.367-.217-1.579 0-2.366.042-2.366.125 0 .069.133.95.296 1.957.38 2.36.38 2.507-.01 2.605-.167.042-.357.023-.422-.042-.089-.089-.79-4.046-.808-4.556-.005-.136-9.942-.11-9.942.025 0 .063.17.308.377.544.396.451.382.657-.066.932-.214.132-.43-.055-1.317-1.135-.412-.502-.348-.487-1.922-.469l-1.213.014v.401c0 .366.132.516 1.538 1.738.846.735 1.538 1.399 1.538 1.474 0 .184-.43.563-.579.51-.066-.022-.599-.453-1.185-.958-.586-.504-1.121-.917-1.189-.917-.08 0-.123.637-.123 1.82 0 1.473.034 1.847.178 1.966.224.187.226.482.004.777-.145.191-.175.925-.178 4.44l-.004 4.212 1.509.077c.83.043 2 .078 2.6.078 1.068 0 1.094.007 1.167.298.16.637.004.673-2.725.63l-2.492-.04-.03 4.544c-.027 3.892-.006 4.583.147 4.817.226.346.227.568.001.755-.138.114-.177.435-.177 1.434 0 .708.04 1.287.088 1.286.05 0 .488-.32.976-.709.489-.39.937-.708.997-.709.162-.001.542.37.542.531 0 .077-.586.607-1.302 1.179l-1.301 1.038v6.804c0 6.518.009 6.8.215 6.747.118-.031 1.995-1.053 4.17-2.272zm-3.538.992-.261-.244.269-.438c.147-.241.741-1.223 1.32-2.182.577-.959 1.117-1.743 1.199-1.743.082 0 .27.097.417.217l.269.218-1.34 2.208c-.738 1.214-1.401 2.208-1.476 2.208-.074 0-.253-.11-.397-.244zm3.643-6.008-.268-.217 1.327-2.208c.73-1.215 1.38-2.209 1.446-2.209.252 0 .577.254.577.45 0 .186-2.104 3.765-2.478 4.215-.197.238-.277.234-.604-.03zm-3.308-1.795c-.214-.214-.229-.281-.096-.45.993-1.263 3.117-3.69 3.228-3.69.157 0 .536.373.536.528 0 .158-3.091 3.788-3.26 3.827-.086.02-.27-.076-.408-.215zm17.927-2.868c-.194-.829-.745-4.775-.676-4.838.155-.14.556-.215.693-.129.155.098.92 4.81.822 5.066-.035.093-.222.167-.42.167-.272 0-.371-.063-.419-.266zm-5.483.047c-.127-.083-.063-.576.343-2.604l.5-2.501h.323c.178 0 .374.066.436.148.075.097-.05.967-.37 2.573-.469 2.353-.492 2.426-.779 2.456-.162.017-.366-.015-.453-.072zm3.012-.908c-.095-.249-.097-4.59-.002-4.838.046-.12.217-.188.476-.188h.404l-.032 2.574-.032 2.573-.37.036c-.256.025-.392-.023-.443-.157zm-5.002-.06c-.14-.054-.286-.15-.326-.215-.04-.064.253-1.013.65-2.108l.842-2.317c.116-.322.348-.402.735-.254.103.04.187.153.187.251 0 .277-1.535 4.452-1.693 4.605-.089.086-.235.1-.395.038zm-3.483-.454-.274-.222 1.283-2.148c.705-1.182 1.334-2.18 1.396-2.218.165-.102.682.206.682.406 0 .156-1.843 3.299-2.39 4.078-.272.385-.338.395-.697.104zm13.635-.34c-.366-.697-1.683-4.565-1.587-4.661.061-.061.261-.123.444-.137.328-.024.345.007 1.138 2.165.442 1.203.807 2.28.81 2.391.005.195-.32.448-.574.448-.068 0-.171-.093-.231-.207zm-15.024-2.048c-.228-.213-.246-.281-.116-.448.919-1.178 3.114-3.687 3.226-3.687.158 0 .537.373.537.528 0 .147-3.085 3.786-3.24 3.824-.076.018-.26-.08-.407-.217zm19.068-1.025c-1.606-1.837-2.524-2.984-2.524-3.153 0-.282.48-.571.678-.408.49.407 3.12 3.678 3.087 3.84-.02.105-.15.266-.288.357-.235.156-.294.117-.953-.636zm-22.042-.411c-.133-.142-.241-.301-.241-.353 0-.051.907-.82 2.015-1.708 1.962-1.573 2.02-1.61 2.248-1.404.128.116.233.3.233.407 0 .16-3.766 3.317-3.957 3.317-.031 0-.165-.117-.298-.259zm23.344-1.313c-.988-.86-1.827-1.638-1.867-1.729-.081-.186.248-.604.476-.604.186 0 3.836 3.169 3.836 3.33 0 .25-.255.575-.448.571-.111-.002-1.01-.708-1.997-1.568zm-12.02-.284c-.23-.06-.263-.422-.1-1.12.055-.237.067-.481.026-.543-.088-.134-1.153-.504-1.45-.504-.135 0-.388.299-.703.83-.272.457-.543.861-.603.898-.13.08-.69-.266-.69-.427 0-.062.213-.462.474-.887.26-.425.473-.817.473-.87 0-.144-1.14-1.082-1.315-1.082-.082 0-.454.24-.827.532-.709.557-.912.626-1.147.39-.27-.268-.14-.548.479-1.04.342-.272.657-.558.702-.636.07-.123-.226-.674-.756-1.41-.147-.204-.182-.203-.852.029-.384.133-.798.242-.92.242-.223 0-.51-.52-.392-.71.034-.055.406-.215.828-.355.421-.14.789-.291.816-.335.05-.08-.276-1.69-.361-1.787-.025-.029-.431-.082-.901-.119-.757-.059-.86-.095-.892-.318-.063-.444.273-.644.962-.571.337.036.668.022.735-.03.184-.14.42-1.713.283-1.878-.062-.076-.365-.232-.674-.349-.621-.235-.747-.358-.649-.637.161-.456.264-.481.933-.231.355.133.712.217.792.186.08-.031.347-.395.593-.81l.447-.752-.54-.51c-.597-.565-.644-.719-.312-1.02.256-.23.5-.153.897.287.443.489.595.501 1.091.088.253-.211.59-.47.749-.575l.29-.192-.345-.72c-.286-.599-.318-.75-.192-.903.249-.3.668-.226.821.144.075.18.254.47.4.645l.263.317.828-.275.828-.275v-1.744l.38-.037c.414-.04.396-.072.595 1.042l.096.533.915.107c.504.059.942.081.974.05.031-.033.118-.374.192-.759.17-.887.306-1.047.747-.88.359.137.35.026.11 1.443-.073.434-.072.436.647.8.397.2.793.363.882.363.089 0 .29-.196.447-.436.352-.536.471-.58.822-.295l.276.223-.33.563-.33.562.57.579c.314.318.645.579.736.579.09 0 .374-.166.63-.37.45-.355.474-.36.698-.158.344.312.285.534-.27 1.012l-.5.431.287.637c.436.97.442.972 1.224.703l.676-.232.187.286c.103.157.167.348.142.423-.025.075-.363.255-.75.4-.77.287-.721.184-.669 1.409l.023.519.887.083.887.083v.808h-.813c-.514 0-.855.054-.925.148-.157.21-.424 1.36-.344 1.488.036.06.391.23.79.378.813.305.93.462.653.883l-.191.293-.62-.25c-1.053-.426-1.063-.425-1.484.253-.208.335-.379.651-.379.703 0 .052.274.35.608.663.542.507.596.6.5.872-.163.466-.425.428-1.114-.16-.347-.296-.676-.538-.733-.538-.157 0-1.153.861-1.157 1-.002.068.171.459.385.869.378.728.382.75.158.917-.412.308-.609.202-1.003-.538-.423-.793-.496-.819-1.37-.483l-.592.227.049.572c.111 1.29.114 1.281-.345 1.281h-.413l-.12-.77-.118-.768h-1.765l-.132.657c-.19.95-.24 1.004-.795.859zm3.845-2.91c2.276-.834 3.937-2.632 4.528-4.903.23-.881.224-2.474-.011-3.388-.653-2.53-2.8-4.57-5.39-5.12-2.982-.633-6.237.984-7.588 3.77-.53 1.091-.702 1.853-.7 3.078.003 1.23.163 1.933.688 3.026.838 1.745 2.707 3.262 4.617 3.746 1.034.262 2.839.165 3.856-.208zm-3.164-1.043c-2.059-.3-3.94-2.037-4.506-4.16-.608-2.285.396-4.786 2.461-6.128.965-.626 1.94-.863 3.31-.803.98.043 1.218.1 2.03.485 3.416 1.623 4.322 6.022 1.81 8.8-1.301 1.44-3.141 2.091-5.105 1.806zm2.85-1.278c2.469-1.155 3.45-3.913 2.253-6.335-.697-1.41-1.882-2.284-3.478-2.565-1.908-.336-4.012.779-4.91 2.602-.358.729-.383.86-.383 2.024 0 1.103.036 1.322.317 1.921.368.784 1.24 1.764 1.93 2.169 1.249.732 2.944.805 4.27.184zm-15.407 4.063c-.17-.26-.175-.325-.033-.457.222-.205 4.117-2.435 4.254-2.435.059 0 .197.136.306.303.17.26.174.325.032.455-.246.225-4.091 2.437-4.236 2.437-.069 0-.214-.137-.323-.303zm24.625-1.192a585.754 585.754 0 0 1-2.057-1.214c-.204-.124-.085-.703.164-.798.167-.064 4.241 2.22 4.39 2.461.112.182-.202.693-.416.678-.103-.007-1.04-.514-2.08-1.127zm1.778-1.417c-1.235-.489-2.266-.91-2.292-.935-.098-.099.115-.663.274-.724.16-.06 4.5 1.543 4.73 1.748.156.14-.071.743-.292.775-.096.014-1.185-.375-2.42-.864zm-28.713.257c-.072-.159-.105-.359-.072-.445.057-.147 4.785-1.835 4.87-1.738.021.025.105.172.185.326.118.226.115.31-.014.438-.121.12-4.58 1.707-4.795 1.707-.023 0-.102-.13-.174-.288zm37.11-1.44c-1.236-.223-2.314-.43-2.395-.459-.173-.063-.2-.724-.035-.827.144-.089 4.879.741 5.017.88.12.119-.062.746-.227.784-.061.014-1.123-.156-2.36-.378zm-36.622-1.236c-.305-.57-.202-.616 2.371-1.073 1.66-.294 2.47-.393 2.572-.312.174.14.198.637.035.737-.09.055-4.585.89-4.793.89-.03 0-.114-.108-.185-.242zm28.932-.12c-.65-.123-1.676-.31-2.278-.417l-1.094-.195v-.387c0-.213.067-.411.148-.44.239-.086 4.748.744 4.915.905.212.203-.013.783-.298.767a24.738 24.738 0 0 1-1.393-.234zm12.838-1.875-.888-.07-.036-.369c-.022-.226.024-.388.119-.419.084-.027 1.272-.02 2.639.015l2.484.064v.828l-1.715.01c-.944.005-2.115-.022-2.603-.06zm-6.59-.097c-1.185-.035-1.332-.063-1.397-.267a.713.713 0 0 1 .06-.476c.13-.242.182-.245 2.52-.172 1.315.04 2.46.096 2.545.123.097.03.142.193.118.434l-.037.386-1.242.006a88.725 88.725 0 0 1-2.567-.034zm-6.366-.145-2.012-.064v-.828l1.124-.03c.619-.018 1.79.009 2.603.058 1.45.088 1.48.096 1.52.38.054.378-.264.605-.803.572a157.08 157.08 0 0 0-2.432-.088zm-3.171-2.09c-.118-.119-.103-.728.019-.803.166-.103 4.777-.895 4.871-.837.121.075.212.61.126.745-.039.06-1.029.279-2.2.484-1.172.205-2.266.4-2.431.433-.166.033-.34.023-.385-.023zm-23.214-.471c-2.625-.473-2.544-.45-2.544-.73 0-.12.066-.308.148-.418.137-.186.307-.172 2.455.213 1.269.227 2.374.438 2.455.47.28.106.092.93-.201.88-.036-.005-1.077-.192-2.313-.415zm31.696-1.162a1.072 1.072 0 0 1-.026-.44c.037-.252.175-.294 2.169-.652 2.7-.486 2.85-.49 2.952-.083.043.172.032.36-.025.416-.091.092-4.463.926-4.854.927-.083 0-.18-.075-.216-.168zm-7.82-.332c-.217-.28-.258-.546-.104-.675.085-.07 1.185-.476 2.445-.901 2.158-.73 2.301-.762 2.447-.563.365.5.188.62-2.051 1.396a288.05 288.05 0 0 1-2.38.818c-.14.044-.29.013-.357-.075zm-22.634-.789c-.293-.118-1.318-.52-2.278-.893-1.822-.709-1.945-.811-1.581-1.309.157-.215.253-.19 2.408.64 1.234.475 2.317.909 2.405.963.122.076.133.18.045.431-.144.41-.323.44-.999.168zm39.006-.327c-.044-.044-.08-.226-.08-.406 0-.3.052-.337.622-.45 1.188-.236 4.044-.722 4.242-.722.26 0 .413.578.202.768-.085.077-1.14.31-2.344.516-2.308.397-2.516.42-2.642.294zm-18.29-.494c-.199-.371-.155-.536.198-.737.178-.102 1.137-.655 2.131-1.23 1.757-1.013 1.813-1.036 2.041-.83.129.116.234.296.233.4-.001.18-3.737 2.444-4.255 2.58-.14.036-.266-.03-.348-.183zm-20.508-1.3c-1.09-.635-2.043-1.217-2.118-1.292-.103-.103-.088-.21.061-.438.109-.166.242-.302.297-.302.109 0 4.158 2.324 4.309 2.473.142.142-.165.722-.38.719-.103-.002-1.08-.523-2.17-1.16zm28.995.512c-.07-.154-.099-.356-.064-.448.06-.155 4.404-1.741 4.769-1.741.172 0 .344.478.26.727-.026.08-1.125.504-2.442.944l-2.395.8zm18.378-.208c-.162-.162-.18-.638-.026-.733.06-.037 1.164-.255 2.454-.484 2.227-.395 2.353-.406 2.498-.207a.708.708 0 0 1 .12.447c-.03.21-.274.28-2.164.616-1.171.208-2.268.405-2.438.438-.17.032-.369-.002-.444-.077zm-26.99-1.027c-.067-.126-.122-.28-.122-.344 0-.14 3.827-3.213 4.003-3.213.122 0 .493.452.493.6 0 .147-3.874 3.186-4.061 3.186-.104 0-.245-.103-.312-.229zm-19.753-2.15c-1.047-.91-1.903-1.724-1.903-1.809 0-.194.423-.582.574-.527.064.023.844.68 1.734 1.461s1.732 1.509 1.87 1.617c.225.178.234.228.09.497-.088.165-.228.325-.311.357-.083.032-1.008-.686-2.054-1.597zm17.633 1.476c-.137-.096-.25-.249-.25-.339 0-.198 3.046-3.846 3.211-3.846.241 0 .575.252.575.433 0 .191-2.907 3.759-3.151 3.868-.074.033-.247-.02-.385-.116zm17.352-.47c-.12-.263-.109-.333.071-.464.237-.173 4.375-1.594 4.643-1.594.206 0 .453.587.308.732-.127.127-4.47 1.634-4.708 1.634-.095 0-.237-.139-.314-.309zm-32.74-1.754c-.85-1.004-1.545-1.9-1.545-1.993 0-.092.106-.263.235-.38.202-.183.261-.19.433-.048.313.26 3.118 3.631 3.118 3.75 0 .143-.4.497-.564.497-.072 0-.826-.822-1.676-1.826zm25.129.59c-.106-.163-.173-.353-.15-.425.024-.07 1.001-.685 2.17-1.364l2.128-1.234.271.307c.203.23.238.347.142.463-.107.13-3.245 1.972-4.106 2.412-.226.116-.29.093-.455-.16zm-12.988-.214c-.203-.148-.169-.283.62-2.452.46-1.262.888-2.347.952-2.412.17-.17.716.11.712.366 0 .115-.365 1.194-.809 2.398-.845 2.295-.968 2.47-1.475 2.1zm2.402-.068-.267-.215 1.339-2.21c.736-1.216 1.395-2.208 1.466-2.206.278.008.571.343.509.582-.112.427-2.482 4.265-2.634 4.265-.08 0-.267-.097-.413-.216zm-9.91-.82a524.54 524.54 0 0 0-.85-2.313c-.784-2.128-.8-2.385-.14-2.307.273.033.368.225 1.1 2.225.44 1.204.803 2.276.806 2.383a.3.3 0 0 1-.182.266c-.387.149-.619.069-.734-.253zm34.753.01c-.09-.235-.081-.352.032-.455.198-.18 4.357-1.595 4.688-1.595.272 0 .493.522.301.711-.12.12-4.527 1.655-4.75 1.655-.083 0-.205-.142-.271-.316zm-36.835-.246c-.451-.702-2.203-3.923-2.203-4.05 0-.165.56-.51.694-.426.062.038.658 1.063 1.325 2.277l1.213 2.208-.268.218c-.37.3-.435.28-.76-.227zm5.915-.335c-.04-.103-.072-1.184-.072-2.403 0-2.406.061-2.673.598-2.597l.29.04.031 2.574.032 2.573h-.404c-.259 0-.43-.067-.475-.187zm14.559-.384c-.108-.119-.196-.273-.196-.343 0-.19 3.806-3.227 4.044-3.227.193 0 .452.323.452.563 0 .13-3.826 3.223-3.987 3.223-.065 0-.206-.097-.313-.216zm23.11-1.21c-.271-.505-.13-.593 2.295-1.432 2.508-.867 2.73-.886 2.653-.228-.033.285-.19.359-2.342 1.096-1.27.435-2.346.794-2.392.799-.047.004-.143-.101-.215-.235zm.002 33.004c.618-.137 1.48-.275 1.916-.308l.793-.06.036-2.5c.02-1.376.02-2.542 0-2.59-.021-.05-1.065-.09-2.322-.09-2.663 0-2.75.03-3.013 1.061-.086.335-.133.634-.104.663.03.029.335-.001.68-.066a9.374 9.374 0 0 1 1.43-.12c1.034 0 1.23.164 1.12.937-.1.713-.367 1.073-1.049 1.415-.457.23-.748.281-1.59.285-1.223.005-1.895-.237-2.47-.89-.514-.588-.69-1.174-.684-2.279.01-1.572.611-2.579 1.885-3.153.887-.4 2.516-.372 3.727.066 1.313.474 1.314.474 1.546-.285.11-.358.235-.816.279-1.017l.08-.367-1.16-.107a38.204 38.204 0 0 0-2.815-.106c-1.426 0-1.777.04-2.517.281-2.326.763-3.573 2.569-3.428 4.968.111 1.844.805 3.04 2.195 3.78 1.429.762 3.402.936 5.465.482z" transform="translate(614.086 105.426)"/></svg>