<svg width="1022.628" height="1022.462" viewBox="0 0 270.57 270.526" xmlns="http://www.w3.org/2000/svg"><path d="M157.13 393.545c-4.944-.868-10.11-2.664-20.979-7.293-7.048-3.001-12.799-5.006-16.404-5.718-1.78-.352-3.584-.466-7.144-.451-5.045.02-6.872.214-18.256 1.939-15.084 2.284-22.152 1.994-28.894-1.188-7.866-3.712-12.643-10.412-19.527-27.388-3.027-7.464-6.302-14.21-8.378-17.257-3.324-4.877-6.817-8.026-17.583-15.849-7.075-5.141-10.222-7.689-13.347-10.803-8.496-8.468-11.096-17.649-8.28-29.248 1.037-4.278 2.626-8.538 7.329-19.655 2.696-6.373 4.477-11.685 5.073-15.135.821-4.753.505-11.963-.924-21.037-.978-6.21-1.576-10.625-1.845-13.626-1.25-13.928 1.822-22.354 10.545-28.925 4.551-3.429 8.825-5.599 19.872-10.09 7.021-2.856 13.363-5.945 16.644-8.109 2.873-1.894 6.723-5.593 9.61-9.233 1.096-1.382 3.98-5.241 6.409-8.576 5.118-7.028 6.882-9.24 9.801-12.29 5.83-6.096 11.491-9.204 18.38-10.091 6.65-.857 14.201.939 26.997 6.422 14.82 6.35 18.378 7.36 25.93 7.361 4.634 0 8.242-.372 18.124-1.87 8.735-1.325 13.11-1.703 17.594-1.519 10.59.435 17.188 4.136 23.108 12.966 1.822 2.716 5.563 10.48 8.253 17.122 2.998 7.405 6.078 13.774 8.207 16.971 3.064 4.604 6.795 8.11 14.9 14.002 10.577 7.69 13.834 10.311 16.968 13.656 5.974 6.373 8.503 12.261 8.505 19.802.003 6.936-1.489 12.105-7.708 26.718-3.037 7.138-4.763 12.045-5.593 15.905-.45 2.094-.564 3.54-.57 7.246-.007 4.849.303 7.962 1.662 16.67 2.601 16.664 2.414 23.76-.807 30.65-1.401 2.996-2.95 5.09-5.668 7.663-4.392 4.158-9.64 7.049-21.966 12.101-8.183 3.354-13.376 5.85-16.801 8.077-4.47 2.905-9.083 7.96-15.763 17.275-10.641 14.837-16.456 20.036-25.115 22.457-2.422.677-9.368.873-12.358.348zm11.374-3.329c5.687-1.42 11.485-5.713 17.145-12.694 1.976-2.438 10.487-14.053 10.378-14.163-.044-.044-1.211.574-2.593 1.373-9.313 5.38-20.74 9.936-31.673 12.629-8.893 2.19-17.15 3.267-28.123 3.67l-1.72.064 3.704 1.568c9.047 3.831 11.32 4.742 14.552 5.832 3.006 1.015 7.236 1.993 10.187 2.356 1.746.215 6.1-.124 8.143-.635zm-80.242-10.403c5.747-.818 14.058-2.061 14.684-2.198.477-.104-.36-.426-2.998-1.152-7.464-2.054-13.993-4.583-21.608-8.37-11.18-5.56-19.916-11.569-29.223-20.1-1.884-1.727-3.352-2.963-3.26-2.746l2.85 6.876c5.944 14.349 9.282 19.854 14.379 23.717 2.821 2.139 6.871 3.746 11.153 4.425 1.515.24 11.391-.078 14.023-.452zm53.446-2.297c10.134-.85 19.16-2.709 28.84-5.936 9.864-3.29 18.538-7.497 27.251-13.22 7.173-4.71 12.657-9.186 18.799-15.343 9.67-9.692 16.506-19.198 22.567-31.375 6.283-12.623 10.119-25.485 11.837-39.688.583-4.818.798-17.132.387-22.169-2.334-28.647-13.922-54.196-33.728-74.362-6.297-6.412-12.056-11.163-19.479-16.07-35.53-23.486-80.437-26.29-118.52-7.4-9.642 4.782-17.396 9.976-25.532 17.1-21.368 18.715-35.547 44.859-39.52 72.871-.968 6.83-1.155 10.28-1.024 18.814.167 10.78.918 16.729 3.37 26.695 2.093 8.507 4.708 15.631 8.74 23.812 6.242 12.665 13.458 22.644 23.45 32.425 19.952 19.534 45.91 31.415 73.908 33.828 3.667.316 14.97.327 18.654.018zm-19.542-10.241-1.02-.106.16-1.371c.087-.755.398-4.05.69-7.325.746-8.369.553-7.673 2.132-7.673h1.314l-.14.992c-.078.546-.375 3.671-.66 6.946-.722 8.262-.784 8.738-1.144 8.686-.171-.024-.77-.091-1.332-.15zm18.613-.137c-.002-.182-.179-3.188-.393-6.68-.214-3.493-.392-6.567-.394-6.833-.004-.423-.174-.464-1.393-.338-.764.08-2.431.218-3.704.308l-2.316.163v-2.36l1.786-.16c.983-.088 3.177-.238 4.877-.333l3.09-.174.14.894c.26 1.673.978 15.329.818 15.587-.241.39-2.508.324-2.511-.074zm-31.55-1.84c-.561-.15-.991-.427-.991-.642 0-.208.714-3.228 1.587-6.712.873-3.484 1.588-6.443 1.588-6.576s-1.558-.63-3.462-1.103l-3.463-.86.176-.956c.096-.526.255-1.04.353-1.141.163-.17 9.19 1.965 9.462 2.237.192.192-3.772 15.913-4.026 15.966-.127.026-.677-.07-1.223-.214zm47.877-1.65c-3.28-1.17-5.474-4.32-5.537-7.953-.038-2.196.654-4.086 2.076-5.667 4.05-4.504 11.333-3.639 14.052 1.67.988 1.93 1.14 4.995.35 7.09-.713 1.887-2.983 4.092-4.922 4.78-1.565.555-4.575.595-6.02.08zm5.506-2.493c1.297-.59 2.609-2.036 3.046-3.36.429-1.3.195-3.711-.49-5.055-1.512-2.963-4.917-4.038-7.917-2.5-1.935.993-2.976 2.744-2.976 5.01 0 3.609 2.541 6.398 5.821 6.39.836-.002 1.907-.209 2.516-.485zm-72.432-1.907c-.546-.288-.992-.561-.992-.608 0-.047 1.31-2.926 2.91-6.397 1.601-3.47 2.821-6.395 2.712-6.498-.109-.104-1.565-.802-3.236-1.552-1.67-.75-3.074-1.401-3.12-1.447-.155-.155.831-2 1.07-2 .257 0 8.411 3.698 8.707 3.949.219.185-6.464 14.908-6.812 15.006-.136.039-.693-.165-1.24-.453zm88.9-3.988c-.546-.153-.992-.392-.992-.53 0-.212.717-1.777.927-2.023.037-.043.61.058 1.272.225 3.05.768 6.774-2.143 6.79-5.307.01-2.35-1.366-4.833-3.311-5.973-2.752-1.613-6.56-.407-8.071 2.556-.285.558-.518 1.205-.518 1.437 0 .338-.249.406-1.256.341-1.224-.078-1.255-.101-1.164-.868.163-1.383 1.12-3.02 2.48-4.243 2.003-1.8 3.35-2.326 6.026-2.352 1.947-.02 2.428.072 3.582.68 1.623.854 3.411 2.74 4.178 4.407.874 1.9.81 5.271-.134 7.069-.857 1.632-2.753 3.425-4.389 4.148-1.42.628-3.996.834-5.42.433zm-110.53-8.15c0-.29 3.664-16.913 3.838-17.413.082-.234.436-.115 1.186.397.942.643 1.053.825.927 1.524-.529 2.92-.74 2.48 2.204 4.596l2.652 1.907 1.338-.824c1.42-.874 1.838-.87 2.913.027.402.336.545.626.386.784-.275.276-15.15 9.253-15.331 9.253-.062 0-.113-.113-.113-.25zm6.152-6.102c1.273-.771 2.311-1.473 2.307-1.56-.007-.14-2.571-2.057-3.334-2.492-.198-.113-.532.759-.992 2.595-.381 1.522-.693 2.837-.693 2.922 0 .187-.156.271 2.712-1.465zm120.848-3.61c-2.983-3.276-5.459-6.052-5.502-6.168-.042-.116.434-.164 1.059-.106 1.534.142 12.886.89 13.503.89.688 0 .478-.294-2.475-3.476-1.4-1.508-2.874-3.134-3.277-3.615l-.733-.875.746-.779c.411-.429.826-.78.922-.78.096 0 2.712 2.769 5.812 6.152 4.265 4.656 5.514 6.168 5.133 6.219-.277.037-3.688-.144-7.581-.402-3.893-.258-7.078-.422-7.078-.364 0 .128 1.159 1.43 4.347 4.89 1.32 1.433 2.445 2.727 2.499 2.875.107.297-1.261 1.519-1.686 1.506-.146-.004-2.706-2.69-5.689-5.966zm-71.04 4.918c-19.917-2.048-38.314-10.925-52.132-25.155-6.624-6.821-11.213-13.314-15.213-21.526-2.064-4.239-2.564-5.443-4.002-9.641-4.57-13.344-5.716-27.398-3.377-41.424 1.379-8.27 4.716-18.002 8.73-25.458 19.886-36.941 63.423-53.594 102.77-39.31 11.976 4.348 22.369 11.124 31.628 20.62 9.206 9.443 15.436 19.79 19.529 32.433 8.718 26.932 3.35 55.95-14.53 78.55-2.643 3.34-9.248 9.96-12.682 12.712-11.637 9.325-25.741 15.474-40.613 17.706-4.232.635-15.933.922-20.108.493zm12.964-2.904c29.418-1.985 54.69-18.845 67.6-45.1 10.787-21.938 11.177-46.801 1.084-69.16-6.104-13.526-16.254-25.402-28.864-33.774-23.732-15.757-53.665-17.943-79.324-5.794-34.646 16.405-53.14 55.248-43.958 92.323 5.746 23.203 21.122 42.423 42.515 53.146 9.309 4.666 20.269 7.664 30.496 8.34 4.768.315 6.022.318 10.451.019zm-12.7-34.739c-1.78-.59-2.67-1.163-3.797-2.442a8.69 8.69 0 0 1-2.156-5.765c0-2.25.608-3.874 2.046-5.475 1.76-1.956 3.379-2.7 6.197-2.843 2.019-.103 2.458-.04 3.716.537 1.895.868 3.119 1.982 4.051 3.69.653 1.196.785 1.774.878 3.854.099 2.229.046 2.573-.59 3.874-.83 1.697-2.633 3.438-4.345 4.197-1.528.677-4.52.863-6 .373zm5.48-2.868c3.082-1.704 3.808-6.035 1.53-9.133-2.083-2.831-6.545-2.962-8.916-.261-1.401 1.596-1.718 3.515-.987 5.978.485 1.633 2.128 3.445 3.557 3.924 1.322.444 3.514.212 4.816-.508zm11.335-9.212c-1.212-4.375-2.157-7.998-2.1-8.051.27-.256 2.224-.647 2.382-.478.098.107.972 3.051 1.942 6.543l2.144 7.714c.21.75.38 1.421.38 1.492 0 .07-.424.208-.944.306-.52.097-1.093.234-1.273.303-.23.088-.987-2.25-2.531-7.829zm11.363 4.96c0-.326-.806-3.295-3.069-11.294-.635-2.245-1.09-4.148-1.01-4.228.16-.16 2.312-.827 2.381-.739.024.03.72 2.496 1.548 5.479a1361.25 1361.25 0 0 0 1.898 6.789l.392 1.365 2.833-.778c4.473-1.229 4.138-1.224 4.494-.063.17.554.224 1.08.118 1.168-.193.16-9.015 2.635-9.386 2.633-.11-.001-.199-.15-.199-.332zm-59.65-14.879c-1.189-4.088-3.85-13.933-3.85-14.243 0-.469 5.585-2.033 7.26-2.033 2.322 0 3.836 1.234 4.249 3.463.182.98-.384 2.817-.981 3.186-.17.105.158.309.75.468 1.934.521 3.01 2.112 3.009 4.45-.002 2.59-1.384 3.74-6.085 5.065a813.4 813.4 0 0 0-3.483.987c-.344.101-.536-.194-.87-1.343zm4.688-2.12c2.228-.595 3.104-1.344 3.104-2.651 0-1.744-.869-2.752-2.381-2.764-1.15-.01-4.366.879-4.366 1.205 0 .829 1.32 4.879 1.562 4.792.16-.058 1.096-.32 2.081-.583zm-.573-7.687c1.065-.551 1.346-1.783.721-3.155-.506-1.112-1.521-1.23-4.23-.491l-1.496.408.513 1.89c.282 1.04.561 2.03.62 2.2.121.348 2.612-.201 3.872-.852zm13.387 6.308c-.208-.35-4.462-15.733-4.37-15.806.128-.102 2.442-.656 2.489-.595.022.029.843 2.97 1.824 6.535.982 3.565 1.86 6.612 1.953 6.771.115.198 1.134.014 3.21-.578 1.674-.477 3.232-.875 3.462-.885.376-.015 1.186 1.774.923 2.037-.054.054-1.925.608-4.159 1.232a343.8 343.8 0 0 0-4.635 1.316c-.315.1-.629.088-.697-.027zm15.295-4.358c-.31-.847-4.372-15.645-4.307-15.694.197-.149 10.048-2.812 10.12-2.735.045.048.206.54.357 1.094.328 1.197.546 1.075-4.177 2.331-1.887.502-3.166.971-3.106 1.14.055.157.322 1.149.591 2.204.27 1.055.616 1.917.77 1.917.153-.001 1.53-.355 3.057-.787 1.528-.43 2.972-.787 3.21-.792.282-.005.52.349.693 1.027l.262 1.035-2.97.818c-1.634.45-3.1.817-3.257.817-.158 0-.347.095-.419.212-.236.382 1.068 4.415 1.451 4.487.203.038 2.006-.391 4.008-.954l3.639-1.022.306 1.021c.168.562.233 1.094.145 1.183-.09.089-2.162.722-4.607 1.408-2.445.685-4.713 1.334-5.042 1.442-.4.132-.638.082-.724-.152zm16.66-4.78c-.393-1.054-4.353-15.639-4.27-15.722.056-.056 3.001 1.622 6.546 3.728 3.545 2.107 6.478 3.797 6.518 3.757.04-.04-.521-2.225-1.248-4.854-.727-2.63-1.321-4.908-1.321-5.062 0-.279 2.028-1.017 2.22-.808.093.101 3.885 13.745 4.285 15.417.223.932.791 1.212-6.998-3.456-3.255-1.95-5.953-3.51-5.998-3.466-.065.066 2.059 7.862 2.65 9.722.133.42-.02.563-.843.792-1.28.355-1.392.352-1.542-.049zm17.498-12.44c-1.147-4.109-2.138-7.71-2.2-8.002-.102-.471.207-.62 2.748-1.323 3.918-1.083 6.038-1.082 8.166.007 2.73 1.397 4.354 4.255 4.354 7.665 0 4.258-2.312 6.73-7.673 8.202-1.382.38-2.692.743-2.91.807-.316.093-.83-1.429-2.485-7.355zm6.114 3.883c3.099-1.028 4.476-2.895 4.246-5.759-.156-1.94-1.162-4.11-2.273-4.9-1.44-1.026-2.865-1.224-5.147-.716-1.124.25-2.043.533-2.043.63 0 .264 2.947 10.738 3.086 10.967.182.3.733.242 2.13-.222zm-80.984-12.478c-.986-3.602-1.903-6.662-2.038-6.8-.156-.158-.979-.036-2.226.33-1.088.32-2.094.583-2.236.583-.326 0-.867-1.908-.608-2.145.169-.155 10.891-3.167 11.56-3.248.285-.035.846 1.867.619 2.094-.08.08-1.024.391-2.097.69-1.073.3-2.037.625-2.14.721-.105.097.639 3.15 1.652 6.787 1.013 3.635 1.842 6.68 1.843 6.767 0 .156-1.825.77-2.291.77-.136 0-1.053-2.948-2.038-6.55zm14.571 2.612c-2.142-7.558-4.156-14.938-4.156-15.228 0-.423-.048-.404 3.44-1.332 4.664-1.241 6.91-.706 8.29 1.975.643 1.252.73 1.672.617 3.004-.102 1.214-.306 1.766-.942 2.558l-.81 1.009 2.64 2.51c1.452 1.382 2.64 2.57 2.64 2.642 0 .072-.606.276-1.348.454l-1.349.324-1.495-1.425c-3.905-3.718-3.514-3.469-4.9-3.12-.68.172-1.298.412-1.374.535-.076.123.174 1.368.554 2.766.381 1.398.635 2.695.563 2.88-.071.187-.607.46-1.19.608-.897.228-1.077.204-1.18-.16zm2.477-8.926c2.799-.83 3.65-2.116 2.779-4.2-.543-1.298-1.102-1.704-2.36-1.715-1.335-.01-3.877.736-3.877 1.14 0 .267.735 3.12 1.22 4.739.171.57.425.574 2.238.036zm12.76-3.47c-1.522-5.517-2.08-7.917-1.869-8.048.4-.247 2.079-.556 2.225-.41.109.11 3.985 13.93 4.257 15.18.105.48-.041.62-.894.858-.56.155-1.138.282-1.284.281-.145 0-1.24-3.538-2.434-7.862zm11.434 4.889c-.063-.182-1.017-3.596-2.122-7.586-1.104-3.991-2.063-7.346-2.131-7.457-.192-.31.226-.485 3.135-1.316 4.3-1.23 6.385-.997 8.05.9 2.154 2.454 1.727 6.191-.897 7.855-.64.406-1.936.947-2.883 1.203-.946.256-1.77.547-1.832.647-.061.099.225 1.388.637 2.865l.748 2.685-.957.266c-1.259.35-1.612.337-1.748-.062zm2.596-8.67c1.199-.37 1.936-.781 2.409-1.343.748-.889.807-1.257.423-2.599-.404-1.406-1.246-2.139-2.46-2.139-1.322 0-3.897.741-3.897 1.122 0 .638 1.412 5.493 1.598 5.493.109 0 .976-.24 1.927-.534zm12.274-2.973c-1.134-4.11-2.126-7.724-2.204-8.031-.115-.448.005-.59.605-.721.412-.09 1-.236 1.308-.324.488-.14.598.002.873 1.119.369 1.498 2.842 10.429 3.219 11.622l.258.82 3.232-.886c1.778-.487 3.367-.886 3.533-.886.165 0 .42.473.567 1.05.226.89.2 1.07-.166 1.18-.935.279-9.032 2.533-9.096 2.532-.038 0-.996-3.365-2.13-7.475zm17.458 3.055c-.193-.323-4.447-15.748-4.36-15.814.188-.145 10.047-2.82 10.101-2.74.034.048.194.541.355 1.095.348 1.19.653 1.02-4.108 2.305-1.914.516-3.211.996-3.151 1.164.056.158.322 1.15.591 2.205.29 1.133.63 1.918.83 1.918.188 0 1.577-.357 3.088-.793 1.51-.437 2.917-.794 3.126-.794.218 0 .498.448.661 1.058l.282 1.058-1.087.283c-3.273.852-5.167 1.392-5.41 1.542-.399.247.792 4.37 1.288 4.459.214.038 2.025-.393 4.025-.958l3.638-1.027.307 1.027c.17.565.236 1.1.147 1.19-.089.088-2.162.721-4.606 1.407-2.445.685-4.703 1.331-5.019 1.435-.315.104-.63.095-.698-.02zM62.03 330.952c-1.46-.572-1.89-2.722-.768-3.844 1.458-1.458 3.849-.419 3.849 1.674 0 1.587-1.633 2.738-3.08 2.17zm-14.901-4.166c.005-.253.639-3.615 1.408-7.471.77-3.857 1.368-7.053 1.331-7.104-.038-.051-2.005 1.282-4.373 2.964-2.692 1.912-4.408 2.97-4.581 2.825-.153-.128-.483-.582-.734-1.01l-.457-.778 6.803-4.811c3.741-2.646 6.84-4.699 6.886-4.56.046.137-.522 3.323-1.261 7.079-.74 3.756-1.311 6.99-1.27 7.185.047.223 1.649-.749 4.295-2.606l4.22-2.963.74.887c.408.488.736.951.73 1.03-.006.078-1.585 1.235-3.506 2.57a992.302 992.302 0 0 0-6.868 4.826c-2.431 1.727-3.37 2.268-3.363 1.937zm165.751-7.402c-4.656-.956-8.509-1.772-8.56-1.814-.053-.042.245-.563.66-1.159.668-.955.85-1.065 1.55-.934 2.8.522 2.474.67 4.31-1.973.914-1.318 1.73-2.574 1.813-2.79.083-.217-.233-.992-.702-1.724l-.854-1.33.736-1.062c.405-.584.824-.968.93-.853.292.313 9.51 15.132 9.51 15.287 0 .252-.92.09-9.393-1.648zm3.719-3.108a489.603 489.603 0 0 1-1.61-2.531l-.682-1.08-.469.613c-.937 1.225-2.197 3.166-2.108 3.246.137.122 4.78 1.15 5.326 1.178.391.021.313-.22-.457-1.426zm6.34-13.407c-3.927-1.889-7.171-3.465-7.21-3.504-.137-.137.86-2.27 1.062-2.273.114-.002 3.527 1.562 7.586 3.473l7.38 3.476-.562 1.155c-.308.635-.686 1.143-.839 1.13-.153-.013-3.49-1.569-7.417-3.457zm-187.135.923c-.621-.22-1.764-.979-2.539-1.688-4.782-4.37-3.467-12.035 2.456-14.308 5.518-2.117 11.23 1.59 11.597 7.528.162 2.607-.58 4.562-2.43 6.413-2.301 2.3-6.016 3.141-9.084 2.055zm4.936-2.59c1.676-.592 2.855-1.639 3.63-3.222.579-1.183.677-1.669.55-2.738-.389-3.281-2.556-5.296-5.696-5.296-3.566 0-6.392 2.573-6.392 5.819 0 4.192 3.878 6.858 7.908 5.436zm190.374-8.457c-.954-.416-1.962-1.6-1.962-2.305 0-.649-.06-.632-1.049.291-1.002.937-2.348 1.245-3.673.84-2.402-.732-3.48-2.11-3.48-4.451 0-.987 1.635-7.62 1.959-7.951.087-.088 15.561 4.396 15.72 4.556.242.241-1.635 6.55-2.195 7.38-1.235 1.833-3.367 2.49-5.32 1.64zm2.999-2.676c.517-.362 1.654-3.257 1.654-4.211 0-.35-3.919-1.607-4.183-1.342-.226.226-1.1 3.1-1.105 3.632-.016 1.813 2.152 2.959 3.634 1.92zm-6.723-1.46c.475-.374.9-1.206 1.366-2.682.371-1.177.642-2.168.602-2.203-.292-.25-4.87-1.385-4.995-1.239-.308.358-1.032 3.406-1.032 4.346 0 1.91 2.5 3.005 4.059 1.779zm-197.936-9.158c-1.626-.576-3.836-2.698-4.563-4.382-.709-1.641-.97-4.393-.559-5.908.16-.591.667-1.643 1.127-2.338l.837-1.263.937.937c.882.882.912.966.5 1.421-2.112 2.334-1.364 6.65 1.45 8.366 2.2 1.343 5.168 1.184 7.31-.39 2.811-2.068 2.89-6.595.157-9.099-.941-.862-.942-.863-.542-1.82.224-.535.588-.958.824-.958.232 0 .995.572 1.695 1.272 1.688 1.689 2.407 3.589 2.407 6.368 0 1.781-.114 2.291-.823 3.712-.984 1.969-2.799 3.527-4.799 4.12-1.694.504-4.477.486-5.958-.038zm199.719-7.123c-.64-.54-.814-.895-.814-1.67 0-2.518 3.194-3.277 4.311-1.025.43.866.438 1.047.089 1.883-.678 1.622-2.211 1.969-3.586.812zm1.388-12.132c-2.513-.785-4.44-2.606-5.371-5.074-.769-2.038-.666-5.2.224-6.926 1.396-2.707 3.785-4.351 6.817-4.694 6.074-.688 10.755 5.128 8.969 11.142-1.274 4.29-6.296 6.91-10.639 5.552zm5.474-3.135c4.15-2.194 4.15-8.078.003-10.176-1.422-.72-4.016-.806-5.505-.184-4.553 1.902-4.667 8.17-.19 10.527 1.266.666 4.285.578 5.693-.167zm-204.388-1.164c-4.363-.354-7.983-.695-8.047-.758-.136-.137.478-9.303.669-9.974.095-.335.405-.463 1.128-.463.548 0 1.048.052 1.111.115.064.064-.027 1.82-.201 3.903-.175 2.083-.236 3.862-.138 3.952.1.09 1.148.234 2.33.32l2.15.155.17-1.907c.457-5.143.476-5.252.876-5.098.212.081.742.148 1.176.148.626 0 .762.096.657.463-.073.254-.213 1.843-.311 3.53l-.18 3.068 2.332.164c1.282.09 2.366.13 2.407.089.042-.042.216-1.883.387-4.092l.31-4.016h1.148c1.37 0 1.323-.38.75 5.953-.212 2.329-.387 4.442-.39 4.697-.003.254-.095.447-.204.428-.11-.019-3.768-.324-8.13-.677zm190.805-19.253-1.377-4.541c-.379-1.25-.631-2.424-.56-2.608.07-.183.405-.393.744-.465.656-.14 13.99-4.09 14.604-4.327.253-.097.457.235.674 1.099.172.68.258 1.292.191 1.359-.066.066-3.057.993-6.646 2.06-3.589 1.066-6.572 1.985-6.629 2.042-.057.057.306 1.467.806 3.134 1.09 3.633 1.105 3.853.288 4.058-.35.088-.81.226-1.023.308-.292.112-.553-.404-1.072-2.12zm-188.033-.412-7.72-2.193c-.39-.11-.406-.254-.128-1.196.174-.588.39-1.144.48-1.234.09-.09 3.17.679 6.847 1.708 3.676 1.03 6.714 1.839 6.751 1.8.037-.04.483-1.56.99-3.38l.924-3.307.852.043c.468.023.975.166 1.127.317.19.19-.104 1.658-.955 4.768-.677 2.47-1.23 4.56-1.23 4.644 0 .265-.53.133-7.938-1.97zm5.35-17.6-7.219-3.54.42-1.003c.23-.553.502-1.088.604-1.19.102-.103 2.388.89 5.08 2.207 4.605 2.253 7.623 3.667 7.827 3.667.05 0 .751-1.391 1.56-3.092.808-1.7 1.517-3.139 1.575-3.197.222-.223 2.022.821 1.947 1.13-.231.955-4.057 8.596-4.295 8.578-.155-.011-3.53-1.613-7.5-3.56zm179.71.967c-2.658-.687-5.233-3.072-6.084-5.633-.67-2.019-.441-5.31.48-6.881.881-1.505 2.558-3.026 4.132-3.751 1.731-.797 5.217-.795 6.951.003 5.157 2.373 6.644 9.685 2.778 13.662-2.09 2.151-5.654 3.273-8.257 2.6zm3.572-2.83c1-.297 1.76-.772 2.642-1.655 2.144-2.144 2.416-4.879.732-7.362-2.333-3.44-7.594-3.185-10.143.493-.592.854-.76 1.426-.833 2.823-.083 1.597-.013 1.88.787 3.207.69 1.145 1.184 1.61 2.314 2.183 1.648.835 2.532.896 4.501.31zM49.973 200.325c-2.431-4.32-4.382-7.893-4.335-7.94.196-.197 17.62 4.311 17.613 4.557-.004.147-.34.67-.747 1.16l-.74.892-1.54-.448c-1.78-.517-1.396-.767-3.928 2.564l-1.758 2.312.788 1.337c.434.736.789 1.41.789 1.5 0 .26-1.332 1.931-1.535 1.925-.102-.003-2.175-3.54-4.607-7.859zm4.791-1.039c.747-.968 1.327-1.785 1.289-1.817-.185-.15-5.558-1.475-5.642-1.39-.127.127 2.698 4.967 2.9 4.967.052 0 .706-.792 1.453-1.76zm150.31.454c-2.064-.627-4.105-2.545-4.886-4.592-.595-1.556-.446-3.467.374-4.792.328-.532 2.56-2.708 4.959-4.835l4.361-3.868.97.969.97.97-.707.59c-3.296 2.76-8.123 7.188-8.36 7.67-.847 1.724-.521 2.924 1.222 4.498 1.22 1.1 2.184 1.265 3.478.596.421-.218 2.642-2.064 4.934-4.102l4.168-3.706.874.846c.48.466.873.928.873 1.026 0 .098-2.053 1.984-4.564 4.19-3.698 3.25-4.811 4.085-5.868 4.4-1.427.424-1.804.443-2.798.14zM62.713 185.78l-5.367-6.264 1.435-1.296c2.64-2.384 4.418-3.576 5.768-3.865 2.137-.458 4.046.374 5.342 2.329.618.93.776 1.46.776 2.597 0 .785-.118 1.648-.263 1.917-.237.445.062.599 3.195 1.643 1.902.634 3.469 1.264 3.482 1.4.013.135-.403.591-.925 1.014l-.949.768-3.337-1.112-3.337-1.112-1.18.967-1.18.967 1.972 2.284c2.119 2.453 2.122 2.47.656 3.514l-.722.514zm3.756-3.329c.806-.768 1.548-1.725 1.649-2.126.36-1.434-1.343-3.617-2.822-3.62-.7 0-1.839.649-3.202 1.83l-1.206 1.043 1.78 2.114c.98 1.163 1.906 2.124 2.059 2.135.152.012.936-.607 1.742-1.376zm122.864 3.284c-2.431-1.108-4.034-3.242-4.289-5.71-.167-1.623-.101-1.672 1.742-1.303.748.15.827.259.827 1.151 0 2.613 3.684 4.905 5.09 3.168.782-.965.579-2.24-.745-4.668-1.613-2.96-1.81-4.552-.783-6.306.76-1.296 2.254-2.224 3.6-2.236 1.047-.009 3.44 1.339 4.298 2.422.769.97 1.43 3.31 1.043 3.694-.11.109-.706.13-1.325.046-1.036-.14-1.124-.214-1.124-.937 0-1.165-1.504-2.585-2.737-2.585-1.044 0-1.761.728-1.761 1.787 0 .336.62 1.828 1.377 3.315 1.719 3.375 1.846 4.797.591 6.596-1.384 1.984-3.585 2.578-5.804 1.566zm-107.818-4.763c0-.303-.906-9.823-1.407-14.785-.18-1.782-.244-3.241-.143-3.241.377 0 14.25 10.847 14.25 11.143 0 .123-.483.47-1.072.77l-1.072.547-1.279-.938c-.703-.516-1.368-.939-1.477-.939-.11 0-1.44.685-2.957 1.522l-2.758 1.521.082 1.71.082 1.709-1.125.625c-.618.344-1.124.505-1.124.356zm5.774-9.172c.047-.04-.959-.914-2.235-1.942-1.277-1.027-2.336-1.842-2.354-1.81-.036.064.582 5.848.634 5.931.03.047 3.748-2.001 3.955-2.179zm89.807 5.765c-.84-.417-.86-.468-.86-2.171v-1.744l-2.96-1.384-2.958-1.383-1.302 1.098-1.303 1.098-1.223-.595c-1.037-.504-1.16-.64-.806-.899.229-.167 3.305-2.864 6.835-5.993 3.53-3.129 6.541-5.734 6.69-5.788.176-.065.215.4.113 1.323-.087.782-.225 4.399-.308 8.037-.215 9.477-.168 9.273-1.918 8.401zm-.501-9.415c.1-1.712.07-2.83-.076-2.778-.134.048-1.165.916-2.29 1.93l-2.045 1.841 2.085.988c1.147.543 2.101.964 2.121.936.02-.028.112-1.34.205-2.917zm-17.473 1.825c-.608-.155-1.203-.378-1.323-.496-.119-.118-.693-1.665-1.275-3.44l-1.058-3.225-1.299-.32c-.714-.177-1.379-.272-1.477-.211-.098.06-.466 1.365-.818 2.9-.352 1.534-.759 2.79-.904 2.789-.707-.004-2.249-.588-2.249-.852 0-.263.625-2.912 3.072-13.017.35-1.444.671-2.661.715-2.706.202-.201 6.004 1.367 7.11 1.923 1.731.869 2.66 2.168 2.805 3.927.21 2.52-.819 4.4-2.904 5.306-.627.274-1.183.526-1.234.56-.052.036.405 1.56 1.014 3.388.61 1.829 1.068 3.422 1.02 3.54-.049.12-.586.09-1.195-.066zm-.016-10.24c.285-.383.577-1.217.649-1.852.169-1.507-.625-2.416-2.609-2.987-2.696-.776-2.654-.793-3.147 1.303-.927 3.934-.945 3.722.338 4.036.62.153 1.831.26 2.69.237 1.354-.034 1.628-.132 2.079-.737zm-61.548 7.69c-.947-.745-.991-2.523-.085-3.375 1.44-1.353 3.886-.3 3.886 1.674 0 1.95-2.221 2.944-3.801 1.7zm14.733.057c-2.047-.707-3.612-2.127-4.635-4.207-.773-1.57-.872-2.017-.862-3.895.018-3.507 1.655-6.12 4.751-7.588 1.347-.638 1.92-.752 3.78-.752 1.794 0 2.42.116 3.455.64 1.915.97 2.07 1.27 1.177 2.27l-.746.834-1.187-.678c-2.489-1.422-5.916-.675-7.526 1.642-.65.935-.807 1.462-.894 2.99-.16 2.831.971 5.075 3.118 6.185 2.542 1.315 6.001.338 7.687-2.17l.396-.591 1.143.52 1.142.519-.48.828c-1.812 3.118-6.626 4.73-10.32 3.453zm20.588-1.294-2.48-.088.162-4.024c.09-2.214.237-5.94.329-8.282l.166-4.258 4.003.102c2.201.056 4.538.128 5.193.16l1.19.058.082 1.121.082 1.121h-7.9l-.187 2.14c-.102 1.178-.134 2.193-.071 2.256.063.064 1.68.19 3.592.282l3.477.166v.732c0 1.582-.003 1.583-3.69 1.397l-3.37-.171-.165 2.34c-.09 1.288-.108 2.399-.039 2.468.07.07 1.941.195 4.158.278 2.99.112 4.025.236 4.006.481a53.65 53.65 0 0 0-.067 1.125l-.04.794-2.976-.055a393.61 393.61 0 0 1-5.455-.143zm93.23 176.277c8.156-3.358 11.391-4.855 14.727-6.819 7.026-4.134 10.991-8.994 12.68-15.537.73-2.83.983-9.427.529-13.805-.304-2.93-2.271-16.635-2.576-17.945-.116-.496-.345.059-.915 2.218-.953 3.606-2.705 8.863-4.33 12.995-1.536 3.902-6.44 13.925-8.479 17.33-3.957 6.608-9.19 13.786-13.715 18.81a4001.43 4001.43 0 0 1-3.785 4.197c-.85.94-1.425 1.636-1.28 1.548.146-.089 3.361-1.435 7.145-2.992zM27.744 321.63c-.88-1.351-2.89-5.044-4.535-8.33-7.849-15.676-12.166-32.67-12.816-50.45l-.182-5.002-2.886 6.855C.906 279.95-.487 285.833.656 292.856c1.022 6.283 5.265 12.533 12.527 18.454 2.921 2.382 14.38 10.864 14.718 10.894.126.012.055-.247-.158-.574zm229.28-67.147c5.523-12.972 6.807-16.864 7.59-23.01.77-6.05-.84-12.133-4.517-17.066-3.158-4.235-7.594-8.196-15.995-14.28-2.765-2.003-5.473-3.99-6.019-4.417-.546-.426-.992-.708-.992-.627 0 .08.665 1.298 1.477 2.706 9.808 16.988 15.427 36.647 16.151 56.507.1 2.73.216 4.93.26 4.886.042-.042.962-2.157 2.044-4.699zm-242.51-27.442c3.085-12.043 9.804-26.651 17.19-37.372 3.635-5.278 8.036-10.73 12.264-15.197 1.369-1.446 2.31-2.56 2.092-2.477-1.925.741-13.162 5.446-15.346 6.426-8.198 3.675-13.823 8.002-16.676 12.824-1.281 2.166-2.503 5.814-2.922 8.722-.48 3.336-.154 11.565.666 16.822a766.1 766.1 0 0 1 1.253 8.4c.326 2.292.658 4.167.74 4.167.08 0 .413-1.041.739-2.315zm203.948-56.84a843.049 843.049 0 0 1-3.08-7.387c-4.14-10.043-7.175-15.33-10.939-19.062-3.34-3.312-5.992-4.827-10.443-5.965-4.786-1.225-10.493-1.173-19.75.178-10.175 1.485-12.68 1.901-12.303 2.045.218.083 1.549.457 2.957.83 15.019 3.99 31.198 12.207 43.683 22.186 3.116 2.491 8.443 7.165 9.83 8.624.425.449.812.777.859.73.046-.046-.32-1.027-.814-2.18zM73.577 151.57c16.477-9.081 35.777-14.41 54.318-15 2.88-.091 5.142-.249 5.027-.35-.554-.486-15.213-6.426-18.527-7.508-13.296-4.339-21.956-2.48-30.804 6.613-3.454 3.55-5.612 6.216-10.148 12.539-1.723 2.4-3.41 4.702-3.748 5.113-.95 1.154-.737 1.306.641.46a99.458 99.458 0 0 1 3.241-1.867z" style="fill:#000;stroke-width:.26458332" transform="translate(2.752 -123.318)"/></svg>